<svg width="831" height="151" viewBox="0 0 831 151" fill="none" xmlns="http://www.w3.org/2000/svg">
<path d="M352 99H0C0 99 30.0649 63.4165 79.8335 75.7915C79.8335 75.7915 75.0431 0 153.273 0C201.545 0 217.954 23.2085 230.136 49.5C230.136 49.5 245.678 26.2915 280.794 34.042C315.931 41.771 318.38 78.896 318.38 78.896C318.38 78.896 344.197 69.6254 351.978 99H352Z" fill="url(#paint0_linear_1028_288)" fill-opacity="0.97"/>
<path d="M565 150.978H382C382 150.978 397.64 132.288 423.498 138.794C423.498 138.794 421.011 99 461.68 99C486.776 99 495.313 111.184 501.655 125C501.655 125 509.721 112.816 527.983 116.885C546.245 120.954 547.522 140.448 547.522 140.448C547.522 140.448 560.944 135.574 565 151V150.978Z" fill="url(#paint1_linear_1028_288)" fill-opacity="0.97"/>
<path d="M831 66.9763H648C648 66.9763 663.64 47.2085 689.498 54.0894C689.498 54.0894 687.011 12 727.68 12C752.776 12 761.313 24.8869 767.655 39.5C767.655 39.5 775.721 26.6131 793.983 30.9166C812.245 35.2201 813.522 55.8392 813.522 55.8392C813.522 55.8392 826.944 50.6844 831 67V66.9763Z" fill="url(#paint2_linear_1028_288)" fill-opacity="0.97"/>
<defs>
<linearGradient id="paint0_linear_1028_288" x1="0" y1="49.4999" x2="352" y2="49.4999" gradientUnits="userSpaceOnUse">
<stop stop-color="#F2F8FF" stop-opacity="0.25"/>
<stop offset="1" stop-color="white" stop-opacity="0.05"/>
</linearGradient>
<linearGradient id="paint1_linear_1028_288" x1="382" y1="125" x2="565" y2="125" gradientUnits="userSpaceOnUse">
<stop stop-color="#F2F8FF" stop-opacity="0.25"/>
<stop offset="1" stop-color="white" stop-opacity="0.05"/>
</linearGradient>
<linearGradient id="paint2_linear_1028_288" x1="648" y1="39.5" x2="831" y2="39.5" gradientUnits="userSpaceOnUse">
<stop stop-color="#F2F8FF" stop-opacity="0.25"/>
<stop offset="1" stop-color="white" stop-opacity="0.05"/>
</linearGradient>
</defs>
</svg>
