<svg width="1920" height="210" viewBox="0 0 1920 210" fill="none" xmlns="http://www.w3.org/2000/svg">
<g opacity="0.55">
<path d="M0 58H1920V210H0V58Z" fill="url(#paint0_linear_1021_296)"/>
<path d="M951 58H3C3 58 64.9285 24.8135 144.568 41.4134C224.208 58 297.614 3.88317 415.484 17.1016C533.355 30.3201 536.74 57.6258 654.157 41.4134C771.573 25.2011 950.959 58 950.959 58H951Z" fill="#87C3FF"/>
<path d="M1007 58H1920C1920 58 1860.36 13.2368 1783.66 35.6274C1706.96 58 1636.26 -14.9948 1522.74 2.83476C1409.23 20.6643 1405.97 57.4952 1292.88 35.6274C1179.8 13.7596 1007.04 58 1007.04 58H1007Z" fill="#87C3FF"/>
</g>
<defs>
<linearGradient id="paint0_linear_1021_296" x1="809.846" y1="210" x2="809.846" y2="58" gradientUnits="userSpaceOnUse">
<stop stop-color="#83C1FF" stop-opacity="0"/>
<stop offset="1" stop-color="#83C1FF"/>
</linearGradient>
</defs>
</svg>
