<svg width="98" height="80" viewBox="0 0 98 80" fill="none" xmlns="http://www.w3.org/2000/svg">
<g clip-path="url(#clip0_784_327)">
<path d="M55.5464 17.3396V9.71961C55.5464 5.50961 52.1364 2.09961 47.9264 2.09961H32.6864C28.4764 2.09961 25.0664 5.50961 25.0664 9.71961V17.3396" stroke="#495DA9" stroke-width="3.09" stroke-linejoin="round"/>
<path d="M70.7765 17.3398H9.80652C5.59652 17.3398 2.18652 20.7498 2.18652 24.9598V63.0698C2.18652 67.2798 5.59652 70.6898 9.80652 70.6898H70.7765C74.9865 70.6898 78.3965 67.2798 78.3965 63.0698V24.9598C78.3965 20.7498 74.9865 17.3398 70.7765 17.3398Z" fill="#5776D3" stroke="#495DA9" stroke-width="3" stroke-linejoin="round"/>
<path d="M70.7765 17.3398H9.80652C5.59652 17.3398 2.18652 20.7498 2.18652 24.9598V44.0098C25.2965 59.2698 55.2865 59.2698 78.3965 44.0098V24.9598C78.3965 20.7498 74.9865 17.3398 70.7765 17.3398Z" fill="#E4F0FB" stroke="#495DA9" stroke-width="3.09" stroke-linejoin="round"/>
<path d="M40.306 45.3894C42.176 45.3894 43.696 43.8694 43.696 41.9994C43.696 40.1294 42.176 38.6094 40.306 38.6094C38.436 38.6094 36.916 40.1294 36.916 41.9994C36.916 43.8694 38.436 45.3894 40.306 45.3894Z" fill="#495DA9"/>
<path d="M78.3867 78.0898C88.3267 78.0898 96.3867 70.0298 96.3867 60.0898C96.3867 50.1498 88.3267 42.0898 78.3867 42.0898C68.4467 42.0898 60.3867 50.1498 60.3867 60.0898C60.3867 70.0298 68.4467 78.0898 78.3867 78.0898Z" fill="url(#paint0_linear_784_327)" stroke="#495DA9" stroke-width="2.73" stroke-linejoin="round"/>
<path d="M78.3867 51.4297V68.7497V51.4297Z" fill="url(#paint1_linear_784_327)"/>
<path d="M78.3867 51.4297V68.7497" stroke="#495DA9" stroke-width="2.73" stroke-linecap="round" stroke-linejoin="round"/>
<path d="M69.7168 60.0898H87.0368H69.7168Z" fill="url(#paint2_linear_784_327)"/>
<path d="M69.7168 60.0898H87.0368" stroke="#495DA9" stroke-width="2.73" stroke-linecap="round" stroke-linejoin="round"/>
</g>
<defs>
<linearGradient id="paint0_linear_784_327" x1="60.3867" y1="60.0898" x2="96.3867" y2="60.0898" gradientUnits="userSpaceOnUse">
<stop stop-color="#909FD1"/>
<stop offset="1" stop-color="#57C1AD"/>
</linearGradient>
<linearGradient id="paint1_linear_784_327" x1="nan" y1="nan" x2="nan" y2="nan" gradientUnits="userSpaceOnUse">
<stop stop-color="#909FD1"/>
<stop offset="1" stop-color="#57C1AD"/>
</linearGradient>
<linearGradient id="paint2_linear_784_327" x1="nan" y1="nan" x2="nan" y2="nan" gradientUnits="userSpaceOnUse">
<stop stop-color="#909FD1"/>
<stop offset="1" stop-color="#57C1AD"/>
</linearGradient>
<clipPath id="clip0_784_327">
<rect width="97.11" height="78.9" fill="white" transform="translate(0.646484 0.549805)"/>
</clipPath>
</defs>
</svg>
