<svg width="78" height="92" viewBox="0 0 78 92" fill="none" xmlns="http://www.w3.org/2000/svg">
<path d="M69.9807 10.8047H7.7207V73.1747H69.9807V10.8047Z" fill="#495DA9" stroke="#495DA9" stroke-width="3" stroke-linejoin="round"/>
<path d="M76.1508 17.4648H1.55078V68.2148H76.1508V17.4648Z" fill="#E4F0FB" stroke="#495DA9" stroke-width="3.09" stroke-linejoin="round"/>
<path d="M76.451 17.3848H1.79102" stroke="#495DA9" stroke-width="4"/>
<path d="M76.1508 1.83496H1.55078V17.465H76.1508V1.83496Z" fill="#5776D3" stroke="#495DA9" stroke-width="3" stroke-linejoin="round"/>
<path d="M11.3299 13.0744C13.2499 13.0744 14.7699 11.5344 14.7699 9.65438C14.7699 7.77438 13.2399 6.23438 11.3299 6.23438C9.4199 6.23438 7.91992 7.76438 7.91992 9.65438C7.91992 11.5444 9.4499 13.0744 11.3299 13.0744Z" fill="#E4F0FB"/>
<path d="M23.66 13.0744C25.58 13.0744 27.1 11.5344 27.1 9.65438C27.1 7.77438 25.57 6.23438 23.66 6.23438C21.75 6.23438 20.25 7.76438 20.25 9.65438C20.25 11.5444 21.78 13.0744 23.66 13.0744Z" fill="#E4F0FB"/>
<path d="M68.9899 64.4143C67.0299 64.4143 65.4199 65.8343 65.0999 67.7043C65.0799 67.7043 65.0499 67.6943 65.0299 67.6843V66.3943C65.0299 64.2043 63.2599 62.4343 61.0699 62.4343C59.0799 62.4343 57.4499 63.9043 57.1699 65.8143H57.1099V64.4143C57.1099 62.2243 55.3399 60.4543 53.1499 60.4543C50.9599 60.4543 49.1899 62.2243 49.1899 64.4143V49.8643C49.1899 47.6743 47.4199 45.9043 45.2299 45.9043C43.0399 45.9043 41.2699 47.6743 41.2699 49.8643V73.7043L41.0399 74.0843L39.7699 72.8143C38.2599 71.4443 35.9599 71.4343 34.4499 72.8143C32.8299 74.2843 32.6999 76.7843 34.1599 78.4043L41.2899 85.5343C44.2399 88.4643 47.6099 90.1643 53.1499 90.1643H57.1099C65.8599 90.1643 72.9499 83.0743 72.9499 74.3143V68.3743C72.9499 66.1843 71.1799 64.4143 68.9899 64.4143Z" fill="url(#paint0_linear_984_2087)" stroke="#495DA9" stroke-width="2.73" stroke-linejoin="round"/>
<path d="M72.9513 74.3242C72.9513 83.0742 65.8613 90.1642 57.1113 90.1642" stroke="#495DA9" stroke-width="3.09" stroke-linecap="round" stroke-linejoin="round"/>
<path d="M65.0313 68.3755V66.3955C65.0313 64.2055 63.2613 62.4355 61.0713 62.4355C58.8813 62.4355 57.1113 64.2055 57.1113 66.3955" stroke="#495DA9" stroke-width="3.09" stroke-linecap="round" stroke-linejoin="round"/>
<path d="M57.1095 66.3951V64.4151C57.1095 62.2251 55.3395 60.4551 53.1495 60.4551C50.9595 60.4551 49.1895 62.2251 49.1895 64.4151V66.3951" stroke="#495DA9" stroke-width="3.09" stroke-linecap="round" stroke-linejoin="round"/>
<path d="M49.1895 65.4043V49.8643C49.1895 47.6743 47.4196 45.9043 45.2296 45.9043C43.0396 45.9043 41.2695 47.6743 41.2695 49.8643V74.3143" stroke="#495DA9" stroke-width="3.09" stroke-linecap="round" stroke-linejoin="round"/>
<path d="M65.0296 68.375C65.0296 66.185 66.7996 64.415 68.9896 64.415C71.1796 64.415 72.9495 66.185 72.9495 68.375V74.315C72.9495 83.065 65.8596 90.155 57.1096 90.155H53.1495C47.5995 90.155 44.2396 88.455 41.2896 85.525L34.1596 78.395C32.6896 76.775 32.8195 74.265 34.4495 72.805C35.9595 71.435 38.2595 71.445 39.7695 72.805L43.2595 76.295" stroke="#495DA9" stroke-width="3.09" stroke-linecap="round" stroke-linejoin="round"/>
<path d="M30.4609 31.5645L37.241 38.3445" stroke="#495DA9" stroke-width="3" stroke-linecap="round" stroke-linejoin="round"/>
<path d="M60.3913 31.5645L53.6113 38.3445" stroke="#495DA9" stroke-width="3" stroke-linecap="round" stroke-linejoin="round"/>
<path d="M45.4199 25.4746V35.0546" stroke="#495DA9" stroke-width="3" stroke-linecap="round" stroke-linejoin="round"/>
<defs>
<linearGradient id="paint0_linear_984_2087" x1="33.1299" y1="68.0343" x2="72.9499" y2="68.0343" gradientUnits="userSpaceOnUse">
<stop stop-color="#909FD1"/>
<stop offset="1" stop-color="#57C1AD"/>
</linearGradient>
</defs>
</svg>
