<svg width="79" height="94" viewBox="0 0 79 94" fill="none" xmlns="http://www.w3.org/2000/svg">
<path d="M76.5312 87.267L19.5312 87.2666V92.2662L76.5312 92.2666V87.267Z" fill="#495DA9" stroke="#495DA9" stroke-width="3" stroke-linecap="round" stroke-linejoin="round"/>
<path d="M76.5882 6.19824H10.8906V87.7166H76.5882V6.19824Z" fill="#E2F1FF" stroke="#495DA9" stroke-width="3" stroke-linecap="round" stroke-linejoin="round"/>
<path d="M43.8619 81.6727C56.7844 81.6727 65.2678 78.4751 65.2678 65.6847V1.73242H1.81445V81.6727H43.8619Z" fill="#E2F1FF" stroke="#495DA9" stroke-width="3" stroke-linecap="round" stroke-linejoin="round"/>
<path d="M54.6636 70.5349C54.6636 70.5349 51.7042 80.9095 44.873 81.6734C57.2777 81.2545 65.2679 77.6813 65.2679 65.8281C65.2679 74.5763 54.6636 70.5595 54.6636 70.5595V70.5349Z" fill="#5776D3" stroke="#495DA9" stroke-width="3" stroke-linecap="round" stroke-linejoin="round"/>
<path d="M24.7995 46.5156H12.9727V55.8027H24.7995V46.5156Z" fill="#5776D3" stroke="#495DA9" stroke-width="3" stroke-linecap="round" stroke-linejoin="round"/>
<path d="M19.4404 55.8029L54.1079 55.8027" stroke="#495DA9" stroke-width="3" stroke-linecap="round"/>
<path d="M48.4547 23.7578H36.6279V55.803H48.4547V23.7578Z" fill="url(#paint0_linear_774_1054)" stroke="#495DA9" stroke-width="3" stroke-linecap="round" stroke-linejoin="round"/>
<path d="M36.6276 37.0625H24.8008V55.8029H36.6276V37.0625Z" fill="url(#paint1_linear_774_1054)" stroke="#495DA9" stroke-width="3" stroke-linecap="round" stroke-linejoin="round"/>
<defs>
<linearGradient id="paint0_linear_774_1054" x1="42.5413" y1="23.7578" x2="42.5413" y2="55.803" gradientUnits="userSpaceOnUse">
<stop stop-color="#8BA3FE"/>
<stop offset="1" stop-color="#4DC8B0"/>
</linearGradient>
<linearGradient id="paint1_linear_774_1054" x1="30.7142" y1="37.0625" x2="30.7142" y2="55.8029" gradientUnits="userSpaceOnUse">
<stop stop-color="#8BA3FE"/>
<stop offset="1" stop-color="#4DC8B0"/>
</linearGradient>
</defs>
</svg>
