<svg width="98" height="80" viewBox="0 0 98 80" fill="none" xmlns="http://www.w3.org/2000/svg">
<g clip-path="url(#clip0_774_1021)">
<path d="M55.5864 17.5603V9.94031C55.5864 5.73031 52.1764 2.32031 47.9664 2.32031H32.7264C28.5164 2.32031 25.1064 5.73031 25.1064 9.94031V17.5603" stroke="#495DA9" stroke-width="3.09" stroke-linejoin="round"/>
<path d="M70.8263 17.5605H9.85633C5.64792 17.5605 2.23633 20.9721 2.23633 25.1805V63.2905C2.23633 67.499 5.64792 70.9105 9.85633 70.9105H70.8263C75.0347 70.9105 78.4463 67.499 78.4463 63.2905V25.1805C78.4463 20.9721 75.0347 17.5605 70.8263 17.5605Z" fill="#5776D3" stroke="#495DA9" stroke-width="3" stroke-linejoin="round"/>
<path d="M70.8263 17.5605H9.85633C5.64633 17.5605 2.23633 20.9705 2.23633 25.1805V44.2305C25.3463 59.4905 55.3363 59.4905 78.4463 44.2305V25.1805C78.4463 20.9705 75.0363 17.5605 70.8263 17.5605Z" fill="#E2F1FF" stroke="#495DA9" stroke-width="3.09" stroke-linejoin="round"/>
<path d="M40.3461 45.6101C42.2183 45.6101 43.7361 44.0923 43.7361 42.2201C43.7361 40.3478 42.2183 38.8301 40.3461 38.8301C38.4738 38.8301 36.9561 40.3478 36.9561 42.2201C36.9561 44.0923 38.4738 45.6101 40.3461 45.6101Z" fill="#495DA9"/>
<path d="M78.7863 77.8607C88.4789 77.8607 96.3363 70.0033 96.3363 60.3107C96.3363 50.6181 88.4789 42.7607 78.7863 42.7607C69.0937 42.7607 61.2363 50.6181 61.2363 60.3107C61.2363 70.0033 69.0937 77.8607 78.7863 77.8607Z" fill="url(#paint0_linear_774_1021)" stroke="#495DA9" stroke-width="2.73" stroke-linejoin="round"/>
<path d="M78.7866 42.7607C69.4266 52.5907 69.4266 68.0307 78.7866 77.8607C88.1466 68.0307 88.1466 52.5907 78.7866 42.7607Z" stroke="#495DA9" stroke-width="2.73" stroke-linejoin="round"/>
<path d="M61.2461 60.3105H96.3461H61.2461Z" fill="white"/>
<path d="M61.2461 60.3105H96.3461" stroke="#495DA9" stroke-width="2.73" stroke-linejoin="round"/>
</g>
<defs>
<linearGradient id="paint0_linear_774_1021" x1="78.7863" y1="42.7607" x2="78.7863" y2="77.8607" gradientUnits="userSpaceOnUse">
<stop stop-color="#8BA3FE"/>
<stop offset="1" stop-color="#4DC8B0"/>
</linearGradient>
<clipPath id="clip0_774_1021">
<rect width="97.01" height="78.44" fill="white" transform="translate(0.696289 0.780273)"/>
</clipPath>
</defs>
</svg>
