<svg width="113" height="99" viewBox="0 0 113 99" fill="none" xmlns="http://www.w3.org/2000/svg">
<path d="M88.3787 65.1906V36.3945H67.0877H47.1761H25.8851L25.8848 67.2022L32.0307 70.329L37.8934 76.7247L39.6259 83.856C45.3564 87.1283 51.978 89.0852 57.6221 89.0852C70.8187 89.0852 88.3787 78.3873 88.3787 65.1906Z" fill="#E2F1FF"/>
<path d="M25.8848 67.2022L25.8851 36.3945H47.1761H67.0878H88.3787V65.1906C88.3787 78.3873 70.8187 89.0852 57.6221 89.0852C51.978 89.0852 45.3564 87.1283 39.6259 83.856" stroke="#495DA9" stroke-width="3"/>
<path d="M76.3317 70.6216C71.8139 76.2378 64.4726 79.2081 57.6216 79.2081C55.6732 79.2081 53.6084 78.9749 51.5039 78.5349" stroke="#5776D3" stroke-width="3" stroke-linecap="round"/>
<path d="M56.0019 50.2608L89.3203 46.3304V35.5781L56.0019 50.2608Z" fill="#495DA9"/>
<path d="M2.9538 27.6193L3.09427 27.5554L54.2451 5.60544C55.3159 5.14604 56.8145 5.11712 57.9388 5.51909L58.1586 5.6059L109.309 27.5554C110.859 28.221 110.859 29.4802 109.309 30.1458L58.1586 52.0953C57.0163 52.5855 55.3874 52.5858 54.2451 52.0957L3.09427 30.1458C1.59174 29.5009 1.54485 28.2988 2.9538 27.6193Z" fill="#5776D3" stroke="#495DA9" stroke-width="3"/>
<path d="M76.7988 26.6479L97.0904 34.7647V57.0856" stroke="#495DA9" stroke-width="3" stroke-linecap="round" stroke-linejoin="round"/>
<path d="M25.8848 97.4683C35.9694 97.4683 44.1446 89.2931 44.1446 79.2085C44.1446 69.1239 35.9694 60.9487 25.8848 60.9487C15.8002 60.9487 7.625 69.1239 7.625 79.2085C7.625 89.2931 15.8002 97.4683 25.8848 97.4683Z" fill="url(#paint0_linear_774_979)" stroke="#495DA9" stroke-width="3" stroke-linecap="round" stroke-linejoin="round"/>
<path d="M18.9494 76.663C17.9786 79.4395 18.5964 82.6506 20.8162 84.8704C23.8983 87.9525 28.8947 87.9525 31.9767 84.8704C35.0588 81.7884 35.0588 76.792 31.9767 73.7099C30.0788 71.812 27.4549 71.0828 24.9991 71.5224" stroke="#495DA9" stroke-width="3" stroke-miterlimit="10" stroke-linecap="round"/>
<path d="M15.9728 78.5315L18.7584 75.0958L21.289 78.5314" stroke="#495DA9" stroke-width="3" stroke-miterlimit="10" stroke-linecap="round"/>
<defs>
<linearGradient id="paint0_linear_774_979" x1="25.8848" y1="60.9487" x2="25.8848" y2="97.4683" gradientUnits="userSpaceOnUse">
<stop stop-color="#8BA3FE"/>
<stop offset="1" stop-color="#4DC8B0"/>
</linearGradient>
</defs>
</svg>
