<svg width="88" height="78" viewBox="0 0 88 78" fill="none" xmlns="http://www.w3.org/2000/svg">
<g clip-path="url(#clip0_785_399)">
<path d="M78.6559 17.7949H2.33594V69.7049H78.6459V17.7949H78.6559Z" fill="#E4F0FB" stroke="#495DA9" stroke-width="3.09" stroke-linejoin="round"/>
<path d="M73.4357 76.1951H7.55566V69.7051H73.4457V76.1951H73.4357Z" fill="#495DA9" stroke="#495DA9" stroke-width="3" stroke-linejoin="round"/>
<path d="M78.9462 17.7148H2.57617" stroke="#495DA9" stroke-width="4"/>
<path d="M78.6559 1.80469H2.33594V17.7947H78.6459V1.80469H78.6559Z" fill="#5776D3" stroke="#495DA9" stroke-width="3" stroke-linejoin="round"/>
<path d="M12.3357 13.3047C14.2957 13.3047 15.8557 11.7347 15.8557 9.80469C15.8557 7.87469 14.2957 6.30469 12.3357 6.30469C10.3757 6.30469 8.8457 7.86469 8.8457 9.80469C8.8457 11.7447 10.4057 13.3047 12.3357 13.3047Z" fill="#E4F0FB"/>
<path d="M24.9558 13.3047C26.9158 13.3047 28.4758 11.7347 28.4758 9.80469C28.4758 7.87469 26.9158 6.30469 24.9558 6.30469C22.9958 6.30469 21.4658 7.86469 21.4658 9.80469C21.4658 11.7447 23.0258 13.3047 24.9558 13.3047Z" fill="#E4F0FB"/>
<path d="M11.8457 28.0352H28.2557" stroke="#495DA9" stroke-width="3" stroke-linecap="round"/>
<path d="M11.8467 39.1348H20.5967" stroke="#495DA9" stroke-width="3" stroke-linecap="round"/>
<path d="M11.8467 50.2344H20.5967" stroke="#495DA9" stroke-width="3" stroke-linecap="round"/>
<path d="M41.0159 34.1647L44.9059 30.0947L86.1059 73.2947L85.0959 74.3547C83.5059 76.0147 80.9259 76.0147 79.3359 74.3547L41.0059 34.1547H41.0159V34.1647Z" fill="#5C74B8" stroke="#495DA9" stroke-width="3" stroke-linejoin="round"/>
<path d="M53.9459 61.6047C63.9659 61.6047 72.0959 53.4847 72.0959 43.4547C72.0959 33.4247 63.9659 25.3047 53.9459 25.3047C43.9259 25.3047 35.7959 33.4247 35.7959 43.4547C35.7959 53.4847 43.9259 61.6047 53.9459 61.6047Z" fill="url(#paint0_linear_785_399)" stroke="#495DA9" stroke-width="3" stroke-linecap="round" stroke-linejoin="round"/>
<path d="M53.9459 37.1748L55.5059 41.9748H60.5559L56.4759 44.9448L58.0359 49.7448L53.9459 46.7748L49.8659 49.7448L51.4259 44.9448L47.3359 41.9748H52.3859L53.9459 37.1748Z" fill="#495DA9" stroke="#495DA9" stroke-width="3" stroke-linejoin="round"/>
</g>
<defs>
<linearGradient id="paint0_linear_785_399" x1="35.8059" y1="43.4547" x2="72.0959" y2="43.4547" gradientUnits="userSpaceOnUse">
<stop stop-color="#909FD1"/>
<stop offset="1" stop-color="#57C1AD"/>
</linearGradient>
<clipPath id="clip0_785_399">
<rect width="86.81" height="77.39" fill="white" transform="translate(0.795898 0.304688)"/>
</clipPath>
</defs>
</svg>
