<svg width="111" height="102" viewBox="0 0 111 102" fill="none" xmlns="http://www.w3.org/2000/svg">
<path d="M34.541 72.374H42.471V97.334L63.611 72.374H64.931" fill="#5C74B8"/>
<path d="M34.541 72.374H42.471V97.334L63.611 72.374H64.931" fill="#495DA9"/>
<path d="M34.541 72.374H42.471V97.334L63.611 72.374H64.931" stroke="#495DA9" stroke-width="3" stroke-linecap="round" stroke-linejoin="round"/>
<path d="M98.0398 53.7549V25.6349C98.0398 20.0449 93.4998 15.5049 87.9098 15.5049H27.1398C21.5398 15.5049 17.0098 20.0349 17.0098 25.6349V62.2449C17.0098 67.8349 21.5398 72.3749 27.1398 72.3749H35.0698V96.1749L56.2098 72.3749H57.5298" fill="#E8E8E8"/>
<path d="M98.0398 56.9249V25.6349C98.0398 20.0449 93.4998 15.5049 87.9098 15.5049H27.1398C21.5398 15.5049 17.0098 20.0349 17.0098 25.6349V62.2449C17.0098 67.8349 21.5398 72.3749 27.1398 72.3749H35.0698V96.1749L56.2098 72.3749H57.5298" fill="#E4F0FB"/>
<path d="M98.0398 56.9249V25.6349C98.0398 20.0449 93.4998 15.5049 87.9098 15.5049H27.1398C21.5398 15.5049 17.0098 20.0349 17.0098 25.6349V62.2449C17.0098 67.8349 21.5398 72.3749 27.1398 72.3749H35.0698V96.1749L56.2098 72.3749H57.5298" stroke="#495DA9" stroke-width="3" stroke-linecap="round" stroke-linejoin="round"/>
<path d="M80.5399 86.5038L93.7499 99.7138V86.5038H94.9099C100.5 86.5038 105.04 81.9738 105.04 76.3738V64.0138C105.04 58.4238 100.51 53.8838 94.9099 53.8838H66.5499C60.9599 53.8838 56.4199 58.4138 56.4199 64.0138V76.3738C56.4199 81.9638 60.9599 86.5038 66.5499 86.5038H80.5399Z" fill="#5776D3" stroke="#495DA9" stroke-width="3" stroke-linecap="round" stroke-linejoin="round"/>
<path d="M69.39 73.2644C70.848 73.2644 72.03 72.0824 72.03 70.6244C72.03 69.1663 70.848 67.9844 69.39 67.9844C67.932 67.9844 66.75 69.1663 66.75 70.6244C66.75 72.0824 67.932 73.2644 69.39 73.2644Z" fill="#E4F0FB"/>
<path d="M80.7298 73.2644C82.1879 73.2644 83.3698 72.0824 83.3698 70.6244C83.3698 69.1663 82.1879 67.9844 80.7298 67.9844C79.2718 67.9844 78.0898 69.1663 78.0898 70.6244C78.0898 72.0824 79.2718 73.2644 80.7298 73.2644Z" fill="#E4F0FB"/>
<path d="M92.0599 73.2644C93.518 73.2644 94.6999 72.0824 94.6999 70.6244C94.6999 69.1663 93.518 67.9844 92.0599 67.9844C90.6019 67.9844 89.4199 69.1663 89.4199 70.6244C89.4199 72.0824 90.6019 73.2644 92.0599 73.2644Z" fill="#E4F0FB"/>
<path d="M45.541 31.7139H82.961H45.541Z" fill="#E4F0FB"/>
<path d="M45.541 31.7139H82.961" stroke="#495DA9" stroke-width="3" stroke-linecap="round" stroke-linejoin="round"/>
<path d="M34.5 43.8643H82.95H34.5Z" fill="#E4F0FB"/>
<path d="M34.5 43.8643H82.95" stroke="#495DA9" stroke-width="3" stroke-linecap="round" stroke-linejoin="round"/>
<path d="M34.5 56.0244H47.81H34.5Z" fill="#E4F0FB"/>
<path d="M34.5 56.0244H47.81" stroke="#495DA9" stroke-width="3" stroke-linecap="round" stroke-linejoin="round"/>
<path d="M19.8349 38.2745C29.7806 38.2745 37.8398 30.2154 37.8398 20.2793C37.8398 10.3433 29.771 2.28418 19.8349 2.28418C9.89888 2.28418 1.83008 10.3433 1.83008 20.289C1.83008 30.2347 9.8892 38.2842 19.8349 38.2842V38.2745Z" fill="url(#paint0_linear_984_2049)" stroke="#495DA9" stroke-width="3" stroke-linejoin="round"/>
<path d="M13.3242 18.355C13.3242 14.7656 16.246 11.8535 19.8354 11.8535C23.4247 11.8535 26.3465 14.7656 26.3465 18.355C26.3465 21.9444 23.4344 24.8565 19.8354 24.8565C16.2363 24.8565 13.3242 21.9444 13.3242 18.355Z" fill="#E4F0FB" stroke="#495DA9" stroke-width="3" stroke-linejoin="round"/>
<path d="M8.50586 34.2883C11.5921 36.7747 15.5104 38.2743 19.7964 38.2743C24.0823 38.2743 28.049 36.7553 31.1546 34.2302C29.4325 29.2864 25.0208 25.7744 19.8544 25.7744C14.6881 25.7744 10.228 29.3154 8.52521 34.2786H8.51553L8.50586 34.2883Z" fill="#E4F0FB" stroke="#495DA9" stroke-width="3" stroke-linejoin="round"/>
<defs>
<linearGradient id="paint0_linear_984_2049" x1="19.8349" y1="2.28418" x2="19.8349" y2="38.2842" gradientUnits="userSpaceOnUse">
<stop stop-color="#909FD1"/>
<stop offset="1" stop-color="#57C1AD"/>
</linearGradient>
</defs>
</svg>
