<svg width="108" height="108" viewBox="0 0 108 108" fill="none" xmlns="http://www.w3.org/2000/svg">
<path d="M54.0008 94.4605C76.6169 94.4605 94.9508 76.1266 94.9508 53.5105C94.9508 30.8945 76.6169 12.5605 54.0008 12.5605C31.3847 12.5605 13.0508 30.8945 13.0508 53.5105C13.0508 76.1266 31.3847 94.4605 54.0008 94.4605Z" fill="#E4F0FB" stroke="#495DA9" stroke-width="3" stroke-linejoin="round"/>
<path d="M94.4714 65.5307C100.839 65.5307 106.001 60.3685 106.001 54.0007C106.001 47.6329 100.839 42.4707 94.4714 42.4707C88.1035 42.4707 82.9414 47.6329 82.9414 54.0007C82.9414 60.3685 88.1035 65.5307 94.4714 65.5307Z" fill="#5776D3" stroke="#495DA9" stroke-width="3" stroke-linecap="round" stroke-linejoin="round"/>
<path d="M13.53 65.5307C19.8978 65.5307 25.06 60.3685 25.06 54.0007C25.06 47.6329 19.8978 42.4707 13.53 42.4707C7.16216 42.4707 2 47.6329 2 54.0007C2 60.3685 7.16216 65.5307 13.53 65.5307Z" fill="#5776D3" stroke="#495DA9" stroke-width="3" stroke-linecap="round" stroke-linejoin="round"/>
<path d="M54.0007 25.06C60.3685 25.06 65.5307 19.8978 65.5307 13.53C65.5307 7.16216 60.3685 2 54.0007 2C47.6329 2 42.4707 7.16216 42.4707 13.53C42.4707 19.8978 47.6329 25.06 54.0007 25.06Z" fill="#5776D3" stroke="#495DA9" stroke-width="3" stroke-linecap="round" stroke-linejoin="round"/>
<path d="M54.0007 106C60.3685 106 65.5307 100.838 65.5307 94.4704C65.5307 88.1026 60.3685 82.9404 54.0007 82.9404C47.6329 82.9404 42.4707 88.1026 42.4707 94.4704C42.4707 100.838 47.6329 106 54.0007 106Z" fill="#5776D3" stroke="#495DA9" stroke-width="3" stroke-linecap="round" stroke-linejoin="round"/>
<path d="M54 71.4502C63.95 71.4502 72 63.3902 72 53.4502C72 43.5102 63.93 35.4502 54 35.4502C44.07 35.4502 36 43.5102 36 53.4502C36 63.3902 44.06 71.4502 54 71.4502Z" fill="url(#paint0_linear_984_2077)" stroke="#495DA9" stroke-width="3" stroke-linejoin="round"/>
<path d="M47.4902 51.5195C47.4902 47.9295 50.4102 45.0195 54.0002 45.0195C57.5902 45.0195 60.5103 47.9295 60.5103 51.5195C60.5103 55.1095 57.5902 58.0195 54.0002 58.0195C50.4102 58.0195 47.4902 55.1095 47.4902 51.5195Z" fill="#E4F0FB" stroke="#495DA9" stroke-width="3" stroke-linejoin="round"/>
<path d="M42.6699 67.4609C45.7599 69.9509 49.68 71.4509 53.96 71.4509C58.24 71.4509 62.2199 69.9309 65.3199 67.4109C63.5899 62.4709 59.1799 58.9609 54.0099 58.9609C48.8399 58.9609 44.3799 62.5009 42.6799 67.4709L42.6699 67.4609Z" fill="#E4F0FB" stroke="#495DA9" stroke-width="3" stroke-linejoin="round"/>
<defs>
<linearGradient id="paint0_linear_984_2077" x1="54" y1="35.4502" x2="54" y2="71.4502" gradientUnits="userSpaceOnUse">
<stop stop-color="#909FD1"/>
<stop offset="1" stop-color="#57C1AD"/>
</linearGradient>
</defs>
</svg>
