<svg width="537" height="63" viewBox="0 0 537 63" fill="none" xmlns="http://www.w3.org/2000/svg">
<g clip-path="url(#clip0_1776_8054)">
<path d="M536.526 56.1783C536.526 59.4348 533.838 62.1138 530.571 62.1138C527.304 62.1138 524.535 59.4348 524.535 56.1783C524.535 52.9218 527.223 50.1626 530.571 50.1626C533.919 50.1626 536.526 52.8415 536.526 56.1783ZM532.052 42.7672H529.042C527.416 42.7672 526.193 41.548 526.112 39.9278L525.131 7.28255C525.131 5.66232 526.434 4.28271 528.06 4.28271H533.034C534.659 4.28271 535.963 5.66232 535.963 7.28255L534.981 39.9278C534.901 41.548 533.677 42.7672 532.052 42.7672Z" fill="white"/>
<path d="M39.5145 18.5931C39.5145 29.9829 31.8692 35.1965 19.7492 35.1965H14.2445V48.2385C14.2445 48.5754 13.9709 48.8642 13.6168 48.8642H3.02596C1.36812 48.8642 0 47.4846 0 45.7841V1.38014C0 1.07535 0.241433 0.834717 0.547248 0.834717H19.7492C33.0441 0.834717 39.5145 7.90919 39.5145 18.6091V18.5931ZM25.1251 18.5931C25.1251 15.7858 23.3385 13.7164 19.7492 13.7164H14.2445V23.534H19.7492C23.1293 23.534 25.1251 21.6892 25.1251 18.5931Z" fill="white"/>
<path d="M76.6335 27.1115V48.8643H66.6543C65.3506 48.8643 64.24 47.7735 64.24 46.3939V30.1274C64.24 27.3842 62.3085 25.3309 59.2826 25.3309C56.2566 25.3309 54.3251 27.3842 54.3251 30.1274V48.8643H41.8672V0.818848H54.3251V17.7751C56.1117 15.3047 59.0089 13.2513 63.8215 13.2513C74.7665 13.2513 76.6335 22.0423 76.6335 27.1115Z" fill="white"/>
<path d="M113.935 14.0689C115.238 14.0689 116.349 15.1597 116.349 16.5393V46.3933C116.349 47.7729 115.255 48.8638 113.935 48.8638H103.955V46.0564C101.96 48.3183 99.0624 49.6979 94.7971 49.6979C83.9809 49.6979 78.6211 40.5701 78.6211 31.5064C78.6211 22.4427 83.997 13.2507 94.7971 13.2507C99.0624 13.2507 101.96 14.6945 103.955 16.8922V14.0849H113.935V14.0689ZM102.925 34.9233C105.018 29.437 102.024 25.2501 97.3402 25.2501C93.4773 25.2501 91.079 27.8649 91.079 31.4904C91.079 35.9821 94.8937 38.9499 100.608 37.1211C101.541 36.8163 102.587 35.8377 102.925 34.9233Z" fill="white"/>
<path d="M139.406 13.4429C140.581 13.2344 141.676 14.0686 141.676 15.2236V24.56C141.676 25.6508 140.775 26.485 139.745 26.4208C132.164 26.1481 131.278 30.6078 131.278 35.7572V48.8634H118.82V14.0686H131.278V19.4907C133.145 16.3305 136.171 14.1327 139.406 13.459V13.4429Z" fill="white"/>
<path d="M197.309 27.1111V46.3935C197.309 47.7731 196.215 48.8639 194.895 48.8639H184.916V29.5174C184.916 26.8384 183.258 25.3305 180.86 25.3305C178.461 25.3305 176.868 26.8384 176.868 29.5174V48.8639H164.41V29.5174C164.41 26.8384 162.833 25.3305 160.418 25.3305C158.004 25.3305 156.362 26.8384 156.362 29.5174V48.8639H146.383C145.079 48.8639 143.969 47.7731 143.969 46.3935V16.5395C143.969 15.1599 145.063 14.069 146.383 14.069H156.362V16.8764C158.149 14.823 160.837 13.2349 164.973 13.2349C169.931 13.2349 172.892 15.2241 174.55 17.8389C176.755 15.3043 179.991 13.2349 184.884 13.2349C195.41 13.2349 197.342 22.0258 197.342 27.0951L197.309 27.1111Z" fill="white"/>
<path d="M236.559 1.38014V13.187C236.559 13.4918 236.317 13.7324 236.011 13.7324H225.276V45.7841C225.276 47.5006 223.891 48.8642 222.25 48.8642H211.643C211.305 48.8642 211.031 48.5915 211.031 48.2546V13.7164H200.36C200.054 13.7164 199.812 13.4757 199.812 13.1709V1.38014C199.812 1.07535 200.054 0.834717 200.36 0.834717H236.027C236.333 0.834717 236.575 1.07535 236.575 1.38014H236.559Z" fill="white"/>
<path d="M267.392 32.4535C267.392 33.7529 266.297 34.8598 264.977 34.8598H243.087C244.117 38.2286 246.741 40.1376 250.797 40.1376C253.211 40.1376 255.127 39.175 256.366 38.1484C256.913 37.6029 257.75 37.6029 258.426 37.9398L263.867 41.1642C264.832 41.7899 265.042 43.0893 264.349 43.9716C261.533 47.3404 256.575 49.6664 250.781 49.6664C239.015 49.6664 231.016 42.3193 231.016 31.4749C231.016 21.2562 238.725 13.2192 249.461 13.2192C259.167 13.2192 267.778 19.9408 267.359 32.4374L267.392 32.4535ZM255.964 28.1382C255.207 24.8496 253.066 22.7802 249.493 22.7802C246.258 22.7802 244.053 24.978 243.087 28.1382H255.964Z" fill="white"/>
<path d="M293.403 36.0302C293.95 35.4046 294.851 35.3404 295.608 35.7575L303.189 40.4257C304.154 40.9711 304.364 42.2705 303.672 43.1047C300.372 47.2275 295.141 49.6979 288.944 49.6979C277.999 49.6979 270.145 42.078 270.145 31.5064C270.145 20.9348 277.999 13.2507 288.944 13.2507C295.141 13.2507 300.372 15.7212 303.672 19.844C304.364 20.6621 304.154 21.9775 303.189 22.523L295.608 27.1911C294.851 27.6082 293.95 27.528 293.403 26.9826C292.228 25.8918 290.715 25.2661 288.928 25.2661C285.355 25.2661 282.667 27.6724 282.667 31.5064C282.667 35.3404 285.355 37.6825 288.928 37.6825C290.715 37.6825 292.228 37.0569 293.403 36.0302Z" fill="white"/>
<path d="M341.259 27.1115V48.8643H331.279C329.976 48.8643 328.865 47.7735 328.865 46.3939V30.1274C328.865 27.3842 326.934 25.3309 323.908 25.3309C320.882 25.3309 318.95 27.3842 318.95 30.1274V48.8643H306.492V0.818848H318.95V17.7751C320.737 15.3047 323.634 13.2513 328.446 13.2513C339.391 13.2513 341.259 22.0423 341.259 27.1115Z" fill="white"/>
<path d="M374.306 38.0194C374.306 45.3666 368.801 49.6819 358.532 49.6819C352.335 49.6819 346.074 48.0296 343.66 43.5058C343.177 42.4791 343.66 41.2438 344.754 40.8909L352.19 38.629C353.011 38.3563 353.848 38.629 354.331 39.2547C354.959 40.2172 356.198 41.0353 358.387 41.0353C360.801 41.0353 361.96 39.9445 361.96 38.5007C361.96 36.3671 358.999 36.2388 354.943 35.3404C348.199 33.8967 343.998 31.4904 343.998 24.6405C343.998 17.3735 350.806 13.2507 359.562 13.2507C364.793 13.2507 370.233 15.3843 372.567 19.9081C373.05 20.9348 372.503 22.17 371.328 22.523L364.922 24.0309C364.165 24.2394 363.345 23.9667 362.926 23.3411C362.298 22.3786 361.204 21.769 359.626 21.769C357.421 21.769 356.053 22.7315 356.053 24.3838C356.053 26.5174 359.144 26.7901 361.976 27.3355C370.716 29.1964 374.306 31.6668 374.306 38.0355V38.0194Z" fill="white"/>
<path d="M427.937 24.8331C427.937 39.0302 417.604 49.7462 403.15 49.7462C388.697 49.7462 378.363 39.0462 378.363 24.8331C378.363 10.62 388.697 0.000244141 403.15 0.000244141C417.604 0.000244141 427.937 10.7002 427.937 24.8331Z" fill="#5FB54A"/>
<path d="M465.387 27.1109V48.8638H455.408C454.104 48.8638 452.994 47.7729 452.994 46.3933V30.1268C452.994 27.3836 451.062 25.3303 448.036 25.3303C445.01 25.3303 443.079 27.3836 443.079 30.1268V48.8638H430.621V14.0689H443.079V17.7745C444.866 15.3041 447.763 13.2507 452.575 13.2507C463.52 13.2507 465.387 22.0417 465.387 27.1109Z" fill="#5FB54A"/>
<path d="M471.789 0.818848H481.769V48.8483H471.789C470.486 48.8483 469.375 47.7575 469.375 46.3778V3.2893C469.375 1.9097 470.469 0.818848 471.789 0.818848Z" fill="#5FB54A"/>
<path d="M511.796 14.0693H520.053C521.357 14.0693 522.258 15.3687 521.776 16.604C518.878 23.8068 510.621 44.4687 508.899 48.8482C506.758 54.2062 503.668 62.0988 495.266 62.0988C494.027 62.0988 492.643 61.9544 491.403 61.7619C490.502 61.5534 489.89 60.7994 489.89 59.9171V53.1314C489.89 52.1688 490.711 51.3507 491.741 51.3507C494.429 51.4149 496.361 50.1155 497.455 46.8269C496.972 45.5917 487.814 24.1116 484.643 16.636C484.16 15.465 484.981 14.1014 486.365 14.1014H494.494C495.797 14.1014 496.908 14.9196 497.391 16.1548L503.105 32.2127L508.883 16.1548C509.302 14.9196 510.46 14.1014 511.78 14.1014L511.796 14.0693Z" fill="#5FB54A"/>
<path d="M409.57 18.4482L409.667 31.1533C409.699 34.7146 406.818 37.6343 403.229 37.6503C399.655 37.6824 396.726 34.8109 396.71 31.2335V31.9073L396.613 18.5284C396.613 14.9671 399.51 12.0635 403.084 12.0635C406.625 12.0635 409.522 14.9029 409.57 18.4321V18.4482Z" fill="#495DA9" stroke="#495DA9" stroke-width="3.10491" stroke-linejoin="round"/>
<path d="M409.57 18.449L409.618 24.8176L396.662 24.9138L396.613 18.5452C396.613 14.9839 399.51 12.0803 403.084 12.0803C406.625 12.0803 409.522 14.9197 409.57 18.449Z" fill="white" stroke="#495DA9" stroke-width="1.83811" stroke-miterlimit="10"/>
</g>
<defs>
<clipPath id="clip0_1776_8054">
<rect width="536.528" height="62.0982" fill="white"/>
</clipPath>
</defs>
</svg>
