<svg width="831" height="151" viewBox="0 0 831 151" fill="none" xmlns="http://www.w3.org/2000/svg">
<path d="M479 99H831C831 99 800.935 63.4165 751.166 75.7915C751.166 75.7915 755.957 0 677.727 0C629.455 0 613.046 23.2085 600.864 49.5C600.864 49.5 585.322 26.2915 550.206 34.042C515.069 41.771 512.62 78.896 512.62 78.896C512.62 78.896 486.803 69.6254 479.022 99H479Z" fill="url(#paint0_linear_774_559)"/>
<path d="M266 150.978H449C449 150.978 433.36 132.288 407.502 138.794C407.502 138.794 409.989 99 369.32 99C344.224 99 335.687 111.184 329.345 125C329.345 125 321.279 112.816 303.017 116.885C284.755 120.954 283.478 140.448 283.478 140.448C283.478 140.448 270.056 135.574 266 151V150.978Z" fill="url(#paint1_linear_774_559)"/>
<path d="M0 66.9763H183C183 66.9763 167.36 47.2085 141.502 54.0894C141.502 54.0894 143.989 12 103.32 12C78.2237 12 69.6865 24.8869 63.3453 39.5C63.3453 39.5 55.2787 26.6131 37.0168 30.9166C18.7549 35.2201 17.4777 55.8392 17.4777 55.8392C17.4777 55.8392 4.05571 50.6844 0 67V66.9763Z" fill="url(#paint2_linear_774_559)"/>
<defs>
<linearGradient id="paint0_linear_774_559" x1="479" y1="49.5" x2="831" y2="49.5" gradientUnits="userSpaceOnUse">
<stop stop-color="#CCDFF2" stop-opacity="0.5"/>
<stop offset="1" stop-color="#EAF0F9" stop-opacity="0.3"/>
</linearGradient>
<linearGradient id="paint1_linear_774_559" x1="266" y1="124.978" x2="449" y2="124.978" gradientUnits="userSpaceOnUse">
<stop stop-color="#CCDFF2" stop-opacity="0.5"/>
<stop offset="1" stop-color="#EAF0F9" stop-opacity="0.3"/>
</linearGradient>
<linearGradient id="paint2_linear_774_559" x1="0" y1="39.5" x2="183" y2="39.5" gradientUnits="userSpaceOnUse">
<stop stop-color="#CCDFF2" stop-opacity="0.5"/>
<stop offset="1" stop-color="#EAF0F9" stop-opacity="0.3"/>
</linearGradient>
</defs>
</svg>
