<svg width="1920" height="212" viewBox="0 0 1920 212" fill="none" xmlns="http://www.w3.org/2000/svg">
<g opacity="0.55">
<path opacity="0.67" d="M-3 58H1923V212H-3V58Z" fill="url(#paint0_linear_774_760)"/>
<path d="M985 58H-3.00006C-3.00006 58 61.5414 24.8135 144.542 41.4134C227.542 58 304.045 3.88317 426.889 17.1016C549.733 30.3201 553.261 57.6258 675.631 41.4134C798.002 25.2011 984.957 58 984.957 58H985Z" fill="#9CB0D5" fill-opacity="0.86"/>
<path d="M1054 58H2042C2042 58 1977.46 13.2368 1894.46 35.6274C1811.46 58 1734.95 -14.9948 1612.11 2.83476C1489.27 20.6643 1485.74 57.4952 1363.37 35.6274C1241 13.7596 1054.04 58 1054.04 58H1054Z" fill="#9CB0D5" fill-opacity="0.86"/>
</g>
<defs>
<linearGradient id="paint0_linear_774_760" x1="809.377" y1="212" x2="809.377" y2="58" gradientUnits="userSpaceOnUse">
<stop stop-color="white"/>
<stop offset="1" stop-color="#6D89C0"/>
</linearGradient>
</defs>
</svg>
