<svg width="1920" height="212" viewBox="0 0 1920 212" fill="none" xmlns="http://www.w3.org/2000/svg">
<g opacity="0.55">
<path opacity="0.67" d="M1923 58H-3V212H1923V58Z" fill="url(#paint0_linear_774_564)"/>
<path d="M935 58H1923C1923 58 1858.46 24.8135 1775.46 41.4134C1692.46 58 1615.95 3.88317 1493.11 17.1016C1370.27 30.3201 1366.74 57.6258 1244.37 41.4134C1122 25.2011 935.043 58 935.043 58H935Z" fill="#9CB0D5" fill-opacity="0.86"/>
<path d="M866 58H-122C-122 58 -57.4586 13.2368 25.5417 35.6274C108.542 58 185.045 -14.9948 307.889 2.83476C430.733 20.6643 434.261 57.4952 556.631 35.6274C679.002 13.7596 865.957 58 865.957 58H866Z" fill="#9CB0D5" fill-opacity="0.86"/>
</g>
<defs>
<linearGradient id="paint0_linear_774_564" x1="1110.62" y1="212" x2="1110.62" y2="58" gradientUnits="userSpaceOnUse">
<stop stop-color="white"/>
<stop offset="1" stop-color="#6D89C0"/>
</linearGradient>
</defs>
</svg>
