<svg width="1920" height="210" viewBox="0 0 1920 210" fill="none" xmlns="http://www.w3.org/2000/svg">
<g opacity="0.55">
<path d="M1920 58H0V210H1920V58Z" fill="url(#paint0_linear_1021_324)"/>
<path d="M969 58H1917C1917 58 1855.07 24.8135 1775.43 41.4134C1695.79 58 1622.39 3.88317 1504.52 17.1016C1386.65 30.3201 1383.26 57.6258 1265.84 41.4134C1148.43 25.2011 969.041 58 969.041 58H969Z" fill="#87C3FF"/>
<path d="M913 58H0C0 58 59.642 13.2368 136.342 35.6274C213.041 58 283.737 -14.9948 397.256 2.83476C510.774 20.6643 514.035 57.4952 627.116 35.6274C740.197 13.7596 912.96 58 912.96 58H913Z" fill="#87C3FF"/>
</g>
<defs>
<linearGradient id="paint0_linear_1021_324" x1="1110.15" y1="210" x2="1110.15" y2="58" gradientUnits="userSpaceOnUse">
<stop stop-color="#83C1FF" stop-opacity="0"/>
<stop offset="1" stop-color="#83C1FF"/>
</linearGradient>
</defs>
</svg>
