<svg width="832" height="151" viewBox="0 0 832 151" fill="none" xmlns="http://www.w3.org/2000/svg">
<path d="M352.201 99H0.201172C0.201172 99 30.2661 63.4165 80.0347 75.7915C80.0347 75.7915 75.2443 0 153.474 0C201.747 0 218.156 23.2085 230.338 49.5C230.338 49.5 245.879 26.2915 280.995 34.042C316.132 41.771 318.581 78.896 318.581 78.896C318.581 78.896 344.398 69.6254 352.179 99H352.201Z" fill="url(#paint0_linear_933_297)"/>
<path d="M565.201 150.978H382.201C382.201 150.978 397.841 132.288 423.699 138.794C423.699 138.794 421.212 99 461.881 99C486.977 99 495.515 111.184 501.856 125C501.856 125 509.922 112.816 528.184 116.885C546.446 120.954 547.724 140.448 547.724 140.448C547.724 140.448 561.145 135.574 565.201 151V150.978Z" fill="url(#paint1_linear_933_297)"/>
<path d="M831.201 66.9763H648.201C648.201 66.9763 663.841 47.2085 689.699 54.0894C689.699 54.0894 687.212 12 727.881 12C752.977 12 761.515 24.8869 767.856 39.5C767.856 39.5 775.922 26.6131 794.184 30.9166C812.446 35.2201 813.724 55.8392 813.724 55.8392C813.724 55.8392 827.145 50.6844 831.201 67V66.9763Z" fill="url(#paint2_linear_933_297)"/>
<defs>
<linearGradient id="paint0_linear_933_297" x1="352.201" y1="49.5" x2="0.201172" y2="49.5" gradientUnits="userSpaceOnUse">
<stop stop-color="#CCDFF2" stop-opacity="0.5"/>
<stop offset="1" stop-color="#EAF0F9" stop-opacity="0.3"/>
</linearGradient>
<linearGradient id="paint1_linear_933_297" x1="565.201" y1="124.978" x2="382.201" y2="124.978" gradientUnits="userSpaceOnUse">
<stop stop-color="#CCDFF2" stop-opacity="0.5"/>
<stop offset="1" stop-color="#EAF0F9" stop-opacity="0.3"/>
</linearGradient>
<linearGradient id="paint2_linear_933_297" x1="831.201" y1="39.5" x2="648.201" y2="39.5" gradientUnits="userSpaceOnUse">
<stop stop-color="#CCDFF2" stop-opacity="0.5"/>
<stop offset="1" stop-color="#EAF0F9" stop-opacity="0.3"/>
</linearGradient>
</defs>
</svg>
