<svg width="839" height="159" viewBox="0 0 839 159" fill="none" xmlns="http://www.w3.org/2000/svg">
<g filter="url(#filter0_d_774_559)">
<path d="M483 99H835C835 99 804.935 63.4165 755.166 75.7915C755.166 75.7915 759.957 0 681.727 0C633.455 0 617.046 23.2085 604.864 49.5C604.864 49.5 589.322 26.2915 554.206 34.042C519.069 41.771 516.62 78.896 516.62 78.896C516.62 78.896 490.803 69.6254 483.022 99H483Z" fill="url(#paint0_linear_774_559)"/>
<path d="M270 150.978H453C453 150.978 437.36 132.288 411.502 138.794C411.502 138.794 413.989 99 373.32 99C348.224 99 339.687 111.184 333.345 125C333.345 125 325.279 112.816 307.017 116.885C288.755 120.954 287.478 140.448 287.478 140.448C287.478 140.448 274.056 135.574 270 151V150.978Z" fill="url(#paint1_linear_774_559)"/>
<path d="M4 66.9763H187C187 66.9763 171.36 47.2085 145.502 54.0894C145.502 54.0894 147.989 12 107.32 12C82.2237 12 73.6865 24.8869 67.3453 39.5C67.3453 39.5 59.2787 26.6131 41.0168 30.9166C22.7549 35.2201 21.4777 55.8392 21.4777 55.8392C21.4777 55.8392 8.05571 50.6844 4 67V66.9763Z" fill="url(#paint2_linear_774_559)"/>
</g>
<defs>
<filter id="filter0_d_774_559" x="0" y="0" width="839" height="159" filterUnits="userSpaceOnUse" color-interpolation-filters="sRGB">
<feFlood flood-opacity="0" result="BackgroundImageFix"/>
<feColorMatrix in="SourceAlpha" type="matrix" values="0 0 0 0 0 0 0 0 0 0 0 0 0 0 0 0 0 0 127 0" result="hardAlpha"/>
<feOffset dy="4"/>
<feGaussianBlur stdDeviation="2"/>
<feComposite in2="hardAlpha" operator="out"/>
<feColorMatrix type="matrix" values="0 0 0 0 0 0 0 0 0 0 0 0 0 0 0 0 0 0 0.25 0"/>
<feBlend mode="normal" in2="BackgroundImageFix" result="effect1_dropShadow_774_559"/>
<feBlend mode="normal" in="SourceGraphic" in2="effect1_dropShadow_774_559" result="shape"/>
</filter>
<linearGradient id="paint0_linear_774_559" x1="483" y1="49.5" x2="835" y2="49.5" gradientUnits="userSpaceOnUse">
<stop stop-color="#CCDFF2" stop-opacity="0.5"/>
<stop offset="1" stop-color="#EAF0F9" stop-opacity="0.3"/>
</linearGradient>
<linearGradient id="paint1_linear_774_559" x1="270" y1="124.978" x2="453" y2="124.978" gradientUnits="userSpaceOnUse">
<stop stop-color="#CCDFF2" stop-opacity="0.5"/>
<stop offset="1" stop-color="#EAF0F9" stop-opacity="0.3"/>
</linearGradient>
<linearGradient id="paint2_linear_774_559" x1="4" y1="39.5" x2="187" y2="39.5" gradientUnits="userSpaceOnUse">
<stop stop-color="#CCDFF2" stop-opacity="0.5"/>
<stop offset="1" stop-color="#EAF0F9" stop-opacity="0.3"/>
</linearGradient>
</defs>
</svg>
