<svg width="776" height="506" viewBox="0 0 776 506" fill="none" xmlns="http://www.w3.org/2000/svg">
<path d="M205.08 110.44C201.69 95.8898 199.56 80.5598 198.74 64.7998C196.06 66.6998 188.88 68.7698 186.04 69.2598C188.38 78.9598 190.71 88.6498 193.05 98.3498C188.37 90.1598 183.69 81.9798 179 73.7898C177.45 77.0698 175.9 80.3498 174.35 83.6298C179 89.1698 183.64 94.7098 188.29 100.24C183.11 95.6998 177.93 91.1698 172.75 86.6298C172.88 88.1798 172.46 89.9198 171.63 91.2798C174.45 93.3498 177.27 95.4198 180.1 97.4898C175.42 95.3198 170.73 93.1398 166.05 90.9698C165.25 95.1598 164.45 99.3398 163.65 103.53C173.38 107.9 183.1 112.28 192.83 116.65C195.45 117.83 198.21 119.15 199.62 122.21C199.57 119.9 203.81 116.75 205.08 110.44Z" fill="url(#paint0_linear_1090_2266)"/>
<path d="M261.829 107.19C263.229 111.79 264.629 116.39 266.029 120.99C266.339 122.02 266.659 123.05 266.969 124.09C267.409 125.52 267.839 126.95 268.269 128.38C268.749 129.95 269.229 131.51 269.699 133.08C270.239 134.84 270.779 136.61 271.309 138.38C273.519 145.64 275.729 152.91 277.949 160.17C278.129 159.85 278.299 159.52 278.469 159.2C278.129 151.18 277.789 143.17 277.449 135.15C277.409 134.15 277.369 133.14 277.319 132.13C277.219 129.8 277.119 127.48 277.019 125.15C276.989 124.48 276.959 123.81 276.939 123.15C276.939 123.19 276.859 122.7 276.839 122.67C276.329 121.64 275.469 119.89 274.789 118.51C271.929 112.69 269.059 106.88 266.199 101.07C262.889 100.34 261.579 101.62 261.279 103.01C260.979 104.4 261.399 105.83 261.809 107.19H261.829Z" fill="url(#paint1_linear_1090_2266)"/>
<path d="M277.961 160.16C278.181 160.87 278.391 161.58 278.611 162.3C278.561 161.26 278.521 160.23 278.481 159.19C278.311 159.51 278.141 159.84 277.961 160.16Z" fill="url(#paint2_linear_1090_2266)"/>
<path style="mix-blend-mode:screen" opacity="0.21" d="M268.279 128.38C268.759 129.94 269.239 131.51 269.709 133.08C272.259 132.87 274.809 132.55 277.339 132.13C277.239 129.81 277.139 127.48 277.039 125.16C274.139 126.3 271.219 127.37 268.279 128.38Z" fill="url(#paint3_linear_1090_2266)"/>
<path style="mix-blend-mode:screen" opacity="0.21" d="M266.029 120.99C266.339 122.02 266.659 123.05 266.969 124.09C270.279 123.73 273.569 123.26 276.849 122.67C276.169 121.28 275.479 119.89 274.799 118.51C271.869 119.34 268.949 120.17 266.029 121V120.99Z" fill="url(#paint4_linear_1090_2266)"/>
<path d="M180.6 146.54C180.6 146.59 180.62 146.64 180.62 146.69C180.62 146.72 180.62 146.75 180.63 146.78C180.92 148.71 181.3 150.63 181.79 152.54C182.04 153.51 182.32 154.47 182.62 155.42C182.82 156.06 183.03 156.7 183.26 157.33C188.92 173.4 201.02 186.9 206.74 203.09C207.76 192.53 208.79 181.93 209.13 171.33C209.24 168.09 209.28 164.86 209.24 161.62C209.23 160.48 209.21 159.34 209.17 158.2C209.13 156.99 209.08 155.77 209.02 154.56C208.96 153.41 208.89 152.25 208.8 151.1C208.5 147.07 208.06 142.96 207.74 138.86C207.7 138.33 207.66 137.81 207.62 137.28C207.5 135.54 207.41 133.81 207.37 132.08C207.2 124.85 207.91 117.78 211.04 111.31C202.52 109.99 194.49 108.75 183.09 109.65C182.74 111.89 181.91 114.05 181.58 116.31C180.99 120.38 180.48 124.47 180.17 128.56C180.15 128.77 180.14 128.98 180.12 129.2C180.12 129.22 180.12 129.23 180.12 129.25C180.08 129.88 180.04 130.51 180.01 131.14C179.97 131.9 179.94 132.66 179.91 133.42C179.86 135.07 179.85 136.71 179.89 138.35C179.9 138.74 179.91 139.13 179.93 139.52C179.93 139.71 179.95 139.89 179.96 140.08C179.96 140.12 179.96 140.17 179.96 140.21C180.06 142.33 180.26 144.44 180.57 146.54H180.6Z" fill="url(#paint5_linear_1090_2266)"/>
<path d="M276.03 163.03C275.48 157.05 276.08 150.96 277.78 145.2C278.23 143.68 278.79 142.12 279.89 140.98C280.99 139.84 282.78 139.22 284.22 139.89C285.9 140.68 286.43 142.78 286.67 144.62C287.47 150.65 287.28 156.8 286.13 162.77C285.77 164.65 285.29 166.55 284.34 168.21C283.38 169.87 281.87 171.3 280.01 171.78C277.98 168.74 276.22 165.27 276.02 163.03H276.03Z" fill="url(#paint6_linear_1090_2266)"/>
<path style="mix-blend-mode:multiply" opacity="0.9" d="M276.589 159.92C276.509 163.9 277.729 168.01 279.889 170.89C281.889 166.42 283.629 159.14 284.239 153.33C281.979 153.14 279.639 153.98 278.029 155.59C279.089 154.02 279.819 152.26 280.929 150.73C281.819 149.51 283.029 148.41 284.439 147.97C284.299 145.64 283.739 144.2 282.629 144.33C277.089 146.53 276.699 155.67 276.279 164.53L276.579 159.91L276.589 159.92Z" fill="url(#paint7_linear_1090_2266)"/>
<path style="mix-blend-mode:multiply" d="M275.84 171.56C276.06 169.34 276.18 166.95 276.29 164.54L275.84 171.56Z" fill="url(#paint8_linear_1090_2266)"/>
<path d="M273.36 244.59C270.91 240.51 266.88 237.2 261.99 234.64C261.12 226.93 260.44 219.19 259.97 211.44C258.22 182.59 226.16 169.89 203.71 150.12C203.55 149.98 203.39 149.84 203.24 149.7C203.3 150.7 203.36 151.7 203.43 152.7C204.11 163.49 204.78 174.29 205.46 185.09C206.52 201.99 207.58 212.42 208.64 229.32C208.77 231.38 208.9 233.45 209.18 235.49C199.53 246.71 188.08 256.9 188.08 256.9L257.32 275.78L288.22 251.17L273.36 244.58V244.59Z" fill="url(#paint9_linear_1090_2266)"/>
<path style="mix-blend-mode:multiply" d="M203.42 152.71C204.1 163.5 204.77 174.3 205.45 185.1C209.68 202.73 218.07 220.47 231.73 230.94C237.28 235.19 244.08 238.12 251.07 238C254.93 237.93 258.6 236.97 262.06 235.4C261.14 227.44 260.44 219.45 259.96 211.45C258.21 182.6 226.15 169.9 203.7 150.13C203.63 151.02 203.53 151.88 203.41 152.72L203.42 152.71Z" fill="url(#paint10_linear_1090_2266)"/>
<path d="M262.501 106.52C266.311 115.99 270.791 125.2 275.731 134.09C277.461 141.05 278.651 148.14 279.201 155.28C280.541 159.89 281.891 164.5 282.721 169.13C280.701 189.45 276.521 203.09 269.091 221.95C261.391 225.24 252.831 228.59 244.861 226C240.081 224.45 236.231 220.96 232.531 217.56C221.161 207.11 210.601 201.87 205.911 180.02C202.151 162.48 201.721 144.31 203.281 126.44C203.631 122.45 204.171 118.29 206.481 115.03C209.561 110.68 215.061 108.89 220.181 107.37C227.531 105.19 234.941 102.99 242.571 102.32C250.211 101.65 260.331 101.1 262.511 106.51L262.501 106.52Z" fill="url(#paint11_linear_1090_2266)"/>
<path d="M180.61 146.54C180.61 146.59 180.62 146.64 180.63 146.69C180.63 146.72 180.63 146.75 180.64 146.78C185.03 149.75 190.04 154.21 194.83 158.91C198.16 162.18 201.38 165.57 204.2 168.66C205.32 169.89 205.51 170.66 206.49 171.77C206.54 171.2 207.24 168.29 207.3 167.71C207.58 164.73 208.1 164.5 208.38 161.52C208.49 160.37 208.6 159.22 208.71 158.07C208.82 156.9 208.93 155.73 209.04 154.57C209.55 149.24 210.05 143.91 210.56 138.58C210.6 138.16 210.64 137.74 210.68 137.33C210.85 135.58 211.01 133.84 211.18 132.09C211.99 123.53 212.81 114.97 213.62 106.41C205.52 105.5 194.84 104.75 183.66 106.58C183.33 109.99 182.02 113.29 181.63 116.34C181.09 120.58 180.55 124.56 180.22 128.59C180.2 128.8 180.19 129.01 180.17 129.23C180.17 129.25 180.17 129.26 180.17 129.28C180.12 129.91 180.08 130.54 180.04 131.17C180 131.92 179.97 132.68 179.94 133.45C179.89 135.06 179.88 136.7 179.94 138.38C179.95 138.77 179.97 139.16 179.99 139.55C179.99 139.74 180.01 139.92 180.02 140.11C180.02 140.15 180.02 140.2 180.02 140.24C180.13 142.27 180.32 144.37 180.63 146.57L180.61 146.54Z" fill="url(#paint12_linear_1090_2266)"/>
<path d="M245.919 90.0496C244.359 89.9996 242.829 89.9896 241.359 89.9996L245.919 90.0496Z" fill="url(#paint13_linear_1090_2266)"/>
<path style="mix-blend-mode:screen" opacity="0.21" d="M179.92 133.42C179.92 133.42 179.93 133.42 179.94 133.42C189.12 135.48 198.39 137.06 207.64 137.29C208.65 137.32 209.66 137.33 210.67 137.31C210.84 135.56 211 133.82 211.17 132.07C209.91 132.08 208.66 132.09 207.4 132.09C198.27 132.09 189.15 131.77 180.05 131.14C180.05 131.14 180.05 131.14 180.04 131.14C180 131.89 179.97 132.65 179.94 133.42H179.92Z" fill="url(#paint14_linear_1090_2266)"/>
<path style="mix-blend-mode:screen" opacity="0.21" d="M180.6 146.54C189.51 151.38 198.95 155.25 208.69 158.07C208.85 158.11 209.01 158.16 209.17 158.21C209.13 157 209.08 155.78 209.02 154.57C209.53 149.24 210.03 143.91 210.54 138.58C209.61 138.69 208.68 138.79 207.75 138.88C198.53 139.74 189.18 139.45 179.92 138.36C179.93 138.75 179.95 139.14 179.97 139.53C179.97 139.72 179.99 139.9 180 140.09C180 140.13 180 140.18 180 140.22C180.1 142.34 180.3 144.45 180.61 146.55L180.6 146.54Z" fill="url(#paint15_linear_1090_2266)"/>
<path d="M208.819 166.37C205.569 159.95 201.659 153.87 197.179 148.24C193.459 148 190.179 151.26 189.329 154.9C188.479 158.53 189.539 162.35 191.079 165.75C192.549 169 194.489 172.1 197.249 174.35C200.009 176.6 203.669 177.91 207.179 177.3C206.929 173.11 206.669 168.92 208.819 166.37Z" fill="url(#paint16_linear_1090_2266)"/>
<path style="mix-blend-mode:multiply" opacity="0.9" d="M197.709 165.17C196.769 165.3 195.959 165.79 195.209 166.38C196.119 168.31 197.389 170.06 198.809 171.65C199.709 172.65 200.709 173.62 201.949 174.15C203.189 174.68 204.719 174.7 205.809 173.9C206.889 173.1 207.789 171.11 206.359 168.94C203.239 164.23 200.109 155.14 194.199 157.33C193.889 158.44 193.769 159.59 193.799 160.74C194.519 160.74 195.239 160.85 195.929 161.04C199.009 161.89 201.519 164.53 202.229 167.65C201.279 166.1 199.509 164.92 197.709 165.17Z" fill="url(#paint17_linear_1090_2266)"/>
<path d="M182.891 115.58C192.811 115.55 202.721 115.63 212.641 115.79C213.971 115.81 215.301 115.83 216.631 115.86C218.041 115.89 219.441 115.92 220.851 115.95C222.021 115.97 223.191 116 224.361 116.03C227.801 116.11 231.251 116.21 234.701 116.32C235.541 116.35 236.381 116.37 237.211 116.4C239.611 116.48 242.011 116.56 244.421 116.66C245.051 116.68 245.671 116.71 246.301 116.73C247.911 116.79 249.531 116.86 251.141 116.92C253.581 115.7 256.021 114.47 258.461 113.25C260.151 112.4 261.841 111.56 263.541 110.71C265.951 109.5 268.361 108.29 270.771 107.08C267.011 99.4598 264.091 94.4598 260.241 92.3498C257.311 90.7498 252.321 90.1198 247.481 89.9198C246.021 89.8598 244.591 89.8398 243.221 89.8398C241.941 89.8398 240.731 89.8698 239.641 89.8998C231.661 90.1498 223.581 90.4098 215.741 91.8198C214.891 91.9698 214.051 92.1398 213.211 92.3198C211.511 92.6898 209.821 93.1099 208.141 93.6199C207.451 93.8299 206.771 94.0398 206.081 94.2798C205.591 94.4498 205.101 94.6199 204.611 94.7999C201.951 95.7899 199.371 96.9699 196.851 98.2999C196.281 98.5999 195.721 98.8998 195.161 99.2198C194.801 99.4198 194.431 99.6198 194.071 99.8298C193.351 100.24 192.641 100.67 191.931 101.1C189.111 102.82 186.361 104.67 183.651 106.57C183.401 109.57 183.151 112.58 182.911 115.58H182.891Z" fill="url(#paint18_linear_1090_2266)"/>
<path style="mix-blend-mode:screen" opacity="0.92" d="M206.071 94.2697C215.091 95.5997 223.811 99.0797 229.201 105.68C231.991 109.11 233.501 112.63 234.701 116.32C235.541 116.35 236.381 116.37 237.211 116.4C239.611 116.48 242.011 116.56 244.421 116.66C245.241 113.46 244.461 101.34 238.611 97.6197C228.281 91.0497 218.491 92.0597 213.191 92.3197C211.491 92.6897 209.801 93.1097 208.121 93.6197C207.431 93.8297 206.751 94.0397 206.061 94.2797L206.071 94.2697Z" fill="url(#paint19_linear_1090_2266)"/>
<path style="mix-blend-mode:screen" opacity="0.92" d="M241.369 89.9898C244.909 92.2498 248.609 95.8698 251.329 99.0798C256.699 105.44 257.099 112.79 257.549 113.32C259.369 112.46 261.179 111.6 262.999 110.75C262.909 109.65 265.299 102.32 262.789 98.7498C259.769 94.4598 250.919 92.4998 245.929 90.0398C244.369 89.9898 242.829 89.9798 241.369 89.9898Z" fill="url(#paint20_linear_1090_2266)"/>
<path style="mix-blend-mode:screen" opacity="0.92" d="M191.92 101.09C197.73 102.7 203.31 104.94 206.86 107.55C210.16 109.98 211.69 112.72 212.65 115.79C213.98 115.81 215.31 115.83 216.64 115.86C218.05 115.89 219.45 115.92 220.86 115.95C219.78 114.46 221.04 106.55 215.95 103.6C211.85 101.23 200.88 100.13 195.15 99.2002C194.79 99.4002 194.42 99.6002 194.06 99.8102C193.34 100.22 192.63 100.65 191.92 101.08V101.09Z" fill="url(#paint21_linear_1090_2266)"/>
<path opacity="0.52" d="M249.56 154.45C249.82 151.61 249.35 146.59 249.35 146.59L242.97 138.86C242.97 138.86 232.47 141.43 226.84 141.48C226.17 143.27 225.3 144.29 224.52 146.01C220.24 150.27 223.06 154.54 225.05 160.78C240.87 156.86 242.26 151 245.29 151.14C249.34 153.83 246.86 152.28 249.55 154.45H249.56Z" fill="url(#paint22_linear_1090_2266)"/>
<path opacity="0.52" d="M277.861 149.69C277.421 148.01 277.031 143.42 277.031 143.42C277.031 143.42 275.801 135.48 274.001 135.72C270.031 135.62 265.401 135.41 262.861 138.47C261.711 139.86 261.191 141.64 260.801 143.4C259.631 148.78 259.571 154.39 260.641 159.79C260.751 160.35 261.641 153.63 262.051 153.25C271.761 144.25 271.431 147.71 271.801 147.71C276.251 147.75 273.911 149.61 277.861 149.69Z" fill="url(#paint23_linear_1090_2266)"/>
<path d="M247.07 144.13C246.66 142.87 244.5 139.97 244.09 138.7C241.96 138.84 239.3 138.62 237.16 138.53C230.09 138.24 225.39 139.68 225.39 139.68C225.39 139.68 222.94 146 222.85 148.7C223.74 146.35 226.07 145.13 228.31 144.48C233.6 142.94 241.28 144.28 247.07 144.13Z" fill="url(#paint24_linear_1090_2266)"/>
<path d="M261.119 142.07C261.859 140.34 262.199 137.52 262.939 135.79C266.099 134.77 269.249 134.44 272.839 133.83C274.479 135 276.279 136.93 278.659 139.38C275.799 138.52 272.319 138.19 269.099 138.86C265.869 139.53 262.819 140.81 261.129 142.07H261.119Z" fill="url(#paint25_linear_1090_2266)"/>
<path style="mix-blend-mode:multiply" opacity="0.6" d="M250.199 169.67C250.269 169.77 250.909 172.91 253.429 174.47C254.669 175.24 256.159 175.88 257.849 176.08C258.359 176.15 258.889 176.17 259.439 176.14C261.859 176.03 268.839 171.69 265.459 167.49C263.349 169.5 258.439 171.7 250.199 169.66V169.67Z" fill="url(#paint26_linear_1090_2266)"/>
<path opacity="0.49" d="M253.43 174.47C254.67 175.24 256.16 175.88 257.85 176.08C257.85 176.01 257.87 174.95 256.26 174.14C254.59 173.3 253.43 174.47 253.43 174.47Z" fill="#4E1A10"/>
<path opacity="0.49" d="M260.8 156.84C260.31 162.16 264.9 164.1 265.43 167.72C265.95 168.59 262.05 174.84 261.19 175.67C262.06 175.38 262.83 174.78 263.59 174.26C268.09 171.01 267.04 167.15 267.06 167.48C266.75 164.03 262.53 163.86 260.79 156.85L260.8 156.84Z" fill="#4E1A10"/>
<path d="M227.34 178.66C227.34 178.66 227.72 179.81 228.6 181.65C230.78 186.14 236.77 193.74 246.01 199.03C247.64 199.97 249.32 200.77 251.07 201.37C259.87 204.4 268.99 199.31 270.08 197.03C270.36 196.4 270.59 195.5 270.75 194.4C271.22 191.12 271.12 186.48 270.91 183.95C270.73 184.04 270.53 184.12 270.31 184.21C269.98 184.33 269.61 184.45 269.18 184.56C263.5 186.06 246.12 187.5 227.33 178.69V178.66H227.34Z" fill="#570F21"/>
<path d="M227.34 178.66C227.34 178.66 227.72 179.81 228.6 181.65C228.6 181.65 245.3 192.72 259.4 190.61C268.83 189.19 270.72 185.8 270.72 185.8L270.32 184.19C269.98 184.31 269.47 184.45 269.02 184.48C262.97 185 247.53 186.56 227.35 178.66H227.34Z" fill="#FDECEE"/>
<path d="M246.051 199.03C247.681 199.96 249.361 200.77 251.111 201.37C259.901 204.4 266.951 200.28 269.481 197.83C258.661 191.24 246.051 199.03 246.051 199.03Z" fill="url(#paint27_linear_1090_2266)"/>
<path d="M274.08 151.05C274.31 153.74 273.01 156.12 271.18 156.37C269.35 156.62 267.69 154.63 267.46 151.94C267.36 150.74 267.57 149.61 267.99 148.69C269.45 148.24 270.86 147.67 272.24 147.19C273.21 147.94 273.92 149.35 274.07 151.05H274.08Z" fill="#3A1A12" stroke="url(#paint28_linear_1090_2266)" stroke-miterlimit="10"/>
<path d="M273.236 150.25C273.257 149.234 272.768 148.4 272.144 148.386C271.52 148.373 270.997 149.186 270.976 150.202C270.955 151.218 271.443 152.053 272.067 152.066C272.691 152.079 273.214 151.266 273.236 150.25Z" fill="white"/>
<path d="M277.03 149.92L271.95 146.83C271.95 146.83 265.43 148.67 262.08 152.43" stroke="#4E1A10" stroke-width="1.04" stroke-miterlimit="10" stroke-linecap="round"/>
<path d="M246.491 153.76C246.731 156.59 245.371 159.09 243.451 159.35C241.531 159.61 239.781 157.53 239.541 154.7C239.431 153.44 239.661 152.25 240.101 151.29C241.641 150.82 242.731 150.31 244.191 149.8C245.211 150.59 246.341 151.99 246.491 153.77V153.76Z" fill="#3A1A12" stroke="url(#paint29_linear_1090_2266)" stroke-miterlimit="10"/>
<path d="M245.564 153.134C245.586 152.069 245.076 151.194 244.425 151.18C243.773 151.167 243.227 152.019 243.204 153.085C243.182 154.151 243.692 155.026 244.344 155.039C244.995 155.053 245.542 154.2 245.564 153.134Z" fill="white"/>
<path d="M248.93 152.72L244.39 149.66C244.39 149.66 238.28 151.42 232.23 155.1" stroke="#4E1A10" stroke-width="1.04" stroke-miterlimit="10" stroke-linecap="round"/>
<path d="M112.77 430.83C126.03 431.39 139 434.96 152.03 435.48C156.28 435.65 160.53 435.5 164.81 434.82C166.07 421.51 167.91 401.16 169.16 387.85C153.29 384.16 135.52 380.51 117.9 376.26C115.31 383.09 113.47 390.19 112.38 397.41C110.71 408.47 110.82 419.81 112.77 430.83Z" fill="url(#paint30_linear_1090_2266)"/>
<path style="mix-blend-mode:multiply" opacity="0.44" d="M112.391 397.41C121.991 402.28 131.161 408 139.761 414.47C143.031 416.93 146.291 419.58 148.401 423.1C150.511 426.61 151.281 431.18 149.391 434.81C150.271 435.04 151.151 435.27 152.041 435.48C156.291 435.65 160.541 435.5 164.821 434.82C166.081 421.51 167.921 401.16 169.171 387.85C153.301 384.16 135.531 380.51 117.911 376.26C115.321 383.09 113.481 390.19 112.391 397.41Z" fill="url(#paint31_linear_1090_2266)"/>
<path d="M335.329 274.13C351.089 299.72 360.649 329.95 364.649 363.1C344.919 376.29 339.929 381.03 322.349 396.97C316.949 352.09 312.609 304.09 307.199 259.21L335.329 274.13Z" fill="url(#paint32_linear_1090_2266)"/>
<path style="mix-blend-mode:multiply" d="M323.33 279.6C339.84 309.66 361.48 332.41 363.91 366.62C357.17 375.1 338.71 394.47 331.97 402.95C331.29 403.81 330.27 404.77 329.25 404.37C328.4 404.03 328.16 402.97 328.04 402.07C322.74 362.11 321.91 321.57 323.33 279.61V279.6Z" fill="url(#paint33_linear_1090_2266)"/>
<path d="M285.71 446.23C285.4 448.79 285.06 451.34 284.67 453.88C284.99 453.88 285.3 453.88 285.61 453.88C285.64 451.33 285.67 448.79 285.7 446.24L285.71 446.23Z" fill="url(#paint34_linear_1090_2266)"/>
<path style="mix-blend-mode:multiply" d="M194.57 481.22C237.71 492.33 285.39 484.42 322.64 459.99C279.89 467.96 236.12 470.45 192.74 467.37C195.79 466.06 199.2 469.38 199.31 472.7C199.42 476.02 197.43 479 194.57 481.22Z" fill="url(#paint35_linear_1090_2266)"/>
<path d="M325.829 433.86C323.179 454.34 321.449 470.47 323.499 477.9C282.149 496.39 240.659 501.46 197.669 494.06C197.669 453.62 198.679 420.86 188.729 385.68C181.779 361.1 172.669 337.23 163.709 313.3C159.839 302.98 155.989 292.63 152.369 282.22C162.189 274.6 199.869 245.1 199.869 245.1C213.919 259.16 245.739 267.54 255.719 269.9C257.659 270.36 258.779 270.58 258.779 270.58C258.779 270.58 259.379 269.98 260.329 268.91C263.989 264.82 272.939 253.95 273.359 244.58C286.869 250.19 306.929 257.32 317.889 265.9C345.029 303.08 332.499 382.26 325.829 433.85V433.86Z" fill="url(#paint36_linear_1090_2266)"/>
<path style="mix-blend-mode:multiply" d="M267.341 303.61C265.601 303.38 263.861 303.15 262.111 302.93C260.861 291.77 258.721 280.72 255.711 269.91C257.651 270.37 258.771 270.59 258.771 270.59C258.771 270.59 259.371 269.99 260.321 268.92C262.811 280.45 265.141 292.01 267.331 303.61H267.341Z" fill="url(#paint37_linear_1090_2266)"/>
<path style="mix-blend-mode:multiply" d="M188.73 385.69C198.68 420.87 197.67 453.62 197.67 494.07C240.66 501.46 282.15 496.4 323.5 477.91C321.46 470.47 323.19 454.34 325.84 433.86C318.67 443.67 310.3 452.61 300.95 460.39C302.09 460.01 303.23 459.62 304.37 459.23C277.16 478.83 237.12 472.82 203.94 433.3C220.8 440.88 253.23 454.9 268.11 453.04C264.64 451.48 262 448.62 264.16 448.75C246.82 445.16 229.9 439.04 214.24 430.08C204.12 385.65 196.15 331.35 167.73 295.73C170.82 302.05 173.92 308.37 177.01 314.7C172.29 313.12 167.86 312.73 163.73 313.32C172.69 337.25 181.81 361.12 188.75 385.7L188.73 385.69Z" fill="url(#paint38_linear_1090_2266)"/>
<path d="M112.119 426.54C112.459 432.27 114.259 440.14 117.319 447.81C119.659 453.66 122.739 459.38 126.479 463.95C140.269 480.79 151.339 474.55 188.909 503.38C192.309 491.96 214.019 501.13 218.039 494.26C215.279 491.58 212.749 488.73 210.389 485.76C201.989 475.18 202.819 479.23 196.219 467.47C187.779 452.4 178.459 436.06 163.729 426.23C138.659 414.06 125.629 418.89 112.119 426.55V426.54Z" fill="url(#paint39_linear_1090_2266)"/>
<path d="M106.69 395.33C117.78 397.2 128.81 399.34 139.79 401.74C150.31 404.04 160.77 406.59 171.17 409.38C175.83 387.34 183.45 365.93 193.75 345.9C190.98 337.08 187.54 328.09 183.43 319.19C177.53 306.4 170.24 293.81 161.6 282.22C158.2 281.97 155.76 282.48 152.36 282.23C131.3 317.37 115.16 355.25 106.68 395.33H106.69Z" fill="url(#paint40_linear_1090_2266)"/>
<path style="mix-blend-mode:multiply" d="M139.789 401.75C150.309 404.05 160.769 406.6 171.169 409.39C175.829 387.35 183.449 365.94 193.749 345.91C190.979 337.09 187.539 328.1 183.429 319.2C167.059 341.64 156.209 368.12 152.419 395.64C148.119 397.48 143.899 399.52 139.789 401.75Z" fill="url(#paint41_linear_1090_2266)"/>
<path d="M444.849 316.08L437.029 314.63L433.359 318.81L435.089 319.62C438.559 320.84 441.659 318.58 443.929 317.44L444.839 316.08H444.849Z" fill="#010101"/>
<path d="M447.189 244.6L368.029 285.08L437.029 314.64L446.499 272.25L447.189 244.6Z" fill="#F1EFE2"/>
<path d="M445.149 316.2L437.029 314.64C437.029 314.64 437.109 285.55 441.999 266.89C446.889 248.22 447.189 244.6 447.189 244.6C447.189 244.6 449.159 244.03 450.189 244.7C451.209 245.37 451.849 245.54 452.389 245.52C452.929 245.5 454.399 245.27 454.399 245.27C454.399 245.27 446.799 302.88 446.329 304.17C445.859 305.46 444.829 312.13 445.259 313.37C445.689 314.61 445.149 316.2 445.149 316.2Z" fill="#DCD8CC"/>
<path d="M306.88 320.78L303.74 319.77L304.64 317.3L307 316.01L305.42 315.13L374.05 273.37L437.03 314.63L432.65 319.73L297.1 336.99C297.1 336.99 299.44 334.03 299.86 332.86C300.28 331.69 300.39 331.06 300.39 331.06L301.97 329.94L300.83 329.5L303.6 327.64L301.54 326.84L303.52 325.61L301.95 325L302.33 323.95L307 320.83L306.86 320.79L306.88 320.78Z" fill="#DCD8CC"/>
<path d="M301.549 326.84L303.529 325.61L371.109 281.4L433.919 312.79C433.919 312.79 384.539 292.82 377.729 290.7C370.919 288.58 369.789 287.51 369.789 287.51L303.559 327.62L301.529 326.83L301.549 326.84Z" fill="#CCC9BA"/>
<g opacity="0.47">
<path d="M370.971 281.52L301.961 325L302.351 323.95L307.021 320.83L306.881 320.78L371.201 280.54L370.971 281.52Z" fill="white"/>
</g>
<g opacity="0.47">
<path d="M372.65 275.69L372.83 276.02L303.84 318.87L303.66 318.53L372.65 275.69Z" fill="white"/>
</g>
<g opacity="0.47">
<path d="M373.941 273.56L373.991 273.66L305.521 315.34L305.471 315.24L373.941 273.56Z" fill="white"/>
</g>
<g opacity="0.47">
<path d="M365.001 294.82C365.861 293.15 366.681 291.93 367.351 291.49C368.021 291.05 369.811 287.52 369.811 287.52L298.951 331.93L296.311 338.16L365.011 294.83L365.001 294.82Z" fill="white"/>
</g>
<path d="M294.16 339.19L294.42 338.48L363.66 292.97L431.23 317.06C431.23 317.06 431.55 317.7 432.05 318.04C432.54 318.37 433.21 318.8 433.9 319.15C434.68 319.55 435.51 319.88 436.17 319.9C438.02 319.96 443.68 317.83 444.23 317.02C445.66 314.93 444.89 313.36 444.89 313.36L454.41 245.27L455.64 243.61L456.61 243.72L446.57 312.74C446.57 312.74 447.03 315.99 445.21 318.22C443.39 320.45 439.34 322.21 439.34 322.21L364.08 362.05C363.05 362.45 362.83 362.5 361.95 362.11C361.5 361.91 360.4 361.48 359.76 361.08C359.18 360.72 358.64 360.31 358.41 359.84C357.94 358.89 358.24 358.61 358.27 358.58L294.17 339.18L294.16 339.19Z" fill="url(#paint42_linear_1090_2266)"/>
<g opacity="0.25">
<path d="M358.261 358.58L432.041 318.03C432.531 318.36 433.201 318.79 433.891 319.14L359.751 361.07C359.171 360.71 358.631 360.3 358.401 359.83C357.931 358.88 358.231 358.6 358.261 358.57V358.58Z" fill="white"/>
</g>
<path d="M445.03 296.75C445.44 296.47 445.85 296.32 446.28 296.42C447.44 287.2 440.47 295.43 440.3 288.65C436.17 287.28 442.48 277.93 441.2 278.5C439 279.46 429.8 274.59 428.03 276.21C427.06 277.1 423.61 279.08 424 280.34C424.05 280.5 424.14 280.64 424.24 280.77C422.68 281.79 421.17 282.9 419.73 284.08C417.45 284.8 415.26 285.82 413.29 287.1C411.31 288.39 406.69 292.54 405.87 294.81C403.25 295.39 423.37 304.15 423.37 304.15C423.37 304.15 423.53 320.15 424.85 320.11C426.59 320.06 428.23 319.45 428.35 319.45C432.07 316.3 432.36 314.83 434.52 311.23C434.66 311 434.8 310.75 434.93 310.49C436.58 311.21 438.51 311.35 440.31 311.05C442.82 310.64 445.15 309.49 445.68 306.69C445.39 307.03 445.09 307.37 444.8 307.72C444.88 304.06 444.97 300.41 445.05 296.75H445.03Z" fill="#DCD8CC"/>
<path d="M419.749 327.36C419.749 327.36 419.709 327.4 419.689 327.41C419.759 327.37 419.769 327.36 419.749 327.36Z" fill="#DCD8CC"/>
<path d="M437.711 320.86C442.531 312.08 447.361 303.29 452.181 294.51C453.521 292.08 454.901 289.3 454.101 286.64C453.681 285.25 452.431 283.96 450.991 284.1C450.001 284.2 449.191 284.92 448.461 285.6C446.351 287.59 444.231 289.58 442.121 291.57C439.421 294.12 436.621 296.8 435.371 300.3C433.341 306.02 435.931 312.25 437.711 320.87V320.86Z" fill="url(#paint43_linear_1090_2266)"/>
<path d="M445.57 303.85C446.73 294.63 446.31 290.26 446.14 283.48C442.01 282.11 437.88 280.74 433.74 279.37C432.41 278.93 430.92 278.49 429.64 279.05C427.44 280.01 427.24 283.15 425.47 284.77C424.5 285.66 422.9 286.5 423.28 287.76C423.43 288.26 423.89 288.6 424.3 288.92C428.35 292.01 431.41 296.39 432.9 301.26C433.59 303.51 434.16 306.14 436.23 307.26C437.95 308.2 440.18 307.66 441.74 306.47C443.3 305.28 444.34 303.55 445.56 303.85H445.57Z" fill="url(#paint44_linear_1090_2266)"/>
<path d="M444.95 314.12C444.66 314.46 444.36 314.8 444.07 315.15C444.27 306.55 444.47 297.96 444.66 289.36C439.91 287.7 435.16 286.04 430.42 284.39C425.47 286.66 420.88 289.7 416.85 293.36C422.15 298.23 426.35 304.28 429.07 310.94C429.93 313.04 430.7 315.29 432.4 316.79C434.31 318.48 437.08 318.89 439.59 318.48C442.1 318.07 444.43 316.92 444.96 314.12H444.95Z" fill="url(#paint45_linear_1090_2266)"/>
<path d="M427.559 326.93C431.339 323.74 431.629 322.27 433.789 318.66C435.959 315.05 437.459 308.1 437.069 303.9C436.569 298.52 432.509 294.24 428.679 290.43C423.279 289.8 417.279 291.44 412.549 294.52C409.419 296.56 408.309 300.55 407.449 304.19C410.889 303.74 414.519 305.03 416.909 307.55C419.299 310.07 420.379 313.77 419.739 317.18C419.249 319.77 417.859 322.52 419.019 324.89C419.909 326.71 422.099 327.6 424.119 327.54C426.149 327.48 428.059 326.65 427.549 326.93H427.559Z" fill="url(#paint46_linear_1090_2266)"/>
<path d="M445.57 303.85C446.73 294.63 446.31 290.26 446.14 283.48C442.01 282.11 437.88 280.74 433.74 279.37C432.41 278.93 430.92 278.49 429.64 279.05C427.44 280.01 427.24 283.15 425.47 284.77C424.5 285.66 422.9 286.5 423.28 287.76C423.43 288.26 423.89 288.6 424.3 288.92C428.35 292.01 431.41 296.39 432.9 301.26C433.59 303.51 434.16 306.14 436.23 307.26C437.95 308.2 440.18 307.66 441.74 306.47C443.3 305.28 444.34 303.55 445.56 303.85H445.57Z" fill="url(#paint47_linear_1090_2266)"/>
<path style="mix-blend-mode:multiply" opacity="0.12" d="M426.839 313.73C426.059 314.27 425.019 313.62 425.129 312.67C425.589 308.94 401.729 304.52 398.349 307.22C397.479 311.41 400.049 314.45 404.839 314.63C409.359 314.81 408.949 313.1 410.399 313.35C411.539 313.55 410.379 319.26 409.529 321.3C408.679 323.34 402.199 334.33 403.649 339.56C398.419 349.02 383.679 351.69 373.499 355.54C357.599 361.56 407.679 385.04 423.339 355.79C423.379 355.71 423.419 355.64 423.449 355.56C424.189 354.06 424.689 352.74 425.039 351.54C428.189 350.03 430.679 348.51 430.679 348.51C430.679 348.51 433.359 309.21 426.839 313.71V313.73Z" fill="url(#paint48_linear_1090_2266)"/>
<path d="M444.95 314.12C444.66 314.46 444.36 314.8 444.07 315.15C444.27 306.55 444.47 297.96 444.66 289.36C439.91 287.7 435.16 286.04 430.42 284.39C425.47 286.66 420.88 289.7 416.85 293.36C422.15 298.23 426.35 304.28 429.07 310.94C429.93 313.04 430.7 315.29 432.4 316.79C434.31 318.48 437.08 318.89 439.59 318.48C442.1 318.07 444.43 316.92 444.96 314.12H444.95Z" fill="url(#paint49_linear_1090_2266)"/>
<path d="M427.559 326.93C431.339 323.74 430.699 321.83 432.869 318.21C435.039 314.6 437.459 308.09 437.069 303.9C436.569 298.52 432.509 294.24 428.679 290.43C423.279 289.8 417.279 291.44 412.549 294.52C409.419 296.56 408.309 300.55 407.449 304.19C410.889 303.74 414.519 305.03 416.909 307.55C419.299 310.07 420.379 313.77 419.739 317.18C419.249 319.77 417.859 322.52 419.019 324.89C419.909 326.71 422.099 327.6 424.119 327.54C426.149 327.48 428.059 326.65 427.549 326.93H427.559Z" fill="url(#paint50_linear_1090_2266)"/>
<path d="M446.329 294.08C441.979 305.94 432.909 313.6 425.609 318.28C431.109 311.46 427.949 302.71 418.579 298.3C417.269 297.68 415.689 298.38 414.299 298.79C408.849 300.37 401.309 301.25 398.509 303.52C398.739 306.68 400.269 309.56 403.669 310.65C406.309 311.5 411.319 310.17 412.089 310.25C415.219 310.56 412.829 316.57 412.179 318.78C410.579 324.27 405.679 330.84 405.679 330.84C405.679 330.84 402.279 336.9 403.709 339.49C398.599 346.11 345.549 371.56 332.109 381.98C331.149 392.22 329.989 401.35 328.619 410.29C326.599 423.45 340.319 433.3 352.209 427.3C383.079 411.74 410.289 387.26 426.279 357.38C426.319 357.3 426.359 357.23 426.389 357.15C427.129 355.65 427.629 354.33 427.979 353.13C431.129 351.62 433.619 350.1 433.619 350.1C433.619 350.1 454.899 325.65 446.339 294.09L446.329 294.08Z" fill="url(#paint51_linear_1090_2266)"/>
<g style="mix-blend-mode:multiply" opacity="0.12">
<path d="M447.11 297.19C448.32 314.9 441.09 323.8 441.09 323.8L433.7 326.37C433.7 326.37 423.61 349.21 425.27 349C428.86 348.56 427.59 353.94 427.93 352.74C431.08 351.23 433.57 349.71 433.57 349.71C433.57 349.71 453.29 327.04 447.11 297.18V297.19Z" fill="url(#paint52_linear_1090_2266)"/>
</g>
<path style="mix-blend-mode:multiply" opacity="0.42" d="M411.43 345.83C403.12 338.65 406.13 330.27 406.13 330.27C403.09 335.3 403.25 337.96 403.51 338.97L403.18 338.08L403.69 339.47C403.69 339.47 402.41 340.96 399.17 343.11C388.78 349.97 362.35 363.94 356.85 367.1L358.35 378.72L380.15 375.18L404.82 345.2L411.43 345.83ZM403.72 339.46V339.51L403.7 339.43C403.71 339.45 403.72 339.46 403.72 339.46Z" fill="url(#paint53_linear_1090_2266)"/>
<g style="mix-blend-mode:multiply" opacity="0.27">
<path d="M413.139 316.18C413.599 315.26 414.029 314.39 414.389 313.59C415.329 311.49 417.429 305.37 414.299 305.06C413.529 304.98 408.519 306.31 405.879 305.46C403.859 304.81 402.509 303.52 401.689 301.92C400.379 302.37 399.279 302.88 398.529 303.49C398.759 306.65 400.289 309.53 403.689 310.62C406.329 311.47 411.339 310.14 412.109 310.22C414.339 310.44 413.919 313.61 413.149 316.17L413.139 316.18Z" fill="url(#paint54_linear_1090_2266)"/>
</g>
<path style="mix-blend-mode:multiply" opacity="0.44" d="M328.92 408.24C326.83 422.26 338.88 434.43 354.13 426.3C384.03 410.37 410.61 386.62 426.27 357.37C426.31 357.29 426.35 357.22 426.38 357.14C404.59 381.23 376.33 400.09 346.49 401.8C340.53 396.23 335.62 389.54 332.08 382.18C331.2 391.56 330.14 400.01 328.91 408.24H328.92Z" fill="url(#paint55_linear_1090_2266)"/>
<mask id="mask0_1090_2266" style="mask-type:luminance" maskUnits="userSpaceOnUse" x="344" y="331" width="59" height="34">
<path d="M344.051 354.77L386.971 331.32L402.221 334.32C402.221 334.32 400.501 338 401.181 339.64C399.591 342.19 397.421 344.3 394.881 345.78L394.721 345.87L364.061 364.54L344.051 354.77Z" fill="white"/>
</mask>
<g mask="url(#mask0_1090_2266)">
<path d="M306.88 320.78L303.74 319.77L304.64 317.3L307 316.01L305.42 315.13L374.05 273.37C374.05 273.37 401.06 289.12 406.45 292.02C411.84 294.92 437.03 314.63 437.03 314.63L432.65 319.73L297.1 336.99C297.1 336.99 299.44 334.03 299.86 332.86C300.28 331.69 300.39 331.06 300.39 331.06L301.97 329.94L300.83 329.5L303.6 327.64L301.54 326.84L303.52 325.61L301.95 325L302.33 323.95L307 320.83L306.86 320.79L306.88 320.78Z" fill="#DCD8CC"/>
<g opacity="0.47">
<path d="M365.001 294.821C365.861 293.151 366.681 291.931 367.351 291.491C368.021 291.051 369.811 287.521 369.811 287.521L298.951 331.931L296.311 338.161L365.011 294.831L365.001 294.821Z" fill="white"/>
</g>
<path d="M294.16 339.19L294.42 338.48L363.66 292.97L431.22 317.45C431.22 317.45 431.54 317.7 432.05 318.04C432.54 318.37 433.21 318.8 433.9 319.15C434.68 319.55 435.51 319.88 436.17 319.9C438.02 319.96 443.68 317.83 444.23 317.02C445.66 314.93 444.89 313.36 444.89 313.36L454.41 245.27L455.64 243.61L456.61 243.72L446.57 312.74C446.57 312.74 447.03 315.99 445.21 318.22C443.39 320.45 439.34 322.21 439.34 322.21L366.03 363.31C365 363.71 360.39 361.47 359.75 361.08C359.17 360.72 358.63 360.31 358.4 359.84C357.93 358.89 358.23 358.61 358.26 358.58L294.16 339.18V339.19Z" fill="url(#paint56_linear_1090_2266)"/>
<g opacity="0.25">
<path d="M358.261 358.58L432.041 318.03C432.531 318.36 433.201 318.79 433.891 319.14L359.751 361.07C359.171 360.71 358.631 360.3 358.401 359.83C357.931 358.88 358.231 358.6 358.261 358.57V358.58Z" fill="white"/>
</g>
</g>
<path d="M741.17 471.92H16.92C7.57534 471.92 0 479.495 0 488.84C0 498.185 7.57534 505.76 16.92 505.76H741.17C750.515 505.76 758.09 498.185 758.09 488.84C758.09 479.495 750.515 471.92 741.17 471.92Z" fill="url(#paint57_linear_1090_2266)"/>
<path d="M741.17 471.92H16.92C7.57534 471.92 0 479.495 0 488.84C0 498.185 7.57534 505.76 16.92 505.76H741.17C750.515 505.76 758.09 498.185 758.09 488.84C758.09 479.495 750.515 471.92 741.17 471.92Z" fill="url(#paint58_linear_1090_2266)"/>
<path style="mix-blend-mode:multiply" opacity="0.56" d="M16.92 481.43H741.17C748.86 481.43 755.35 486.57 757.4 493.6C757.84 492.09 758.09 490.5 758.09 488.84C758.09 479.49 750.51 471.92 741.17 471.92H16.92C7.57 471.92 0 479.5 0 488.84C0 490.49 0.25 492.09 0.69 493.6C2.75 486.57 9.23 481.43 16.92 481.43Z" fill="url(#paint59_linear_1090_2266)"/>
<path d="M637.49 415.48C637.49 415.92 637.85 416.28 638.29 416.28H638.89C639.33 416.28 639.69 416.64 639.69 417.07C639.69 417.29 639.6 417.49 639.46 417.63C639.32 417.78 639.12 417.86 638.9 417.86H519.49C516.32 417.86 513.76 415.29 513.76 412.13V391.09C513.76 387.92 516.33 385.36 519.49 385.36H638.9C639.34 385.36 639.7 385.72 639.7 386.15V386.67C639.7 387.11 639.34 387.47 638.9 387.47H638.3C637.86 387.47 637.5 387.83 637.5 388.26V415.47L637.49 415.48Z" fill="url(#paint60_linear_1090_2266)"/>
<path d="M637.489 388.28V415.49C637.489 415.93 637.129 416.29 636.699 416.29H523.289C521.129 416.29 519.369 414.54 519.369 412.37V391.4C519.369 389.24 521.119 387.48 523.289 387.48H636.699C637.139 387.48 637.489 387.84 637.489 388.27V388.28Z" fill="#F1F2F2"/>
<g style="mix-blend-mode:multiply" opacity="0.78">
<path d="M637.49 397.59V402.86C622.63 401.5 614.51 398.44 592.55 398.44C573.57 398.44 545.31 398.52 526.4 396.93C562.12 396.93 600.55 397.82 637.49 397.59Z" fill="#E6E7E8"/>
</g>
<g style="mix-blend-mode:multiply" opacity="0.78">
<path d="M637.49 403.47V405.6C603.54 405.71 569.34 402.11 535.42 402.53C567.69 400.04 604.83 405.31 637.49 403.46V403.47Z" fill="#E6E7E8"/>
</g>
<g style="mix-blend-mode:multiply" opacity="0.78">
<path d="M637.491 405.91V408.53C619.731 407.91 601.971 407.29 584.221 406.67C601.881 404.98 619.801 407.04 637.491 405.91Z" fill="#E6E7E8"/>
</g>
<path d="M656.38 436.9C656.38 437.34 656.74 437.7 657.18 437.7H657.78C658.22 437.7 658.58 438.06 658.58 438.49C658.58 438.71 658.49 438.91 658.35 439.05C658.21 439.2 658.01 439.28 657.79 439.28H519.63C516.46 439.28 513.9 436.71 513.9 433.55V423.45C513.9 420.28 516.47 417.72 519.63 417.72H657.79C658.23 417.72 658.59 418.08 658.59 418.51V419.03C658.59 419.47 658.23 419.83 657.79 419.83H657.19C656.75 419.83 656.39 420.19 656.39 420.62V436.89L656.38 436.9Z" fill="url(#paint61_linear_1090_2266)"/>
<path d="M656.38 420.63V436.9C656.38 437.34 656.02 437.7 655.59 437.7H523.43C521.27 437.7 519.51 435.95 519.51 433.78V423.75C519.51 421.59 521.26 419.83 523.43 419.83H655.59C656.03 419.83 656.38 420.19 656.38 420.62V420.63Z" fill="#F1F2F2"/>
<g style="mix-blend-mode:multiply" opacity="0.55">
<path d="M656.381 426.44V428.57C622.431 428.68 569.481 425.08 535.561 425.5C567.831 423.01 623.711 428.28 656.381 426.43V426.44Z" fill="#E6E7E8"/>
</g>
<g style="mix-blend-mode:multiply">
<path d="M656.379 428.88V431.5C638.619 430.88 602.119 430.26 584.359 429.64C602.019 427.95 638.689 430.01 656.379 428.88Z" fill="#E6E7E8"/>
</g>
<path d="M662.551 469.43C662.551 469.87 662.911 470.23 663.351 470.23H663.951C664.391 470.23 664.751 470.59 664.751 471.02C664.751 471.24 664.661 471.44 664.521 471.58C664.381 471.73 664.181 471.81 663.961 471.81H512.191C509.021 471.81 506.461 469.24 506.461 466.08V445.04C506.461 441.87 509.031 439.31 512.191 439.31H663.961C664.401 439.31 664.761 439.67 664.761 440.1V440.62C664.761 441.06 664.401 441.42 663.961 441.42H663.361C662.921 441.42 662.561 441.78 662.561 442.21V469.42L662.551 469.43Z" fill="url(#paint62_linear_1090_2266)"/>
<path style="mix-blend-mode:multiply" d="M520.519 441.82H653.309C658.409 441.82 662.559 445.96 662.559 451.07V469.32H511.279V451.07C511.279 445.97 515.419 441.82 520.529 441.82H520.519Z" fill="url(#paint63_linear_1090_2266)"/>
<path style="mix-blend-mode:multiply" d="M520.519 441.82H653.309C658.409 441.82 662.559 445.96 662.559 451.07V469.32H511.279V451.07C511.279 445.97 515.419 441.82 520.529 441.82H520.519Z" fill="url(#paint64_linear_1090_2266)"/>
<path d="M526.81 442.68C519.69 442.68 513.92 448.45 513.92 455.57C513.92 462.69 519.69 468.46 526.81 468.46C533.93 468.46 539.7 462.69 539.7 455.57C539.7 448.45 533.93 442.68 526.81 442.68ZM526.81 466.63C520.7 466.63 515.76 461.68 515.76 455.57C515.76 449.46 520.71 444.52 526.81 444.52C532.91 444.52 537.86 449.47 537.86 455.57C537.86 461.67 532.91 466.63 526.81 466.63Z" fill="url(#paint65_linear_1090_2266)"/>
<path d="M669.179 452.55C669.099 454 668.509 460.64 668.549 461.2C668.589 461.67 668.629 462.13 668.679 462.59C667.759 462.44 668.549 468.98 669.999 469.02C657.479 469.12 644.959 469.22 632.439 469.32C597.519 469.6 562.609 469.87 527.699 469.29C528.489 468.39 529.269 467.49 530.059 466.59C529.399 466.45 528.749 466.32 528.099 466.18C527.619 465.05 528.559 462.67 528.559 462.67C528.559 462.67 529.669 462.55 530.299 462.47C530.029 461.82 529.089 461.61 528.639 461.47C528.179 459.66 529.029 455.97 529.029 455.97C529.029 455.97 530.479 456.07 531.219 455.38C530.789 455.1 528.829 454.22 528.829 454.22L528.159 451.66C528.159 451.66 530.669 451.16 531.639 450.21C530.829 450.29 530.019 450.38 529.209 450.46C529.589 449.42 529.549 448.18 529.119 447.18C530.289 446.71 531.459 446.24 532.629 445.77C531.679 445.71 530.729 445.66 529.779 445.6C530.089 444.46 530.409 443.33 530.719 442.18C576.679 442.63 623.409 444.23 670.009 441.5C670.069 443.19 670.129 443.94 670.189 445.63C669.379 446.15 669.289 447.53 670.049 447.7C669.809 448.49 669.609 449.3 669.469 450.12V450.15C669.329 450.93 669.239 451.73 669.189 452.52V452.54L669.179 452.55Z" fill="#F1F2F2"/>
<g style="mix-blend-mode:multiply" opacity="0.63">
<path d="M669.179 452.55C624.679 451.93 580.189 451.31 535.689 450.68C580.279 451.16 624.879 450.97 669.459 450.12L669.179 452.55Z" fill="#E6E7E8"/>
</g>
<g style="mix-blend-mode:multiply" opacity="0.63">
<path d="M666.611 458.62C632.211 459.65 597.801 460.05 563.391 459.82C597.521 458.39 631.711 458.5 666.881 458.3L666.611 458.61V458.62Z" fill="#E6E7E8"/>
</g>
<g style="mix-blend-mode:multiply" opacity="0.63">
<path d="M668.681 462.6C667.761 462.45 666.811 463.06 666.321 464C658.631 464.08 650.951 464.16 643.261 464.24C624.131 464.44 604.851 464.62 586.051 461.1C613.561 461.13 641.061 461.17 668.561 461.21C668.601 461.68 668.641 462.14 668.691 462.6H668.681Z" fill="#E6E7E8"/>
</g>
<path d="M540.79 336.03C540.79 336.42 540.47 336.74 540.08 336.74H539.55C539.16 336.74 538.84 337.06 538.84 337.45C538.84 337.65 538.92 337.83 539.05 337.95C539.18 338.08 539.36 338.16 539.55 338.16H646.54C649.38 338.16 651.68 335.86 651.68 333.02V314.17C651.68 311.33 649.38 309.03 646.54 309.03H539.55C539.16 309.03 538.84 309.35 538.84 309.74V310.21C538.84 310.6 539.16 310.92 539.55 310.92H540.08C540.47 310.92 540.79 311.24 540.79 311.63V336.01V336.03Z" fill="url(#paint66_linear_1090_2266)"/>
<path d="M540.789 311.66V336.04C540.789 336.43 541.109 336.75 541.499 336.75H643.119C645.059 336.75 646.629 335.18 646.629 333.24V314.45C646.629 312.51 645.059 310.94 643.119 310.94H541.499C541.109 310.94 540.789 311.26 540.789 311.65V311.66Z" fill="#F1F2F2"/>
<g style="mix-blend-mode:multiply" opacity="0.78">
<path d="M540.789 320V324.73C554.099 323.51 561.379 320.77 581.059 320.77C598.069 320.77 623.389 320.84 640.329 319.42C608.319 319.42 573.889 320.22 540.789 320.01V320Z" fill="#E6E7E8"/>
</g>
<g style="mix-blend-mode:multiply" opacity="0.78">
<path d="M540.789 325.27V327.18C571.209 327.28 601.859 324.05 632.249 324.43C603.339 322.2 570.059 326.92 540.789 325.26V325.27Z" fill="#E6E7E8"/>
</g>
<g style="mix-blend-mode:multiply" opacity="0.78">
<path d="M540.789 327.45V329.8C556.699 329.25 572.609 328.69 588.519 328.14C572.699 326.63 556.639 328.47 540.789 327.46V327.45Z" fill="#E6E7E8"/>
</g>
<path d="M523.86 355.22C523.86 355.61 523.54 355.93 523.15 355.93H522.62C522.23 355.93 521.91 356.25 521.91 356.64C521.91 356.84 521.99 357.02 522.12 357.14C522.25 357.27 522.43 357.35 522.62 357.35H646.41C649.25 357.35 651.55 355.05 651.55 352.21V343.16C651.55 340.32 649.25 338.02 646.41 338.02H522.62C522.23 338.02 521.91 338.34 521.91 338.73V339.2C521.91 339.59 522.23 339.91 522.62 339.91H523.15C523.54 339.91 523.86 340.23 523.86 340.62V355.2V355.22Z" fill="url(#paint67_linear_1090_2266)"/>
<path d="M523.859 340.65V355.23C523.859 355.62 524.179 355.94 524.569 355.94H642.989C644.929 355.94 646.499 354.37 646.499 352.43V343.44C646.499 341.5 644.929 339.93 642.989 339.93H524.569C524.179 339.93 523.859 340.25 523.859 340.64V340.65Z" fill="#F1F2F2"/>
<g style="mix-blend-mode:multiply" opacity="0.55">
<path d="M523.859 345.86V347.77C554.279 347.87 601.729 344.64 632.119 345.02C603.209 342.79 553.129 347.51 523.859 345.85V345.86Z" fill="#E6E7E8"/>
</g>
<g style="mix-blend-mode:multiply">
<path d="M523.859 348.04V350.39C539.769 349.84 572.479 349.28 588.389 348.73C572.569 347.22 539.709 349.06 523.859 348.05V348.04Z" fill="#E6E7E8"/>
</g>
<path d="M657.381 385.12V357.61H541.461V385.12H657.381Z" fill="url(#paint68_linear_1090_2266)"/>
<path d="M657.381 382.65V360.1H541.461V382.65H657.381Z" fill="url(#paint69_linear_1090_2266)"/>
<path d="M653.539 360.1H545.289V382.65H653.539V360.1Z" fill="#F1F2F2"/>
<g style="mix-blend-mode:multiply">
<path d="M653.539 364.26H545.289V366.06H653.539V364.26Z" fill="#E6E7E8"/>
</g>
<g style="mix-blend-mode:multiply">
<path d="M653.539 368.38H545.289V370.18H653.539V368.38Z" fill="#E6E7E8"/>
</g>
<g style="mix-blend-mode:multiply">
<path d="M653.539 377.46H545.289V379.26H653.539V377.46Z" fill="#E6E7E8"/>
</g>
<path d="M83.5702 303.49C83.4402 303.21 83.3302 302.91 83.2402 302.61L83.5702 303.49Z" stroke="#010101" stroke-miterlimit="10"/>
<path d="M112.78 287.37L111.11 288.5L85.5599 305.85L84.6699 306.45L83.5699 303.49C83.5699 303.49 83.2599 302.84 83.2399 302.61C82.8599 298.29 85.2499 291.83 91.4499 287.33C97.8599 282.68 105.2 281.6 108.89 284.52L109.34 284.85L112.78 287.38V287.37Z" fill="url(#paint70_linear_1090_2266)"/>
<path d="M112.78 287.37L111.11 288.5L85.5603 305.85L84.6703 306.45L83.5703 303.49C83.6403 299.43 86.7403 294.32 92.0703 290.22C97.8903 285.75 104.7 283.78 109.34 284.84L112.78 287.37Z" fill="url(#paint71_linear_1090_2266)"/>
<path d="M63.3908 460.2C61.3108 433.85 59.2308 407.32 62.0908 381.04C64.9508 354.77 73.0908 328.47 89.5108 307.76C90.4408 309.41 91.3608 311.06 92.2908 312.71C76.6008 332.86 69.1408 358.45 67.1008 383.9C65.0608 409.35 68.1108 434.92 71.5808 460.34C69.1808 460.42 66.7808 460.5 63.3908 460.19V460.2Z" fill="url(#paint72_linear_1090_2266)"/>
<path d="M144.091 312.15L104.021 340.63L96.9208 345.68L83.1508 314.41C83.1108 314.33 83.0808 314.24 83.0408 314.16L83.0108 314.09C81.8008 311.14 82.2008 307.44 83.9208 303.65C85.6708 299.81 88.7808 295.88 92.9608 292.54C93.4108 292.18 93.8808 291.83 94.3608 291.48C95.6908 290.51 97.0508 289.66 98.4108 288.91C100.011 288.04 101.621 287.31 103.211 286.75C104.471 286.29 105.731 285.94 106.951 285.68C112.681 284.47 117.751 285.46 120.451 288.77L144.081 312.16L144.091 312.15Z" fill="url(#paint73_linear_1090_2266)"/>
<path style="mix-blend-mode:screen" opacity="0.1" d="M127.241 321.92C124.821 322.6 122.381 323.29 120.211 324.56C118.041 325.83 116.151 327.76 115.471 330.18C108.161 317.52 100.661 304.97 92.9707 292.54C93.4207 292.18 93.8907 291.83 94.3707 291.48C95.7007 290.51 97.0607 289.66 98.4207 288.91C98.9907 289.09 127.651 321.58 127.241 321.93V321.92Z" fill="url(#paint74_linear_1090_2266)"/>
<path style="mix-blend-mode:screen" opacity="0.1" d="M138.601 315.65L130.721 316.57L103.211 286.74C104.471 286.28 105.731 285.93 106.951 285.67L138.601 315.66V315.65Z" fill="url(#paint75_linear_1090_2266)"/>
<path d="M104.021 340.63L96.9208 345.68L83.1508 314.41C83.1108 314.33 83.0808 314.24 83.0408 314.16L83.0108 314.09C81.8008 311.14 82.2008 307.44 83.9208 303.65C89.0008 318.04 99.1108 334.06 104.011 340.64L104.021 340.63Z" fill="#498B40"/>
<path d="M129.64 341.54C116.68 350.95 102.33 353.29 97.5896 346.76C96.3696 345.08 95.9096 342.98 96.1096 340.62C96.4796 336.3 99.0896 331.13 103.41 326.14C105.9 323.27 108.95 320.45 112.47 317.9C115.99 315.34 119.61 313.31 123.11 311.83C126.34 310.47 129.47 309.58 132.33 309.19C137.79 308.45 142.26 309.55 144.52 312.67C149.26 319.2 142.6 332.13 129.65 341.54H129.64Z" fill="url(#paint76_linear_1090_2266)"/>
<path d="M129.64 341.54C116.68 350.95 102.33 353.29 97.5896 346.76C96.3696 345.08 95.9096 342.98 96.1096 340.62C96.4796 336.3 99.0896 331.13 103.41 326.14C105.9 323.27 108.95 320.45 112.47 317.9C115.99 315.34 119.61 313.31 123.11 311.83C126.34 310.47 129.47 309.58 132.33 309.19C137.79 308.45 142.26 309.55 144.52 312.67C149.26 319.2 142.6 332.13 129.65 341.54H129.64Z" fill="url(#paint77_linear_1090_2266)"/>
<path d="M127.309 339.51C115.249 348.27 101.889 350.45 97.4794 344.37C96.6994 343.29 96.2494 342.03 96.1094 340.63C96.4794 336.31 99.0894 331.14 103.409 326.15C105.899 323.28 108.949 320.46 112.469 317.91C115.989 315.35 119.609 313.32 123.109 311.84C126.339 310.48 129.469 309.59 132.329 309.2C136.259 309.12 139.419 310.23 141.169 312.64C145.589 318.72 139.389 330.75 127.319 339.51H127.309Z" fill="url(#paint78_linear_1090_2266)"/>
<path d="M123.101 311.83C122.971 316.23 120.701 320.69 116.631 323.64C112.561 326.6 107.621 327.37 103.391 326.14C105.881 323.26 108.931 320.45 112.451 317.89C115.971 315.33 119.591 313.3 123.091 311.82L123.101 311.83Z" fill="white"/>
<path d="M40.5 455.9H94.9106C99.3606 455.9 102.971 459.51 102.971 463.96C102.971 468.41 99.3606 472.02 94.9106 472.02H32.8906L40.5 455.9Z" fill="url(#paint79_linear_1090_2266)"/>
<path opacity="0.19" d="M315.25 471.53L133.04 472.27L97.1396 343.05L96.7296 342.03C95.9596 324.29 130.13 302.18 143.19 310.97L315.24 471.53H315.25Z" fill="url(#paint80_linear_1090_2266)"/>
<path opacity="0.24" d="M528.051 84.9403L709.281 83.3503L716.141 67.0303H531.221L528.051 84.9403Z" fill="url(#paint81_linear_1090_2266)"/>
<path opacity="0.24" d="M531.219 75.9601V126.09L389.329 125.05L386.029 108.2H522.289V41.1401L386.029 40.6101V21.1201H531.219V67.5201V75.9601Z" fill="url(#paint82_linear_1090_2266)"/>
<path d="M716.141 58.5898H531.221V67.5198H716.141V58.5898Z" fill="url(#paint83_linear_1090_2266)"/>
<path d="M531.219 58.5902V12.6802H386.029V21.6102H522.289V99.7602H386.029V108.69H531.219V67.0302V58.5902Z" fill="url(#paint84_linear_1090_2266)"/>
<path opacity="0.24" d="M635.52 145.58L639.75 211.06H776.01L763.34 230.54L623.43 229.49L630.82 185.68L387.26 187.79V169.89H630.82V123.98H776.01L772.38 144.52L635.52 145.58Z" fill="url(#paint85_linear_1090_2266)"/>
<path d="M639.75 124.47V202.61H776.01V211.54H630.82V170.37H387.26V161.44H630.82V115.53H776.01V124.47H639.75Z" fill="url(#paint86_linear_1090_2266)"/>
<path d="M666.437 128.514L674.033 127.379C676.773 126.969 679.331 128.862 679.74 131.602L689.29 195.502C689.699 198.241 687.807 200.799 685.067 201.209L677.471 202.344C674.732 202.753 672.174 200.861 671.765 198.121L662.215 134.221C661.805 131.481 663.698 128.923 666.437 128.514Z" fill="url(#paint87_linear_1090_2266)"/>
<path d="M694.19 126.971L680.353 129.578C679.365 129.764 678.715 130.716 678.901 131.704L692.049 201.486C692.235 202.474 693.187 203.123 694.175 202.937L708.011 200.33C708.999 200.144 709.649 199.193 709.463 198.205L696.315 128.423C696.129 127.435 695.177 126.785 694.19 126.971Z" fill="url(#paint88_linear_1090_2266)"/>
<path d="M699.566 145.703L682.152 148.984L682.743 152.119L700.157 148.838L699.566 145.703Z" fill="url(#paint89_linear_1090_2266)"/>
<path d="M705.066 174.89L687.652 178.171L688.243 181.306L705.657 178.025L705.066 174.89Z" fill="url(#paint90_linear_1090_2266)"/>
<path d="M660.79 128.28H643.07V202.93H660.79V128.28Z" fill="url(#paint91_linear_1090_2266)"/>
<path d="M659.18 128.28H644.66V202.93H659.18V128.28Z" fill="url(#paint92_linear_1090_2266)"/>
<path d="M659.18 130.75H644.66V200.46H659.18V130.75Z" fill="#F1F2F2"/>
<g style="mix-blend-mode:multiply">
<path d="M648.5 130.75H647.34V200.46H648.5V130.75Z" fill="#E6E7E8"/>
</g>
<g style="mix-blend-mode:multiply">
<path d="M651.15 130.75H649.99V200.46H651.15V130.75Z" fill="#E6E7E8"/>
</g>
<g style="mix-blend-mode:multiply">
<path d="M657 130.75H655.84V200.46H657V130.75Z" fill="#E6E7E8"/>
</g>
<path d="M466.838 25.5733L474.518 25.5854C477.288 25.5897 479.535 27.8433 479.53 30.6133L479.429 95.2232C479.425 97.9932 477.171 100.24 474.401 100.235L466.721 100.223C463.951 100.219 461.705 97.9653 461.709 95.1953L461.81 30.5854C461.815 27.8154 464.068 25.569 466.838 25.5733Z" fill="url(#paint93_linear_1090_2266)"/>
<path d="M443.769 26.9486L439.249 97.8145C439.185 98.8177 439.946 99.6827 440.949 99.7467L455.001 100.643C456.004 100.707 456.869 99.9457 456.933 98.9426L461.453 28.0767C461.517 27.0735 460.756 26.2085 459.753 26.1445L445.701 25.2481C444.698 25.1841 443.833 25.9455 443.769 26.9486Z" fill="url(#paint94_linear_1090_2266)"/>
<path d="M496.95 26.2998H479.23V100.95H496.95V26.2998Z" fill="url(#paint95_linear_1090_2266)"/>
<path d="M495.35 26.2998H480.83V100.95H495.35V26.2998Z" fill="url(#paint96_linear_1090_2266)"/>
<path d="M495.35 28.7803H480.83V98.4903H495.35V28.7803Z" fill="#F1F2F2"/>
<g style="mix-blend-mode:multiply">
<path d="M492.67 28.7803H491.51V98.4903H492.67V28.7803Z" fill="#E6E7E8"/>
</g>
<g style="mix-blend-mode:multiply">
<path d="M490.019 28.7803H488.859V98.4903H490.019V28.7803Z" fill="#E6E7E8"/>
</g>
<g style="mix-blend-mode:multiply">
<path d="M484.17 28.7803H483.01V98.4903H484.17V28.7803Z" fill="#E6E7E8"/>
</g>
<path d="M521.971 35.2197H498.811V100.95H521.971V35.2197Z" fill="url(#paint97_linear_1090_2266)"/>
<path d="M520.37 35.2197H500.41V100.95H520.37V35.2197Z" fill="url(#paint98_linear_1090_2266)"/>
<path d="M520.37 37.7002H500.41V98.4902H520.37V37.7002Z" fill="#F1F2F2"/>
<g style="mix-blend-mode:multiply">
<path d="M517.689 37.7002H516.529V98.4902H517.689V37.7002Z" fill="#E6E7E8"/>
</g>
<g style="mix-blend-mode:multiply">
<path d="M515.041 37.7002H513.881V98.4902H515.041V37.7002Z" fill="#E6E7E8"/>
</g>
<g style="mix-blend-mode:multiply">
<path d="M503.75 37.7002H502.59V98.4902H503.75V37.7002Z" fill="#E6E7E8"/>
</g>
<path d="M649.48 46.9199H647.18V52.4099H649.48V46.9199Z" fill="url(#paint99_linear_1090_2266)"/>
<path d="M633.53 58.7897H663.13L663.09 56.9797L663.039 56.9597L649.469 51.6297L648.45 51.2297L648.33 51.1797L648.21 51.2297L647.18 51.6297L633.609 56.9597L633.56 56.9797L633.52 58.7897H633.53Z" fill="url(#paint100_linear_1090_2266)"/>
<path d="M626.51 34.28C630.74 42.36 638.71 47.21 647.18 47.83C647.94 47.89 648.71 47.91 649.48 47.89C653.31 47.83 657.19 46.89 660.81 44.99L660.52 44.44L659.82 43.1C659.27 43.39 658.72 43.65 658.17 43.89C647.11 48.62 634.09 44.13 628.42 33.29C622.75 22.46 626.45 9.2 636.65 2.81C637.16 2.49 637.69 2.18 638.24 1.9L637.55 0.58L637.24 0C624.81 6.51 620.01 21.86 626.52 34.29H626.51V34.28Z" fill="url(#paint101_linear_1090_2266)"/>
<path d="M660.559 44.4204L657.819 39.1904L656.199 40.0404L658.939 45.2704L660.559 44.4204Z" fill="url(#paint102_linear_1090_2266)"/>
<path d="M640.309 5.77004L637.569 0.540039L635.949 1.39004L638.689 6.62004L640.309 5.77004Z" fill="url(#paint103_linear_1090_2266)"/>
<path d="M627.199 23.2099C627.199 27.0399 628.219 30.6299 629.999 33.7299C633.649 40.0699 640.479 44.3299 648.319 44.3299C658.849 44.3299 667.569 36.6299 669.179 26.5699C669.349 25.4799 669.449 24.3599 669.449 23.2199C669.449 12.6099 661.609 3.81986 651.409 2.32986C650.399 2.17986 649.369 2.10986 648.329 2.10986C645.439 2.10986 642.669 2.68986 640.159 3.74986C636.329 5.35986 633.079 8.05986 630.779 11.4599C628.749 14.4799 627.479 18.0499 627.239 21.9099C627.209 22.3499 627.199 22.7799 627.199 23.2299V23.2099Z" fill="url(#paint104_linear_1090_2266)"/>
<path d="M653.3 21.4499C654.98 22.1199 656.04 24.0699 655.68 25.8499C655.47 26.8699 654.86 27.7999 654.83 28.8399C654.8 29.8699 655.34 30.8199 655.87 31.7199C656.45 32.7099 657.03 33.6899 657.61 34.6799C657.85 35.0899 658.1 35.5099 658.46 35.8399C658.71 36.0799 659.02 36.2699 659.2 36.5699C659.65 37.3199 658.99 38.3299 658.15 38.5699C657.32 38.8099 656.42 38.5399 655.6 38.2599L652.04 37.0599C651.02 36.7099 649.96 36.3599 649.14 35.6599C648.6 35.1999 648.11 34.5699 647.4 34.4699C646.94 34.4099 646.49 34.5999 646.03 34.6399C644.82 34.7599 643.75 33.8799 642.85 33.0599C642.34 32.5899 641.82 32.1199 641.46 31.5399C641.1 30.9499 640.91 30.2199 641.11 29.5699C641.54 28.1399 643.47 27.7199 644.19 26.4199C644.58 25.7199 644.56 24.8699 644.68 24.0699C644.8 23.2799 645.17 22.3999 645.93 22.1499C646.23 22.0499 646.58 22.0599 646.85 21.8799C647.33 21.5499 647.27 20.8199 647.53 20.2999C647.86 19.6199 648.74 19.3599 649.48 19.4899C650.22 19.6199 650.87 20.0699 651.49 20.4999C652.11 20.9299 652.76 21.2699 653.29 21.4699V21.4499H653.3Z" fill="url(#paint105_linear_1090_2266)"/>
<path d="M655.049 34.7001C653.459 32.9401 652.759 30.4001 653.229 28.0801C653.479 26.8501 653.989 25.4501 653.209 24.4701C652.579 23.6901 651.439 23.6301 650.429 23.6401C649.949 23.6401 649.429 23.6601 649.069 23.9801C648.849 24.1801 648.729 24.4701 648.559 24.7201C648.119 25.3601 647.349 25.7001 646.789 26.2401C646.229 26.7901 645.949 27.8201 646.569 28.2901C645.889 28.2201 645.169 28.2001 644.549 28.5001C643.929 28.8001 643.459 29.4801 643.599 30.1601C643.799 31.1001 644.959 31.4501 645.919 31.5201C646.879 31.5901 648.009 31.6801 648.529 32.4901C648.739 32.8301 648.809 33.2601 649.059 33.5801C649.229 33.7901 649.459 33.9401 649.689 34.0701C650.779 34.7301 651.879 35.3901 652.979 36.0601C653.519 36.3901 654.079 36.7201 654.709 36.7901C655.339 36.8601 656.049 36.6001 656.289 36.0201C656.539 35.4401 656.049 34.6301 655.039 34.6901H655.049V34.7001Z" fill="url(#paint106_linear_1090_2266)"/>
<path d="M653.82 5.00978C654.23 5.87978 654.65 6.75978 655.07 7.63978C655.21 7.93978 655.36 8.27978 655.28 8.60978C655.12 9.27978 654.16 9.38978 653.56 9.04978C652.97 8.70978 652.56 8.10978 651.98 7.72978C651.4 7.35978 650.47 7.33978 650.19 7.96978C649.95 8.50978 650.33 9.23978 649.94 9.66978C649.51 10.1498 648.69 9.67978 648.43 9.08978C648.18 8.49978 648.16 7.79978 647.75 7.29978C647.26 6.71978 646.38 6.65978 645.64 6.84978C644.91 7.02978 644.23 7.40978 643.49 7.55978C642.75 7.70978 641.86 7.54978 641.46 6.89978C641.06 6.25978 641.35 5.35978 641.89 4.83978C642.44 4.31978 643.19 4.06978 643.91 3.83978C644.95 3.50978 646.03 3.16978 647.12 3.28978C648.26 3.41978 649.31 4.04978 650.46 4.10978C651.27 4.14978 652.09 3.90978 652.88 4.08978C653.66 4.26978 654.37 5.21978 653.8 4.98978L653.82 5.00978Z" fill="url(#paint107_linear_1090_2266)"/>
<path d="M627.199 23.21C627.199 27.04 628.219 30.63 629.999 33.73C630.049 32.82 629.269 31.6 629.999 30.99C630.659 30.44 631.999 31.03 632.329 30.24C632.539 29.75 632.049 29.23 632.009 28.69C631.949 27.92 632.789 27.37 632.919 26.61C633.019 25.97 632.619 25.38 632.299 24.82C632.039 24.34 631.829 23.82 631.639 23.3C631.129 21.98 630.619 20.62 630.589 19.21C630.579 18.49 630.689 17.77 630.799 17.06C630.959 16.05 631.119 15.04 631.279 14.03C631.419 13.12 631.479 12 630.769 11.46C628.509 14.82 627.189 18.87 627.189 23.22L627.199 23.21Z" fill="url(#paint108_linear_1090_2266)"/>
<path d="M629.201 17.3101C629.841 17.7201 629.911 18.6301 629.751 19.3801C629.591 20.1301 629.281 20.8801 629.441 21.6201C629.551 22.1401 629.871 22.6001 630.091 23.0901C630.771 24.6201 630.411 26.3901 630.041 28.0201C629.941 28.4301 629.731 28.9501 629.311 28.9401C628.861 28.9401 628.681 28.3601 628.631 27.9201C628.231 24.5201 627.871 20.8701 629.211 17.3201L629.201 17.3101Z" fill="url(#paint109_linear_1090_2266)"/>
<path d="M663.919 14.0898C663.759 14.3398 663.599 14.5798 663.439 14.8298C663.449 15.0398 663.719 15.1198 663.929 15.0898C664.139 15.0598 664.359 14.9698 664.539 15.0698C664.719 15.1598 664.789 15.3898 664.899 15.5598C665.019 15.7298 665.289 15.8598 665.409 15.6898C665.109 15.0598 664.619 14.5298 663.909 14.0898H663.919Z" fill="url(#paint110_linear_1090_2266)"/>
<path d="M638.03 11.9301C638.61 12.5301 639.64 12.1701 640.25 11.6001C640.85 11.0201 641.33 10.2601 642.11 9.97008C643.19 9.58008 644.32 10.2601 645.45 10.4601C646.16 10.5901 646.97 10.5301 647.53 10.9901C647.89 11.2901 648.07 11.7401 648.34 12.1201C648.6 12.5001 649.05 12.8401 649.5 12.7101C649.97 12.5801 650.16 12.0401 650.36 11.6001C650.79 10.6601 651.69 9.85008 652.73 9.84008C653.77 9.82008 654.78 10.8501 654.5 11.8501C654.25 12.7201 653.27 13.1401 652.7 13.8501C651.81 14.9701 652.14 16.6901 652.98 17.8401C653.58 17.7901 653.94 17.1401 654.05 16.5501C654.16 15.9601 654.17 15.3101 654.52 14.8301C655.08 14.0601 656.32 14.0201 656.84 13.2301C657.09 12.8401 657.13 12.3601 657.12 11.9001C657.1 11.0501 656.96 10.2001 656.7 9.39008C656.35 8.28008 655.77 7.18008 655.91 6.03008C656.23 3.96008 652.98 3.69008 651.42 2.30008C650.41 2.15008 649.38 2.08008 648.34 2.08008C645.45 2.08008 642.68 2.66008 640.17 3.72008C640.12 3.79008 640.08 3.86008 640.04 3.93008C639.79 4.34008 639.54 4.78008 639.53 5.26008C639.51 6.03008 640.1 6.71008 640.07 7.47008C640.03 8.36008 639.21 8.96008 638.57 9.58008C637.93 10.2001 637.44 11.2701 638.05 11.9101L638.03 11.9301Z" fill="url(#paint111_linear_1090_2266)"/>
<path d="M666.901 16.9C666.201 17.08 665.411 16.88 664.901 16.39C664.721 16.22 664.561 16 664.331 15.89C663.961 15.7 663.491 15.82 663.111 15.65C662.561 15.4 662.451 14.62 662.731 14.09C663.011 13.55 663.541 13.22 664.051 12.91C664.231 12.81 664.451 12.7 664.631 12.81C664.921 13 664.661 13.52 664.871 13.79C665.021 13.99 665.331 13.97 665.511 14.13C665.681 14.29 665.691 14.54 665.771 14.76C665.881 15.09 666.141 15.34 666.391 15.59C666.631 15.84 666.871 16.11 666.931 16.46C666.991 16.8 666.771 17.21 666.901 16.91V16.9Z" fill="url(#paint112_linear_1090_2266)"/>
<path style="mix-blend-mode:multiply" opacity="0.59" d="M633.53 58.79H663.13L663.09 56.98L663.039 56.96H633.609L633.56 56.98L633.52 58.79H633.53Z" fill="url(#paint113_linear_1090_2266)"/>
<g style="mix-blend-mode:multiply" opacity="0.56">
<path d="M627.199 23.2099C627.199 27.0399 628.219 30.6299 629.999 33.7299C633.649 40.0699 640.479 44.3299 648.319 44.3299C658.849 44.3299 667.569 36.6299 669.179 26.5699C667.559 29.4099 665.419 31.9399 662.829 33.9299C657.639 37.9199 650.649 39.6099 644.289 38.0499C636.919 36.2399 631.009 30.3099 627.869 23.3999C627.649 22.9099 627.429 22.3999 627.229 21.8999C627.199 22.3399 627.189 22.7699 627.189 23.2199L627.199 23.2099Z" fill="url(#paint114_linear_1090_2266)"/>
</g>
<g style="mix-blend-mode:screen" opacity="0.45">
<path d="M643.361 4.28989C647.321 3.09989 651.751 3.03989 655.571 4.44989C659.391 5.86989 662.511 8.82989 663.481 12.4399C663.841 13.7499 663.811 15.3399 662.661 16.2299C661.261 17.3199 659.111 16.7399 657.501 15.9699C655.151 14.8399 652.951 13.4099 650.391 12.7099C646.611 11.6699 642.251 12.4199 639.101 14.6399C637.761 15.5899 636.351 16.8699 634.671 16.6499C633.211 16.4499 632.121 15.0899 632.191 13.7699C632.411 9.33989 639.391 5.48989 643.361 4.29989V4.28989Z" fill="url(#paint115_linear_1090_2266)"/>
</g>
<path d="M717.361 401.191L713.719 400.737L705.131 469.685L708.773 470.138L717.361 401.191Z" fill="url(#paint116_linear_1090_2266)"/>
<path d="M709.368 402.349L705.924 402.148L702.906 453.85L706.351 454.051L709.368 402.349Z" fill="url(#paint117_linear_1090_2266)"/>
<path d="M709.399 402.3L705.949 402.1L707.479 398.27L707.979 397L708.329 398.32L709.399 402.3Z" fill="url(#paint118_linear_1090_2266)"/>
<path d="M708.331 398.32L707.48 398.27L707.98 397L708.331 398.32Z" fill="url(#paint119_linear_1090_2266)"/>
<path d="M697.479 446.82L694.25 447.09L694.338 448.146L697.567 447.876L697.479 446.82Z" fill="url(#paint120_linear_1090_2266)"/>
<path d="M697.102 442.278L693.873 442.548L693.961 443.604L697.19 443.334L697.102 442.278Z" fill="url(#paint121_linear_1090_2266)"/>
<path d="M696.723 437.725L693.494 437.995L693.582 439.051L696.811 438.781L696.723 437.725Z" fill="url(#paint122_linear_1090_2266)"/>
<path d="M696.346 433.172L693.117 433.442L693.206 434.499L696.434 434.229L696.346 433.172Z" fill="url(#paint123_linear_1090_2266)"/>
<path d="M695.957 428.621L692.729 428.891L692.817 429.947L696.046 429.677L695.957 428.621Z" fill="url(#paint124_linear_1090_2266)"/>
<path d="M683.815 357.723L677.258 358.271L685.893 461.541L692.45 460.993L683.815 357.723Z" fill="#E6E7E8"/>
<path d="M689.371 424.056L686.143 424.326L686.231 425.382L689.46 425.112L689.371 424.056Z" fill="#DE904D"/>
<path d="M687.842 405.886L684.613 406.156L684.702 407.213L687.93 406.943L687.842 405.886Z" fill="#DE904D"/>
<path d="M686.311 387.687L683.082 387.957L683.17 389.013L686.399 388.743L686.311 387.687Z" fill="#DE904D"/>
<path d="M684.789 369.487L681.561 369.757L681.649 370.813L684.878 370.543L684.789 369.487Z" fill="#DE904D"/>
<path d="M700.7 419.13H693.83L694.33 409.65H700.19L700.7 419.13Z" fill="url(#paint125_linear_1090_2266)"/>
<path d="M700.231 419.13H694.301V448.57H700.231V419.13Z" fill="url(#paint126_linear_1090_2266)"/>
<path d="M714.691 430.72H680.811V472.37H714.691V430.72Z" fill="url(#paint127_linear_1090_2266)"/>
<path style="mix-blend-mode:multiply" opacity="0.75" d="M714.691 430.72H680.811V432.82H714.691V430.72Z" fill="url(#paint128_linear_1090_2266)"/>
<path style="mix-blend-mode:multiply" opacity="0.39" d="M697.861 472.36H680.811V430.71H686.881C687.571 436.64 688.251 442.58 688.941 448.51C689.821 456.1 690.881 464.13 695.691 470.06C696.361 470.89 697.081 471.65 697.851 472.35L697.861 472.36Z" fill="url(#paint129_linear_1090_2266)"/>
<path d="M716.309 427.78H679.189V431.66H716.309V427.78Z" fill="url(#paint130_linear_1090_2266)"/>
<path style="mix-blend-mode:multiply" opacity="0.39" d="M689.439 431.66H679.189V427.78H688.519C688.739 429.09 689.039 430.4 689.439 431.66Z" fill="url(#paint131_linear_1090_2266)"/>
<defs>
<linearGradient id="paint0_linear_1090_2266" x1="191.717" y1="63.1795" x2="182.533" y2="118.933" gradientUnits="userSpaceOnUse">
<stop stop-color="#805F85"/>
<stop offset="1" stop-color="#39273A"/>
</linearGradient>
<linearGradient id="paint1_linear_1090_2266" x1="266.213" y1="99.8961" x2="278.24" y2="159.601" gradientUnits="userSpaceOnUse">
<stop stop-color="#805F85"/>
<stop offset="1" stop-color="#39273A"/>
</linearGradient>
<linearGradient id="paint2_linear_1090_2266" x1="278.003" y1="158.789" x2="278.606" y2="161.799" gradientUnits="userSpaceOnUse">
<stop stop-color="#805F85"/>
<stop offset="1" stop-color="#39273A"/>
</linearGradient>
<linearGradient id="paint3_linear_1090_2266" x1="274.728" y1="124.923" x2="265.385" y2="146.989" gradientUnits="userSpaceOnUse">
<stop stop-color="#805F85"/>
<stop offset="1" stop-color="#39273A"/>
</linearGradient>
<linearGradient id="paint4_linear_1090_2266" x1="273.193" y1="117.124" x2="260.544" y2="145.506" gradientUnits="userSpaceOnUse">
<stop stop-color="#805F85"/>
<stop offset="1" stop-color="#39273A"/>
</linearGradient>
<linearGradient id="paint5_linear_1090_2266" x1="191.426" y1="107.485" x2="210.434" y2="201.829" gradientUnits="userSpaceOnUse">
<stop stop-color="#805F85"/>
<stop offset="1" stop-color="#39273A"/>
</linearGradient>
<linearGradient id="paint6_linear_1090_2266" x1="290.304" y1="139.215" x2="274.963" y2="166.357" gradientUnits="userSpaceOnUse">
<stop stop-color="#FAAD77"/>
<stop offset="0.25" stop-color="#EFA06F"/>
<stop offset="0.7" stop-color="#D48159"/>
<stop offset="1" stop-color="#C0694A"/>
</linearGradient>
<linearGradient id="paint7_linear_1090_2266" x1="274.991" y1="150.39" x2="287.248" y2="163.284" gradientUnits="userSpaceOnUse">
<stop stop-color="#FDCEAB"/>
<stop offset="1" stop-color="#F79F81"/>
</linearGradient>
<linearGradient id="paint8_linear_1090_2266" x1="274.439" y1="166.572" x2="277.407" y2="168.592" gradientUnits="userSpaceOnUse">
<stop stop-color="#D88061"/>
<stop offset="1" stop-color="#B65A46"/>
</linearGradient>
<linearGradient id="paint9_linear_1090_2266" x1="238.14" y1="268.04" x2="238.14" y2="215.99" gradientUnits="userSpaceOnUse">
<stop stop-color="#FAAD77"/>
<stop offset="0.25" stop-color="#EFA06F"/>
<stop offset="0.7" stop-color="#D48159"/>
<stop offset="1" stop-color="#C0694A"/>
</linearGradient>
<linearGradient id="paint10_linear_1090_2266" x1="237.26" y1="245.65" x2="233.7" y2="208.52" gradientUnits="userSpaceOnUse">
<stop stop-color="#FAAD77"/>
<stop offset="0.25" stop-color="#EFA06F"/>
<stop offset="0.7" stop-color="#D48159"/>
<stop offset="1" stop-color="#C0694A"/>
</linearGradient>
<linearGradient id="paint11_linear_1090_2266" x1="243.06" y1="170.049" x2="258.911" y2="430.163" gradientUnits="userSpaceOnUse">
<stop stop-color="#FAAD77"/>
<stop offset="0.25" stop-color="#EFA06F"/>
<stop offset="0.7" stop-color="#D48159"/>
<stop offset="1" stop-color="#C0694A"/>
</linearGradient>
<linearGradient id="paint12_linear_1090_2266" x1="192.581" y1="104.256" x2="206.088" y2="171.334" gradientUnits="userSpaceOnUse">
<stop stop-color="#805F85"/>
<stop offset="1" stop-color="#39273A"/>
</linearGradient>
<linearGradient id="paint13_linear_1090_2266" x1="243.413" y1="89.0776" x2="243.601" y2="90.0052" gradientUnits="userSpaceOnUse">
<stop stop-color="#805F85"/>
<stop offset="1" stop-color="#39273A"/>
</linearGradient>
<linearGradient id="paint14_linear_1090_2266" x1="192.621" y1="130.053" x2="220.164" y2="152.104" gradientUnits="userSpaceOnUse">
<stop stop-color="#805F85"/>
<stop offset="1" stop-color="#39273A"/>
</linearGradient>
<linearGradient id="paint15_linear_1090_2266" x1="190.165" y1="131.162" x2="214.704" y2="181.974" gradientUnits="userSpaceOnUse">
<stop stop-color="#805F85"/>
<stop offset="1" stop-color="#39273A"/>
</linearGradient>
<linearGradient id="paint16_linear_1090_2266" x1="190.49" y1="153.301" x2="209.605" y2="175.727" gradientUnits="userSpaceOnUse">
<stop stop-color="#FAAD77"/>
<stop offset="1" stop-color="#FAAD77"/>
</linearGradient>
<linearGradient id="paint17_linear_1090_2266" x1="192.794" y1="158.046" x2="206.601" y2="172.556" gradientUnits="userSpaceOnUse">
<stop stop-color="#FDCEAB"/>
<stop offset="1" stop-color="#F79F81"/>
</linearGradient>
<linearGradient id="paint18_linear_1090_2266" x1="222.482" y1="89.9351" x2="228.728" y2="120.942" gradientUnits="userSpaceOnUse">
<stop stop-color="#805F85"/>
<stop offset="1" stop-color="#39273A"/>
</linearGradient>
<linearGradient id="paint19_linear_1090_2266" x1="222.799" y1="89.8784" x2="228.732" y2="119.316" gradientUnits="userSpaceOnUse">
<stop stop-color="#805F85"/>
<stop offset="1" stop-color="#39273A"/>
</linearGradient>
<linearGradient id="paint20_linear_1090_2266" x1="250.903" y1="87.5684" x2="256.05" y2="113.128" gradientUnits="userSpaceOnUse">
<stop stop-color="#805F85"/>
<stop offset="1" stop-color="#39273A"/>
</linearGradient>
<linearGradient id="paint21_linear_1090_2266" x1="204.098" y1="96.9015" x2="208.349" y2="117.971" gradientUnits="userSpaceOnUse">
<stop stop-color="#805F85"/>
<stop offset="1" stop-color="#39273A"/>
</linearGradient>
<linearGradient id="paint22_linear_1090_2266" x1="251.339" y1="156.317" x2="250.706" y2="135.478" gradientUnits="userSpaceOnUse">
<stop stop-color="#FAAD77"/>
<stop offset="0.25" stop-color="#EFA06F"/>
<stop offset="0.7" stop-color="#D48159"/>
<stop offset="1" stop-color="#C0694A"/>
</linearGradient>
<linearGradient id="paint23_linear_1090_2266" x1="269.501" y1="156.93" x2="266.049" y2="133.962" gradientUnits="userSpaceOnUse">
<stop stop-color="#FAAD77"/>
<stop offset="0.25" stop-color="#EFA06F"/>
<stop offset="0.7" stop-color="#D48159"/>
<stop offset="1" stop-color="#C0694A"/>
</linearGradient>
<linearGradient id="paint24_linear_1090_2266" x1="224.414" y1="134.192" x2="237.876" y2="150.236" gradientUnits="userSpaceOnUse">
<stop stop-color="#805F85"/>
<stop offset="1" stop-color="#39273A"/>
</linearGradient>
<linearGradient id="paint25_linear_1090_2266" x1="274.342" y1="130.689" x2="268.574" y2="141.6" gradientUnits="userSpaceOnUse">
<stop stop-color="#805F85"/>
<stop offset="1" stop-color="#39273A"/>
</linearGradient>
<linearGradient id="paint26_linear_1090_2266" x1="300.493" y1="181.374" x2="301.199" y2="169.004" gradientUnits="userSpaceOnUse">
<stop stop-color="#8F68AD"/>
<stop offset="1" stop-color="#FEEADB"/>
</linearGradient>
<linearGradient id="paint27_linear_1090_2266" x1="287.854" y1="162.8" x2="264.854" y2="166.228" gradientUnits="userSpaceOnUse">
<stop stop-color="#CF6076"/>
<stop offset="1" stop-color="#E14A80"/>
</linearGradient>
<linearGradient id="paint28_linear_1090_2266" x1="274.61" y1="151.582" x2="266.952" y2="151.772" gradientUnits="userSpaceOnUse">
<stop offset="0.21" stop-color="#3A1A12"/>
<stop offset="1" stop-color="#51170C"/>
</linearGradient>
<linearGradient id="paint29_linear_1090_2266" x1="247.021" y1="154.366" x2="239.033" y2="154.564" gradientUnits="userSpaceOnUse">
<stop offset="0.21" stop-color="#3A1A12"/>
<stop offset="1" stop-color="#51170C"/>
</linearGradient>
<linearGradient id="paint30_linear_1090_2266" x1="146.26" y1="450.81" x2="137.86" y2="385.61" gradientUnits="userSpaceOnUse">
<stop stop-color="#FAAD77"/>
<stop offset="0.36" stop-color="#E79768"/>
<stop offset="1" stop-color="#C0694A"/>
</linearGradient>
<linearGradient id="paint31_linear_1090_2266" x1="154.811" y1="444.02" x2="144.781" y2="407.29" gradientUnits="userSpaceOnUse">
<stop stop-color="#FAAD77"/>
<stop offset="0.25" stop-color="#EFA06F"/>
<stop offset="0.7" stop-color="#D48159"/>
<stop offset="1" stop-color="#C0694A"/>
</linearGradient>
<linearGradient id="paint32_linear_1090_2266" x1="338.629" y1="260.9" x2="331.269" y2="397.45" gradientUnits="userSpaceOnUse">
<stop offset="0.32" stop-color="#4C5FA8"/>
<stop offset="1" stop-color="#5068AE"/>
</linearGradient>
<linearGradient id="paint33_linear_1090_2266" x1="368.38" y1="323.44" x2="335.5" y2="338.11" gradientUnits="userSpaceOnUse">
<stop stop-color="#84CEC1"/>
<stop offset="1" stop-color="#52B09F"/>
</linearGradient>
<linearGradient id="paint34_linear_1090_2266" x1="287.77" y1="449.52" x2="284.72" y2="450.3" gradientUnits="userSpaceOnUse">
<stop stop-color="#222A36"/>
<stop offset="1" stop-color="#455D75"/>
</linearGradient>
<linearGradient id="paint35_linear_1090_2266" x1="239.09" y1="511.07" x2="261.18" y2="454.8" gradientUnits="userSpaceOnUse">
<stop stop-color="#84CEC1"/>
<stop offset="1" stop-color="#52B09F"/>
</linearGradient>
<linearGradient id="paint36_linear_1090_2266" x1="240.049" y1="242.94" x2="253.719" y2="496.64" gradientUnits="userSpaceOnUse">
<stop offset="0.32" stop-color="#4C5FA8"/>
<stop offset="1" stop-color="#5068AE"/>
</linearGradient>
<linearGradient id="paint37_linear_1090_2266" x1="258.931" y1="246.18" x2="263.951" y2="324.52" gradientUnits="userSpaceOnUse">
<stop stop-color="#84CEC1"/>
<stop offset="1" stop-color="#52B09F"/>
</linearGradient>
<linearGradient id="paint38_linear_1090_2266" x1="350.23" y1="360.36" x2="182.98" y2="405.12" gradientUnits="userSpaceOnUse">
<stop stop-color="#84CEC1"/>
<stop offset="1" stop-color="#52B09F"/>
</linearGradient>
<linearGradient id="paint39_linear_1090_2266" x1="178.829" y1="434.56" x2="153.679" y2="481.81" gradientUnits="userSpaceOnUse">
<stop stop-color="#FAAD77"/>
<stop offset="0.25" stop-color="#EFA06F"/>
<stop offset="0.7" stop-color="#D48159"/>
<stop offset="1" stop-color="#C0694A"/>
</linearGradient>
<linearGradient id="paint40_linear_1090_2266" x1="155.01" y1="281.86" x2="148.2" y2="408.15" gradientUnits="userSpaceOnUse">
<stop offset="0.32" stop-color="#4C5FA8"/>
<stop offset="1" stop-color="#5068AE"/>
</linearGradient>
<linearGradient id="paint41_linear_1090_2266" x1="132.569" y1="402.31" x2="199.879" y2="345.1" gradientUnits="userSpaceOnUse">
<stop stop-color="#84CEC1"/>
<stop offset="1" stop-color="#52B09F"/>
</linearGradient>
<linearGradient id="paint42_linear_1090_2266" x1="300.546" y1="289.088" x2="448.325" y2="308.045" gradientUnits="userSpaceOnUse">
<stop stop-color="#4C5FA8"/>
<stop offset="0.14" stop-color="#5973B8"/>
<stop offset="0.44" stop-color="#5973B8"/>
<stop offset="0.85" stop-color="#5973B8"/>
<stop offset="1" stop-color="#242C5C"/>
</linearGradient>
<linearGradient id="paint43_linear_1090_2266" x1="457.689" y1="290.032" x2="438.082" y2="308.626" gradientUnits="userSpaceOnUse">
<stop stop-color="#FAAD77"/>
<stop offset="0.25" stop-color="#EFA06F"/>
<stop offset="0.7" stop-color="#D48159"/>
<stop offset="1" stop-color="#C0694A"/>
</linearGradient>
<linearGradient id="paint44_linear_1090_2266" x1="445.506" y1="289.936" x2="427.868" y2="296.498" gradientUnits="userSpaceOnUse">
<stop stop-color="#FAAD77"/>
<stop offset="0.25" stop-color="#EFA06F"/>
<stop offset="0.7" stop-color="#D48159"/>
<stop offset="1" stop-color="#C0694A"/>
</linearGradient>
<linearGradient id="paint45_linear_1090_2266" x1="442.419" y1="299.703" x2="428.338" y2="302.552" gradientUnits="userSpaceOnUse">
<stop stop-color="#FAAD77"/>
<stop offset="0.25" stop-color="#EFA06F"/>
<stop offset="0.7" stop-color="#D48159"/>
<stop offset="1" stop-color="#C0694A"/>
</linearGradient>
<linearGradient id="paint46_linear_1090_2266" x1="435.475" y1="305.449" x2="421.263" y2="309.557" gradientUnits="userSpaceOnUse">
<stop stop-color="#FAAD77"/>
<stop offset="0.25" stop-color="#EFA06F"/>
<stop offset="0.7" stop-color="#D48159"/>
<stop offset="1" stop-color="#C0694A"/>
</linearGradient>
<linearGradient id="paint47_linear_1090_2266" x1="445.506" y1="289.936" x2="427.868" y2="296.498" gradientUnits="userSpaceOnUse">
<stop stop-color="#FAAD77"/>
<stop offset="0.25" stop-color="#EFA06F"/>
<stop offset="0.7" stop-color="#D48159"/>
<stop offset="1" stop-color="#C0694A"/>
</linearGradient>
<linearGradient id="paint48_linear_1090_2266" x1="417.589" y1="363.44" x2="385.519" y2="315.86" gradientUnits="userSpaceOnUse">
<stop stop-color="#FAAD77"/>
<stop offset="0.25" stop-color="#EFA06F"/>
<stop offset="0.7" stop-color="#D48159"/>
<stop offset="1" stop-color="#C0694A"/>
</linearGradient>
<linearGradient id="paint49_linear_1090_2266" x1="442.419" y1="299.703" x2="428.338" y2="302.552" gradientUnits="userSpaceOnUse">
<stop stop-color="#FAAD77"/>
<stop offset="0.25" stop-color="#EFA06F"/>
<stop offset="0.7" stop-color="#D48159"/>
<stop offset="1" stop-color="#C0694A"/>
</linearGradient>
<linearGradient id="paint50_linear_1090_2266" x1="435.475" y1="305.449" x2="421.263" y2="309.557" gradientUnits="userSpaceOnUse">
<stop stop-color="#FAAD77"/>
<stop offset="0.25" stop-color="#EFA06F"/>
<stop offset="0.7" stop-color="#D48159"/>
<stop offset="1" stop-color="#C0694A"/>
</linearGradient>
<linearGradient id="paint51_linear_1090_2266" x1="410.299" y1="389.92" x2="366.549" y2="325.02" gradientUnits="userSpaceOnUse">
<stop stop-color="#FAAD77"/>
<stop offset="0.49" stop-color="#F8AB75"/>
<stop offset="0.66" stop-color="#F2A471"/>
<stop offset="0.79" stop-color="#E89869"/>
<stop offset="0.89" stop-color="#DA875E"/>
<stop offset="0.97" stop-color="#C7714F"/>
<stop offset="1" stop-color="#C0694A"/>
</linearGradient>
<linearGradient id="paint52_linear_1090_2266" x1="447.67" y1="340.2" x2="427.56" y2="310.37" gradientUnits="userSpaceOnUse">
<stop stop-color="#FAAD77"/>
<stop offset="0.25" stop-color="#EFA06F"/>
<stop offset="0.7" stop-color="#D48159"/>
<stop offset="1" stop-color="#C0694A"/>
</linearGradient>
<linearGradient id="paint53_linear_1090_2266" x1="391.18" y1="367.74" x2="378.48" y2="348.91" gradientUnits="userSpaceOnUse">
<stop stop-color="#FAAD77"/>
<stop offset="0.25" stop-color="#EFA06F"/>
<stop offset="0.7" stop-color="#D48159"/>
<stop offset="1" stop-color="#C0694A"/>
</linearGradient>
<linearGradient id="paint54_linear_1090_2266" x1="407.586" y1="302.966" x2="405.478" y2="321.745" gradientUnits="userSpaceOnUse">
<stop stop-color="#FAAD77"/>
<stop offset="0.25" stop-color="#EFA06F"/>
<stop offset="0.7" stop-color="#D48159"/>
<stop offset="1" stop-color="#C0694A"/>
</linearGradient>
<linearGradient id="paint55_linear_1090_2266" x1="373.195" y1="357.6" x2="383.769" y2="426.199" gradientUnits="userSpaceOnUse">
<stop stop-color="#FAAD77"/>
<stop offset="0.25" stop-color="#EFA06F"/>
<stop offset="0.7" stop-color="#D48159"/>
<stop offset="1" stop-color="#C0694A"/>
</linearGradient>
<linearGradient id="paint56_linear_1090_2266" x1="300.506" y1="289.405" x2="448.285" y2="308.362" gradientUnits="userSpaceOnUse">
<stop stop-color="#242C5C"/>
<stop offset="0.15" stop-color="#475C93"/>
<stop offset="0.56" stop-color="#5973B8"/>
<stop offset="0.86" stop-color="#5973B8"/>
<stop offset="1" stop-color="#4C5FA8"/>
</linearGradient>
<linearGradient id="paint57_linear_1090_2266" x1="311.57" y1="179.93" x2="464.07" y2="878.13" gradientUnits="userSpaceOnUse">
<stop offset="0.12" stop-color="#7C9DD1"/>
<stop offset="1" stop-color="#5269B2"/>
</linearGradient>
<linearGradient id="paint58_linear_1090_2266" x1="311.57" y1="179.93" x2="464.07" y2="878.13" gradientUnits="userSpaceOnUse">
<stop offset="0.12" stop-color="#7C9DD1"/>
<stop offset="1" stop-color="#5269B2"/>
</linearGradient>
<linearGradient id="paint59_linear_1090_2266" x1="313.8" y1="190.07" x2="459.16" y2="855.61" gradientUnits="userSpaceOnUse">
<stop offset="0.12" stop-color="#7C9DD1"/>
<stop offset="1" stop-color="#5269B2"/>
</linearGradient>
<linearGradient id="paint60_linear_1090_2266" x1="569.27" y1="438.68" x2="584.63" y2="366.75" gradientUnits="userSpaceOnUse">
<stop stop-color="#86BC8C"/>
<stop offset="1" stop-color="#C4DA5A"/>
</linearGradient>
<linearGradient id="paint61_linear_1090_2266" x1="589.13" y1="422.59" x2="575.8" y2="459.15" gradientUnits="userSpaceOnUse">
<stop offset="0.23" stop-color="#6ABD45"/>
<stop offset="1" stop-color="#488A31"/>
</linearGradient>
<linearGradient id="paint62_linear_1090_2266" x1="586.341" y1="454.09" x2="573.581" y2="516.91" gradientUnits="userSpaceOnUse">
<stop stop-color="#E4EEF2"/>
<stop offset="1" stop-color="#91ADC2"/>
</linearGradient>
<linearGradient id="paint63_linear_1090_2266" x1="600.839" y1="417.51" x2="574.639" y2="496.4" gradientUnits="userSpaceOnUse">
<stop stop-color="#E4EEF2"/>
<stop offset="1" stop-color="#91ADC2"/>
</linearGradient>
<linearGradient id="paint64_linear_1090_2266" x1="600.839" y1="417.51" x2="574.639" y2="496.4" gradientUnits="userSpaceOnUse">
<stop stop-color="#E4EEF2"/>
<stop offset="1" stop-color="#91ADC2"/>
</linearGradient>
<linearGradient id="paint65_linear_1090_2266" x1="517.3" y1="434.43" x2="543.9" y2="493.57" gradientUnits="userSpaceOnUse">
<stop stop-color="white"/>
<stop offset="1" stop-color="#ACDEE3"/>
</linearGradient>
<linearGradient id="paint66_linear_1090_2266" x1="601.91" y1="356.82" x2="588.15" y2="292.37" gradientUnits="userSpaceOnUse">
<stop stop-color="#86BC8C"/>
<stop offset="1" stop-color="#C4DA5A"/>
</linearGradient>
<linearGradient id="paint67_linear_1090_2266" x1="584.12" y1="342.4" x2="596.06" y2="375.16" gradientUnits="userSpaceOnUse">
<stop offset="0.23" stop-color="#6ABD45"/>
<stop offset="1" stop-color="#488A31"/>
</linearGradient>
<linearGradient id="paint68_linear_1090_2266" x1="523.431" y1="371.37" x2="657.371" y2="371.37" gradientUnits="userSpaceOnUse">
<stop stop-color="#4C5FA8"/>
<stop offset="0.14" stop-color="#5973B8"/>
<stop offset="0.44" stop-color="#5973B8"/>
<stop offset="0.85" stop-color="#5973B8"/>
<stop offset="1" stop-color="#242C5C"/>
</linearGradient>
<linearGradient id="paint69_linear_1090_2266" x1="541.451" y1="371.37" x2="669.311" y2="371.37" gradientUnits="userSpaceOnUse">
<stop stop-color="#4C5FA8"/>
<stop offset="0.14" stop-color="#5973B8"/>
<stop offset="0.44" stop-color="#5973B8"/>
<stop offset="0.85" stop-color="#5973B8"/>
<stop offset="1" stop-color="#242C5C"/>
</linearGradient>
<linearGradient id="paint70_linear_1090_2266" x1="85.9699" y1="275.54" x2="96.04" y2="292.41" gradientUnits="userSpaceOnUse">
<stop offset="0.23" stop-color="#6ABD45"/>
<stop offset="1" stop-color="#488A31"/>
</linearGradient>
<linearGradient id="paint71_linear_1090_2266" x1="88.7103" y1="280.14" x2="96.7003" y2="293.51" gradientUnits="userSpaceOnUse">
<stop offset="0.23" stop-color="#6ABD45"/>
<stop offset="1" stop-color="#488A31"/>
</linearGradient>
<linearGradient id="paint72_linear_1090_2266" x1="38.8208" y1="388.5" x2="108.061" y2="381.13" gradientUnits="userSpaceOnUse">
<stop stop-color="#EDE6E4"/>
<stop offset="1" stop-color="#B39DA4"/>
</linearGradient>
<linearGradient id="paint73_linear_1090_2266" x1="114.991" y1="306.09" x2="83.5608" y2="347.1" gradientUnits="userSpaceOnUse">
<stop offset="0.23" stop-color="#6ABD45"/>
<stop offset="1" stop-color="#488A31"/>
</linearGradient>
<linearGradient id="paint74_linear_1090_2266" x1="110.691" y1="306.47" x2="98.9007" y2="321.85" gradientUnits="userSpaceOnUse">
<stop stop-color="#F15F57"/>
<stop offset="1" stop-color="#EE3555"/>
</linearGradient>
<linearGradient id="paint75_linear_1090_2266" x1="121.471" y1="300.46" x2="116.171" y2="307.38" gradientUnits="userSpaceOnUse">
<stop stop-color="#F15F57"/>
<stop offset="1" stop-color="#EE3555"/>
</linearGradient>
<linearGradient id="paint76_linear_1090_2266" x1="135.61" y1="354.51" x2="124.88" y2="336.24" gradientUnits="userSpaceOnUse">
<stop stop-color="#F15F57"/>
<stop offset="1" stop-color="#EE3555"/>
</linearGradient>
<linearGradient id="paint77_linear_1090_2266" x1="135.61" y1="354.51" x2="124.88" y2="336.24" gradientUnits="userSpaceOnUse">
<stop offset="0.23" stop-color="#6ABD45"/>
<stop offset="1" stop-color="#488A31"/>
</linearGradient>
<linearGradient id="paint78_linear_1090_2266" x1="128.159" y1="346.09" x2="101.849" y2="293.72" gradientUnits="userSpaceOnUse">
<stop stop-color="white"/>
<stop offset="1" stop-color="#63BD5C"/>
</linearGradient>
<linearGradient id="paint79_linear_1090_2266" x1="66.5506" y1="439.54" x2="68.6306" y2="486.2" gradientUnits="userSpaceOnUse">
<stop offset="0.23" stop-color="#6ABD45"/>
<stop offset="1" stop-color="#488A31"/>
</linearGradient>
<linearGradient id="paint80_linear_1090_2266" x1="173.71" y1="333.06" x2="282.76" y2="633.25" gradientUnits="userSpaceOnUse">
<stop stop-color="#EEF3FA"/>
<stop offset="0.15" stop-color="#EEF2F4"/>
<stop offset="0.33" stop-color="#EFF2E4"/>
<stop offset="0.54" stop-color="#F2F1CA"/>
<stop offset="0.77" stop-color="#F5F1A5"/>
<stop offset="1" stop-color="#FAF078"/>
</linearGradient>
<linearGradient id="paint81_linear_1090_2266" x1="622.101" y1="5.33026" x2="622.101" y2="144.51" gradientUnits="userSpaceOnUse">
<stop stop-color="#E4EEF2"/>
<stop offset="1" stop-color="#91ADC2"/>
</linearGradient>
<linearGradient id="paint82_linear_1090_2266" x1="458.619" y1="-13.4399" x2="458.619" y2="219.92" gradientUnits="userSpaceOnUse">
<stop stop-color="#E4EEF2"/>
<stop offset="0.02" stop-color="#E1ECF0"/>
<stop offset="0.3" stop-color="#BED0DC"/>
<stop offset="0.56" stop-color="#A5BDCD"/>
<stop offset="0.81" stop-color="#96B1C5"/>
<stop offset="1" stop-color="#91ADC2"/>
</linearGradient>
<linearGradient id="paint83_linear_1090_2266" x1="623.681" y1="67.5198" x2="623.681" y2="58.5898" gradientUnits="userSpaceOnUse">
<stop stop-color="#DBE1F2"/>
<stop offset="1" stop-color="#CEDEDC"/>
</linearGradient>
<linearGradient id="paint84_linear_1090_2266" x1="458.619" y1="108.69" x2="458.619" y2="12.6802" gradientUnits="userSpaceOnUse">
<stop stop-color="#DBE1F2"/>
<stop offset="1" stop-color="#CEDEDC"/>
</linearGradient>
<linearGradient id="paint85_linear_1090_2266" x1="581.63" y1="90.2205" x2="581.63" y2="299.66" gradientUnits="userSpaceOnUse">
<stop stop-color="#E4EEF2"/>
<stop offset="0.09" stop-color="#DBE7EC"/>
<stop offset="0.7" stop-color="#A5BDCE"/>
<stop offset="1" stop-color="#91ADC2"/>
</linearGradient>
<linearGradient id="paint86_linear_1090_2266" x1="581.63" y1="211.54" x2="581.63" y2="115.53" gradientUnits="userSpaceOnUse">
<stop stop-color="#DBE1F2"/>
<stop offset="1" stop-color="#CEDEDC"/>
</linearGradient>
<linearGradient id="paint87_linear_1090_2266" x1="656.64" y1="98.4113" x2="682.857" y2="189.598" gradientUnits="userSpaceOnUse">
<stop offset="0.53" stop-color="#548ECB"/>
<stop offset="1" stop-color="#AFCBEB"/>
</linearGradient>
<linearGradient id="paint88_linear_1090_2266" x1="685.747" y1="120.187" x2="702.128" y2="207.127" gradientUnits="userSpaceOnUse">
<stop offset="0.32" stop-color="#4C5FA8"/>
<stop offset="1" stop-color="#5068AE"/>
</linearGradient>
<linearGradient id="paint89_linear_1090_2266" x1="692.004" y1="149.316" x2="723.838" y2="164.026" gradientUnits="userSpaceOnUse">
<stop stop-color="#E4EEF2"/>
<stop offset="1" stop-color="#91ADC2"/>
</linearGradient>
<linearGradient id="paint90_linear_1090_2266" x1="694.184" y1="170.224" x2="704.014" y2="201.658" gradientUnits="userSpaceOnUse">
<stop stop-color="#E4EEF2"/>
<stop offset="1" stop-color="#91ADC2"/>
</linearGradient>
<linearGradient id="paint91_linear_1090_2266" x1="651.92" y1="214.53" x2="651.92" y2="128.28" gradientUnits="userSpaceOnUse">
<stop offset="0.23" stop-color="#6ABD45"/>
<stop offset="1" stop-color="#488A31"/>
</linearGradient>
<linearGradient id="paint92_linear_1090_2266" x1="651.92" y1="202.93" x2="651.92" y2="120.59" gradientUnits="userSpaceOnUse">
<stop offset="0.23" stop-color="#6ABD45"/>
<stop offset="1" stop-color="#488A31"/>
</linearGradient>
<linearGradient id="paint93_linear_1090_2266" x1="479.827" y1="-5.61632" x2="467.22" y2="88.424" gradientUnits="userSpaceOnUse">
<stop stop-color="#AFCBEB"/>
<stop offset="1" stop-color="#548ECB"/>
</linearGradient>
<linearGradient id="paint94_linear_1090_2266" x1="453.251" y1="17.483" x2="447.619" y2="105.774" gradientUnits="userSpaceOnUse">
<stop offset="0.32" stop-color="#4C5FA8"/>
<stop offset="1" stop-color="#5068AE"/>
</linearGradient>
<linearGradient id="paint95_linear_1090_2266" x1="488.09" y1="112.56" x2="488.09" y2="26.2998" gradientUnits="userSpaceOnUse">
<stop offset="0.32" stop-color="#4C5FA8"/>
<stop offset="1" stop-color="#5068AE"/>
</linearGradient>
<linearGradient id="paint96_linear_1090_2266" x1="488.09" y1="100.96" x2="488.09" y2="18.6198" gradientUnits="userSpaceOnUse">
<stop offset="0.32" stop-color="#4C5FA8"/>
<stop offset="1" stop-color="#5068AE"/>
</linearGradient>
<linearGradient id="paint97_linear_1090_2266" x1="510.391" y1="111.17" x2="510.391" y2="35.2197" gradientUnits="userSpaceOnUse">
<stop stop-color="#4C5FA8"/>
<stop offset="0.14" stop-color="#5973B8"/>
<stop offset="0.44" stop-color="#5973B8"/>
<stop offset="0.85" stop-color="#5973B8"/>
<stop offset="1" stop-color="#242C5C"/>
</linearGradient>
<linearGradient id="paint98_linear_1090_2266" x1="510.39" y1="100.96" x2="510.39" y2="28.4597" gradientUnits="userSpaceOnUse">
<stop stop-color="#4C5FA8"/>
<stop offset="0.14" stop-color="#5973B8"/>
<stop offset="0.44" stop-color="#5973B8"/>
<stop offset="0.85" stop-color="#5973B8"/>
<stop offset="1" stop-color="#242C5C"/>
</linearGradient>
<linearGradient id="paint99_linear_1090_2266" x1="649.4" y1="52.4399" x2="647.26" y2="46.8899" gradientUnits="userSpaceOnUse">
<stop stop-color="#5D5D67"/>
<stop offset="1" stop-color="#83838F"/>
</linearGradient>
<linearGradient id="paint100_linear_1090_2266" x1="650.53" y1="63.6497" x2="646.06" y2="52.0597" gradientUnits="userSpaceOnUse">
<stop stop-color="#5D5D67"/>
<stop offset="1" stop-color="#83838F"/>
</linearGradient>
<linearGradient id="paint101_linear_1090_2266" x1="647.67" y1="50.24" x2="629.44" y2="3.01001" gradientUnits="userSpaceOnUse">
<stop stop-color="#5D5D67"/>
<stop offset="1" stop-color="#83838F"/>
</linearGradient>
<linearGradient id="paint102_linear_1090_2266" x1="659.229" y1="44.4304" x2="657.039" y2="38.7604" gradientUnits="userSpaceOnUse">
<stop stop-color="#5D5D67"/>
<stop offset="1" stop-color="#83838F"/>
</linearGradient>
<linearGradient id="paint103_linear_1090_2266" x1="638.979" y1="5.78004" x2="636.789" y2="0.110044" gradientUnits="userSpaceOnUse">
<stop stop-color="#5D5D67"/>
<stop offset="1" stop-color="#83838F"/>
</linearGradient>
<linearGradient id="paint104_linear_1090_2266" x1="648.319" y1="2.08986" x2="648.319" y2="44.3199" gradientUnits="userSpaceOnUse">
<stop stop-color="#495DA9"/>
<stop offset="1" stop-color="#6074B8"/>
</linearGradient>
<linearGradient id="paint105_linear_1090_2266" x1="641.03" y1="29.0499" x2="659.34" y2="29.0499" gradientUnits="userSpaceOnUse">
<stop stop-color="#5EB448"/>
<stop offset="1" stop-color="#78C268"/>
</linearGradient>
<linearGradient id="paint106_linear_1090_2266" x1="643.579" y1="30.2201" x2="656.359" y2="30.2201" gradientUnits="userSpaceOnUse">
<stop stop-color="#5EB448"/>
<stop offset="1" stop-color="#78C268"/>
</linearGradient>
<linearGradient id="paint107_linear_1090_2266" x1="646.02" y1="13.1998" x2="649.23" y2="4.78978" gradientUnits="userSpaceOnUse">
<stop stop-color="#86BC8C"/>
<stop offset="1" stop-color="#C4DA5C"/>
</linearGradient>
<linearGradient id="paint108_linear_1090_2266" x1="627.189" y1="22.58" x2="632.929" y2="22.58" gradientUnits="userSpaceOnUse">
<stop stop-color="#5EB448"/>
<stop offset="1" stop-color="#78C268"/>
</linearGradient>
<linearGradient id="paint109_linear_1090_2266" x1="628.271" y1="23.1201" x2="630.481" y2="23.1201" gradientUnits="userSpaceOnUse">
<stop stop-color="#5EB448"/>
<stop offset="1" stop-color="#78C268"/>
</linearGradient>
<linearGradient id="paint110_linear_1090_2266" x1="664.139" y1="16.0398" x2="664.639" y2="14.6998" gradientUnits="userSpaceOnUse">
<stop stop-color="#86BC8C"/>
<stop offset="1" stop-color="#C4DA5C"/>
</linearGradient>
<linearGradient id="paint111_linear_1090_2266" x1="637.75" y1="9.97008" x2="657.12" y2="9.97008" gradientUnits="userSpaceOnUse">
<stop stop-color="#5EB448"/>
<stop offset="1" stop-color="#78C268"/>
</linearGradient>
<linearGradient id="paint112_linear_1090_2266" x1="662.581" y1="14.89" x2="666.941" y2="14.89" gradientUnits="userSpaceOnUse">
<stop stop-color="#5EB448"/>
<stop offset="1" stop-color="#78C268"/>
</linearGradient>
<linearGradient id="paint113_linear_1090_2266" x1="650.53" y1="63.65" x2="646.09" y2="52.15" gradientUnits="userSpaceOnUse">
<stop stop-color="#5D5D67"/>
<stop offset="1" stop-color="#83838F"/>
</linearGradient>
<linearGradient id="paint114_linear_1090_2266" x1="648.189" y1="21.8799" x2="648.189" y2="44.3199" gradientUnits="userSpaceOnUse">
<stop stop-color="#495DA9"/>
<stop offset="1" stop-color="#5B71B6"/>
</linearGradient>
<linearGradient id="paint115_linear_1090_2266" x1="647.941" y1="3.38989" x2="647.941" y2="16.8299" gradientUnits="userSpaceOnUse">
<stop stop-color="#495DA9"/>
<stop offset="1" stop-color="#5B71B6"/>
</linearGradient>
<linearGradient id="paint116_linear_1090_2266" x1="727.908" y1="398.197" x2="704.208" y2="451.207" gradientUnits="userSpaceOnUse">
<stop stop-color="#E4EEF2"/>
<stop offset="1" stop-color="#91ADC2"/>
</linearGradient>
<linearGradient id="paint117_linear_1090_2266" x1="714.914" y1="395.447" x2="703.954" y2="436.297" gradientUnits="userSpaceOnUse">
<stop stop-color="#D6DF29"/>
<stop offset="1" stop-color="#78A340"/>
</linearGradient>
<linearGradient id="paint118_linear_1090_2266" x1="706.969" y1="399.56" x2="710.509" y2="407.24" gradientUnits="userSpaceOnUse">
<stop stop-color="#FFE0AF"/>
<stop offset="1" stop-color="#FAAB45"/>
</linearGradient>
<linearGradient id="paint119_linear_1090_2266" x1="707.38" y1="395.96" x2="708.11" y2="399.22" gradientUnits="userSpaceOnUse">
<stop stop-color="#D6DF29"/>
<stop offset="0.07" stop-color="#CEDA2A"/>
<stop offset="0.7" stop-color="#90B23A"/>
<stop offset="1" stop-color="#78A340"/>
</linearGradient>
<linearGradient id="paint120_linear_1090_2266" x1="695.909" y1="448.157" x2="695.909" y2="446.827" gradientUnits="userSpaceOnUse">
<stop stop-color="#B7DDEB"/>
<stop offset="0.12" stop-color="#B7DDEB"/>
<stop offset="1" stop-color="#86AFC3"/>
</linearGradient>
<linearGradient id="paint121_linear_1090_2266" x1="695.532" y1="443.609" x2="695.532" y2="442.279" gradientUnits="userSpaceOnUse">
<stop stop-color="#B7DDEB"/>
<stop offset="0.12" stop-color="#B7DDEB"/>
<stop offset="1" stop-color="#86AFC3"/>
</linearGradient>
<linearGradient id="paint122_linear_1090_2266" x1="695.154" y1="439.06" x2="695.154" y2="437.73" gradientUnits="userSpaceOnUse">
<stop stop-color="#B7DDEB"/>
<stop offset="0.12" stop-color="#B7DDEB"/>
<stop offset="1" stop-color="#86AFC3"/>
</linearGradient>
<linearGradient id="paint123_linear_1090_2266" x1="694.778" y1="434.512" x2="694.778" y2="433.182" gradientUnits="userSpaceOnUse">
<stop stop-color="#B7DDEB"/>
<stop offset="0.12" stop-color="#B7DDEB"/>
<stop offset="1" stop-color="#86AFC3"/>
</linearGradient>
<linearGradient id="paint124_linear_1090_2266" x1="694.389" y1="429.954" x2="694.389" y2="428.624" gradientUnits="userSpaceOnUse">
<stop stop-color="#B7DDEB"/>
<stop offset="0.12" stop-color="#B7DDEB"/>
<stop offset="1" stop-color="#86AFC3"/>
</linearGradient>
<linearGradient id="paint125_linear_1090_2266" x1="693.47" y1="406.04" x2="699.41" y2="420.05" gradientUnits="userSpaceOnUse">
<stop stop-color="#5277BB"/>
<stop offset="1" stop-color="#455CA9"/>
</linearGradient>
<linearGradient id="paint126_linear_1090_2266" x1="697.261" y1="406.16" x2="697.261" y2="448.57" gradientUnits="userSpaceOnUse">
<stop stop-color="white"/>
<stop offset="1" stop-color="#B5CCD8"/>
</linearGradient>
<linearGradient id="paint127_linear_1090_2266" x1="716.201" y1="437.54" x2="676.441" y2="467.71" gradientUnits="userSpaceOnUse">
<stop stop-color="#5B7D90"/>
<stop offset="1" stop-color="#374B68"/>
</linearGradient>
<linearGradient id="paint128_linear_1090_2266" x1="702.771" y1="428.56" x2="688.671" y2="437.57" gradientUnits="userSpaceOnUse">
<stop stop-color="#5B7D90"/>
<stop offset="1" stop-color="#374B68"/>
</linearGradient>
<linearGradient id="paint129_linear_1090_2266" x1="696.471" y1="446.13" x2="673.591" y2="463.48" gradientUnits="userSpaceOnUse">
<stop stop-color="#5B7D90"/>
<stop offset="1" stop-color="#374B68"/>
</linearGradient>
<linearGradient id="paint130_linear_1090_2266" x1="703.389" y1="426.11" x2="687.539" y2="436.25" gradientUnits="userSpaceOnUse">
<stop stop-color="#5B7D90"/>
<stop offset="1" stop-color="#374B68"/>
</linearGradient>
<linearGradient id="paint131_linear_1090_2266" x1="687.489" y1="427.32" x2="680.029" y2="432.97" gradientUnits="userSpaceOnUse">
<stop stop-color="#5B7D90"/>
<stop offset="1" stop-color="#374B68"/>
</linearGradient>
</defs>
</svg>
