<svg width="592" height="579" viewBox="0 0 592 579" fill="none" xmlns="http://www.w3.org/2000/svg">
<path d="M320.29 20.8198H6.25977V260.66H320.29V20.8198Z" fill="url(#paint0_linear_1088_289)"/>
<path d="M228.791 193.05H171.221V202.38H228.791V193.05Z" fill="url(#paint1_linear_1088_289)"/>
<path opacity="0.33" d="M301.239 210.92H218.699V228.2H301.239V210.92Z" fill="#5C95B2"/>
<path opacity="0.33" d="M301.241 193.05H233.891V208.02H301.241V193.05Z" fill="#54BBB5"/>
<path opacity="0.12" d="M97.0594 84.1299H76.0794C54.833 84.1299 37.6094 101.353 37.6094 122.6V137.67C37.6094 158.916 54.833 176.14 76.0794 176.14H97.0594C118.306 176.14 135.529 158.916 135.529 137.67V122.6C135.529 101.353 118.306 84.1299 97.0594 84.1299Z" fill="url(#paint2_linear_1088_289)"/>
<path d="M321.709 258.22H4.8393C3.70159 258.22 2.7793 259.142 2.7793 260.28V261.08C2.7793 262.217 3.70159 263.14 4.8393 263.14H321.709C322.847 263.14 323.769 262.217 323.769 261.08V260.28C323.769 259.142 322.847 258.22 321.709 258.22Z" fill="url(#paint3_linear_1088_289)"/>
<path d="M193.91 51.2798H132.65V59.3098H193.91V51.2798Z" fill="url(#paint4_linear_1088_289)"/>
<path d="M206.07 39.8496H120.48V47.8796H206.07V39.8496Z" fill="url(#paint5_linear_1088_289)"/>
<path d="M325.5 11.6597H1.49023V21.9097H325.5V11.6597Z" fill="url(#paint6_linear_1088_289)"/>
<path style="mix-blend-mode:screen" opacity="0.76" d="M317.31 13.6396H9.68008C9.34871 13.6396 9.08008 13.9083 9.08008 14.2396V14.4796C9.08008 14.811 9.34871 15.0796 9.68008 15.0796H317.31C317.641 15.0796 317.91 14.811 317.91 14.4796V14.2396C317.91 13.9083 317.641 13.6396 317.31 13.6396Z" fill="url(#paint7_linear_1088_289)"/>
<path d="M2.99 10.5298H2.14C0.958111 10.5298 0 11.4879 0 12.6698V20.8998C0 22.0817 0.958111 23.0398 2.14 23.0398H2.99C4.17189 23.0398 5.13 22.0817 5.13 20.8998V12.6698C5.13 11.4879 4.17189 10.5298 2.99 10.5298Z" fill="url(#paint8_linear_1088_289)"/>
<path d="M324.41 10.5298H323.56C322.378 10.5298 321.42 11.4879 321.42 12.6698V20.8998C321.42 22.0817 322.378 23.0398 323.56 23.0398H324.41C325.592 23.0398 326.55 22.0817 326.55 20.8998V12.6698C326.55 11.4879 325.592 10.5298 324.41 10.5298Z" fill="url(#paint9_linear_1088_289)"/>
<path d="M205.64 174.99H195.35V181.28H205.64V174.99Z" fill="#5EBDBF"/>
<path d="M220.431 159.37H210.141V181.1H220.431V159.37Z" fill="#5EBDBF"/>
<path d="M235.21 165.94H224.92V180.75H235.21V165.94Z" fill="#5EBDBF"/>
<path d="M250.001 150.58H239.711V180.75H250.001V150.58Z" fill="#5EBDBF"/>
<path d="M264.569 152.96H254.279V180.93H264.569V152.96Z" fill="#5EBDBF"/>
<path d="M279.14 168.21H268.85V181.28H279.14V168.21Z" fill="#5EBDBF"/>
<path d="M300.94 180.7H171.51V182.41H300.94V180.7Z" fill="url(#paint10_linear_1088_289)"/>
<path d="M295.17 98.3496H242.26V104.3H295.17V98.3496Z" fill="url(#paint11_linear_1088_289)"/>
<path d="M271.38 106.96H242.26V112.91H271.38V106.96Z" fill="url(#paint12_linear_1088_289)"/>
<path d="M279.79 120.02H242.26V125.97H279.79V120.02Z" fill="url(#paint13_linear_1088_289)"/>
<path d="M299.7 120.02H281.65V125.97H299.7V120.02Z" fill="url(#paint14_linear_1088_289)"/>
<path d="M271.38 128.64H242.26V134.59H271.38V128.64Z" fill="url(#paint15_linear_1088_289)"/>
<path d="M188.211 120.68L215.941 126.26C212.461 135.84 203.271 142.69 192.491 142.69C178.711 142.69 167.551 131.52 167.551 117.75C167.551 103.98 178.721 92.8096 192.491 92.8096C197.401 92.8096 201.971 94.2196 205.831 96.6696L188.211 120.68Z" fill="url(#paint16_linear_1088_289)"/>
<path d="M219.811 116.83C219.811 119.62 219.341 122.3 218.471 124.79L191.801 119.5L208.711 96.48C215.391 100.78 219.821 108.29 219.821 116.83H219.811Z" fill="url(#paint17_linear_1088_289)"/>
<path d="M236.74 104.3C238.38 104.3 239.71 102.97 239.71 101.33C239.71 99.6896 238.38 98.3599 236.74 98.3599C235.099 98.3599 233.77 99.6896 233.77 101.33C233.77 102.97 235.099 104.3 236.74 104.3Z" fill="url(#paint18_linear_1088_289)"/>
<path d="M236.74 125.61C238.38 125.61 239.71 124.28 239.71 122.64C239.71 121 238.38 119.67 236.74 119.67C235.099 119.67 233.77 121 233.77 122.64C233.77 124.28 235.099 125.61 236.74 125.61Z" fill="url(#paint19_linear_1088_289)"/>
<path d="M46.3699 137.34H44.1699V150.75H46.3699V137.34Z" fill="url(#paint20_linear_1088_289)"/>
<path d="M63.5301 125.88H61.3301V150.75H63.5301V125.88Z" fill="url(#paint21_linear_1088_289)"/>
<path d="M81.4598 129.76H79.2598V150.75H81.4598V129.76Z" fill="url(#paint22_linear_1088_289)"/>
<path d="M96.4402 115.15H94.2402V150.75H96.4402V115.15Z" fill="url(#paint23_linear_1088_289)"/>
<path d="M113.081 116.82H110.881V150.75H113.081V116.82Z" fill="url(#paint24_linear_1088_289)"/>
<path d="M127.68 102.21H125.48V150.75H127.68V102.21Z" fill="url(#paint25_linear_1088_289)"/>
<path d="M61.9277 125.327L46.0664 137.262L46.836 138.285L62.6973 126.35L61.9277 125.327Z" fill="#F4921F"/>
<path d="M95.4413 116.312L79.5801 128.247L80.3497 129.269L96.2109 117.334L95.4413 116.312Z" fill="#F4921F"/>
<path d="M125.936 103.964L111.227 117.292L112.086 118.241L126.796 104.912L125.936 103.964Z" fill="#F4921F"/>
<path d="M77.631 128.143L62.5254 125.25L62.2847 126.508L77.3902 129.4L77.631 128.143Z" fill="#F4921F"/>
<path d="M112.209 116.989L95.7148 116.063L95.6432 117.341L112.137 118.267L112.209 116.989Z" fill="#F4921F"/>
<path d="M64.6906 128.131C65.9403 126.882 65.9402 124.856 64.6906 123.606C63.4409 122.356 61.4148 122.356 60.1651 123.606C58.9154 124.856 58.9154 126.882 60.1651 128.131C61.4148 129.381 63.4409 129.381 64.6906 128.131Z" fill="#36ACE2"/>
<path d="M82.5812 131.341C83.8309 130.091 83.8309 128.065 82.5812 126.815C81.3315 125.566 79.3054 125.566 78.0557 126.815C76.806 128.065 76.806 130.091 78.0557 131.341C79.3054 132.591 81.3315 132.591 82.5812 131.341Z" fill="#36ACE2"/>
<path d="M46.5039 141.205C48.1316 140.531 48.9045 138.665 48.2303 137.037C47.5561 135.409 45.6901 134.636 44.0624 135.31C42.4347 135.985 41.6618 137.851 42.336 139.478C43.0102 141.106 44.8762 141.879 46.5039 141.205Z" fill="#36ACE2"/>
<path d="M97.798 119.039C99.0477 117.789 99.0477 115.763 97.798 114.513C96.5483 113.263 94.5222 113.263 93.2725 114.513C92.0228 115.763 92.0228 117.789 93.2725 119.039C94.5222 120.288 96.5483 120.288 97.798 119.039Z" fill="#36ACE2"/>
<path d="M115.225 118.028C115.508 116.284 114.323 114.64 112.579 114.357C110.834 114.074 109.19 115.258 108.907 117.003C108.624 118.747 109.809 120.391 111.553 120.674C113.298 120.958 114.941 119.773 115.225 118.028Z" fill="#36ACE2"/>
<path d="M129.691 104.305C129.975 102.561 128.79 100.917 127.045 100.634C125.301 100.351 123.657 101.535 123.374 103.28C123.091 105.024 124.276 106.668 126.02 106.951C127.764 107.234 129.408 106.05 129.691 104.305Z" fill="#36ACE2"/>
<path d="M128.97 193.05H40.2695V199H128.97V193.05Z" fill="url(#paint26_linear_1088_289)"/>
<path d="M89.0895 201.67H40.2695V207.62H89.0895V201.67Z" fill="url(#paint27_linear_1088_289)"/>
<path d="M103.18 214.73H40.2695V220.68H103.18V214.73Z" fill="url(#paint28_linear_1088_289)"/>
<path d="M89.0895 223.34H40.2695V229.29H89.0895V223.34Z" fill="url(#paint29_linear_1088_289)"/>
<path d="M320.959 148.19C325.969 154.49 331.179 158.28 337.139 163.7C337.599 164.12 338.069 164.56 338.529 164.97C339.749 166.06 341.029 167.06 342.559 167.56C343.839 167.98 345.359 167.9 346.469 166.94C346.749 166.7 346.999 166.41 347.219 166.05C347.589 165.47 347.859 164.71 347.979 163.76C336.329 152.98 320.989 140.15 319.809 144.87C319.809 144.9 319.799 144.92 319.799 144.95C319.569 146.1 320.139 147.15 320.949 148.17L320.959 148.19Z" fill="url(#paint30_linear_1088_289)"/>
<path style="mix-blend-mode:multiply" d="M320.959 148.19C325.969 154.49 331.179 158.28 337.139 163.7C337.599 164.12 338.069 164.56 338.529 164.97C340.149 165.99 341.859 166.97 343.759 167.14C344.659 167.22 345.619 167.07 346.469 166.94C347.409 166.8 348.229 166.68 348.729 166.94C348.229 166.65 347.719 166.36 347.219 166.06C336.369 159.66 328.829 153.76 319.799 144.97C319.569 146.12 320.139 147.17 320.949 148.19H320.959Z" fill="url(#paint31_linear_1088_289)"/>
<path d="M314.57 149.68C315.38 150.87 316.35 152 317.35 153.04L325.66 161.61C328.88 164.93 329.56 166.44 332.78 169.76C334.08 171.1 335.5 172.5 337.34 172.81C338.26 172.96 339.19 172.81 340.06 172.46C340.57 172.26 341.05 171.98 341.49 171.66C341.77 171.46 342.02 171.25 342.29 171.02C342.73 170.64 343.16 170.22 343.67 169.82C343.67 169.82 343.67 169.82 343.68 169.81C344.16 169.42 344.71 169.03 345.37 168.67C338.43 162.24 332.8 157.03 324.61 151.15C321.46 148.89 318.86 147.16 316.99 146.56C313.87 145.56 312.78 147.05 314.58 149.67L314.57 149.68Z" fill="url(#paint32_linear_1088_289)"/>
<path style="mix-blend-mode:multiply" d="M314.571 149.68C315.311 150.91 316.351 152 317.351 153.04L325.661 161.61C330.571 165.65 333.121 167.67 338.201 171.49C338.761 171.91 339.381 172.35 340.061 172.46C340.241 172.49 340.431 172.5 340.611 172.47C341.381 172.37 341.991 171.75 342.291 171.02C342.371 170.83 342.431 170.63 342.461 170.43C342.551 169.9 342.521 169.37 342.691 169.22C332.111 162.62 324.411 157.31 314.561 149.68H314.571Z" fill="url(#paint33_linear_1088_289)"/>
<path d="M311.711 153.51C311.761 154.19 312.291 154.79 312.781 155.3C314.371 156.94 315.981 158.57 317.591 160.19L317.721 160.32C324.701 167.27 329.391 172.15 336.871 178.56C336.831 178.2 336.841 177.86 336.901 177.53C337.041 176.68 339.841 171.44 339.841 171.44C339.841 171.44 337.681 169.32 332.461 165.24C329.451 162.89 329.321 162.51 326.311 160.15C322.781 157.39 319.631 153.99 315.501 152.25C314.801 151.96 314.051 151.71 313.301 151.81C312.551 151.91 311.811 152.44 311.711 153.19C311.701 153.3 311.691 153.4 311.711 153.51Z" fill="url(#paint34_linear_1088_289)"/>
<path style="mix-blend-mode:multiply" d="M311.711 153.51C311.761 154.19 312.291 154.79 312.781 155.3C314.371 156.94 315.981 158.57 317.591 160.19L317.721 160.32C324.721 166.48 329.181 170.82 336.181 176.98C336.411 177.18 336.641 177.38 336.901 177.53C337.031 177.61 337.181 177.67 337.331 177.71C338.151 177.93 339.031 177.37 339.451 176.63C339.871 175.89 339.961 175 339.671 175.6C339.101 175.12 338.531 174.64 337.961 174.17C329.701 167.27 321.031 160.31 311.711 153.52V153.51Z" fill="url(#paint35_linear_1088_289)"/>
<path d="M315.009 161.62C315.069 161.72 315.129 161.82 315.199 161.92C320.819 171.07 326.459 176.48 334.689 183.41C335.309 183.93 335.919 184.44 336.539 184.96C336.109 183.47 335.929 182.08 335.839 180.78C335.649 178.33 335.729 176.2 334.899 174.35C334.819 174.18 334.739 174.02 334.649 173.85C333.909 172.54 332.699 171.57 331.519 170.63C326.219 166.41 323.459 164.02 318.159 159.8C317.619 159.37 317.049 158.92 316.379 158.77C315.699 158.61 314.889 158.84 314.579 159.46C314.239 160.15 314.629 160.95 315.019 161.61L315.009 161.62Z" fill="url(#paint36_linear_1088_289)"/>
<path d="M332.511 180.58C332.661 181.28 333.181 181.84 333.681 182.35C334.011 182.69 334.351 183.05 334.691 183.41C339.481 188.55 344.781 195.83 350.501 195.83C351.681 194.43 352.861 193.03 354.041 191.64C355.661 189.73 357.281 187.81 358.891 185.89C355.461 176.51 349.671 169.67 344.051 163.15C340.361 166.3 337.251 170.12 334.881 174.35C334.151 175.66 333.491 177 332.911 178.38C332.871 178.48 332.831 178.58 332.791 178.68C332.551 179.29 332.361 179.94 332.501 180.57L332.511 180.58Z" fill="url(#paint37_linear_1088_289)"/>
<path style="mix-blend-mode:multiply" d="M315.2 161.92C320.82 171.07 326.46 176.48 334.69 183.41C339.48 188.55 344.78 195.83 350.5 195.83C351.68 194.43 352.86 193.03 354.04 191.64C353.54 191.38 352.96 191.21 352.42 191.06C346.44 189.34 341.98 184.67 338.5 182.51C337.6 181.95 336.71 181.38 335.82 180.79C334.8 180.11 333.78 179.41 332.78 178.7C325.32 173.38 321.08 168.93 315.18 161.93L315.2 161.92Z" fill="url(#paint38_linear_1088_289)"/>
<path d="M342.691 161.99C343.131 163.6 343.481 165.22 343.751 166.87C343.171 170.74 343.361 174.73 343.541 178.66C343.661 181.17 343.891 183.93 345.671 185.69C347.251 187.25 349.641 187.6 351.851 187.74C353.281 187.83 354.751 187.86 356.101 187.41C357.461 186.95 358.701 185.91 360.071 183.39C359.341 180.21 358.281 177.11 356.911 174.15C355.661 170.33 354.361 166.5 352.381 163C351.261 161.01 349.931 159.15 348.891 157.12C347.771 154.93 347.001 152.57 346.501 150.17C346.311 149.27 346.151 148.34 345.691 147.55C345.231 146.75 344.4 146.09 343.49 146.13C342.16 146.18 341.301 147.56 340.951 148.84C339.751 153.17 341.51 157.68 342.68 162.01L342.691 161.99Z" fill="url(#paint39_linear_1088_289)"/>
<path style="mix-blend-mode:multiply" d="M342.699 169.23C343.019 169.43 343.349 169.63 343.669 169.83C343.689 169.84 343.709 169.86 343.729 169.87C343.709 169.85 343.689 169.83 343.679 169.82C343.109 169.23 342.839 169.1 342.699 169.23Z" fill="url(#paint40_linear_1088_289)"/>
<path d="M559.089 555.09C558.919 562.81 558.759 570.54 558.589 578.26L514.119 578.39C514.789 576.83 515.689 575.19 516.809 573.82C518.389 571.89 521.029 569.7 523.349 568.8C531.849 565.52 539.669 560.5 546.209 554.15C549.569 554.77 552.939 555.39 559.079 555.08L559.089 555.09Z" fill="url(#paint41_linear_1088_289)"/>
<path d="M481.869 552.14C482.099 560.1 482.549 576.02 482.549 576.02C482.549 576.02 441.139 576.26 434.039 575.81C434.309 573.89 436.639 570.92 437.939 568.95C447.869 567.03 454.799 564.9 460.249 561.76C463.989 559.6 468.099 553.95 468.099 553.95C468.099 553.95 477.449 551.34 481.869 552.15V552.14Z" fill="url(#paint42_linear_1088_289)"/>
<path d="M367.14 186.9C365.53 185.53 360.93 181.3 359.74 180.22C359.41 181.79 358.46 184.16 357.8 185.08C354.88 189.17 351.78 193.29 348.16 196.78C349.95 198.64 352.3 200.82 354.09 202.68C354.53 203.13 355.77 201.2 356.38 201.08C356.79 201 357.09 200.67 357.36 200.35C360.59 196.51 364.22 192.04 367.14 186.9Z" fill="url(#paint43_linear_1088_289)"/>
<path d="M408.671 230.11C408.821 232.58 409.391 236.05 410.181 239.78C412.261 249.69 415.821 262.94 416.741 263.5C416.771 263.52 416.791 263.52 416.821 263.52C430.021 261.94 444.071 245.82 452.801 231.76C457.361 224.41 461.231 217.05 464.331 211.47C462.561 206.48 457.651 198.84 452.211 190.42C446.291 181.25 436.941 171.83 433.111 163.18C432.391 161.55 431.761 159.97 431.261 158.46C421.231 181.41 422.991 190.73 412.951 213.69C412.591 214.52 412.221 215.36 411.871 216.2C409.991 220.67 408.381 225.32 408.671 230.12V230.11Z" fill="url(#paint44_linear_1088_289)"/>
<path d="M350.461 200.27C369.011 224.71 386.491 249.64 414.851 263.26C415.321 263.49 415.981 263.57 416.741 263.51C419.411 263.29 423.321 261.24 424.431 256.91C427.091 246.5 424.741 232.51 420.481 225.31C419.911 224.35 419.311 223.49 418.691 222.74C416.821 220.51 414.511 218.34 411.881 216.2C399.031 205.78 378.401 196 363.371 182.74C362.651 187.82 357.081 195.7 351.081 199.87C350.881 200.01 350.681 200.15 350.471 200.28L350.461 200.27Z" fill="url(#paint45_linear_1088_289)"/>
<path style="mix-blend-mode:multiply" opacity="0.3" d="M350.461 200.27C369.011 224.71 386.491 249.64 414.851 263.26C415.321 263.49 415.981 263.57 416.741 263.51C416.771 263.53 416.791 263.53 416.821 263.53C430.021 261.95 444.071 245.83 452.801 231.77C453.431 227.95 453.911 224.11 454.221 220.25C455.001 210.35 454.551 200.23 452.211 190.43C449.611 179.54 441.881 169.74 433.681 160.37C433.491 161.31 433.301 162.25 433.111 163.18C428.901 183.89 424.691 204.6 420.481 225.3C420.371 225.86 420.251 226.42 420.141 226.98C422.011 232.84 416.321 238.97 410.231 239.78C410.221 239.78 410.201 239.78 410.181 239.78C404.101 240.58 398.161 237.7 392.891 234.56C377.241 225.24 363.701 213.06 351.071 199.86C350.871 200 350.671 200.14 350.461 200.27Z" fill="url(#paint46_linear_1088_289)"/>
<path d="M511.909 84.0999C512.499 92.6799 514.209 108.01 514.139 107.59C505.789 115.83 485.179 126.51 474.009 130.12C470.919 124.42 469.199 118.06 470.169 111.65C471.139 105.24 472.869 92.8799 474.649 83.6299C482.439 84.1999 502.429 87.4799 511.909 84.0999Z" fill="url(#paint47_linear_1088_289)"/>
<path style="mix-blend-mode:multiply" d="M511.909 84.0999C512.499 92.6799 514.209 108.01 514.139 107.59C505.789 115.83 485.179 126.51 474.009 130.12C470.919 124.42 469.199 118.06 470.169 111.65C471.139 105.24 472.869 92.8799 474.649 83.6299C482.439 84.1999 502.429 87.4799 511.909 84.0999Z" fill="url(#paint48_linear_1088_289)"/>
<path d="M514.081 105.28C517.861 112.21 523.451 119.1 528.951 124.75C534.461 130.4 534.931 131.5 534.971 139.39C534.991 143.58 548.491 151.01 547.061 154.95C529.511 203.54 490.451 246.35 460.541 288.46C454.581 282.92 451.281 274.99 449.901 266.97C448.521 258.95 448.901 250.74 449.281 242.61C450.901 208.07 452.521 173.53 454.141 138.99C460.851 131.21 463.191 122.35 469.901 114.58C466.461 135.14 502.431 114.09 514.081 105.28Z" fill="url(#paint49_linear_1088_289)"/>
<path d="M478.38 126.23C472.54 149.79 471.61 172.82 470.06 197.05C469.46 206.43 469.17 215.91 466.86 225.02C464.08 235.96 456.14 260.44 450.6 270.28C452.73 259.61 448.92 249.45 449.03 238.57C449.13 228.79 454.86 203.73 456.99 194.18C468.14 144.11 467.01 138.06 474.22 121.91C476.44 123.82 475.99 124.28 478.39 126.24L478.38 126.23Z" fill="url(#paint50_linear_1088_289)"/>
<path d="M470.419 117.59C470.399 119.9 471.749 120.51 470.779 122.61C470.019 124.23 468.979 125.78 468.789 127.56C468.469 130.55 469.579 135.16 472.579 135.45C475.589 135.74 485.109 129.04 488.039 128.26C488.319 123.91 482.079 122.83 483.959 118.9C482.879 119.68 475.809 121.44 470.439 117.6L470.419 117.59Z" fill="url(#paint51_linear_1088_289)"/>
<path d="M440.631 340.88C443.791 412.79 464.901 482.15 465.171 557.13C469.771 557.11 473.151 556.6 477.021 556.29C478.691 556.15 480.461 556.05 482.461 556.05C486.021 535.34 499.321 511.99 496.081 481.96C494.661 468.86 491.141 456.63 488.041 443.83C482.651 421.51 489.771 370.63 495.011 324.22C498.221 295.74 500.721 268.94 499.181 251.45C486.631 246.58 464.251 278.26 442.861 281.27C442.261 285.9 441.781 290.5 441.401 295.09C440.121 310.51 439.981 325.75 440.651 340.88H440.631Z" fill="url(#paint52_linear_1088_289)"/>
<path style="mix-blend-mode:multiply" d="M440.631 340.88C448.881 353.14 458.281 364.62 468.661 375.12C469.271 399.42 469.971 424.11 477.511 447.22C481.031 458.01 486.021 468.37 488.201 479.51C493.211 505.16 482.861 530.51 477.021 556.29C478.691 556.15 480.461 556.05 482.461 556.05C486.021 535.34 499.321 511.99 496.081 481.96C494.661 468.86 491.141 456.63 488.041 443.83C482.651 421.51 489.771 370.63 495.011 324.22C474.001 313.32 453.281 302.52 441.401 295.1C440.121 310.52 439.981 325.76 440.651 340.89L440.631 340.88Z" fill="url(#paint53_linear_1088_289)"/>
<path d="M452.891 292.79C454.011 296.57 455.121 300.26 456.221 303.88C461.961 322.77 467.461 339.54 472.701 354.63C506.631 452.33 529.971 479.76 541.341 557.56C546.701 558.31 551.881 559.48 560.291 560.66C563.701 538.14 565.641 516.8 565.491 500.82C565.411 492.49 564.761 485.62 563.471 480.78C558.061 460.58 551.911 450.14 545.511 430.24C533.361 392.45 523.551 312.93 514.181 274.35C512.301 274.87 510.351 275.4 508.361 275.95C492.221 280.37 472.731 285.69 452.901 292.8L452.891 292.79Z" fill="url(#paint54_linear_1088_289)"/>
<path style="mix-blend-mode:multiply" d="M456.221 303.89C476.921 293.33 493.521 285.26 508.351 275.95C510.341 275.41 512.291 274.87 514.171 274.35C523.541 312.93 533.351 392.45 545.501 430.24C551.901 450.15 558.041 460.59 563.461 480.78C564.751 485.62 565.401 492.49 565.481 500.82C563.281 492.26 560.971 467.79 543.071 438.18C527.381 412.24 517.021 372.5 506.511 347.42C496.091 352.63 484.331 355.1 472.691 354.63L456.211 303.88L456.221 303.89Z" fill="url(#paint55_linear_1088_289)"/>
<path d="M515.679 103.96C517.009 107.28 518.339 110.61 519.679 113.93C510.189 120.51 497.789 128.89 486.709 133.34C484.979 128.12 483.569 125.21 480.439 118.37C491.319 117.86 507.459 110.31 515.679 103.96Z" fill="url(#paint56_linear_1088_289)"/>
<path d="M452 293.28C452.03 293.64 452.05 293.99 452.09 294.35C452.55 300.02 453.47 305.65 454.89 311.37C455.1 312.21 455.89 314.51 456.9 317.35C459.42 324.41 463.34 334.85 463.34 334.85C463.34 334.85 483.58 322.37 526.32 299.06C520.99 290.25 523.19 270.27 523.19 270.27C523.19 270.27 526.28 254.93 528.98 246.6C532.57 235.51 537.19 205.54 567.79 159.02C557.42 142.94 540.78 132.59 526.16 120.16C526.03 120.05 525.91 119.95 525.78 119.84C523.77 118.13 521.81 116.38 519.91 114.56C471.22 167.28 474.79 174.17 458.81 237.93C453.6 258.74 450.76 276.17 451.98 293.26L452 293.28Z" fill="url(#paint57_linear_1088_289)"/>
<path style="mix-blend-mode:multiply" d="M451.821 295.69C451.911 295.24 451.991 294.79 452.081 294.35C456.451 272.24 464.811 251.14 473.121 230.18C483.101 205.02 492.641 184.2 502.621 159.03C507.841 145.85 516.641 131.54 526.161 120.17C526.031 120.06 525.911 119.96 525.781 119.85C512.551 131.5 496.801 146.54 485.621 164.93C476.421 180.05 470.601 196.98 465.901 214.04C458.771 239.93 454.061 266.49 451.991 293.27C451.931 294.07 451.871 294.88 451.811 295.68L451.821 295.69Z" fill="url(#paint58_linear_1088_289)"/>
<path style="mix-blend-mode:multiply" d="M454.271 280.08C454.791 296.97 456.711 313.81 460.011 330.38C455.271 313.63 452.951 296.19 454.271 280.08Z" fill="url(#paint59_linear_1088_289)"/>
<path d="M465.341 120.87C458.111 128.71 437.581 147.01 431.261 158.46C427.331 216.63 436.341 260.31 438.641 319.13C440.151 324.71 449.001 331.42 451.821 333.53C457.241 317.73 454.371 296.48 453.801 279.79C453.231 263.09 451.121 246.48 450.491 229.78C449.131 193.82 455.721 160.1 465.341 120.87Z" fill="url(#paint60_linear_1088_289)"/>
<path style="mix-blend-mode:multiply" d="M461.891 129.04C452.511 140.2 446.431 159.84 443.821 171.12C441.701 180.26 443.141 198.21 444.071 212.76C445.661 237.68 449.061 262.76 455.001 287.01C447.661 233.93 449.381 183.05 461.891 129.04Z" fill="url(#paint61_linear_1088_289)"/>
<path d="M532.379 216.77C533.499 218.89 534.539 220.85 535.489 222.69C544.039 239.2 546.239 245.91 550.209 262.97C550.939 266.11 551.729 269.6 552.629 273.56C554.799 273.37 557.129 273.12 559.539 272.79C568.049 271.62 580.719 269.47 587.929 265.73C589.179 265.09 590.359 264.39 591.459 263.65C591.469 263.65 591.479 263.64 591.489 263.63C591.489 263.52 591.479 263.42 591.479 263.31C591.479 263.16 591.469 263.01 591.459 262.86C591.309 259.73 591.149 256.45 590.949 253.04C589.359 225.29 582.539 189.32 567.789 159.03C556.059 164.27 543.949 182.98 537.289 199.58C534.749 205.9 533.009 211.92 532.369 216.77H532.379Z" fill="url(#paint62_linear_1088_289)"/>
<path style="mix-blend-mode:multiply" opacity="0.3" d="M456.901 317.35C459.421 324.41 463.341 334.85 463.341 334.85C463.341 334.85 483.581 322.37 526.321 299.06C520.991 290.25 523.191 270.27 523.191 270.27C523.191 270.27 526.281 254.93 528.981 246.6C531.501 238.81 532.301 230.77 535.491 222.69C545.621 242.23 546.831 248.04 552.631 273.56C554.801 273.37 557.131 273.12 559.541 272.79C558.361 250.14 552.241 227.76 541.781 207.63C540.361 204.9 538.871 202.21 537.291 199.57C536.881 198.88 536.471 198.2 536.051 197.52C513.951 218.7 501.171 249.27 501.461 279.62C488.241 293.97 473.231 306.67 456.891 317.34L456.901 317.35Z" fill="url(#paint63_linear_1088_289)"/>
<path d="M461.491 335.97C461.501 336.02 461.531 336.08 461.561 336.13C461.771 336.53 462.261 336.67 462.691 336.78C467.931 338.07 473.281 339.04 478.671 339.02C484.061 339 488.841 339.44 493.761 335.91C493.181 335.39 492.631 334.91 492.101 334.45C491.901 334.27 491.701 334.1 491.501 333.93C487.421 330.43 484.641 328.72 481.411 329.25C478.961 329.65 476.821 331.09 474.501 331.96C470.861 333.32 466.861 333.26 463.121 334.27C462.401 334.46 461.561 335 461.471 335.63C461.451 335.74 461.461 335.85 461.501 335.97H461.491Z" fill="url(#paint64_linear_1088_289)"/>
<path style="mix-blend-mode:multiply" d="M461.491 335.97C471.481 338.87 482.441 338.33 492.101 334.45C492.411 334.33 492.711 334.2 493.021 334.07C492.511 334.02 492.011 333.97 491.511 333.93C483.451 333.25 476.411 333.52 469.551 334.75C466.881 335.23 464.141 335.84 461.481 335.63C461.461 335.74 461.471 335.85 461.511 335.97H461.491Z" fill="url(#paint65_linear_1088_289)"/>
<path d="M458.2 336.08C459.18 336.03 464.61 336.49 467.81 336.77C475.96 337.5 484.27 335.56 491.43 331.27C490.61 331.2 489.8 331.14 488.99 331.09C483.18 330.69 477.86 330.6 472.94 330.9C469.02 331.13 465.36 331.6 461.9 332.34C460.84 332.57 460.01 332.86 459.38 333.18C458.2 333.78 457.69 334.48 457.57 335.04C457.44 335.65 457.77 336.1 458.2 336.08Z" fill="url(#paint66_linear_1088_289)"/>
<path style="mix-blend-mode:multiply" d="M457.561 335.04C468.061 337.45 479.431 336.06 488.991 331.09C489.301 330.93 489.621 330.76 489.931 330.59C484.081 329.65 478.421 330.07 472.941 330.9C472.341 330.99 471.741 331.09 471.141 331.19C467.221 331.84 463.311 332.66 459.381 333.19C458.201 333.79 457.691 334.49 457.571 335.05L457.561 335.04Z" fill="url(#paint67_linear_1088_289)"/>
<path d="M454.28 334.44C454.78 335.04 455.59 335.08 456.31 335.09C462.14 335.15 467.98 335.21 473.75 334.4C479.52 333.6 485.25 331.9 490.27 328.65C489.25 327.32 488.33 326.1 487.46 325.08C486.83 324.36 486.22 323.73 485.61 323.25C485.31 323.01 485 322.8 484.68 322.64C481.6 320.98 477.93 321.53 474.71 322.76C472.51 323.6 470.4 324.73 468.24 325.66C467.24 326.09 466.22 326.48 465.19 326.78C462.36 327.59 459.14 327.85 456.69 329.38C455.93 329.86 455.23 330.46 454.65 331.25C453.98 332.15 453.56 333.58 454.28 334.44Z" fill="url(#paint68_linear_1088_289)"/>
<path style="mix-blend-mode:multiply" d="M456.689 329.39C466.639 331.23 477.169 329.87 486.289 325.5L487.459 325.09C486.829 324.37 486.219 323.74 485.609 323.26C480.909 322.96 476.109 323.79 471.489 324.88C470.409 325.13 469.329 325.4 468.239 325.67C467.239 326.1 466.219 326.49 465.189 326.79C462.359 327.6 459.139 327.86 456.689 329.39Z" fill="url(#paint69_linear_1088_289)"/>
<path d="M501.979 313.09C498.019 312.09 494.179 310.65 490.189 309.79C485.609 308.8 480.869 308.59 476.219 309.18C475.429 310.66 476.659 312.51 478.169 313.24C479.679 313.97 481.429 314.02 483.019 314.58C484.419 315.07 485.649 315.94 486.979 316.6C491.449 318.82 497.099 318.42 501.999 313.09H501.979Z" fill="url(#paint70_linear_1088_289)"/>
<path d="M454.101 326.53C454.301 326.86 454.631 327.03 454.951 327.18C461.681 330.4 469.441 329.47 476.321 326.87C476.921 326.64 477.531 326.39 478.131 326.12C480.581 325 482.891 323.44 484.251 320.95C484.911 319.73 482.551 319.56 480.671 318.99C479.731 318.7 478.911 318.31 478.671 317.64C478.621 317.66 478.571 317.68 478.521 317.7C470.741 320.83 469.561 321.15 461.581 322.57C459.581 322.93 457.561 323.21 455.661 323.96C454.961 324.24 454.201 324.87 453.991 325.56C453.891 325.87 453.911 326.2 454.101 326.52V326.53Z" fill="url(#paint71_linear_1088_289)"/>
<path d="M477.16 320.64C477.22 322.55 477.56 324.4 478.14 326.12C480.2 332.33 485.22 337.01 490.82 337.53C493.61 336.14 513 324.64 515.38 322.65C511.64 320.16 507.9 317.67 504.39 314.89C503.12 314.04 501.86 313.19 499.66 312.03C496.43 313.67 491.69 314.37 486.97 315.33C484.08 315.91 481.2 316.59 478.68 317.64C478.63 317.66 478.58 317.68 478.53 317.7C478.09 317.89 477.66 318.09 477.24 318.3C477.17 319.09 477.15 319.87 477.17 320.64H477.16Z" fill="url(#paint72_linear_1088_289)"/>
<path style="mix-blend-mode:multiply" d="M453.99 325.57C461.93 325.45 469.85 323.76 477.15 320.64C478.34 320.13 479.51 319.58 480.67 318.99C482.84 317.9 484.94 316.68 486.96 315.33C484.07 315.91 481.19 316.59 478.67 317.64C478.62 317.66 478.57 317.68 478.52 317.7C470.74 320.83 469.56 321.15 461.58 322.57C459.58 322.93 457.56 323.21 455.66 323.96C454.96 324.24 454.2 324.87 453.99 325.56V325.57Z" fill="url(#paint73_linear_1088_289)"/>
<path d="M519.74 320.33C516.2 322.79 514.54 323.38 510.99 325.84C506.55 319.57 503.62 315.7 499.16 311.37C502.16 308.91 502.3 309.24 504.36 307.77C509.94 309.98 514.99 318.14 519.73 320.33H519.74Z" fill="url(#paint74_linear_1088_289)"/>
<path d="M502.619 307.85C503.619 308.71 505.979 311.39 508.509 314.55C511.059 317.74 513.789 321.42 515.449 324.16C530.909 315.37 589.239 301.87 591.459 263.66C591.459 263.55 591.469 263.43 591.479 263.32C591.489 263.18 591.489 263.03 591.499 262.88C591.489 262.88 591.469 262.87 591.459 262.87C590.579 262.59 589.689 262.33 588.799 262.09C577.409 258.96 562.729 258.81 551.829 261.94C551.279 262.29 550.739 262.64 550.209 262.98C525.999 278.73 522.199 289.64 502.619 307.86V307.85Z" fill="url(#paint75_linear_1088_289)"/>
<path d="M519.92 114.57C499.72 137.21 479.26 153.8 471.89 183.22C464.51 212.65 455.1 239.62 452.25 273.79C459.87 243.38 475.53 212.25 488.65 179.89C485.14 176.76 482.7 175.07 479.19 171.94C484.3 173.73 486.66 174.04 491.88 175.29C498.51 156.02 512.09 138.35 525.2 119.26C523.97 118.36 522.74 117.45 519.93 114.57H519.92Z" fill="url(#paint76_linear_1088_289)"/>
<path d="M466.82 116.82C451.98 180.52 454.29 228.37 453.8 279.78C449.62 245.18 444.68 210.6 444.91 175.75C447.45 174.53 451.72 173.02 454.49 169.93C452.16 170.31 447.89 171.04 445.56 171.41C447.31 159.82 452.19 146.83 458.17 129.11C461.26 125.11 464.34 121.11 466.82 116.82Z" fill="url(#paint77_linear_1088_289)"/>
<path d="M475.06 118.57C469.99 124.55 469.62 125.94 467.17 132.32C465.49 126.73 464.43 127.53 464.81 121.18C466.25 117.94 467.69 114.7 469.13 111.47C469.16 111.74 472.65 117.89 475.06 118.58V118.57Z" fill="url(#paint78_linear_1088_289)"/>
<path d="M515.679 103.96C517.009 107.28 518.339 110.61 519.679 113.93C510.189 120.51 497.789 128.89 486.709 133.34C484.979 128.12 483.569 125.21 480.439 118.37C491.319 117.86 507.459 110.31 515.679 103.96Z" fill="url(#paint79_linear_1088_289)"/>
<path d="M475.06 118.57C469.99 124.55 469.62 125.94 467.17 132.32C465.49 126.73 464.43 127.53 464.81 121.18C466.25 117.94 467.69 114.7 469.13 111.47C469.16 111.74 472.65 117.89 475.06 118.58V118.57Z" fill="url(#paint80_linear_1088_289)"/>
<path d="M460.711 42.6896C460.751 43.2796 460.801 43.8796 460.861 44.4696C460.941 45.2296 461.031 45.9896 461.131 46.7496C461.881 52.2296 463.351 57.6096 465.531 62.6996C465.711 63.1296 465.891 63.5496 466.081 63.9696C466.051 63.3796 466.041 62.7896 466.021 62.1996C465.911 56.6596 466.421 51.1396 467.061 45.6196C467.091 45.3096 467.131 44.9996 467.171 44.6896C467.191 44.5196 467.211 44.3596 467.231 44.1896C467.551 41.5296 467.881 38.8596 468.191 36.1996C468.411 34.2896 468.601 32.2896 467.931 30.4896C467.251 28.6896 465.441 27.1696 461.701 26.3096C460.631 31.6896 460.311 37.2096 460.701 42.6896H460.711Z" fill="url(#paint81_linear_1088_289)"/>
<path style="mix-blend-mode:screen" opacity="0.2" d="M467.179 44.6799C467.249 44.6799 467.319 44.6899 467.399 44.6999C467.349 44.5299 467.299 44.3599 467.239 44.1899C466.989 43.4199 466.709 42.6599 466.399 41.9199C464.499 42.1499 462.599 42.3999 460.699 42.6999C460.739 43.2899 460.789 43.8899 460.849 44.4799C462.959 44.4799 465.069 44.5399 467.169 44.6899L467.179 44.6799Z" fill="url(#paint82_linear_1088_289)"/>
<path style="mix-blend-mode:screen" opacity="0.2" d="M461.131 46.7498C461.881 52.2298 463.351 57.6098 465.531 62.6998C465.711 62.5598 465.881 62.3898 466.031 62.1998C466.261 61.9198 466.451 61.5898 466.611 61.2798C469.041 56.4498 469.031 50.6998 467.631 45.5098C467.441 45.5498 467.261 45.5798 467.071 45.6198C465.091 45.9998 463.111 46.3698 461.131 46.7498Z" fill="url(#paint83_linear_1088_289)"/>
<path d="M466.65 60.9299C465.71 58.8699 464.77 56.8099 463.83 54.7499C463.48 53.9899 463.07 53.1699 462.31 52.8499C461.37 52.4599 460.23 53.0399 459.7 53.9099C459.16 54.7799 459.09 55.8599 459.11 56.8799C459.21 62.8399 461.84 68.4199 464.41 73.7899C465.11 69.5399 465.81 65.2999 466.66 60.9299H466.65Z" fill="url(#paint84_linear_1088_289)"/>
<path style="mix-blend-mode:multiply" opacity="0.9" d="M464.21 62.6596C463.92 60.8096 463.38 58.9895 462.62 57.2795C462.42 56.8395 462.2 56.3896 461.83 56.0696C461.46 55.7596 460.9 55.6095 460.48 55.8495C460.05 56.0895 459.89 56.6295 459.82 57.1195C459.62 58.4995 459.79 59.9396 460.32 61.2296C460.36 60.8596 460.26 60.4796 460.18 60.1096C460.1 59.7396 460.05 59.3396 460.21 58.9996C460.36 58.6596 460.79 58.4096 461.13 58.5696C461.38 58.6896 461.5 58.9696 461.59 59.2396C461.98 60.5196 461.95 61.8895 462.12 63.2095C462.29 64.5395 462.75 65.9296 463.83 66.7196C464.54 65.2096 464.34 63.4896 464.21 62.6496V62.6596Z" fill="url(#paint85_linear_1088_289)"/>
<path d="M463.989 26.2096C461.609 40.7296 464.769 60.5896 461.449 76.8396C467.089 78.0996 467.469 101.84 473.229 101.37C478.809 100.91 495.599 89.8796 501.049 88.6096C505.689 87.5296 505.749 75.5296 508.629 71.7196C511.069 68.4896 510.489 61.2796 510.719 57.2396C511.109 50.2996 511.499 43.3696 511.899 36.4296C512.019 34.3396 512.109 32.1196 511.049 30.3096C510.019 28.5496 508.109 27.5196 506.249 26.6796C493.049 20.6996 478.469 18.2996 463.989 26.2096Z" fill="url(#paint86_linear_1088_289)"/>
<path d="M516.409 60.79C516.219 61.8 516.029 62.8 515.839 63.79C515.649 64.75 515.469 65.7 515.279 66.63C515.279 66.63 515.279 66.66 515.279 66.67C515.209 67.04 515.139 67.4 515.069 67.75C514.709 69.58 514.339 71.38 513.969 73.17C512.589 79.87 511.199 86.42 509.839 93.62C508.169 95.95 506.189 98.06 503.979 99.9C495.779 106.76 484.359 110.1 473.539 108.4C473.199 108.24 472.879 108.07 472.549 107.89C471.799 107.48 471.079 107.03 470.389 106.53C470.379 106.53 470.359 106.51 470.349 106.5C465.359 102.87 462.079 97.02 460.749 90.91C459.149 83.58 460.639 77.2 462.509 69.94C462.579 69.99 462.639 70.04 462.709 70.1C463.349 70.67 463.949 71.78 464.559 72.92C465.429 74.55 466.329 76.24 467.409 76.49C470.579 77.21 467.919 72.83 477.619 73.14C483.349 73.32 488.499 71.36 494.069 69.98C496.679 69.33 498.719 72.42 500.769 73.95C500.959 74.09 501.139 74.21 501.319 74.32C502.209 74.84 503.099 74.99 504.059 74.32C505.029 73.64 506.059 72.17 507.019 70.33C507.139 70.1 507.259 69.87 507.369 69.63C508.199 67.93 508.959 65.97 509.559 64.06C509.679 63.69 509.789 63.33 509.889 62.96C510.249 61.7 510.529 60.48 510.689 59.38C510.689 59.38 510.689 59.38 510.689 59.37C510.879 58.14 510.929 57.06 510.799 56.27C511.909 57.65 512.709 58.63 513.319 59.32C514.459 60.64 514.849 60.96 515.129 61.18C515.169 61.21 515.209 61.24 515.259 61.26C515.689 61.47 516.319 61.23 516.439 60.76L516.409 60.79ZM472.279 83.04C472.199 83.44 472.099 83.84 471.999 84.23C471.619 85.73 471.109 87.19 470.479 88.6C470.109 89.45 469.679 90.41 470.029 91.27C470.399 92.19 471.489 92.56 472.459 92.79C476.329 93.7 480.339 94.03 484.309 93.77C487.459 93.56 490.779 92.88 493.029 90.68C495.189 88.58 495.999 85.39 495.859 82.37C495.789 80.89 495.519 79.43 495.149 78C495.079 77.73 494.999 77.45 494.919 77.18C494.619 76.12 494.269 75.07 493.909 74.03C493.859 73.89 493.819 73.76 493.769 73.62C493.559 73.66 493.339 73.71 493.129 73.75C492.999 73.78 492.869 73.81 492.749 73.83C491.169 74.14 489.589 74.44 488.009 74.71C488.009 74.71 487.989 74.71 487.979 74.71C482.929 75.61 477.889 76.37 472.849 77.13C472.869 79.11 472.669 81.09 472.259 83.03L472.279 83.04Z" fill="url(#paint87_linear_1088_289)"/>
<path d="M502.879 28.6396C504.969 30.2796 504.119 32.2696 506.199 33.8996C506.189 37.4096 506.329 40.4996 506.659 43.1796C506.779 44.1496 506.929 45.0696 507.099 45.9296C507.309 46.9696 507.559 47.9396 507.849 48.8196C508.249 50.0196 508.729 51.0696 509.289 51.9896C509.819 56.5596 509.669 59.4496 509.559 62.9096C509.559 63.2896 509.539 63.6896 509.529 64.0896C511.139 65.4696 513.209 65.3496 514.979 64.3596C515.699 63.9596 516.369 63.4196 516.939 62.7796C518.919 60.5496 518.579 58.1396 518.889 55.1796C518.899 55.0096 519.379 53.4696 520.029 51.3196C520.239 50.6196 520.469 49.8596 520.719 49.0496C520.989 48.1296 521.279 47.1696 521.559 46.1896C522.389 43.3496 523.199 40.4096 523.659 38.3196C523.579 31.7796 519.429 29.6496 519.199 24.8696C513.889 26.7196 508.259 27.6696 502.869 28.6396H502.879Z" fill="url(#paint88_linear_1088_289)"/>
<path d="M512.15 73.3898C512.25 72.1098 512.45 63.1898 513.09 59.6598C514.07 58.1698 515.08 56.6398 516.5 55.5698C517.93 54.4998 519.88 53.9598 521.53 54.6498C523.49 55.4698 524.43 57.7898 524.42 59.9098C524.4 63.3298 522.37 72.8998 512.16 73.3798L512.15 73.3898Z" fill="url(#paint89_linear_1088_289)"/>
<path style="mix-blend-mode:multiply" opacity="0.9" d="M522.311 61.58C522.021 60.66 521.731 59.72 521.171 58.92C520.621 58.13 519.751 57.49 518.791 57.45C517.871 57.42 517.001 57.93 516.411 58.64C515.831 59.35 515.501 60.23 515.261 61.12C514.771 62.92 514.611 64.81 514.771 66.66C514.821 67.21 514.931 67.82 515.361 68.17C516.051 68.72 517.101 68.24 517.691 67.58C518.311 66.88 518.701 65.94 518.551 65.02C518.401 64.1 517.591 63.28 516.661 63.29C516.901 62.11 517.631 61.03 518.631 60.36C519.141 60.02 519.751 59.78 520.361 59.87C520.971 59.96 521.541 60.45 522.301 61.57L522.311 61.58Z" fill="url(#paint90_linear_1088_289)"/>
<path d="M454.49 25.8298C455.02 26.7298 455.7 27.5298 456.48 28.2298C457.6 29.2498 458.93 30.0498 460.32 30.6198C462.37 31.4598 464.58 31.8498 466.78 32.1398C467.11 32.1798 467.43 32.2198 467.76 32.2598C469.22 32.4398 470.68 32.6098 472.14 32.7598C474.54 33.0198 476.94 33.2398 479.35 33.4098C479.63 33.4298 479.92 33.4598 480.2 33.4798C482.54 33.6498 484.87 33.7798 487.21 33.8698C487.97 33.9098 488.74 33.9298 489.51 33.9498C495.65 34.1498 501.8 34.0998 507.94 33.8098C512.39 33.5998 516.83 33.2698 521.25 32.8098C522.98 29.6198 524.01 27.0898 525.05 24.5498C524.46 24.5398 523.01 23.6398 522.43 23.6198C521.82 23.1698 521.22 22.7198 520.62 22.2898C519.7 21.6198 518.78 20.9898 517.87 20.3698C513.68 17.5598 509.5 15.2398 504.87 12.9398C504.05 12.5298 503.21 12.1198 502.35 11.7098C502.68 11.4498 502.98 11.1598 503.27 10.8398C504.07 9.95978 504.67 8.87978 505.03 7.72978C503.85 7.13978 502.63 6.61978 501.39 6.16978C498.6 5.15978 495.67 4.52978 492.71 4.30978C492.12 4.26978 491.52 4.23978 490.93 4.21978C491.38 3.60978 491.85 2.89978 492.32 2.18978C488.87 1.47978 485.29 1.32978 481.79 1.75978C481.05 1.84978 480.32 1.95978 479.59 2.09978C479.5 1.77978 479.4 1.45978 479.31 1.13978C479.21 0.779781 479.1 0.419781 478.99 0.0597805C474.59 -0.58022 470.81 3.04978 467.99 6.48978C463 12.5598 458.48 19.0298 454.49 25.8198V25.8298Z" fill="url(#paint91_linear_1088_289)"/>
<path style="mix-blend-mode:screen" opacity="0.2" d="M495.89 31.2796C494.27 32.0796 491.69 33.5396 489.5 33.9697C495.64 34.1697 501.79 34.1197 507.93 33.8297C507.75 32.4797 508.14 31.0396 508.86 29.8596C509.85 28.2596 511.37 27.0796 512.95 26.0596C515.34 24.5096 517.92 23.2496 520.61 22.3096C519.69 21.6396 518.77 21.0096 517.86 20.3896C512.23 21.5196 506.82 23.7896 502.12 27.0996C500.07 28.5396 498.14 30.1796 495.89 31.2796Z" fill="url(#paint92_linear_1088_289)"/>
<path style="mix-blend-mode:screen" opacity="0.2" d="M480.18 33.4896C482.52 33.6596 484.85 33.7896 487.19 33.8796C490.6 26.1296 497.79 17.6096 504.86 12.9496C504.04 12.5396 503.2 12.1296 502.34 11.7196C502.67 11.4596 502.97 11.1696 503.26 10.8496C498.49 13.0196 494.2 16.2496 490.86 20.2896C487.73 24.0796 484.68 31.3496 480.18 33.4796V33.4896Z" fill="url(#paint93_linear_1088_289)"/>
<path style="mix-blend-mode:screen" opacity="0.2" d="M472.131 32.7698C474.531 33.0298 476.931 33.2498 479.341 33.4198C479.311 32.5298 479.461 30.4698 479.341 30.2898C483.041 19.7198 491.261 10.8798 501.401 6.17982C498.611 5.16982 495.681 4.53982 492.721 4.31982C490.191 5.70982 487.761 7.34982 485.651 9.29982C474.391 19.6698 475.031 27.2198 472.141 32.7598L472.131 32.7698Z" fill="url(#paint94_linear_1088_289)"/>
<path style="mix-blend-mode:screen" opacity="0.2" d="M456.4 28.0099C456.43 28.0799 456.46 28.1499 456.48 28.2299C457.6 29.2499 458.93 30.0499 460.32 30.6199C462.37 31.4599 464.58 31.8499 466.78 32.1399C467.38 26.8399 469.68 17.3599 470.86 14.9999C472.32 12.0799 474.48 9.5699 476.69 7.1499C478.36 5.3199 480.06 3.5299 481.8 1.7699C481.06 1.8599 480.33 1.9699 479.6 2.1099C479.51 1.7899 479.41 1.4699 479.32 1.1499C478.82 1.5699 478.34 2.0099 477.88 2.4499C469.76 10.0999 462.55 18.6899 456.42 28.0099H456.4Z" fill="url(#paint95_linear_1088_289)"/>
<path style="mix-blend-mode:screen" opacity="0.2" d="M506.66 43.1797C506.78 44.1497 506.93 45.0697 507.1 45.9297C512.56 49.4397 517.12 49.4697 520.72 49.0397C520.99 48.1197 521.28 47.1597 521.56 46.1797C517.38 46.0197 513.08 45.8897 506.66 43.1797Z" fill="url(#paint96_linear_1088_289)"/>
<path style="mix-blend-mode:screen" opacity="0.2" d="M509.56 62.9098C511.37 63.4098 513.17 63.8898 514.98 64.3498C515.7 63.9498 516.37 63.4098 516.94 62.7698C518.92 60.5398 518.58 58.1298 518.89 55.1698C518.9 54.9998 519.38 53.4598 520.03 51.3098C516.21 51.6098 512.74 51.8998 507.85 48.8198C508.25 50.0198 508.73 51.0698 509.29 51.9898C509.82 56.5598 509.67 59.4498 509.56 62.9098Z" fill="url(#paint97_linear_1088_289)"/>
<path d="M469.589 57.1199C468.069 54.7299 471.149 47.6799 465.339 50.4199C465.159 49.0899 463.199 45.7299 465.199 44.8599C466.809 44.1599 468.759 43.0999 470.499 43.3299C472.239 43.5599 475.499 45.9799 475.379 45.5399C478.919 48.6899 478.389 52.7599 477.569 56.8999C475.209 55.6599 473.599 55.7699 469.579 57.1299L469.589 57.1199Z" fill="url(#paint98_linear_1088_289)"/>
<path d="M485.16 50.9596L484.1 48.3896L484.91 46.4896C484.91 46.4896 490.4 44.5296 493.05 44.4796C495.7 44.4196 500.62 46.0596 500.62 46.0596L502.37 49.1196L498.75 52.3596C498.75 52.3596 497.89 57.1596 496.15 58.3496C495 59.1296 493.63 59.5396 492.24 59.6896C490.78 59.8496 488.9 52.8296 487.33 50.2496C486.73 49.2796 485.15 50.9596 485.15 50.9596H485.16Z" fill="url(#paint99_linear_1088_289)"/>
<path style="mix-blend-mode:multiply" opacity="0.6" d="M484.55 64.4396C484.51 64.5196 484.2 66.9496 482.71 68.1996C481.98 68.8196 481.09 69.3296 480.08 69.5296C479.77 69.5896 479.45 69.6196 479.12 69.6096C477.66 69.5696 473.34 66.3596 475.29 63.0596C475.24 65.2096 478.31 69.3796 484.55 64.4396Z" fill="url(#paint100_linear_1088_289)"/>
<path opacity="0.62" d="M477.861 54.75C478.281 58.84 475.571 60.37 475.331 63.17C475.071 66.52 477.521 68.64 478.051 69.26C477.521 69.05 477.041 68.6 476.571 68.22C473.781 65.8 473.691 63.81 473.711 63.06C473.821 60.39 476.971 60.18 477.861 54.75Z" fill="#4D1C13"/>
<path d="M492.711 73.8296C492.711 73.8296 492.661 74.4396 492.521 75.4296C492.161 77.8596 490.981 82.2496 488.611 86.2696C488.141 87.0696 487.621 87.8396 487.041 88.5296C483.651 92.5896 477.821 91.5796 476.671 89.9496C476.351 89.4696 476.021 88.7096 475.711 87.7296C474.731 84.6496 473.631 77.0596 473.631 77.0596L492.711 73.8496V73.8296Z" fill="#561122"/>
<path d="M492.711 73.8298C492.711 73.8298 492.551 76.2098 491.771 78.7998L475.051 81.4298L474.051 76.9798L492.711 73.8198V73.8298Z" fill="#FEEDEE"/>
<path d="M488.589 86.2697C488.119 87.0697 487.599 87.8397 487.019 88.5297C483.629 92.5897 477.799 91.5797 476.649 89.9497C476.329 89.4697 475.999 88.7098 475.689 87.7298C481.429 83.9698 488.589 86.2797 488.589 86.2797V86.2697Z" fill="url(#paint101_linear_1088_289)"/>
<path d="M467.861 52.2697C467.741 54.5397 468.791 56.4697 470.201 56.5797C471.621 56.6897 472.861 54.9297 472.981 52.6597C473.031 51.6397 472.851 50.7097 472.511 49.9597C471.371 49.6597 470.281 49.2597 469.201 48.9297C468.471 49.6197 467.951 50.8397 467.871 52.2697H467.861Z" fill="#3A1A12" stroke="url(#paint102_linear_1088_289)" stroke-miterlimit="10"/>
<path d="M469.481 54.8097C469.001 54.8097 468.591 54.1297 468.581 53.2797C468.561 52.4297 468.941 51.7297 469.421 51.7197C469.901 51.7197 470.311 52.3997 470.321 53.2497C470.341 54.0997 469.961 54.7997 469.481 54.8097Z" fill="white"/>
<path d="M465.789 50.5396L469.409 48.6196L475.739 50.7396" stroke="#4D1C13" stroke-miterlimit="10" stroke-linecap="round"/>
<path d="M487.349 51.6596C487.229 53.9296 488.279 55.8596 489.689 55.9696C491.109 56.0796 492.349 54.3196 492.469 52.0496C492.519 51.0296 492.339 50.0996 491.999 49.3496C490.859 49.0496 490.049 48.6996 488.969 48.3696C488.239 49.0596 487.429 50.2296 487.359 51.6596H487.349Z" fill="#3A1A12" stroke="url(#paint103_linear_1088_289)" stroke-miterlimit="10"/>
<path d="M488.981 54.2C488.501 54.2 488.091 53.52 488.081 52.67C488.061 51.82 488.441 51.12 488.921 51.11C489.401 51.1 489.801 51.78 489.821 52.64C489.841 53.49 489.461 54.19 488.981 54.2Z" fill="white"/>
<path d="M485.551 50.9598L488.831 48.2798L495.411 49.8698" stroke="#4D1C13" stroke-miterlimit="10" stroke-linecap="round"/>
<path d="M484.74 46.5998C488.32 46.4998 491.89 46.3898 495.47 46.2898C496.81 46.2498 498.18 46.2198 499.46 46.6098C500.74 46.9998 501.94 47.9098 502.33 49.1898C501.9 47.0298 501.36 44.8998 500.7 42.7898C500.53 42.2398 500.32 41.6398 499.83 41.3298C499.42 41.0698 498.9 41.0598 498.42 41.0698C495.2 41.1098 491.98 41.2798 488.77 41.5898C488.53 42.6598 488.07 43.6898 487.45 44.5898C487.76 43.6098 487.85 42.5498 487.68 41.5298C486.99 41.9498 486.1 42.0398 485.34 41.7598C485.81 43.3598 485.56 45.1498 484.74 46.5998Z" fill="url(#paint104_linear_1088_289)"/>
<path d="M476.31 47.0197C475.62 45.3897 475.19 43.6697 475.03 41.9197C474.46 42.0197 473.86 41.9497 473.34 41.7197C473.57 42.7797 473.8 43.8397 474.03 44.8897C473.54 43.8497 473.05 42.7997 472.56 41.7597C469.2 41.6197 465.81 41.9897 462.56 42.8397C462.37 44.8997 462.17 46.9597 461.98 49.0197C462.43 47.4697 464.04 46.3797 465.73 46.0097C467.42 45.6397 469.18 45.8697 470.88 46.1897C472.58 46.5097 474.28 46.8997 476.3 47.0197H476.31Z" fill="url(#paint105_linear_1088_289)"/>
<path d="M450.281 276.71C443.771 275.74 441.911 275.32 435.401 274.35C434.611 281.35 436.101 283.32 437.291 284.02C438.331 284.64 439.661 284.36 440.821 284.02C445.151 282.72 447.301 280.55 450.281 276.71Z" fill="url(#paint106_linear_1088_289)"/>
<path style="mix-blend-mode:multiply" opacity="0.3" d="M508.52 314.54C511.07 317.73 513.8 321.41 515.46 324.15C530.92 315.36 589.25 301.86 591.47 263.65C591.48 263.65 591.49 263.64 591.5 263.63C591.5 263.52 591.49 263.42 591.49 263.31C591.5 263.17 591.5 263.02 591.51 262.87C591.5 262.87 591.48 262.86 591.47 262.86C591.32 259.73 591.16 256.45 590.96 253.04C590.24 256.05 589.53 259.06 588.81 262.08C588.52 263.3 588.23 264.52 587.94 265.74C587.85 266.12 587.76 266.5 587.67 266.88C566.07 287.9 536.83 304.24 508.52 314.55V314.54Z" fill="url(#paint107_linear_1088_289)"/>
<path d="M379.039 193.375L378.516 192.731C377.028 190.901 374.339 190.623 372.509 192.111L362.43 200.305C360.6 201.793 360.322 204.482 361.81 206.312L362.333 206.956C363.821 208.786 366.51 209.063 368.34 207.576L378.42 199.382C380.25 197.894 380.527 195.205 379.039 193.375Z" fill="#222B2A"/>
<path d="M353.551 264.51C352.751 264.51 352.091 263.87 352.071 263.07L351.341 234.11C351.061 223.07 354.831 212.35 361.951 203.91C362.481 203.29 363.411 203.21 364.031 203.73C364.651 204.26 364.731 205.19 364.211 205.81C357.561 213.69 354.041 223.71 354.301 234.02L355.031 262.98C355.051 263.8 354.411 264.48 353.591 264.5C353.581 264.5 353.561 264.5 353.551 264.5V264.51Z" fill="#222B2A"/>
<path d="M366.561 272.84V275.6L352.931 276.48L347.731 276.1L340.801 275.6V272.84C340.801 271.35 341.521 269.95 342.731 269.08C345.571 267.04 349.131 265.51 351.501 263.14H355.871C358.241 265.51 361.801 267.04 364.641 269.08C365.851 269.95 366.571 271.35 366.571 272.84H366.561Z" fill="#424547"/>
<g style="mix-blend-mode:multiply" opacity="0.3">
<path d="M366.56 272.84V275.6L352.93 276.48L347.73 276.1L347.99 273.32C348.18 271.33 348.86 269.41 349.97 267.74L353.03 263.14H355.86C358.23 265.51 361.79 267.04 364.63 269.08C365.84 269.95 366.56 271.35 366.56 272.84Z" fill="#424547"/>
</g>
<g style="mix-blend-mode:multiply">
<path d="M363.84 201.51L373.36 193.77C375.11 192.35 377.6 192.42 379.26 193.82C379.12 193.57 378.97 193.33 378.78 193.1L378.71 193.02C377.1 191.04 374.17 190.74 372.2 192.35L362.68 200.09C360.7 201.7 360.4 204.63 362.01 206.6L362.08 206.68C362.27 206.91 362.47 207.11 362.69 207.3C361.66 205.38 362.1 202.93 363.84 201.51Z" fill="#222B2A"/>
</g>
<path d="M401.591 306.98H276.051V577.61H401.591V306.98Z" fill="url(#paint108_linear_1088_289)"/>
<path style="mix-blend-mode:multiply" d="M401.591 306.98H276.051V577.61H401.591V306.98Z" fill="url(#paint109_linear_1088_289)"/>
<path d="M492.58 273.37V577.61H401.58V306.98H235.17V273.37H492.58Z" fill="url(#paint110_linear_1088_289)"/>
<path style="mix-blend-mode:multiply" d="M492.58 536.03V542.9L485.67 548.85L401.59 550.03L401.58 530.96L492.58 536.03Z" fill="url(#paint111_linear_1088_289)"/>
<path style="mix-blend-mode:multiply" d="M492.59 303.81V321.11L401.59 322.33L276.05 469.46V306.24H241L241.44 302.47L492.59 303.81Z" fill="url(#paint112_linear_1088_289)"/>
<path d="M500.25 348.4H401.59V540.35H500.25V348.4Z" fill="url(#paint113_linear_1088_289)"/>
<path d="M408.23 348.4H401.59V540.35H408.23V348.4Z" fill="url(#paint114_linear_1088_289)"/>
<path d="M276.05 348.4H269.41V540.35H276.05V348.4Z" fill="url(#paint115_linear_1088_289)"/>
<path d="M500.25 273.37H348.16V306.98H500.25V273.37Z" fill="url(#paint116_linear_1088_289)"/>
<path d="M348.16 273.37H235.27V306.98H348.16V273.37Z" fill="url(#paint117_linear_1088_289)"/>
<path d="M507.61 282.26H341.98V296.18H507.61V282.26Z" fill="url(#paint118_linear_1088_289)"/>
<path d="M348.161 282.26H226.381V296.18H348.161V282.26Z" fill="url(#paint119_linear_1088_289)"/>
<defs>
<linearGradient id="paint0_linear_1088_289" x1="163.28" y1="109.25" x2="163.28" y2="607.29" gradientUnits="userSpaceOnUse">
<stop stop-color="white"/>
<stop offset="1" stop-color="#DFE6F4"/>
</linearGradient>
<linearGradient id="paint1_linear_1088_289" x1="201.051" y1="192.6" x2="186.301" y2="264.77" gradientUnits="userSpaceOnUse">
<stop stop-color="#B7DDEB"/>
<stop offset="1" stop-color="#86AFC3"/>
</linearGradient>
<linearGradient id="paint2_linear_1088_289" x1="86.5694" y1="39.3999" x2="86.5694" y2="159.5" gradientUnits="userSpaceOnUse">
<stop stop-color="#BCE4EA"/>
<stop offset="1" stop-color="#29C4ED"/>
</linearGradient>
<linearGradient id="paint3_linear_1088_289" x1="163.279" y1="255.01" x2="163.279" y2="279.17" gradientUnits="userSpaceOnUse">
<stop stop-color="#88A8BC"/>
<stop offset="1" stop-color="#6D8592"/>
</linearGradient>
<linearGradient id="paint4_linear_1088_289" x1="164.29" y1="50.3098" x2="149.92" y2="120.64" gradientUnits="userSpaceOnUse">
<stop stop-color="#B7DDEB"/>
<stop offset="1" stop-color="#86AFC3"/>
</linearGradient>
<linearGradient id="paint5_linear_1088_289" x1="164.54" y1="37.6696" x2="146.68" y2="125.01" gradientUnits="userSpaceOnUse">
<stop stop-color="#B7DDEB"/>
<stop offset="1" stop-color="#86AFC3"/>
</linearGradient>
<linearGradient id="paint6_linear_1088_289" x1="163.49" y1="4.38967" x2="163.49" y2="29.0097" gradientUnits="userSpaceOnUse">
<stop stop-color="#DED6E3"/>
<stop offset="1" stop-color="#A09BB0"/>
</linearGradient>
<linearGradient id="paint7_linear_1088_289" x1="162.87" y1="3.17965" x2="166.35" y2="65.5996" gradientUnits="userSpaceOnUse">
<stop stop-color="#DED6E3"/>
<stop offset="1" stop-color="#A09BB0"/>
</linearGradient>
<linearGradient id="paint8_linear_1088_289" x1="2.56" y1="27.2398" x2="2.56" y2="13.8198" gradientUnits="userSpaceOnUse">
<stop stop-color="#222A36"/>
<stop offset="1" stop-color="#697F94"/>
</linearGradient>
<linearGradient id="paint9_linear_1088_289" x1="323.99" y1="27.2398" x2="323.99" y2="13.8198" gradientUnits="userSpaceOnUse">
<stop stop-color="#222A36"/>
<stop offset="1" stop-color="#697F94"/>
</linearGradient>
<linearGradient id="paint10_linear_1088_289" x1="171.51" y1="181.56" x2="300.94" y2="181.56" gradientUnits="userSpaceOnUse">
<stop stop-color="#B7DDEB"/>
<stop offset="1" stop-color="#86AFC3"/>
</linearGradient>
<linearGradient id="paint11_linear_1088_289" x1="269.55" y1="97.2596" x2="257.82" y2="154.62" gradientUnits="userSpaceOnUse">
<stop stop-color="#B7DDEB"/>
<stop offset="1" stop-color="#86AFC3"/>
</linearGradient>
<linearGradient id="paint12_linear_1088_289" x1="257.41" y1="107.05" x2="249.09" y2="147.77" gradientUnits="userSpaceOnUse">
<stop stop-color="#B7DDEB"/>
<stop offset="1" stop-color="#86AFC3"/>
</linearGradient>
<linearGradient id="paint13_linear_1088_289" x1="261.7" y1="119.69" x2="252.18" y2="166.29" gradientUnits="userSpaceOnUse">
<stop stop-color="#B7DDEB"/>
<stop offset="1" stop-color="#86AFC3"/>
</linearGradient>
<linearGradient id="paint14_linear_1088_289" x1="291.15" y1="120.66" x2="284.41" y2="153.63" gradientUnits="userSpaceOnUse">
<stop stop-color="#B7DDEB"/>
<stop offset="1" stop-color="#86AFC3"/>
</linearGradient>
<linearGradient id="paint15_linear_1088_289" x1="257.41" y1="128.72" x2="249.09" y2="169.44" gradientUnits="userSpaceOnUse">
<stop stop-color="#B7DDEB"/>
<stop offset="1" stop-color="#86AFC3"/>
</linearGradient>
<linearGradient id="paint16_linear_1088_289" x1="156.091" y1="179.35" x2="205.871" y2="95.0796" gradientUnits="userSpaceOnUse">
<stop stop-color="#355CAA"/>
<stop offset="1" stop-color="#30C5F4"/>
</linearGradient>
<linearGradient id="paint17_linear_1088_289" x1="191.801" y1="110.635" x2="219.821" y2="110.635" gradientUnits="userSpaceOnUse">
<stop stop-color="#5FB54A"/>
<stop offset="1" stop-color="#6FD067"/>
</linearGradient>
<linearGradient id="paint18_linear_1088_289" x1="232.4" y1="108.67" x2="238.33" y2="98.6199" gradientUnits="userSpaceOnUse">
<stop stop-color="#355CAA"/>
<stop offset="1" stop-color="#30C5F4"/>
</linearGradient>
<linearGradient id="paint19_linear_1088_289" x1="233.77" y1="122.64" x2="239.71" y2="122.64" gradientUnits="userSpaceOnUse">
<stop stop-color="#5FB54A"/>
<stop offset="1" stop-color="#6FD067"/>
</linearGradient>
<linearGradient id="paint20_linear_1088_289" x1="45.2699" y1="144" x2="45.5999" y2="149.85" gradientUnits="userSpaceOnUse">
<stop stop-color="#FEBD3F"/>
<stop offset="0.09" stop-color="#FEBD3F"/>
<stop offset="1" stop-color="#F29344"/>
</linearGradient>
<linearGradient id="paint21_linear_1088_289" x1="62.4301" y1="138.23" x2="63.0201" y2="149.04" gradientUnits="userSpaceOnUse">
<stop stop-color="#FEBD3F"/>
<stop offset="0.09" stop-color="#FEBD3F"/>
<stop offset="1" stop-color="#F29344"/>
</linearGradient>
<linearGradient id="paint22_linear_1088_289" x1="80.3598" y1="140.18" x2="80.8598" y2="149.32" gradientUnits="userSpaceOnUse">
<stop stop-color="#FEBD3F"/>
<stop offset="0.09" stop-color="#FEBD3F"/>
<stop offset="1" stop-color="#F29344"/>
</linearGradient>
<linearGradient id="paint23_linear_1088_289" x1="95.3302" y1="132.83" x2="96.1902" y2="148.28" gradientUnits="userSpaceOnUse">
<stop stop-color="#FEBD3F"/>
<stop offset="0.09" stop-color="#FEBD3F"/>
<stop offset="1" stop-color="#F29344"/>
</linearGradient>
<linearGradient id="paint24_linear_1088_289" x1="111.971" y1="133.67" x2="112.791" y2="148.4" gradientUnits="userSpaceOnUse">
<stop stop-color="#FEBD3F"/>
<stop offset="0.09" stop-color="#FEBD3F"/>
<stop offset="1" stop-color="#F29344"/>
</linearGradient>
<linearGradient id="paint25_linear_1088_289" x1="126.58" y1="126.32" x2="127.74" y2="147.37" gradientUnits="userSpaceOnUse">
<stop stop-color="#FEBD3F"/>
<stop offset="0.09" stop-color="#FEBD3F"/>
<stop offset="1" stop-color="#F29344"/>
</linearGradient>
<linearGradient id="paint26_linear_1088_289" x1="85.8095" y1="190.19" x2="68.9595" y2="272.58" gradientUnits="userSpaceOnUse">
<stop stop-color="#B7DDEB"/>
<stop offset="1" stop-color="#86AFC3"/>
</linearGradient>
<linearGradient id="paint27_linear_1088_289" x1="65.4695" y1="200.78" x2="54.3195" y2="255.27" gradientUnits="userSpaceOnUse">
<stop stop-color="#B7DDEB"/>
<stop offset="1" stop-color="#86AFC3"/>
</linearGradient>
<linearGradient id="paint28_linear_1088_289" x1="72.6595" y1="213.14" x2="59.4995" y2="277.49" gradientUnits="userSpaceOnUse">
<stop stop-color="#B7DDEB"/>
<stop offset="1" stop-color="#86AFC3"/>
</linearGradient>
<linearGradient id="paint29_linear_1088_289" x1="65.4695" y1="222.45" x2="54.3195" y2="276.94" gradientUnits="userSpaceOnUse">
<stop stop-color="#B7DDEB"/>
<stop offset="1" stop-color="#86AFC3"/>
</linearGradient>
<linearGradient id="paint30_linear_1088_289" x1="335.349" y1="153.57" x2="330.729" y2="158.17" gradientUnits="userSpaceOnUse">
<stop stop-color="#FDCEAB"/>
<stop offset="1" stop-color="#F79F81"/>
</linearGradient>
<linearGradient id="paint31_linear_1088_289" x1="334.169" y1="156.24" x2="331.229" y2="165" gradientUnits="userSpaceOnUse">
<stop stop-color="#FDCEAB"/>
<stop offset="1" stop-color="#F79F81"/>
</linearGradient>
<linearGradient id="paint32_linear_1088_289" x1="330.87" y1="156.25" x2="325.44" y2="162.85" gradientUnits="userSpaceOnUse">
<stop stop-color="#FDCEAB"/>
<stop offset="1" stop-color="#F79F81"/>
</linearGradient>
<linearGradient id="paint33_linear_1088_289" x1="329.991" y1="158.98" x2="325.411" y2="163.5" gradientUnits="userSpaceOnUse">
<stop stop-color="#FDCEAB"/>
<stop offset="1" stop-color="#F79F81"/>
</linearGradient>
<linearGradient id="paint34_linear_1088_289" x1="328.191" y1="160.7" x2="322.711" y2="167.78" gradientUnits="userSpaceOnUse">
<stop stop-color="#FDCEAB"/>
<stop offset="1" stop-color="#F79F81"/>
</linearGradient>
<linearGradient id="paint35_linear_1088_289" x1="326.781" y1="163.26" x2="321.101" y2="171.82" gradientUnits="userSpaceOnUse">
<stop stop-color="#FDCEAB"/>
<stop offset="1" stop-color="#F79F81"/>
</linearGradient>
<linearGradient id="paint36_linear_1088_289" x1="328.579" y1="168.22" x2="322.979" y2="175.59" gradientUnits="userSpaceOnUse">
<stop stop-color="#FDCEAB"/>
<stop offset="1" stop-color="#F79F81"/>
</linearGradient>
<linearGradient id="paint37_linear_1088_289" x1="353.871" y1="173.65" x2="332.301" y2="192.77" gradientUnits="userSpaceOnUse">
<stop stop-color="#FDCEAB"/>
<stop offset="1" stop-color="#F79F81"/>
</linearGradient>
<linearGradient id="paint38_linear_1088_289" x1="333.85" y1="178.27" x2="329.62" y2="186.4" gradientUnits="userSpaceOnUse">
<stop stop-color="#FDCEAB"/>
<stop offset="1" stop-color="#F79F81"/>
</linearGradient>
<linearGradient id="paint39_linear_1088_289" x1="357.773" y1="157.234" x2="338.891" y2="180.235" gradientUnits="userSpaceOnUse">
<stop stop-color="#FDCEAB"/>
<stop offset="1" stop-color="#F79F81"/>
</linearGradient>
<linearGradient id="paint40_linear_1088_289" x1="343.259" y1="169.5" x2="343.069" y2="169.69" gradientUnits="userSpaceOnUse">
<stop stop-color="#FDCEAB"/>
<stop offset="1" stop-color="#F79F81"/>
</linearGradient>
<linearGradient id="paint41_linear_1088_289" x1="559.089" y1="566.28" x2="514.119" y2="566.28" gradientUnits="userSpaceOnUse">
<stop stop-color="#351E0F"/>
<stop offset="1" stop-color="#633A15"/>
</linearGradient>
<linearGradient id="paint42_linear_1088_289" x1="482.549" y1="564.04" x2="434.039" y2="564.04" gradientUnits="userSpaceOnUse">
<stop stop-color="#351E0F"/>
<stop offset="1" stop-color="#633A15"/>
</linearGradient>
<linearGradient id="paint43_linear_1088_289" x1="367.185" y1="191.752" x2="348.266" y2="191.64" gradientUnits="userSpaceOnUse">
<stop stop-color="white"/>
<stop offset="1" stop-color="#DFE6F4"/>
</linearGradient>
<linearGradient id="paint44_linear_1088_289" x1="450.571" y1="224.56" x2="407.241" y2="202.41" gradientUnits="userSpaceOnUse">
<stop stop-color="#A6AAC7"/>
<stop offset="0.23" stop-color="#BFC3D8"/>
<stop offset="0.53" stop-color="#D8DDEB"/>
<stop offset="0.79" stop-color="#E8EDF6"/>
<stop offset="1" stop-color="#EEF3FA"/>
</linearGradient>
<linearGradient id="paint45_linear_1088_289" x1="388.011" y1="269.14" x2="388.011" y2="219.15" gradientUnits="userSpaceOnUse">
<stop stop-color="#A6AAC7"/>
<stop offset="0.23" stop-color="#BFC3D8"/>
<stop offset="0.53" stop-color="#D8DDEB"/>
<stop offset="0.79" stop-color="#E8EDF6"/>
<stop offset="1" stop-color="#EEF3FA"/>
</linearGradient>
<linearGradient id="paint46_linear_1088_289" x1="417.551" y1="258.65" x2="406.351" y2="214.92" gradientUnits="userSpaceOnUse">
<stop stop-color="#EEF3FA"/>
<stop offset="0.21" stop-color="#E8EDF6"/>
<stop offset="0.47" stop-color="#D8DDEB"/>
<stop offset="0.77" stop-color="#BFC3D8"/>
<stop offset="1" stop-color="#A6AAC7"/>
</linearGradient>
<linearGradient id="paint47_linear_1088_289" x1="485.221" y1="147.142" x2="493.226" y2="102.618" gradientUnits="userSpaceOnUse">
<stop stop-color="#FDCEAB"/>
<stop offset="1" stop-color="#F79F81"/>
</linearGradient>
<linearGradient id="paint48_linear_1088_289" x1="490.538" y1="132.543" x2="493.501" y2="91.5399" gradientUnits="userSpaceOnUse">
<stop stop-color="#FDCEAB"/>
<stop offset="1" stop-color="#F79F81"/>
</linearGradient>
<linearGradient id="paint49_linear_1088_289" x1="546.986" y1="197.419" x2="449.337" y2="196.84" gradientUnits="userSpaceOnUse">
<stop stop-color="#548ECB"/>
<stop offset="0.29" stop-color="#77A5D6"/>
<stop offset="0.58" stop-color="#97BAE1"/>
<stop offset="0.83" stop-color="#A7C7E8"/>
<stop offset="1" stop-color="#AFCBEB"/>
</linearGradient>
<linearGradient id="paint50_linear_1088_289" x1="466.305" y1="168.43" x2="460.634" y2="212.497" gradientUnits="userSpaceOnUse">
<stop offset="0.23" stop-color="#6ABD45"/>
<stop offset="1" stop-color="#488A31"/>
</linearGradient>
<linearGradient id="paint51_linear_1088_289" x1="478.757" y1="115.833" x2="478.245" y2="136.45" gradientUnits="userSpaceOnUse">
<stop offset="0.23" stop-color="#6ABD45"/>
<stop offset="1" stop-color="#488A31"/>
</linearGradient>
<linearGradient id="paint52_linear_1088_289" x1="474.621" y1="402.02" x2="411.401" y2="489.87" gradientUnits="userSpaceOnUse">
<stop stop-color="#222A36"/>
<stop offset="1" stop-color="#455D75"/>
</linearGradient>
<linearGradient id="paint53_linear_1088_289" x1="468.411" y1="519.98" x2="468.411" y2="354.28" gradientUnits="userSpaceOnUse">
<stop stop-color="#222A36"/>
<stop offset="1" stop-color="#455D75"/>
</linearGradient>
<linearGradient id="paint54_linear_1088_289" x1="577.221" y1="369.64" x2="502.621" y2="429.94" gradientUnits="userSpaceOnUse">
<stop stop-color="#222A36"/>
<stop offset="1" stop-color="#455D75"/>
</linearGradient>
<linearGradient id="paint55_linear_1088_289" x1="510.851" y1="469.34" x2="510.851" y2="325.66" gradientUnits="userSpaceOnUse">
<stop stop-color="#222A36"/>
<stop offset="1" stop-color="#455D75"/>
</linearGradient>
<linearGradient id="paint56_linear_1088_289" x1="499.871" y1="79.8476" x2="500.149" y2="120.63" gradientUnits="userSpaceOnUse">
<stop stop-color="white"/>
<stop offset="1" stop-color="#DFE6F4"/>
</linearGradient>
<linearGradient id="paint57_linear_1088_289" x1="478.48" y1="308.91" x2="533.62" y2="131.72" gradientUnits="userSpaceOnUse">
<stop stop-color="#A6AAC7"/>
<stop offset="0.23" stop-color="#BFC3D8"/>
<stop offset="0.53" stop-color="#D8DDEB"/>
<stop offset="0.79" stop-color="#E8EDF6"/>
<stop offset="1" stop-color="#EEF3FA"/>
</linearGradient>
<linearGradient id="paint58_linear_1088_289" x1="450.061" y1="267.01" x2="516.801" y2="134.09" gradientUnits="userSpaceOnUse">
<stop stop-color="#EEF3FA"/>
<stop offset="0.21" stop-color="#E8EDF6"/>
<stop offset="0.47" stop-color="#D8DDEB"/>
<stop offset="0.77" stop-color="#BFC3D8"/>
<stop offset="1" stop-color="#A6AAC7"/>
</linearGradient>
<linearGradient id="paint59_linear_1088_289" x1="450.121" y1="319.22" x2="464.971" y2="289.63" gradientUnits="userSpaceOnUse">
<stop stop-color="#222A36"/>
<stop offset="1" stop-color="#455D75"/>
</linearGradient>
<linearGradient id="paint60_linear_1088_289" x1="464.328" y1="316.49" x2="443.039" y2="149.441" gradientUnits="userSpaceOnUse">
<stop stop-color="#A6AAC7"/>
<stop offset="0.23" stop-color="#BFC3D8"/>
<stop offset="0.53" stop-color="#D8DDEB"/>
<stop offset="0.79" stop-color="#E8EDF6"/>
<stop offset="1" stop-color="#EEF3FA"/>
</linearGradient>
<linearGradient id="paint61_linear_1088_289" x1="433.901" y1="255.34" x2="484.491" y2="154.59" gradientUnits="userSpaceOnUse">
<stop stop-color="#EEF3FA"/>
<stop offset="0.21" stop-color="#E8EDF6"/>
<stop offset="0.47" stop-color="#D8DDEB"/>
<stop offset="0.77" stop-color="#BFC3D8"/>
<stop offset="1" stop-color="#A6AAC7"/>
</linearGradient>
<linearGradient id="paint62_linear_1088_289" x1="504.829" y1="253.4" x2="571.839" y2="215.73" gradientUnits="userSpaceOnUse">
<stop stop-color="#A6AAC7"/>
<stop offset="0.23" stop-color="#BFC3D8"/>
<stop offset="0.53" stop-color="#D8DDEB"/>
<stop offset="0.79" stop-color="#E8EDF6"/>
<stop offset="1" stop-color="#EEF3FA"/>
</linearGradient>
<linearGradient id="paint63_linear_1088_289" x1="508.231" y1="315.76" x2="508.231" y2="228.65" gradientUnits="userSpaceOnUse">
<stop stop-color="#EEF3FA"/>
<stop offset="0.21" stop-color="#E8EDF6"/>
<stop offset="0.47" stop-color="#D8DDEB"/>
<stop offset="0.77" stop-color="#BFC3D8"/>
<stop offset="1" stop-color="#A6AAC7"/>
</linearGradient>
<linearGradient id="paint64_linear_1088_289" x1="477.991" y1="339.92" x2="477.511" y2="334.85" gradientUnits="userSpaceOnUse">
<stop stop-color="#FDCEAB"/>
<stop offset="1" stop-color="#F79F81"/>
</linearGradient>
<linearGradient id="paint65_linear_1088_289" x1="476.411" y1="338.23" x2="478.371" y2="330.19" gradientUnits="userSpaceOnUse">
<stop stop-color="#FDCEAB"/>
<stop offset="0.22" stop-color="#FBC09F"/>
<stop offset="0.7" stop-color="#F8A889"/>
<stop offset="1" stop-color="#F79F81"/>
</linearGradient>
<linearGradient id="paint66_linear_1088_289" x1="475.15" y1="336.37" x2="474" y2="331.15" gradientUnits="userSpaceOnUse">
<stop stop-color="#FDCEAB"/>
<stop offset="1" stop-color="#F79F81"/>
</linearGradient>
<linearGradient id="paint67_linear_1088_289" x1="474.791" y1="338.27" x2="473.541" y2="331.69" gradientUnits="userSpaceOnUse">
<stop stop-color="#FDCEAB"/>
<stop offset="1" stop-color="#F79F81"/>
</linearGradient>
<linearGradient id="paint68_linear_1088_289" x1="472.55" y1="334.9" x2="471.65" y2="327.39" gradientUnits="userSpaceOnUse">
<stop stop-color="#FDCEAB"/>
<stop offset="1" stop-color="#F79F81"/>
</linearGradient>
<linearGradient id="paint69_linear_1088_289" x1="471.249" y1="331.66" x2="472.649" y2="324.16" gradientUnits="userSpaceOnUse">
<stop stop-color="#FDCEAB"/>
<stop offset="1" stop-color="#F79F81"/>
</linearGradient>
<linearGradient id="paint70_linear_1088_289" x1="482.429" y1="305.537" x2="501.661" y2="325.366" gradientUnits="userSpaceOnUse">
<stop stop-color="#FDCEAB"/>
<stop offset="1" stop-color="#F79F81"/>
</linearGradient>
<linearGradient id="paint71_linear_1088_289" x1="469.741" y1="328.04" x2="468.821" y2="320.61" gradientUnits="userSpaceOnUse">
<stop stop-color="#FDCEAB"/>
<stop offset="1" stop-color="#F79F81"/>
</linearGradient>
<linearGradient id="paint72_linear_1088_289" x1="491.64" y1="319.51" x2="481.74" y2="307.96" gradientUnits="userSpaceOnUse">
<stop stop-color="#FDCEAB"/>
<stop offset="1" stop-color="#F79F81"/>
</linearGradient>
<linearGradient id="paint73_linear_1088_289" x1="472.38" y1="324.79" x2="469.38" y2="317.95" gradientUnits="userSpaceOnUse">
<stop stop-color="#FDCEAB"/>
<stop offset="1" stop-color="#F79F81"/>
</linearGradient>
<linearGradient id="paint74_linear_1088_289" x1="507.627" y1="308.227" x2="512.107" y2="326.714" gradientUnits="userSpaceOnUse">
<stop stop-color="white"/>
<stop offset="1" stop-color="#DFE6F4"/>
</linearGradient>
<linearGradient id="paint75_linear_1088_289" x1="551.579" y1="321.93" x2="545.479" y2="272.53" gradientUnits="userSpaceOnUse">
<stop stop-color="#A6AAC7"/>
<stop offset="0.23" stop-color="#BFC3D8"/>
<stop offset="0.53" stop-color="#D8DDEB"/>
<stop offset="0.79" stop-color="#E8EDF6"/>
<stop offset="1" stop-color="#EEF3FA"/>
</linearGradient>
<linearGradient id="paint76_linear_1088_289" x1="455.459" y1="273.907" x2="492.802" y2="167.437" gradientUnits="userSpaceOnUse">
<stop stop-color="#A6AAC7"/>
<stop offset="0.23" stop-color="#BFC3D8"/>
<stop offset="0.53" stop-color="#D8DDEB"/>
<stop offset="0.79" stop-color="#E8EDF6"/>
<stop offset="1" stop-color="#EEF3FA"/>
</linearGradient>
<linearGradient id="paint77_linear_1088_289" x1="455.939" y1="275.64" x2="455.928" y2="166.358" gradientUnits="userSpaceOnUse">
<stop stop-color="#A6AAC7"/>
<stop offset="0.23" stop-color="#BFC3D8"/>
<stop offset="0.53" stop-color="#D8DDEB"/>
<stop offset="0.79" stop-color="#E8EDF6"/>
<stop offset="1" stop-color="#EEF3FA"/>
</linearGradient>
<linearGradient id="paint78_linear_1088_289" x1="473.203" y1="101.339" x2="469.546" y2="122.718" gradientUnits="userSpaceOnUse">
<stop stop-color="white"/>
<stop offset="1" stop-color="#DFE6F4"/>
</linearGradient>
<linearGradient id="paint79_linear_1088_289" x1="499.871" y1="79.8476" x2="500.149" y2="120.63" gradientUnits="userSpaceOnUse">
<stop stop-color="#548ECB"/>
<stop offset="0.29" stop-color="#77A5D6"/>
<stop offset="0.58" stop-color="#97BAE1"/>
<stop offset="0.83" stop-color="#A7C7E8"/>
<stop offset="1" stop-color="#AFCBEB"/>
</linearGradient>
<linearGradient id="paint80_linear_1088_289" x1="473.203" y1="101.339" x2="469.546" y2="122.718" gradientUnits="userSpaceOnUse">
<stop stop-color="#548ECB"/>
<stop offset="0.29" stop-color="#77A5D6"/>
<stop offset="0.58" stop-color="#97BAE1"/>
<stop offset="0.83" stop-color="#A7C7E8"/>
<stop offset="1" stop-color="#AFCBEB"/>
</linearGradient>
<linearGradient id="paint81_linear_1088_289" x1="468.933" y1="44.5693" x2="460.792" y2="44.9518" gradientUnits="userSpaceOnUse">
<stop stop-color="#9E5031"/>
<stop offset="1" stop-color="#3B2016"/>
</linearGradient>
<linearGradient id="paint82_linear_1088_289" x1="459.815" y1="38.4708" x2="468.358" y2="48.3507" gradientUnits="userSpaceOnUse">
<stop stop-color="#B57129"/>
<stop offset="1" stop-color="#51170C"/>
</linearGradient>
<linearGradient id="paint83_linear_1088_289" x1="463.636" y1="47.3311" x2="469.064" y2="59.2996" gradientUnits="userSpaceOnUse">
<stop stop-color="#B57129"/>
<stop offset="1" stop-color="#51170C"/>
</linearGradient>
<linearGradient id="paint84_linear_1088_289" x1="456.222" y1="50.6128" x2="463.419" y2="62.7484" gradientUnits="userSpaceOnUse">
<stop stop-color="#FDCEAB"/>
<stop offset="1" stop-color="#F79F81"/>
</linearGradient>
<linearGradient id="paint85_linear_1088_289" x1="458.569" y1="55.838" x2="464.151" y2="62.7937" gradientUnits="userSpaceOnUse">
<stop stop-color="#FDCEAB"/>
<stop offset="1" stop-color="#F79F81"/>
</linearGradient>
<linearGradient id="paint86_linear_1088_289" x1="487.597" y1="74.5063" x2="491.037" y2="147.736" gradientUnits="userSpaceOnUse">
<stop stop-color="#FDCEAB"/>
<stop offset="1" stop-color="#F79F81"/>
</linearGradient>
<linearGradient id="paint87_linear_1088_289" x1="488.252" y1="73.5349" x2="489.677" y2="103.861" gradientUnits="userSpaceOnUse">
<stop stop-color="#9E5031"/>
<stop offset="1" stop-color="#3B2016"/>
</linearGradient>
<linearGradient id="paint88_linear_1088_289" x1="510.024" y1="65.614" x2="513.21" y2="33.4891" gradientUnits="userSpaceOnUse">
<stop stop-color="#9E5031"/>
<stop offset="1" stop-color="#3B2016"/>
</linearGradient>
<linearGradient id="paint89_linear_1088_289" x1="519.789" y1="55.2344" x2="514.852" y2="78.0012" gradientUnits="userSpaceOnUse">
<stop stop-color="#FDCEAB"/>
<stop offset="1" stop-color="#F79F81"/>
</linearGradient>
<linearGradient id="paint90_linear_1088_289" x1="522.347" y1="62.3725" x2="514.576" y2="62.7376" gradientUnits="userSpaceOnUse">
<stop stop-color="#FDCEAB"/>
<stop offset="1" stop-color="#F79F81"/>
</linearGradient>
<linearGradient id="paint91_linear_1088_289" x1="485.447" y1="16.3634" x2="503.867" y2="52.809" gradientUnits="userSpaceOnUse">
<stop stop-color="#9E5031"/>
<stop offset="1" stop-color="#3B2016"/>
</linearGradient>
<linearGradient id="paint92_linear_1088_289" x1="498.742" y1="35.3402" x2="519.726" y2="10.2177" gradientUnits="userSpaceOnUse">
<stop stop-color="#B57129"/>
<stop offset="1" stop-color="#51170C"/>
</linearGradient>
<linearGradient id="paint93_linear_1088_289" x1="485.816" y1="33.6248" x2="504.49" y2="3.63543" gradientUnits="userSpaceOnUse">
<stop stop-color="#B57129"/>
<stop offset="1" stop-color="#51170C"/>
</linearGradient>
<linearGradient id="paint94_linear_1088_289" x1="478.804" y1="32.4329" x2="500.072" y2="-7.74949" gradientUnits="userSpaceOnUse">
<stop stop-color="#B57129"/>
<stop offset="1" stop-color="#51170C"/>
</linearGradient>
<linearGradient id="paint95_linear_1088_289" x1="461.412" y1="30.0466" x2="480.534" y2="-6.81145" gradientUnits="userSpaceOnUse">
<stop stop-color="#B57129"/>
<stop offset="1" stop-color="#51170C"/>
</linearGradient>
<linearGradient id="paint96_linear_1088_289" x1="511.832" y1="41.4226" x2="521.325" y2="57.8852" gradientUnits="userSpaceOnUse">
<stop stop-color="#B57129"/>
<stop offset="1" stop-color="#51170C"/>
</linearGradient>
<linearGradient id="paint97_linear_1088_289" x1="514.091" y1="53.3097" x2="514.534" y2="62.7294" gradientUnits="userSpaceOnUse">
<stop stop-color="#B57129"/>
<stop offset="1" stop-color="#51170C"/>
</linearGradient>
<linearGradient id="paint98_linear_1088_289" x1="472.527" y1="60.2331" x2="470.456" y2="41.8378" gradientUnits="userSpaceOnUse">
<stop stop-color="#FDCEAB"/>
<stop offset="1" stop-color="#F79F81"/>
</linearGradient>
<linearGradient id="paint99_linear_1088_289" x1="493.827" y1="62.8661" x2="492.888" y2="39.9414" gradientUnits="userSpaceOnUse">
<stop stop-color="#FDCEAB"/>
<stop offset="1" stop-color="#F79F81"/>
</linearGradient>
<linearGradient id="paint100_linear_1088_289" x1="480.307" y1="71.4895" x2="479.458" y2="62.0675" gradientUnits="userSpaceOnUse">
<stop stop-color="#8F68AD"/>
<stop offset="1" stop-color="#FEEADB"/>
</linearGradient>
<linearGradient id="paint101_linear_1088_289" x1="520.361" y1="80.3925" x2="533.221" y2="78.4461" gradientUnits="userSpaceOnUse">
<stop stop-color="#CF6076"/>
<stop offset="1" stop-color="#E24A80"/>
</linearGradient>
<linearGradient id="paint102_linear_1088_289" x1="467.474" y1="52.7992" x2="473.392" y2="52.6831" gradientUnits="userSpaceOnUse">
<stop offset="0.21" stop-color="#3A1A12"/>
<stop offset="1" stop-color="#501A10"/>
</linearGradient>
<linearGradient id="paint103_linear_1088_289" x1="486.956" y1="52.2221" x2="492.884" y2="52.1039" gradientUnits="userSpaceOnUse">
<stop offset="0.21" stop-color="#3A1A12"/>
<stop offset="1" stop-color="#501A10"/>
</linearGradient>
<linearGradient id="paint104_linear_1088_289" x1="502.113" y1="44.6724" x2="484.683" y2="45.4913" gradientUnits="userSpaceOnUse">
<stop stop-color="#9E5031"/>
<stop offset="1" stop-color="#3B2016"/>
</linearGradient>
<linearGradient id="paint105_linear_1088_289" x1="450.043" y1="42.0298" x2="462.433" y2="53.2605" gradientUnits="userSpaceOnUse">
<stop stop-color="#9E5031"/>
<stop offset="1" stop-color="#3B2016"/>
</linearGradient>
<linearGradient id="paint106_linear_1088_289" x1="444.631" y1="264.59" x2="440.981" y2="286.82" gradientUnits="userSpaceOnUse">
<stop stop-color="#222A36"/>
<stop offset="0.26" stop-color="#2D3948"/>
<stop offset="0.78" stop-color="#4B6077"/>
<stop offset="1" stop-color="#59738D"/>
</linearGradient>
<linearGradient id="paint107_linear_1088_289" x1="550.01" y1="314.27" x2="550.01" y2="269.15" gradientUnits="userSpaceOnUse">
<stop stop-color="#EEF3FA"/>
<stop offset="0.21" stop-color="#E8EDF6"/>
<stop offset="0.47" stop-color="#D8DDEB"/>
<stop offset="0.77" stop-color="#BFC3D8"/>
<stop offset="1" stop-color="#A6AAC7"/>
</linearGradient>
<linearGradient id="paint108_linear_1088_289" x1="697.951" y1="-67.46" x2="359.641" y2="412.75" gradientUnits="userSpaceOnUse">
<stop stop-color="#FFE5CC"/>
<stop offset="1" stop-color="#D4BCAF"/>
</linearGradient>
<linearGradient id="paint109_linear_1088_289" x1="506.821" y1="745.91" x2="314.751" y2="398.8" gradientUnits="userSpaceOnUse">
<stop stop-color="#FFE5CC"/>
<stop offset="1" stop-color="#D4BCAF"/>
</linearGradient>
<linearGradient id="paint110_linear_1088_289" x1="464.15" y1="183.95" x2="256" y2="685.33" gradientUnits="userSpaceOnUse">
<stop stop-color="#FFE5CC"/>
<stop offset="1" stop-color="#D4BCAF"/>
</linearGradient>
<linearGradient id="paint111_linear_1088_289" x1="476.77" y1="596.68" x2="435.42" y2="521.95" gradientUnits="userSpaceOnUse">
<stop stop-color="#FFE5CC"/>
<stop offset="1" stop-color="#D4BCAF"/>
</linearGradient>
<linearGradient id="paint112_linear_1088_289" x1="446.55" y1="499.1" x2="327.06" y2="283.15" gradientUnits="userSpaceOnUse">
<stop stop-color="#FFE5CC"/>
<stop offset="1" stop-color="#D4BCAF"/>
</linearGradient>
<linearGradient id="paint113_linear_1088_289" x1="478.66" y1="338.3" x2="339.31" y2="871.13" gradientUnits="userSpaceOnUse">
<stop stop-color="#B57129"/>
<stop offset="1" stop-color="#51170C"/>
</linearGradient>
<linearGradient id="paint114_linear_1088_289" x1="572.69" y1="20.9699" x2="352.271" y2="577.22" gradientUnits="userSpaceOnUse">
<stop stop-color="#B57129"/>
<stop offset="1" stop-color="#51170C"/>
</linearGradient>
<linearGradient id="paint115_linear_1088_289" x1="440.51" y1="20.9699" x2="220.089" y2="577.22" gradientUnits="userSpaceOnUse">
<stop stop-color="#B57129"/>
<stop offset="1" stop-color="#51170C"/>
</linearGradient>
<linearGradient id="paint116_linear_1088_289" x1="429.41" y1="282.07" x2="313.08" y2="463.19" gradientUnits="userSpaceOnUse">
<stop stop-color="#FFE5CC"/>
<stop offset="1" stop-color="#D4BCAF"/>
</linearGradient>
<linearGradient id="paint117_linear_1088_289" x1="356.53" y1="192.96" x2="287.029" y2="297.2" gradientUnits="userSpaceOnUse">
<stop stop-color="#FFE5CC"/>
<stop offset="1" stop-color="#D4BCAF"/>
</linearGradient>
<linearGradient id="paint118_linear_1088_289" x1="432.09" y1="261.34" x2="395.451" y2="401.4" gradientUnits="userSpaceOnUse">
<stop stop-color="#B57129"/>
<stop offset="1" stop-color="#51170C"/>
</linearGradient>
<linearGradient id="paint119_linear_1088_289" x1="312.241" y1="180.27" x2="287.541" y2="288.05" gradientUnits="userSpaceOnUse">
<stop stop-color="#B57129"/>
<stop offset="1" stop-color="#51170C"/>
</linearGradient>
</defs>
</svg>
