<svg width="793" height="550" viewBox="0 0 793 550" fill="none" xmlns="http://www.w3.org/2000/svg">
<mask id="mask0_1088_1493" style="mask-type:luminance" maskUnits="userSpaceOnUse" x="0" y="111" width="483" height="428">
<path d="M482.42 111.449H0V538.259H482.42V111.449Z" fill="white"/>
</mask>
<g mask="url(#mask0_1088_1493)">
<path d="M311.62 269.599C311.39 271.399 311.08 273.189 310.69 274.989C307.94 287.559 300.98 299.079 291.39 307.629C291.14 307.779 290.89 307.919 290.64 308.059C289.8 308.549 288.95 309.029 288.08 309.499C287.96 309.569 287.84 309.639 287.71 309.699C287.59 309.769 287.47 309.829 287.34 309.899C287.32 309.899 287.3 309.919 287.28 309.929C287.26 309.939 287.24 309.949 287.22 309.959C286.58 310.299 285.94 310.639 285.29 310.969C284.97 311.139 284.64 311.299 284.31 311.459C283.82 311.699 283.33 311.939 282.84 312.179C282.49 312.349 282.14 312.509 281.78 312.679C281.4 312.859 281.02 313.029 280.64 313.209C280.2 313.409 279.75 313.609 279.3 313.809C278.6 314.119 277.89 314.419 277.17 314.719C275.39 315.459 273.59 316.149 271.76 316.809C271.48 316.909 271.21 317.009 270.93 317.099C270.21 317.349 269.5 317.589 268.77 317.829C259.32 320.909 249.21 322.859 238.78 323.239C219.02 323.959 199.27 319.449 180.36 313.679C180.27 313.649 180.17 313.619 180.08 313.589C179.27 313.339 178.46 313.089 177.65 312.819C177.05 312.629 176.46 312.429 175.87 312.229C175.84 312.229 175.8 312.209 175.77 312.199C175.26 312.029 174.76 311.859 174.26 311.669C173.84 311.519 173.42 311.369 173 311.219C172.41 311.009 171.83 310.789 171.25 310.569C170.93 310.449 170.61 310.319 170.28 310.189C170.28 310.189 170.28 310.169 170.28 310.159C170.34 310.179 170.4 310.209 170.47 310.229C170.36 309.709 170.27 309.179 170.19 308.639C160.63 302.879 151.31 296.459 143.85 288.159C136.87 280.389 131.55 270.809 130.14 260.489L129.82 252.519C130.51 239.129 137.1 226.369 143.53 214.379C145.07 211.499 146.61 208.619 148.16 205.739C152.77 197.139 157.38 188.529 161.99 179.929C162.51 178.959 163.03 177.989 163.55 177.019C167.2 174.479 170.91 172.079 174.65 169.839C175.39 169.399 176.13 168.959 176.86 168.529C181.77 165.669 186.75 163.039 191.8 160.669C192.14 160.509 192.48 160.349 192.82 160.199C203.08 155.449 213.61 151.719 224.3 149.019C225.2 148.789 226.1 148.569 227.01 148.359C228.01 148.129 229.01 147.909 230.02 147.709C233.63 146.999 237.33 146.529 241.02 146.389C241.34 146.369 241.67 146.359 241.99 146.349C243.74 146.299 245.48 146.329 247.21 146.439C249.71 146.589 252.17 146.909 254.59 147.419C258.74 148.289 262.75 149.729 266.49 151.829C274.64 156.429 280.76 163.789 286.45 171.269C290.36 181.529 294.26 191.789 298.17 202.049C299.4 205.289 300.64 208.539 301.87 211.779C301.87 211.789 301.87 211.809 301.89 211.829C302.45 213.539 303.01 215.259 303.56 216.999C304.11 218.719 304.65 220.439 305.18 222.179C306.25 225.669 307.27 229.189 308.18 232.729C311.34 244.949 313.23 257.359 311.63 269.609L311.62 269.599Z" fill="url(#paint0_linear_1088_1493)"/>
<path d="M264.279 324.319C262.589 325.979 262.529 343.659 262.449 345.969C249.029 343.289 245.459 364.329 232.049 361.649C228.609 360.959 214.099 320.979 211.859 318.399C209.719 315.939 209.459 312.509 209.299 309.329C208.609 295.809 207.919 282.279 207.229 268.759C206.439 253.329 205.649 237.899 204.859 222.479C216.999 233.199 234.279 240.319 252.109 241.549C253.589 241.659 255.069 241.719 256.559 241.739C256.399 243.499 256.249 245.269 256.129 247.029C254.859 265.359 255.869 283.839 259.099 301.949C260.439 309.479 262.169 316.959 264.279 324.329V324.319Z" fill="url(#paint1_linear_1088_1493)"/>
<path style="mix-blend-mode:multiply" opacity="0.42" d="M259.099 301.949C256.629 303.489 253.809 303.799 250.929 304.099C235.109 305.709 215.769 289.559 207.229 268.759C206.439 253.329 205.649 237.899 204.859 222.479C216.999 233.199 234.279 240.319 252.109 241.549C253.479 243.349 254.819 245.179 256.129 247.029C254.859 265.359 255.869 283.839 259.099 301.949Z" fill="url(#paint2_linear_1088_1493)"/>
<path d="M320.51 267.299C320.27 269.189 319.95 271.059 319.54 272.939C316.67 286.089 309.37 298.159 299.33 307.109C299.07 307.269 298.8 307.419 298.53 307.569C297.65 308.079 296.76 308.579 295.85 309.069C295.73 309.139 295.6 309.209 295.47 309.279C295.34 309.349 295.22 309.419 295.09 309.489C295.07 309.489 295.05 309.509 295.03 309.519C295.01 309.529 294.99 309.539 294.97 309.549C294.3 309.899 293.63 310.259 292.95 310.599C292.61 310.769 292.27 310.939 291.93 311.109C291.42 311.359 290.91 311.609 290.39 311.859C290.02 312.029 289.66 312.209 289.29 312.379C288.9 312.559 288.5 312.749 288.1 312.929C287.64 313.139 287.17 313.349 286.7 313.559C285.97 313.879 285.22 314.199 284.47 314.509C282.61 315.279 280.73 316.009 278.81 316.699C278.52 316.799 278.23 316.899 277.94 316.999C277.19 317.259 276.44 317.509 275.68 317.759C285.03 304.269 288.23 286.229 286.22 269.619C283.53 247.399 273.09 226.979 262.82 207.099C254.44 190.869 244.07 171.929 235.7 155.699C234.61 153.589 233.52 151.479 232.43 149.369L238.35 147.729L253.1 138.329C255.71 138.489 258.29 138.819 260.83 139.359C265.18 140.269 269.38 141.769 273.28 143.979C281.81 148.789 288.22 156.499 294.17 164.329C298.26 175.069 302.34 185.809 306.43 196.559C307.72 199.949 309.01 203.349 310.31 206.749C310.31 206.769 310.31 206.779 310.33 206.799C310.91 208.589 311.5 210.389 312.08 212.209C312.65 214.009 313.22 215.809 313.77 217.629C314.89 221.279 315.95 224.969 316.91 228.669C320.21 241.459 322.19 254.459 320.52 267.279L320.51 267.299Z" fill="url(#paint3_linear_1088_1493)"/>
<path style="mix-blend-mode:screen" opacity="0.52" d="M320.511 267.299C319.431 262.529 317.941 257.839 315.951 253.279C311.881 243.909 305.871 235.519 301.401 226.339C300.321 224.129 299.331 221.829 298.481 219.489C295.821 212.119 294.601 204.239 296.581 196.749C299.881 194.899 303.461 195.139 306.421 196.579C307.711 199.969 309.001 203.369 310.301 206.769C310.301 206.789 310.301 206.799 310.321 206.819C310.901 208.609 311.491 210.409 312.071 212.229C312.641 214.029 313.211 215.839 313.761 217.649C314.881 221.299 315.941 224.989 316.901 228.689C320.201 241.479 322.181 254.479 320.511 267.299Z" fill="url(#paint4_linear_1088_1493)"/>
<path d="M277.41 211.889C277.66 208.469 278.98 205.119 281.15 202.329C282.5 200.599 284.56 198.959 286.85 199.289C288.4 199.509 289.67 200.639 290.32 201.959C290.97 203.269 291.09 204.759 291.08 206.199C290.97 216.579 284.49 225.869 278.24 234.519C278.98 227.629 276.74 220.819 277.41 211.899V211.889Z" fill="url(#paint5_linear_1088_1493)"/>
<path style="mix-blend-mode:multiply" opacity="0.86" d="M277.41 211.889C277.66 208.469 278.98 205.119 281.15 202.329C282.5 200.599 284.56 198.959 286.85 199.289C288.4 199.509 289.67 200.639 290.32 201.959C290.97 203.269 291.09 204.759 291.08 206.199C290.97 216.579 284.49 225.869 278.24 234.519C278.98 227.629 276.74 220.819 277.41 211.899V211.889Z" fill="url(#paint6_linear_1088_1493)"/>
<path d="M270.65 155.358C274.91 169.968 279.19 184.628 281.39 199.628C283.59 214.628 283.67 230.068 279.61 244.728C276.18 257.128 266.74 268.968 257.22 278.038C254.02 281.088 251.47 282.018 247.24 280.378C227.09 272.608 205.87 262.968 198.04 239.888C190.75 218.398 186.01 195.558 193.77 174.218C197.42 164.178 203.24 154.628 211.78 147.598C220.32 140.568 231.77 136.268 243.14 137.208C254.51 138.158 267.57 144.818 270.64 155.348L270.65 155.358Z" fill="url(#paint7_radial_1088_1493)"/>
<path d="M243.141 221.999C243.191 222.109 243.511 225.179 245.631 226.989C246.671 227.879 247.951 228.669 249.431 229.079C249.881 229.209 250.351 229.299 250.841 229.339C253.001 229.539 259.531 226.279 256.861 221.849C254.831 223.499 250.301 224.989 243.141 221.999Z" fill="url(#paint8_linear_1088_1493)"/>
<path opacity="0.49" d="M245.641 226.989C246.681 227.879 247.961 228.669 249.441 229.079C249.441 229.019 249.551 227.999 248.181 227.029C246.771 226.019 245.641 226.989 245.641 226.989Z" fill="#4E1A10"/>
<path opacity="0.49" d="M253.559 211.099C252.709 216.119 256.629 218.539 256.819 222.059C257.219 222.949 253.269 228.429 252.439 229.109C253.239 228.939 253.959 228.469 254.689 228.059C258.939 225.529 258.299 221.709 258.299 222.029C258.299 218.699 254.559 217.999 253.569 211.099H253.559Z" fill="#4E1A10"/>
<path d="M205.6 180.509C206.07 173.879 212.77 167.699 217.47 163.009C230.74 149.739 246.97 159.719 248.06 159.319C258.86 155.369 265.68 159.299 272.99 167.939C277.84 173.679 282 175.939 286.86 181.679C286.91 170.519 282.16 159.419 274.06 151.749C265.96 144.079 252.63 139.939 241.49 140.599C235.88 140.929 230.19 142.509 225.81 146.029C220.28 150.469 217.45 154.689 215.26 161.429C213.07 168.179 211.22 177.949 205.61 180.519L205.6 180.509Z" fill="url(#paint9_linear_1088_1493)"/>
<path d="M257.55 215.258C257.61 210.038 255.59 200.598 255.59 200.598C255.59 200.598 257.69 194.688 258.22 193.608C259.07 191.888 261.08 193.398 262.9 192.588C265.51 191.418 265.56 192.308 268.23 191.278C269.72 190.698 271.35 190.138 272.9 190.538C274.81 191.038 280.27 197.608 280.58 199.458C282.74 212.268 278.53 210.198 278.53 210.198C276.25 212.888 276.45 211.128 274.08 212.078C269.13 214.058 263.54 214.578 257.56 215.258H257.55Z" fill="url(#paint10_linear_1088_1493)"/>
<path d="M240.21 215.629C240.14 210.729 240.07 205.819 240 200.919C239.98 199.799 240.02 195.939 240.02 195.939L237.35 191.409C237.35 191.409 228.59 192.219 225.66 191.239C224.03 190.699 222.94 191.819 221.24 192.209C219.14 192.679 213.25 197.779 212.91 199.519C210.54 211.539 217.2 210.889 217.2 210.889C219.7 213.419 219.49 211.769 222.08 212.649C227.51 214.509 233.65 214.999 240.22 215.639L240.21 215.629Z" fill="url(#paint11_linear_1088_1493)"/>
<path d="M258.59 189.579C261.73 190.369 265.01 190.119 268.24 190.159C271.47 190.199 274.86 190.599 277.51 192.459C280.15 194.319 281.72 198.049 280.23 200.919C279.98 198.089 277.44 196.529 274.93 195.209C272.42 193.879 269.51 193.509 266.67 193.429C263.83 193.349 260.98 193.539 258.15 193.219C258.26 192.819 258.84 191.539 258.59 189.579Z" fill="url(#paint12_linear_1088_1493)"/>
<path d="M316.901 228.679C309.941 225.869 303.771 223.019 298.481 219.479C289.411 213.409 282.971 205.319 279.691 191.879C278.101 185.339 274.861 168.149 269.241 159.249C268.031 157.319 266.701 155.659 265.261 154.389C259.571 149.399 250.621 152.599 248.061 159.319C245.241 155.959 240.641 150.859 238.321 147.759C236.251 144.989 234.461 142.299 233.081 139.689C232.851 139.249 232.631 138.819 232.421 138.379C230.031 133.349 225.631 130.709 227.571 126.049C228.661 123.439 233.901 118.819 236.381 117.669C246.321 113.079 260.821 116.689 269.741 123.109C281.351 131.469 287.011 145.609 292.101 158.969C292.781 160.759 293.461 162.549 294.151 164.349C298.241 175.089 302.321 185.829 306.411 196.579C307.481 199.389 308.551 202.209 309.621 205.019C309.841 205.599 310.061 206.179 310.281 206.759C310.281 206.779 310.281 206.789 310.301 206.809C310.881 208.599 311.471 210.399 312.051 212.219C312.541 213.749 313.021 215.279 313.491 216.829C313.581 217.099 313.651 217.369 313.741 217.639C314.861 221.289 315.921 224.979 316.881 228.679H316.901Z" fill="url(#paint13_linear_1088_1493)"/>
<path style="mix-blend-mode:screen" opacity="0.6" d="M313.5 216.829C308.29 207.939 303.38 198.759 296.25 191.439C292.26 187.339 287.47 183.659 285.41 178.329C284.21 175.219 284.06 171.819 283.77 168.499C283.04 160.209 281.26 151.879 277.25 144.579C273.24 137.279 266.81 131.089 258.87 128.589C250.93 126.089 239.51 127.789 233.76 133.809C226.45 132.019 228.94 129.799 231.71 128.479C234.48 127.159 237.54 126.599 240.57 126.069C248.97 124.619 260.12 123.399 267.55 127.579C276.09 132.399 279.55 142.679 282.87 151.909C289.6 170.609 298.62 188.479 309.63 205.019C309.85 205.599 310.07 206.179 310.29 206.759C310.29 206.779 310.29 206.789 310.31 206.809C310.89 208.599 311.48 210.399 312.06 212.219C312.55 213.749 313.03 215.279 313.5 216.829Z" fill="url(#paint14_linear_1088_1493)"/>
<path d="M248.05 159.308C245.29 155.108 233.95 146.808 232.46 146.548C229.68 146.088 226.81 146.538 224.63 148.258C224.03 148.738 223.51 149.278 223.06 149.868C220.99 152.608 220.36 156.418 219.8 159.908C216.6 179.708 208.48 195.608 195.42 210.828C191.87 214.968 189.41 225.338 185.56 228.768C183.2 231.548 180.84 234.338 178.58 237.188C170.43 247.428 163.19 259.058 161.7 272.068C159.87 287.998 167.78 304.628 181.16 313.418C181.07 313.388 180.97 313.358 180.87 313.328C180.03 313.068 179.2 312.808 178.36 312.528C177.75 312.328 177.13 312.128 176.53 311.918L176.43 311.888C175.9 311.708 175.38 311.538 174.86 311.338C174.43 311.178 173.99 311.038 173.56 310.868C172.95 310.648 172.35 310.428 171.75 310.198C171.41 310.068 171.08 309.938 170.75 309.808C170.63 309.258 170.54 308.708 170.45 308.148C160.44 302.108 150.69 295.398 142.87 286.708C135.56 278.578 129.99 268.538 128.51 257.738L128.17 249.398C128.89 235.378 135.79 222.028 142.53 209.468C144.14 206.448 145.76 203.448 147.37 200.418C152.2 191.418 157.02 182.408 161.84 173.398C162.39 172.388 162.93 171.368 163.47 170.358C166.98 163.808 170.49 157.268 173.99 150.718C174 150.698 174.02 150.688 174.02 150.668C179.89 141.858 185.15 133.778 189.33 130.148C195.16 125.068 200.8 120.438 208.14 117.998C214.39 115.928 222.91 115.828 229.21 117.788C232.88 118.928 235.99 121.258 238.43 124.228C238.62 124.438 238.8 124.668 238.97 124.898C240 126.238 240.89 127.678 241.66 129.198C242.08 130.038 248.04 143.858 248.04 159.298L248.05 159.308Z" fill="url(#paint15_linear_1088_1493)"/>
<path d="M194.95 211.049C194.95 211.049 183.62 187.599 175.31 204.519C169.76 215.809 182.12 233.749 196.36 230.219C195.56 224.579 194.95 211.049 194.95 211.049Z" fill="url(#paint16_linear_1088_1493)"/>
<path style="mix-blend-mode:multiply" opacity="0.62" d="M180.03 210.638C178.91 208.878 180.121 206.288 182.081 205.598C184.041 204.898 186.311 205.778 187.741 207.308C189.161 208.828 189.881 210.878 190.351 212.918C191.311 217.078 191.381 221.388 191.441 225.658C187.691 224.578 184.991 220.628 185.361 216.748C185.441 215.938 185.67 215.078 186.31 214.588C186.95 214.098 188.081 214.208 188.361 214.968C187.131 211.638 183.69 209.248 180.03 210.658V210.638Z" fill="url(#paint17_linear_1088_1493)"/>
<path d="M237.761 189.629L227.601 189.999C227.601 189.999 219.701 190.609 216.861 192.809C213.941 195.069 212.991 198.989 212.221 202.599C213.041 199.799 215.161 197.819 217.731 196.419C220.341 194.989 223.391 194.669 226.351 194.379C230.441 193.969 234.681 194.039 238.771 193.629C238.771 193.309 237.771 189.619 237.771 189.619L237.761 189.629Z" fill="url(#paint18_linear_1088_1493)"/>
<path style="mix-blend-mode:screen" opacity="0.56" d="M242.229 131.788C222.799 119.308 206.819 129.589 199.059 144.269C197.589 147.059 196.189 149.908 194.819 152.758C194.439 153.558 194.049 154.359 193.669 155.159C188.979 164.999 184.359 174.878 177.449 183.288C170.619 191.598 160.779 196.848 152.759 204.038C139.849 215.628 132.079 232.018 128.309 248.868C128.269 249.048 128.229 249.238 128.189 249.418C128.919 235.398 135.889 222.049 142.689 209.489C144.319 206.469 145.949 203.468 147.579 200.438C160.179 186.839 167.079 177.118 175.739 164.648C176.459 163.618 177.189 162.558 177.939 161.478C179.869 158.688 181.909 155.748 184.139 152.578C192.599 140.568 203.039 129.978 216.989 125.078C223.389 122.838 231.089 122.548 237.819 124.238C238.009 124.448 238.189 124.679 238.369 124.909C239.409 126.249 240.309 127.689 241.089 129.209C241.509 130.049 241.899 130.908 242.239 131.778L242.229 131.788Z" fill="url(#paint19_linear_1088_1493)"/>
<path d="M247.461 158.079C242.201 151.759 231.561 147.059 224.271 150.849C216.971 154.639 212.501 165.909 208.221 172.929C199.931 186.539 193.501 201.259 184.551 214.439C175.591 227.619 164.201 224.358 148.891 228.788C210.511 167.168 196.301 157.019 212.501 140.819C227.141 126.179 252.241 147.089 247.461 158.079Z" fill="url(#paint20_linear_1088_1493)"/>
<path d="M228.471 207.659C228.391 211.399 230.161 214.529 232.431 214.639C234.701 214.749 236.611 211.809 236.691 208.069C236.731 206.399 236.411 204.369 235.821 203.149C233.981 202.709 232.181 202.599 230.431 202.099C229.291 203.259 228.511 205.299 228.461 207.659H228.471Z" fill="#3A1A12" stroke="url(#paint21_linear_1088_1493)" stroke-miterlimit="10"/>
<path d="M231.197 211.735C231.969 211.697 232.538 210.53 232.468 209.129C232.398 207.728 231.715 206.623 230.943 206.662C230.171 206.7 229.602 207.867 229.672 209.268C229.742 210.669 230.424 211.774 231.197 211.735Z" fill="white"/>
<path d="M223.68 205.669C227.04 203.009 229.66 201.739 229.66 201.739L238.66 203.549" stroke="#3A1A12" stroke-miterlimit="10" stroke-linecap="round"/>
<path d="M260.99 206.839C260.93 210.579 262.57 213.709 264.66 213.839C266.75 213.959 268.49 211.029 268.55 207.289C268.58 205.619 268.33 203.099 267.79 201.889C266.1 201.439 264.61 201.349 262.78 201.299C261.74 202.449 261.03 204.489 260.99 206.849V206.839Z" fill="#3A1A12" stroke="url(#paint22_linear_1088_1493)" stroke-miterlimit="10"/>
<path d="M263.138 210.373C263.91 210.334 264.48 209.167 264.41 207.766C264.34 206.365 263.657 205.261 262.885 205.299C262.112 205.338 261.543 206.505 261.613 207.906C261.683 209.307 262.366 210.412 263.138 210.373Z" fill="white"/>
<path d="M256.949 204.199C259.579 201.309 262.379 200.709 262.379 200.709L270.289 202.339" stroke="#3A1A12" stroke-miterlimit="10" stroke-linecap="round"/>
<path d="M228.221 237.339V237.369C238.651 239.599 260.431 237.149 260.911 236.849C261.241 236.659 261.561 236.449 261.831 236.239C261.601 240.549 260.851 247.719 259.721 252.219C259.361 253.629 258.971 254.739 258.571 255.469C257.121 257.959 248.811 261.499 242.761 257.619C241.671 256.919 240.651 256.089 239.661 255.169C234.481 250.319 230.831 243.929 229.231 240.029C228.561 238.399 228.211 237.349 228.211 237.349V237.329L228.221 237.339Z" fill="#561122"/>
<path d="M228.18 237.319C241.63 238.979 260.42 237.129 260.93 236.829L259.72 244.519C259.72 244.519 258.25 244.859 248.29 245.299C237.39 245.779 230.82 243.379 230.82 243.379C229.55 241.379 228.19 237.319 228.19 237.319H228.18Z" fill="#FEEDEE"/>
<path d="M259.73 252.219C259.37 253.629 258.98 254.739 258.58 255.469C257.13 257.959 248.82 261.499 242.77 257.619C241.68 256.919 240.66 256.089 239.67 255.169C239.67 255.169 250.62 249.149 259.73 252.219Z" fill="url(#paint23_linear_1088_1493)"/>
<path style="mix-blend-mode:screen" opacity="0.52" d="M316.43 266.349C315.4 261.799 313.98 257.319 312.08 252.949C308.19 243.999 302.46 235.979 298.18 227.219C297.14 225.109 296.2 222.909 295.39 220.669C292.85 213.629 291.69 206.099 293.58 198.949C296.73 197.179 300.15 197.409 302.98 198.789C304.21 202.029 305.45 205.279 306.68 208.519C306.68 208.529 306.68 208.549 306.7 208.569C307.26 210.279 307.82 211.999 308.37 213.739C308.91 215.459 309.46 217.189 309.99 218.919C311.06 222.409 312.08 225.929 312.99 229.469C316.15 241.689 318.04 254.099 316.44 266.349H316.43Z" fill="url(#paint24_linear_1088_1493)"/>
<path d="M175.08 306.889C175.02 306.879 174.97 306.849 174.91 306.829C174.96 306.849 175.02 306.869 175.08 306.889Z" fill="url(#paint25_linear_1088_1493)"/>
<path d="M329.911 277.889C324.601 268.619 319.461 259.159 316.191 248.989C312.921 238.819 311.581 227.819 313.981 217.409C314.901 213.429 317.251 208.869 321.341 208.739C324.711 208.629 327.271 211.649 329.151 214.449C336.251 225.019 341.751 236.659 345.411 248.859C346.421 252.229 347.301 255.749 346.871 259.239C346.271 264.069 343.181 268.309 339.381 271.349C335.571 274.379 331.061 276.379 329.901 277.889H329.911Z" fill="url(#paint26_linear_1088_1493)"/>
<path d="M305.591 248.979C304.211 247.969 302.501 247.529 300.821 247.209C299.141 246.889 297.421 246.669 295.831 246.039C294.241 245.409 292.751 244.289 292.131 242.689C291.511 241.089 292.021 239.009 293.531 238.209C295.301 237.279 297.421 238.339 299.411 238.389C300.471 238.419 301.541 238.159 302.561 238.439C303.971 238.819 304.931 240.139 305.451 241.499C306.411 244.019 306.191 246.959 305.581 248.979H305.591Z" fill="url(#paint27_linear_1088_1493)"/>
<path d="M313.061 191.029L342.821 246.439C343.151 247.049 343.041 247.809 342.551 248.299L314.921 275.449C314.111 276.259 311.721 275.009 311.321 273.939L290.701 211.549C290.481 210.949 290.631 210.279 291.101 209.849C294.271 206.879 302.941 194.369 307.711 189.909C308.521 189.159 312.011 189.119 313.071 191.039L313.061 191.029Z" fill="url(#paint28_linear_1088_1493)"/>
<path d="M309.479 190.909L339.239 246.319C339.569 246.929 339.459 247.689 338.969 248.179L313.019 274.239C312.209 275.049 310.829 274.759 310.419 273.679L287.109 211.419C286.889 210.819 287.039 210.149 287.509 209.719C290.679 206.749 302.799 195.359 306.899 190.619C307.619 189.789 308.949 189.939 309.479 190.909Z" fill="url(#paint29_linear_1088_1493)"/>
<path d="M325.471 200.589C325.401 198.549 325.321 196.479 324.751 194.509C324.191 192.539 323.081 190.659 321.351 189.569C319.411 188.339 316.981 188.269 314.681 188.229C313.911 188.219 313.091 188.209 312.431 188.599C311.641 189.059 311.221 189.949 310.881 190.799C310.031 192.909 309.311 195.219 309.851 197.429C310.381 199.639 312.631 201.579 314.821 200.999L325.481 200.599L325.471 200.589Z" fill="url(#paint30_linear_1088_1493)"/>
<path d="M298.21 245.339C295.3 245.099 293.251 246.269 290.731 240.069C290.541 236.679 291.421 233.239 293.201 230.349C293.801 229.379 294.521 228.449 295.481 227.839C296.441 227.229 297.69 226.979 298.75 227.409C300.25 228.029 300.94 229.759 301.24 231.359C302.16 236.269 300.82 241.549 298.21 245.339Z" fill="url(#paint31_linear_1088_1493)"/>
<path d="M327.75 209.969C327.45 205.809 327.12 201.539 325.38 197.749C324.8 196.489 324.05 195.279 322.98 194.389C321.91 193.499 320.5 192.969 319.13 193.179C316.51 193.589 315.06 196.359 314.01 198.789C313.02 201.099 312 203.509 312.14 206.019C312.28 208.529 313.95 211.149 316.45 211.469L327.76 209.949L327.75 209.969Z" fill="url(#paint32_linear_1088_1493)"/>
<path d="M332.53 222.099C332.97 216.219 331.65 210.219 328.77 205.069C327.68 203.119 326.03 201.099 323.8 201.049C321.24 200.989 319.45 203.489 318.25 205.749C315.96 210.079 314.06 214.629 312.88 219.369C312.55 220.689 312.31 222.189 313.07 223.319C313.73 224.299 315.02 224.709 316.2 224.629C317.38 224.549 318.5 224.069 319.58 223.599L332.53 222.089V222.099Z" fill="url(#paint33_linear_1088_1493)"/>
<path d="M335.959 224.729C334.549 221.069 332.899 217.509 331.019 214.069C330.169 212.519 328.899 210.789 327.139 210.939C325.769 211.059 324.799 212.309 324.079 213.489C321.479 217.789 319.869 222.689 319.409 227.699C319.309 228.809 319.309 230.059 320.069 230.879C320.879 231.739 322.299 231.769 323.349 231.219C324.389 230.669 325.119 229.669 325.709 228.649C326.259 227.699 326.869 226.579 327.949 226.359C329.639 226.009 330.929 228.069 332.639 228.259C333.779 228.379 334.869 227.609 335.459 226.629C336.059 225.649 336.259 224.489 335.939 224.739L335.959 224.729Z" fill="url(#paint34_linear_1088_1493)"/>
<path d="M175.089 306.928C174.849 306.838 174.609 306.748 174.369 306.648C174.609 306.738 174.849 306.838 175.089 306.928Z" fill="url(#paint35_linear_1088_1493)"/>
<path d="M357.131 270.119C352.321 264.069 352.751 259.399 346.991 254.099C342.771 271.779 324.561 265.369 324.361 266.389C324.161 267.409 324.821 268.449 325.451 269.369C329.501 275.269 333.541 281.169 337.591 287.079C346.241 284.179 353.521 278.339 357.131 270.109V270.119Z" fill="url(#paint36_linear_1088_1493)"/>
<path d="M279.12 356.228C282.04 358.888 285.57 361.858 289.55 364.988C322.72 391.118 387.81 429.378 405.02 407.378C408.96 402.348 402.48 394.568 399.68 388.818C396.89 383.068 391.88 378.758 387 374.628C377.49 366.608 366.51 357.018 355.22 347.288C326.13 322.188 294.99 296.128 281.72 293.438C278.67 296.938 274.68 308.098 273.28 320.348C271.88 332.588 270 347.948 279.11 356.238L279.12 356.228Z" fill="url(#paint37_linear_1088_1493)"/>
<path d="M327.07 275.809C339.75 299.079 349.09 322.529 355.23 347.289C358.31 359.659 360.58 372.349 362.07 385.509C362.36 388.119 363.31 390.939 364.78 393.779C367.45 398.969 371.85 404.159 377.19 407.979C385.46 413.879 398.18 414.879 405.03 407.379C408.6 403.459 409.96 398.039 410.72 392.799C413.38 374.399 410 355.659 403.31 337.889C391.1 305.369 367.91 276.129 350.59 258.199C348.4 265.949 340.79 276.959 327.07 275.809Z" fill="url(#paint38_linear_1088_1493)"/>
<path style="mix-blend-mode:multiply" opacity="0.36" d="M289.561 364.989C322.731 391.119 387.821 429.379 405.031 407.379C408.601 403.459 409.961 398.039 410.721 392.799C413.381 374.399 410.001 355.659 403.311 337.889C404.971 349.519 405.171 361.369 403.861 373.049C403.261 378.399 402.091 384.069 399.691 388.819C397.851 392.429 395.301 395.529 391.721 397.519C386.251 400.579 379.391 400.299 373.481 398.189C370.401 397.089 367.531 395.539 364.781 393.779C362.251 392.169 359.801 390.359 357.401 388.539C332.591 369.769 309.241 349.049 287.651 326.639C285.841 339.439 286.641 352.429 289.551 364.999L289.561 364.989Z" fill="url(#paint39_linear_1088_1493)"/>
<path d="M200.53 517.379C217.96 522.269 231.73 533.549 250.81 537.589C253.53 523.119 261.05 525.279 262.16 536.999C276.01 529.379 284.47 515.239 289.04 501.319C291.76 493.019 289.63 484.029 288.09 475.429C284.86 457.519 284.3 444.719 286.33 430.649C287.48 422.739 289.44 414.439 292.22 404.579C295.37 393.369 299.62 382.169 299.31 370.539C299.27 369.089 299.17 367.619 299.02 366.139C296.1 337.549 273.14 301.819 263.27 291.949C256.12 301.209 256.16 308.029 249.2 317.259C248.96 317.579 248.72 317.889 248.47 318.209C247.87 317.649 247.25 317.089 246.63 316.539C234.7 305.889 219.02 296.909 206.2 291.119C213.41 319.959 217.7 347.679 219.09 375.049C219.86 389.969 219.75 404.789 218.77 419.639C216.69 451.689 210.6 483.849 200.51 517.379H200.53Z" fill="url(#paint40_linear_1088_1493)"/>
<path style="mix-blend-mode:multiply" d="M218.789 422.879C224.279 426.409 230.379 429.409 237.079 431.659C252.499 436.829 271.409 437.449 286.329 431.689C287.479 425.369 289.439 418.729 292.219 410.849C295.369 401.889 299.619 392.939 299.309 383.639C299.269 382.479 299.169 381.309 299.019 380.119C286.089 387.969 269.259 392.569 252.289 392.469C240.749 392.399 229.709 390.369 219.099 387.229C219.869 399.159 219.759 411.009 218.779 422.869L218.789 422.879Z" fill="url(#paint41_linear_1088_1493)"/>
<path style="mix-blend-mode:multiply" opacity="0.24" d="M260.071 443.459C255.851 469.139 256.031 476.389 258.101 502.379C258.541 507.919 259.061 513.459 259.641 518.979C259.381 512.019 259.131 505.039 258.931 498.049C258.181 471.169 258.421 457.909 263.331 431.539C265.301 420.949 268.031 410.439 268.541 399.679C269.891 371.349 255.981 344.899 249.191 317.259C248.961 317.579 248.711 317.889 248.471 318.209C247.871 317.649 247.251 317.079 246.631 316.539C250.151 338.749 264.881 366.239 265.601 392.999C266.011 408.239 262.541 428.389 260.071 443.439V443.459Z" fill="url(#paint42_linear_1088_1493)"/>
<path style="mix-blend-mode:multiply" opacity="0.24" d="M204.619 289.709C220.319 298.369 234.669 309.459 246.999 322.479C229.719 315.429 214.339 303.789 204.619 289.709Z" fill="url(#paint43_linear_1088_1493)"/>
<path style="mix-blend-mode:multiply" opacity="0.24" d="M250.061 321.399C253.841 311.499 258.811 302.059 264.831 293.329C264.741 299.049 262.521 304.569 259.421 309.379C256.321 314.189 252.361 318.369 250.061 321.399Z" fill="url(#paint44_linear_1088_1493)"/>
<path d="M149.839 354.628C151.389 359.198 152.849 363.548 154.229 367.738C163.789 396.838 169.179 418.148 173.079 451.288C175.849 474.908 176.639 479.548 155.299 523.178C163.589 532.848 184.199 557.928 216.689 570.158C221.109 555.828 224.869 541.508 228.059 527.158C231.749 510.608 234.649 494.018 236.869 477.328C238.779 463.068 240.199 448.728 241.209 434.278C241.389 431.758 241.529 429.238 241.639 426.718C243.519 382.688 233.119 336.578 212.339 300.808C210.169 297.038 207.859 293.378 205.449 289.858C204.019 290.918 203.709 293.208 201.949 293.768C186.959 298.528 166.389 304.408 158.459 311.138C145.329 322.278 152.079 337.438 150.119 339.908C146.719 344.178 148.199 349.798 149.849 354.638L149.839 354.628Z" fill="url(#paint45_linear_1088_1493)"/>
<path style="mix-blend-mode:multiply" d="M203.26 294.629C213.6 389.339 227.99 423.219 236.87 477.349C238.78 463.089 240.2 448.749 241.21 434.299C241.39 431.779 241.53 429.259 241.64 426.739C243.52 382.709 233.12 336.599 212.34 300.829C209.8 298.699 206.07 296.629 203.26 294.639V294.629Z" fill="url(#paint46_linear_1088_1493)"/>
<path style="mix-blend-mode:multiply" d="M155.3 523.188C163.59 532.858 184.2 557.938 216.69 570.168C221.11 555.838 224.87 541.518 228.06 527.168C222.59 515.478 215.89 504.258 210.34 492.568C189.38 448.408 185.52 413.168 181.61 364.438C173.07 371.408 162.94 361.998 154.24 367.738C163.8 396.838 169.19 418.148 173.09 451.288C175.86 474.908 176.65 479.548 155.31 523.178L155.3 523.188Z" fill="url(#paint47_linear_1088_1493)"/>
<path d="M17.3401 551.669C25.5901 557.839 33.8301 563.999 42.0801 570.169C44.4301 568.299 46.8101 566.389 49.1901 564.429C105.85 518.139 171.59 448.409 180.49 379.929C181.39 372.949 181.86 366.069 181.44 359.249C180.45 343.169 174.62 327.359 158.45 311.129C136.55 330.529 125.69 380.259 104.9 430.189C84.1001 480.109 56.9501 514.839 17.3301 551.659L17.3401 551.669Z" fill="url(#paint48_linear_1088_1493)"/>
<path d="M217.859 353.439C222.479 352.659 227.099 351.879 231.729 351.099C224.129 352.479 219.199 361.139 220.069 368.809C223.479 398.749 237.139 439.939 239.999 453.789C240.109 451.279 242.069 429.179 242.189 426.659C245.459 354.159 217.959 298.989 205.439 289.869C204.239 290.889 202.979 291.879 201.689 292.829C207.719 314.969 211.819 331.289 217.859 353.439Z" fill="url(#paint49_linear_1088_1493)"/>
<path d="M284.761 351.478C289.801 374.708 283.531 398.668 279.561 422.108C278.181 430.248 277.091 444.748 276.271 452.968C275.651 459.138 275.251 464.988 275.041 470.598C273.861 502.118 278.811 526.298 287.011 560.158C313.781 542.928 317.001 518.988 317.001 518.988C317.001 518.988 294.661 453.388 303.201 425.008C307.651 410.208 314.901 378.248 313.251 362.878C309.751 330.438 295.051 308.758 283.881 295.128C282.851 293.878 281.391 293.058 279.771 292.848C272.511 291.898 263.111 290.368 260.091 290.448C259.381 290.458 259.021 290.568 259.131 290.798C261.611 295.558 262.231 301.168 264.611 305.758C272.341 320.558 281.211 335.148 284.751 351.478H284.761Z" fill="url(#paint50_linear_1088_1493)"/>
<path style="mix-blend-mode:multiply" d="M284.761 351.479C289.801 374.709 283.531 398.669 279.561 422.109C278.181 430.249 277.091 444.749 276.271 452.969C275.651 459.139 276.401 456.239 276.191 461.849C286.201 439.529 295.051 425.029 300.671 401.219C304.771 383.869 309.251 367.019 304.261 349.909C299.681 334.229 283.001 315.919 260.101 290.459C259.391 290.469 259.031 290.579 259.141 290.809C261.621 295.569 262.241 301.179 264.621 305.769C272.351 320.569 281.221 335.159 284.761 351.489V351.479Z" fill="url(#paint51_linear_1088_1493)"/>
<path d="M279.571 422.119C278.191 430.259 277.091 444.759 276.281 452.979C287.941 425.499 299.421 396.119 303.081 368.909C303.861 363.149 304.101 356.979 301.341 351.869C298.581 346.759 291.871 343.399 286.741 346.119C289.121 342.649 293.081 340.309 297.261 339.889C284.551 323.519 274.761 306.189 262.051 289.839C262.841 295.149 262.231 301.179 264.621 305.769C272.361 320.579 281.231 335.159 284.761 351.489C289.801 374.719 283.531 398.689 279.561 422.129L279.571 422.119Z" fill="url(#paint52_linear_1088_1493)"/>
<path d="M247.02 322.409C247.73 314.039 244.03 301.969 238.34 295.789C235.94 293.189 232.73 291.509 229.59 289.889C221.44 285.679 213.28 281.469 205.13 277.259C204.67 281.109 204.49 284.749 205.45 289.859C218.44 300.859 229.59 310.899 247.02 322.409Z" fill="#4B60A9"/>
<path d="M250.1 321.159C254 315.309 260.51 306.879 262.99 296.709C264.39 290.979 262.05 281.269 256.38 279.639C256.18 285.409 255.34 291.179 252.04 295.659C248.22 300.849 247.17 314.849 250.1 321.149V321.159Z" fill="#4B60A9"/>
<path style="mix-blend-mode:multiply" opacity="0.36" d="M49.1895 564.439C105.849 518.149 171.589 448.419 180.489 379.939C181.389 372.959 181.859 366.079 181.439 359.259C155.989 439.869 120.419 497.249 59.9195 553.879C56.3095 557.259 52.5195 560.709 49.1895 564.439Z" fill="url(#paint53_linear_1088_1493)"/>
</g>
<path d="M775.381 515.37H51.1309C41.7863 515.37 34.2109 522.945 34.2109 532.29C34.2109 541.635 41.7863 549.21 51.1309 549.21H775.381C784.726 549.21 792.301 541.635 792.301 532.29C792.301 522.945 784.726 515.37 775.381 515.37Z" fill="url(#paint54_linear_1088_1493)"/>
<path d="M411.941 121.02L335.781 123.84C326.361 124.19 319.371 132.7 320.861 142.01L323.011 155.44C324.211 162.95 330.631 168.52 338.241 168.65L371.671 169.23C367.781 182.77 361.551 195.64 353.281 207.04C371.781 202.3 387.161 187.54 393.481 169.61L409.061 169.88C416.751 170.01 423.401 164.56 424.781 157L427.971 139.51C429.771 129.64 421.971 120.64 411.941 121.01V121.02Z" fill="url(#paint55_linear_1088_1493)"/>
<path d="M341.15 145.21C341.15 141.59 344.08 138.66 347.7 138.66C351.32 138.66 354.25 141.59 354.25 145.21C354.25 148.83 351.32 151.76 347.7 151.76C344.08 151.76 341.15 148.83 341.15 145.21Z" fill="white"/>
<path d="M366.109 145.21C366.109 141.59 369.039 138.66 372.659 138.66C376.279 138.66 379.209 141.59 379.209 145.21C379.209 148.83 376.279 151.76 372.659 151.76C369.039 151.76 366.109 148.83 366.109 145.21Z" fill="white"/>
<path d="M392.301 145.21C392.301 141.59 395.231 138.66 398.851 138.66C402.471 138.66 405.401 141.59 405.401 145.21C405.401 148.83 402.471 151.76 398.851 151.76C395.231 151.76 392.301 148.83 392.301 145.21Z" fill="white"/>
<path d="M378.18 508.01L396.47 386.75C396.47 382.92 399.58 379.81 403.41 379.81H573.25C577.08 379.81 580.19 382.92 580.19 386.75L561.9 508.01C561.9 511.84 558.79 514.95 554.96 514.95H385.12C381.29 514.95 378.18 511.84 378.18 508.01Z" fill="url(#paint56_linear_1088_1493)"/>
<path d="M561.899 508.01H322.109V515.23H561.899V508.01Z" fill="url(#paint57_linear_1088_1493)"/>
<path d="M483.6 453.199C487.985 453.199 491.54 449.644 491.54 445.259C491.54 440.874 487.985 437.319 483.6 437.319C479.215 437.319 475.66 440.874 475.66 445.259C475.66 449.644 479.215 453.199 483.6 453.199Z" fill="url(#paint58_linear_1088_1493)"/>
<path d="M563.429 98.4101C562.129 92.4101 558.349 87.2401 554.079 82.8401C549.809 78.4401 544.969 74.6101 540.829 70.0801C537.299 66.2201 534.159 60.8301 536.139 55.9901C537.789 51.9601 542.689 49.9301 546.989 50.6201C551.289 51.3101 554.959 54.2001 557.689 57.6001C562.589 63.7001 564.979 71.5101 565.759 79.2901C566.539 87.0801 565.809 94.9301 563.419 98.4101H563.429Z" fill="url(#paint59_linear_1088_1493)"/>
<path d="M565.599 109.24C566.229 89.7196 566.49 68.7596 556 52.5196C551.98 46.2896 546.47 40.9596 543.87 33.9596C541.27 26.9596 543.099 17.2596 549.979 14.8996C554.729 13.2696 560.1 15.9196 563.18 19.9896C566.26 24.0596 567.529 29.2796 568.469 34.3596C573.069 59.3296 571.489 85.4896 565.599 109.22V109.24Z" fill="url(#paint60_linear_1088_1493)"/>
<path d="M574.889 109.22C565.639 87.6497 565.099 63.4997 564.709 40.0297C564.519 28.5297 564.619 16.0697 571.569 6.8997C575.619 1.5597 583.309 -2.1303 589.019 1.3697C593.619 4.1997 594.849 10.3697 594.469 15.7497C593.729 26.1697 588.719 35.7197 584.779 45.3997C576.229 66.4097 572.459 89.3597 574.879 109.21L574.889 109.22Z" fill="url(#paint61_linear_1088_1493)"/>
<path d="M571.811 103.77C572.791 88.8901 574.831 73.9101 580.221 60.0001C585.611 46.0901 594.591 33.2301 607.201 25.2401C609.671 23.6801 612.721 22.2701 615.421 23.3901C617.991 24.4601 619.221 27.4801 619.331 30.2601C619.701 39.7101 610.971 46.5601 603.961 52.9101C589.151 66.3301 578.751 84.5401 571.821 103.76L571.811 103.77Z" fill="url(#paint62_linear_1088_1493)"/>
<path d="M556.939 123.49C562.709 108.72 569.069 94.0001 578.119 81.4801C587.159 68.9601 599.199 58.7001 612.629 55.5201C614.839 55.0001 617.299 54.7201 619.049 56.1801C621.509 58.2301 621.349 62.9101 619.549 66.0501C617.749 69.1901 614.819 71.1701 612.009 73.0201C590.149 87.4801 567.309 104.15 556.939 123.49Z" fill="url(#paint63_linear_1088_1493)"/>
<path d="M607.609 87.6494V139.369C607.609 150.379 598.679 159.319 587.659 159.319H561.469C550.459 159.319 541.52 150.389 541.52 139.369V87.6494H607.609Z" fill="url(#paint64_linear_1088_1493)"/>
<path style="mix-blend-mode:multiply" opacity="0.37" d="M568.479 159.319H561.469C550.459 159.319 541.52 150.389 541.52 139.369V87.6494H558.09C558.96 105.309 556.88 125.289 559.06 140.229C560.14 147.599 564.969 153.739 568.479 159.319Z" fill="url(#paint65_linear_1088_1493)"/>
<path d="M619.039 426.3L618.479 433.49L617.319 448.74L616.529 459.07L614.019 491.87L612.259 514.82H576.129L574.369 491.87L571.859 459.07L571.069 448.74L569.909 433.49L569.359 426.3H619.039Z" fill="url(#paint66_linear_1088_1493)"/>
<path d="M625.991 433.489H562.391V448.729H625.991V433.489Z" fill="url(#paint67_linear_1088_1493)"/>
<path d="M616.529 459.069L614.019 491.869H574.369L571.859 459.069H616.529Z" fill="#E09E71"/>
<g style="mix-blend-mode:multiply" opacity="0.37">
<path d="M595.961 448.6V448.74L595.761 459.07C595.551 470 595.321 480.94 595.101 491.87C594.951 499.53 594.811 507.17 594.651 514.83H576.131L574.371 491.87L571.861 459.07L571.071 448.74H562.391V433.5H569.911L569.361 426.31H594.951C594.881 428.72 594.871 431.11 594.921 433.5C594.921 433.75 594.931 433.99 594.931 434.23C593.511 433.58 591.811 433.5 590.331 434.03C590.591 438.93 590.861 443.83 591.121 448.74C591.151 449.27 591.181 449.81 591.211 450.34C592.881 450.49 594.601 449.89 595.821 448.74C595.871 448.69 595.921 448.65 595.971 448.6H595.961Z" fill="#E09E71"/>
</g>
<path style="mix-blend-mode:multiply" opacity="0.56" d="M51.1309 524.88H775.381C783.071 524.88 789.561 530.02 791.611 537.05C792.051 535.54 792.301 533.95 792.301 532.29C792.301 522.94 784.721 515.37 775.381 515.37H51.1309C41.7809 515.37 34.2109 522.95 34.2109 532.29C34.2109 533.94 34.4609 535.54 34.9009 537.05C36.9609 530.02 43.4409 524.88 51.1309 524.88Z" fill="url(#paint68_linear_1088_1493)"/>
<g opacity="0.15">
<path d="M489.609 194.25L484.529 171.38H791.209L766.499 197.64L489.609 194.25Z" fill="url(#paint69_linear_1088_1493)"/>
</g>
<path d="M791.209 156.13H484.529V171.38H791.209V156.13Z" fill="#D3DDF1"/>
<path d="M566.709 156.13H484.529V171.38H566.709V156.13Z" fill="#C8D2E5"/>
<g opacity="0.15">
<path d="M562.029 305.439L556.949 282.569H791.209L766.499 308.829L562.029 305.439Z" fill="url(#paint70_linear_1088_1493)"/>
</g>
<path d="M791.209 267.319H556.949V282.569H791.209V267.319Z" fill="#D3DDF1"/>
<path d="M637.639 267.319H556.949V282.569H637.639V267.319Z" fill="#C8D2E5"/>
<path d="M682.741 73.71C682.701 77.47 684.861 80.28 687.601 81.42C687.701 81.46 687.801 81.5 687.891 81.53C687.961 81.55 688.021 81.58 688.091 81.6C688.141 81.62 688.201 81.64 688.251 81.65C688.301 81.67 688.341 81.68 688.391 81.69C688.401 81.69 688.411 81.69 688.421 81.69C688.471 81.71 688.531 81.72 688.591 81.74C688.831 81.81 689.081 81.86 689.321 81.91C689.371 81.91 689.411 81.93 689.461 81.93C689.531 81.94 689.591 81.95 689.661 81.96C689.741 81.97 689.811 81.98 689.891 81.99C690.041 82.01 690.201 82.03 690.351 82.04C690.381 82.04 690.401 82.04 690.431 82.04C690.431 82.04 690.451 82.04 690.461 82.04C690.561 82.04 690.661 82.05 690.771 82.06C690.791 82.06 690.811 82.06 690.841 82.06C690.961 82.06 691.071 82.06 691.191 82.06C693.121 82.06 695.081 81.55 696.851 80.73C701.581 78.53 705.211 74.08 706.431 69.01C706.771 67.58 706.921 66.1 706.891 64.63C706.891 64.53 706.891 64.42 706.881 64.32C706.881 64.23 706.881 64.14 706.871 64.05C706.851 63.71 706.821 63.37 706.781 63.03C706.781 62.95 706.761 62.88 706.751 62.8C706.741 62.68 706.721 62.56 706.701 62.45C706.691 62.37 706.681 62.29 706.661 62.21C706.631 62.04 706.601 61.87 706.571 61.7C706.551 61.62 706.541 61.53 706.521 61.45C706.501 61.33 706.471 61.21 706.441 61.09C706.441 61.09 706.441 61.09 706.441 61.08C706.391 60.85 706.331 60.63 706.271 60.4C706.251 60.32 706.231 60.24 706.201 60.16C706.161 60.01 706.121 59.86 706.071 59.72C706.021 59.57 705.971 59.41 705.921 59.26C705.891 59.18 705.861 59.1 705.841 59.01C705.771 58.81 705.691 58.61 705.611 58.41C705.581 58.34 705.561 58.27 705.531 58.21C705.491 58.12 705.451 58.03 705.411 57.94C705.381 57.86 705.341 57.78 705.311 57.71C705.281 57.63 705.241 57.56 705.201 57.48C705.161 57.41 705.131 57.33 705.091 57.26C705.031 57.13 704.971 57.01 704.901 56.88C704.821 56.73 704.741 56.59 704.661 56.44C704.591 56.32 704.531 56.2 704.461 56.09C704.401 55.99 704.351 55.9 704.291 55.8C704.231 55.7 704.171 55.61 704.111 55.52C704.051 55.43 703.991 55.33 703.931 55.24C703.881 55.16 703.821 55.08 703.761 55C703.761 54.99 703.751 54.98 703.741 54.97C703.661 54.86 703.591 54.75 703.511 54.65C703.441 54.55 703.371 54.45 703.291 54.36C703.261 54.32 703.231 54.28 703.201 54.24C702.351 53.15 701.331 52.15 700.101 51.54C699.901 51.44 699.701 51.35 699.491 51.28C699.451 51.27 699.411 51.25 699.361 51.24C698.561 50.98 697.681 50.91 696.861 51.08C696.561 51.14 696.271 51.24 696.001 51.36C695.631 51.53 695.291 51.76 695.001 52.05C693.521 53.52 693.691 55.89 693.601 57.97C693.401 62.48 691.351 66.84 688.161 70.02C686.601 71.57 684.771 72.84 682.751 73.71H682.741Z" fill="url(#paint71_linear_1088_1493)"/>
<path style="mix-blend-mode:multiply" opacity="0.32" d="M687.02 78.6093C687.04 78.8693 687.07 79.1293 687.11 79.3793C687.22 80.0693 687.39 80.7593 687.6 81.4093C687.7 81.4493 687.8 81.4893 687.89 81.5193C687.96 81.5393 688.02 81.5693 688.09 81.5893C688.14 81.6093 688.2 81.6293 688.25 81.6393C688.3 81.6593 688.34 81.6693 688.39 81.6793C688.4 81.6793 688.41 81.6793 688.42 81.6793C688.47 81.6993 688.53 81.7093 688.59 81.7293C688.83 81.7993 689.08 81.8493 689.32 81.8993C689.37 81.8993 689.41 81.9193 689.46 81.9193C689.53 81.9293 689.59 81.9393 689.66 81.9493C689.74 81.9593 689.81 81.9693 689.89 81.9793C690.04 81.9993 690.2 82.0193 690.35 82.0293C690.38 82.0293 690.4 82.0293 690.43 82.0293C690.43 82.0293 690.45 82.0293 690.46 82.0293C690.56 82.0293 690.66 82.0393 690.77 82.0493C690.79 82.0493 690.81 82.0493 690.84 82.0493C690.96 82.0493 691.07 82.0493 691.19 82.0493C693.12 82.0493 695.08 81.5393 696.85 80.7193C701.58 78.5193 705.21 74.0693 706.43 68.9993C706.77 67.5693 706.92 66.0893 706.89 64.6193C706.89 64.5193 706.89 64.4093 706.88 64.3093C706.88 64.2193 706.88 64.1293 706.87 64.0393C706.85 63.6993 706.82 63.3593 706.78 63.0193C706.78 62.9393 706.76 62.8693 706.75 62.7893C706.74 62.6693 706.72 62.5493 706.7 62.4393C706.69 62.3593 706.68 62.2793 706.66 62.1993C706.63 62.0293 706.6 61.8593 706.57 61.6893C706.55 61.6093 706.54 61.5193 706.52 61.4393C706.5 61.3193 706.47 61.1993 706.44 61.0793C706.44 61.0793 706.44 61.0793 706.44 61.0693C706.39 60.8393 706.33 60.6193 706.27 60.3893C706.25 60.3093 706.23 60.2293 706.2 60.1493C706.16 59.9993 706.12 59.8493 706.07 59.7093C706.02 59.5593 705.97 59.3993 705.92 59.2493C705.89 59.1693 705.86 59.0893 705.84 58.9993C705.77 58.7993 705.69 58.5993 705.61 58.3993C705.58 58.3293 705.56 58.2593 705.53 58.1993C705.49 58.1093 705.45 58.0193 705.41 57.9293C705.38 57.8493 705.34 57.7693 705.31 57.6993C705.28 57.6193 705.24 57.5493 705.2 57.4693C705.16 57.3993 705.13 57.3193 705.09 57.2493C705.03 57.1193 704.97 56.9993 704.9 56.8693C704.82 56.7193 704.74 56.5793 704.66 56.4293C704.59 56.3093 704.53 56.1893 704.46 56.0793C704.4 55.9793 704.35 55.8893 704.29 55.7893C704.23 55.6893 704.17 55.5993 704.11 55.5093C704.05 55.4193 703.99 55.3193 703.93 55.2293C703.88 55.1493 703.82 55.0693 703.76 54.9893C703.76 54.9793 703.75 54.9693 703.74 54.9593C703.66 54.8493 703.59 54.7393 703.51 54.6393C703.44 54.5393 703.37 54.4393 703.29 54.3493C703.26 54.3093 703.23 54.2693 703.2 54.2293C702.35 53.1393 701.33 52.1393 700.1 51.5293C700.21 51.6893 700.33 51.8593 700.44 52.0293C701.24 53.2393 701.94 54.5393 702.47 55.8893C702.6 56.2093 702.71 56.5193 702.82 56.8393C703.59 59.1293 703.88 61.5393 703.48 63.9093C702.83 67.7193 700.04 71.2693 696.36 72.2593C696.05 72.3393 695.74 72.4093 695.42 72.4493C695.34 72.4593 695.26 72.4693 695.18 72.4793C693.88 72.6293 692.49 72.5293 691.21 72.6893C690.74 72.7493 690.29 72.8493 689.85 73.0093C689.53 73.1293 689.22 73.2793 688.93 73.4793C688.33 73.8793 687.9 74.3993 687.59 74.9893C687.39 75.3893 687.24 75.8193 687.14 76.2693C686.98 76.9993 686.96 77.7993 687.03 78.5993L687.02 78.6093Z" fill="url(#paint72_linear_1088_1493)"/>
<path d="M660.28 70.6694C660.38 74.0694 660.48 77.4694 660.58 80.8694C660.69 84.7094 660.81 88.5594 660.92 92.3994C661.07 97.4994 661.22 102.599 661.37 107.709C661.45 110.569 661.54 113.429 661.62 116.289C661.69 118.549 661.76 120.829 662.05 123.079C662.25 124.589 662.54 126.079 663 127.529C664.15 131.139 666.47 134.549 669.91 136.129C673.35 137.709 679.78 137.649 681.91 129.069C686.26 111.569 690.63 93.9194 691.48 75.8994C691.83 68.5094 691.46 60.6794 687.55 54.3994C687.5 54.3194 687.45 54.2394 687.4 54.1694C687.35 54.0894 687.3 54.0194 687.25 53.9394C687.17 53.8094 687.08 53.6894 686.99 53.5694C686.95 53.5094 686.91 53.4594 686.87 53.3994C686.79 53.2894 686.71 53.1894 686.63 53.0794C686.59 53.0294 686.55 52.9694 686.51 52.9194C686.47 52.8694 686.43 52.8194 686.38 52.7594C686.34 52.7094 686.31 52.6694 686.27 52.6194C686.23 52.5694 686.19 52.5294 686.16 52.4794C686.12 52.4294 686.09 52.3894 686.05 52.3494C685.98 52.2694 685.91 52.1894 685.84 52.1094C685.74 51.9994 685.64 51.8894 685.54 51.7794C685.44 51.6694 685.34 51.5694 685.24 51.4694C684.96 51.1794 684.67 50.8994 684.36 50.6294C684.23 50.5194 684.11 50.4094 683.98 50.2994C683.89 50.2294 683.81 50.1494 683.72 50.0794C683.64 50.0094 683.56 49.9494 683.48 49.8894C683.38 49.8094 683.28 49.7394 683.19 49.6594C683.1 49.5894 683 49.5194 682.91 49.4494C682.62 49.2394 682.32 49.0294 682.02 48.8394C681.96 48.7994 681.89 48.7594 681.83 48.7194C681.65 48.6094 681.46 48.4894 681.27 48.3894C681.05 48.2594 680.83 48.1394 680.6 48.0294C680.52 47.9894 680.44 47.9494 680.36 47.9094C680.3 47.8794 680.23 47.8494 680.17 47.8194C679.9 47.6894 679.62 47.5594 679.35 47.4494C679.28 47.4194 679.21 47.3894 679.15 47.3694C678.83 47.2394 678.5 47.1194 678.18 47.0094C677.47 46.7794 676.74 46.5894 676.01 46.4694C675.6 46.3994 675.2 46.3494 674.79 46.3194C674.55 46.2994 674.31 46.2894 674.07 46.2794C672.21 46.2394 670.37 46.5994 668.65 47.4494C668.62 47.4594 668.59 47.4794 668.56 47.4894C668.36 47.5894 668.17 47.6994 667.98 47.8094C666.62 48.5994 665.44 49.6594 664.45 50.8894C664.22 51.1794 663.99 51.4794 663.78 51.7894C663.01 52.9094 662.37 54.1294 661.87 55.4094C661.75 55.6994 661.65 55.9894 661.55 56.2894C661.44 56.6294 661.33 56.9694 661.23 57.3094C661.19 57.4494 661.16 57.5794 661.12 57.7194C660.03 61.9294 660.15 66.3394 660.28 70.6794V70.6694Z" fill="url(#paint73_linear_1088_1493)"/>
<path style="mix-blend-mode:multiply" opacity="0.32" d="M662.051 123.07C662.251 124.58 662.541 126.07 663.001 127.52C664.151 131.13 666.471 134.54 669.911 136.12C673.351 137.7 679.781 137.64 681.911 129.06C686.261 111.56 690.631 93.91 691.481 75.89C691.831 68.5 691.461 60.67 687.551 54.39C687.501 54.31 687.451 54.23 687.401 54.16C687.351 54.08 687.301 54.01 687.251 53.93C687.171 53.8 687.081 53.68 686.991 53.56C686.951 53.5 686.911 53.45 686.871 53.39C686.791 53.28 686.711 53.18 686.631 53.07C686.591 53.02 686.551 52.96 686.511 52.91C686.471 52.86 686.431 52.81 686.381 52.75C686.341 52.7 686.311 52.66 686.271 52.61C686.231 52.56 686.191 52.52 686.161 52.47C686.121 52.42 686.091 52.38 686.051 52.34C685.981 52.26 685.911 52.18 685.841 52.1C685.741 51.99 685.641 51.88 685.541 51.77C685.441 51.66 685.341 51.56 685.241 51.46C684.961 51.17 684.671 50.89 684.361 50.62C684.231 50.51 684.111 50.4 683.981 50.29C683.891 50.22 683.811 50.14 683.721 50.07C683.641 50 683.561 49.94 683.481 49.88C683.381 49.8 683.281 49.73 683.191 49.65C683.101 49.58 683.001 49.51 682.911 49.44C682.621 49.23 682.321 49.02 682.021 48.83C681.961 48.79 681.891 48.75 681.831 48.71C681.651 48.6 681.461 48.48 681.271 48.38C681.051 48.25 680.831 48.13 680.601 48.02C680.521 47.98 680.441 47.94 680.361 47.9C680.301 47.87 680.231 47.84 680.171 47.81C679.901 47.68 679.621 47.55 679.351 47.44C679.281 47.41 679.211 47.38 679.151 47.36C678.831 47.23 678.501 47.11 678.181 47C682.521 50.79 685.111 56.37 686.181 62.07C687.341 68.26 686.851 74.63 686.101 80.88C685.261 87.88 684.071 94.9 681.471 101.46C680.831 103.07 680.101 104.66 679.271 106.2C678.881 106.93 678.461 107.65 678.031 108.35C675.661 112.18 672.661 115.58 668.971 118.14C668.931 118.17 668.891 118.19 668.851 118.22C668.531 118.45 668.191 118.67 667.861 118.89C666.781 119.59 665.671 120.28 664.611 121.01C664.521 121.07 664.431 121.14 664.341 121.2C664.221 121.28 664.111 121.36 664.001 121.45C663.891 121.53 663.781 121.61 663.671 121.7C663.671 121.7 663.671 121.7 663.661 121.71C663.101 122.14 662.561 122.59 662.071 123.07H662.051Z" fill="url(#paint74_linear_1088_1493)"/>
<path d="M637.189 76.28C638.719 82.48 641.419 88.59 646.099 92.94C650.339 96.89 656.439 99.13 662.059 97.99C662.479 97.91 662.909 97.8 663.319 97.67C663.469 97.63 663.609 97.58 663.759 97.53C665.009 97.11 666.179 96.49 667.219 95.73C667.439 95.57 667.659 95.4 667.869 95.22C668.959 94.32 669.879 93.27 670.559 92.16C670.699 91.93 670.829 91.71 670.939 91.48C672.039 89.33 672.179 87.06 670.829 85.38C670.709 85.22 670.569 85.07 670.419 84.93C669.649 84.85 668.889 84.73 668.139 84.56C660.449 82.8 653.969 76.22 652.589 68.42C652.089 65.6 652.109 62.47 650.289 60.26C649.029 58.73 647.059 58.01 645.069 58.04C644.819 58.04 644.579 58.06 644.339 58.08C643.429 58.18 642.529 58.44 641.719 58.85C641.649 58.89 641.579 58.92 641.509 58.96C641.319 59.07 641.129 59.18 640.949 59.3C640.739 59.44 640.539 59.59 640.339 59.74C639.869 60.12 639.429 60.54 639.039 61C638.519 61.61 638.059 62.29 637.689 63.02C637.479 63.43 637.289 63.84 637.119 64.27V64.29C636.809 65.09 636.589 65.92 636.439 66.75C635.899 69.91 636.409 73.16 637.179 76.28H637.189Z" fill="url(#paint75_linear_1088_1493)"/>
<path d="M647.5 113.43L647.73 115.3L649.14 127.05L652.52 155.06H694.32L697.7 127.05L699.11 115.3L699.34 113.43H647.5Z" fill="url(#paint76_linear_1088_1493)"/>
<path style="mix-blend-mode:multiply" opacity="0.37" d="M647.73 115.3L649.141 127.05H697.701L699.11 115.3H647.73Z" fill="url(#paint77_linear_1088_1493)"/>
<path d="M704.41 109.31H642.43V122.72H704.41V109.31Z" fill="url(#paint78_linear_1088_1493)"/>
<path style="mix-blend-mode:multiply" opacity="0.32" d="M637.189 76.2798C638.719 82.4798 641.419 88.5898 646.099 92.9398C650.339 96.8898 656.439 99.1298 662.059 97.9898C662.479 97.9098 662.909 97.7998 663.319 97.6698C663.469 97.6298 663.609 97.5798 663.759 97.5298C665.009 97.1098 666.179 96.4898 667.219 95.7298C667.439 95.5698 667.659 95.3998 667.869 95.2198C668.959 94.3198 669.879 93.2698 670.559 92.1598C670.699 91.9298 670.829 91.7098 670.939 91.4798C672.039 89.3298 672.179 87.0598 670.829 85.3798C669.929 87.5598 668.199 89.4398 666.079 90.4798C665.979 90.5298 665.879 90.5798 665.779 90.6198C665.429 90.7798 665.079 90.9098 664.719 91.0298C663.389 91.4698 661.979 91.6498 660.569 91.6098C660.069 91.5898 659.579 91.5498 659.079 91.4798C657.419 91.2398 655.789 90.7098 654.309 89.9298C650.709 88.0298 647.929 84.8198 645.869 81.2998C642.769 75.9998 641.199 69.8398 641.279 63.6998C641.279 63.4698 641.279 63.2398 641.299 63.0098C641.319 62.3898 641.359 61.7698 641.419 61.1498C641.489 60.3798 641.589 59.5998 641.709 58.8398C641.639 58.8798 641.569 58.9098 641.499 58.9498C641.309 59.0598 641.119 59.1698 640.939 59.2898C640.729 59.4298 640.529 59.5798 640.329 59.7298C639.859 60.1098 639.419 60.5298 639.029 60.9898C638.509 61.5998 638.049 62.2798 637.679 63.0098C637.469 63.4198 637.279 63.8298 637.109 64.2598V64.2798C636.799 65.0798 636.579 65.9098 636.429 66.7398C635.889 69.8998 636.399 73.1498 637.169 76.2698L637.189 76.2798Z" fill="url(#paint79_linear_1088_1493)"/>
<path d="M672.87 47.4995C674.06 45.9795 675.25 44.4595 676.44 42.9395C676.71 42.5995 676.99 42.2295 676.99 41.7695C676.99 41.4695 676.84 41.1895 676.57 41.0795C676.14 40.8995 675.71 41.2695 675.4 41.6095C674.02 43.1095 672.64 44.5995 671.26 46.0995C671.7 43.9295 672.14 41.6995 671.72 39.4995C671.64 39.0895 671.31 38.7395 670.9 38.6895C670.16 38.5895 669.84 39.4595 669.72 40.1495C669.4 42.1395 669.2 44.1595 669.13 46.1795C668.5 45.4995 668.3 44.5395 667.97 43.6695C667.6 42.6895 666.88 41.6695 665.75 41.7495C665.14 41.7895 664.61 42.1695 664.31 42.6995C663.72 43.7495 664.06 44.9895 664.74 45.8995C665.3 46.6495 666.06 47.2095 666.81 47.7595C665.66 46.8695 664.37 45.9295 662.81 46.3995C662.02 46.6295 661.48 47.3795 661.59 48.1995C661.76 49.4295 663.16 49.7695 664.31 49.8595C664.7 49.8895 665.09 49.9195 665.49 49.9395C667.95 50.0795 670.42 49.3695 672.33 47.7995C672.51 47.6495 672.69 47.5395 672.87 47.4995Z" fill="url(#paint80_linear_1088_1493)"/>
<path d="M713.17 217.92V254.86C713.17 260.99 717.99 266 724.05 266.3C724.24 266.3 724.44 266.32 724.63 266.32H759.21C759.4 266.32 759.6 266.32 759.79 266.3C765.85 266 770.67 260.99 770.67 254.86V217.92C770.67 211.79 765.85 206.78 759.79 206.48C759.6 206.48 759.4 206.46 759.21 206.46H724.63C724.44 206.46 724.24 206.46 724.05 206.48C717.99 206.78 713.17 211.79 713.17 217.92Z" fill="url(#paint81_linear_1088_1493)"/>
<path d="M713.17 217.92V254.86C713.17 260.99 717.99 266 724.05 266.3C724.24 266.3 724.44 266.32 724.63 266.32H759.21C759.4 266.32 759.6 266.32 759.79 266.3C765.85 266 770.67 260.99 770.67 254.86V217.92C770.67 211.79 765.85 206.78 759.79 206.48C759.6 206.48 759.4 206.46 759.21 206.46H724.63C724.44 206.46 724.24 206.46 724.05 206.48C717.99 206.78 713.17 211.79 713.17 217.92Z" fill="url(#paint82_linear_1088_1493)"/>
<path d="M707.189 218.35V255.29C707.189 261.42 712.009 266.43 718.069 266.73C718.259 266.73 718.459 266.75 718.649 266.75H753.229C753.419 266.75 753.619 266.75 753.809 266.73C759.869 266.43 764.689 261.42 764.689 255.29V218.35C764.689 212.22 759.869 207.21 753.809 206.91C753.619 206.91 753.419 206.89 753.229 206.89H718.649C718.459 206.89 718.259 206.89 718.069 206.91C712.009 207.21 707.189 212.22 707.189 218.35Z" fill="url(#paint83_linear_1088_1493)"/>
<path d="M709.6 219.89V253.73C709.6 256.25 710.49 258.57 711.97 260.37C713.79 262.59 716.51 264.06 719.56 264.21C719.74 264.21 719.91 264.23 720.1 264.23H751.78C751.96 264.23 752.13 264.23 752.32 264.21C757.87 263.93 762.28 259.35 762.28 253.73V219.89C762.28 214.27 757.86 209.69 752.32 209.4C752.14 209.4 751.97 209.38 751.78 209.38H720.1C719.92 209.38 719.74 209.38 719.56 209.4C714.01 209.68 709.59 214.26 709.59 219.89H709.6Z" fill="url(#paint84_linear_1088_1493)"/>
<path style="mix-blend-mode:multiply" d="M711.98 260.379C713.8 262.599 716.52 264.069 719.57 264.219C719.75 264.219 719.92 264.239 720.11 264.239H751.79C751.97 264.239 752.141 264.239 752.331 264.219C757.881 263.939 762.29 259.359 762.29 253.739V223.029C762.21 224.169 762.11 225.309 761.99 226.439C761.19 234.119 759.4 241.979 754.73 248.129C747.43 257.709 734.47 261.249 722.42 261.139C718.93 261.109 715.44 260.809 711.98 260.389V260.379Z" fill="url(#paint85_linear_1088_1493)"/>
<path d="M735.479 236.809C736.469 236.809 737.269 236.01 737.269 235.02C737.269 234.03 736.469 233.229 735.479 233.229C734.489 233.229 733.689 234.03 733.689 235.02C733.689 236.01 734.489 236.809 735.479 236.809Z" fill="url(#paint86_linear_1088_1493)"/>
<path d="M733.42 231.02L742.41 250.49L742.66 250.38L733.67 230.89L733.4 231.02H733.42Z" fill="url(#paint87_linear_1088_1493)"/>
<path d="M739.94 222.639L741.16 223.129L735.23 237.999L734.01 237.509C733.76 237.409 733.65 237.129 733.74 236.889L739.31 222.919C739.41 222.669 739.69 222.559 739.93 222.649L739.94 222.639Z" fill="url(#paint88_linear_1088_1493)"/>
<path d="M718.85 234.23L718.88 233.64L739.53 234.83L739.49 235.42C739.49 235.54 739.38 235.63 739.26 235.63L719.05 234.46C718.93 234.46 718.84 234.35 718.84 234.23H718.85Z" fill="url(#paint89_linear_1088_1493)"/>
<defs>
<linearGradient id="paint0_linear_1088_1493" x1="273.19" y1="404.179" x2="219.08" y2="246.389" gradientUnits="userSpaceOnUse">
<stop stop-color="#A36427"/>
<stop offset="1" stop-color="#51170C"/>
</linearGradient>
<linearGradient id="paint1_linear_1088_1493" x1="220.389" y1="389.059" x2="233.819" y2="282.909" gradientUnits="userSpaceOnUse">
<stop stop-color="#FDCEAB"/>
<stop offset="1" stop-color="#F79F81"/>
</linearGradient>
<linearGradient id="paint2_linear_1088_1493" x1="224.969" y1="317.609" x2="232.529" y2="257.899" gradientUnits="userSpaceOnUse">
<stop stop-color="#FDCEAB"/>
<stop offset="1" stop-color="#F79F81"/>
</linearGradient>
<linearGradient id="paint3_linear_1088_1493" x1="349.88" y1="340.879" x2="255.86" y2="196.469" gradientUnits="userSpaceOnUse">
<stop stop-color="#A36427"/>
<stop offset="1" stop-color="#51170C"/>
</linearGradient>
<linearGradient id="paint4_linear_1088_1493" x1="349.401" y1="278.049" x2="309.111" y2="226.359" gradientUnits="userSpaceOnUse">
<stop stop-color="#A36427"/>
<stop offset="1" stop-color="#51170C"/>
</linearGradient>
<linearGradient id="paint5_linear_1088_1493" x1="299.4" y1="184.299" x2="280.24" y2="218.289" gradientUnits="userSpaceOnUse">
<stop stop-color="#FDCEAB"/>
<stop offset="1" stop-color="#F79F81"/>
</linearGradient>
<linearGradient id="paint6_linear_1088_1493" x1="299.4" y1="184.299" x2="280.24" y2="218.289" gradientUnits="userSpaceOnUse">
<stop stop-color="#FDCEAB"/>
<stop offset="1" stop-color="#F79F81"/>
</linearGradient>
<radialGradient id="paint7_radial_1088_1493" cx="0" cy="0" r="1" gradientUnits="userSpaceOnUse" gradientTransform="translate(236.33 209.138) scale(60.65 181.95)">
<stop stop-color="#FDCEAB"/>
<stop offset="1" stop-color="#F79F81"/>
</radialGradient>
<linearGradient id="paint8_linear_1088_1493" x1="296.045" y1="240.164" x2="297.93" y2="228.79" gradientUnits="userSpaceOnUse">
<stop stop-color="#FDCEAB"/>
<stop offset="1" stop-color="#F79F81"/>
</linearGradient>
<linearGradient id="paint9_linear_1088_1493" x1="241.168" y1="135.845" x2="244.419" y2="166.156" gradientUnits="userSpaceOnUse">
<stop stop-color="#A36427"/>
<stop offset="1" stop-color="#51170C"/>
</linearGradient>
<linearGradient id="paint10_linear_1088_1493" x1="269.4" y1="212.988" x2="267.12" y2="189.488" gradientUnits="userSpaceOnUse">
<stop stop-color="#FDCEAB" stop-opacity="0"/>
<stop offset="1" stop-color="#F37655" stop-opacity="0.86"/>
</linearGradient>
<linearGradient id="paint11_linear_1088_1493" x1="225.95" y1="213.099" x2="228.28" y2="189.169" gradientUnits="userSpaceOnUse">
<stop stop-color="#FDCEAB" stop-opacity="0"/>
<stop offset="1" stop-color="#F37655" stop-opacity="0.86"/>
</linearGradient>
<linearGradient id="paint12_linear_1088_1493" x1="285.417" y1="191.095" x2="253.029" y2="200.369" gradientUnits="userSpaceOnUse">
<stop stop-color="#A36427"/>
<stop offset="1" stop-color="#51170C"/>
</linearGradient>
<linearGradient id="paint13_linear_1088_1493" x1="312.201" y1="172.139" x2="209.181" y2="172.139" gradientUnits="userSpaceOnUse">
<stop stop-color="#A36427"/>
<stop offset="1" stop-color="#51170C"/>
</linearGradient>
<linearGradient id="paint14_linear_1088_1493" x1="309.08" y1="170.769" x2="212.1" y2="170.769" gradientUnits="userSpaceOnUse">
<stop stop-color="#A36427"/>
<stop offset="1" stop-color="#51170C"/>
</linearGradient>
<linearGradient id="paint15_linear_1088_1493" x1="154.81" y1="151.708" x2="237.16" y2="276.498" gradientUnits="userSpaceOnUse">
<stop stop-color="#A36427"/>
<stop offset="1" stop-color="#51170C"/>
</linearGradient>
<linearGradient id="paint16_linear_1088_1493" x1="178.45" y1="209.389" x2="206.77" y2="228.709" gradientUnits="userSpaceOnUse">
<stop stop-color="#F79F81"/>
<stop offset="1" stop-color="#FDCEAB"/>
</linearGradient>
<linearGradient id="paint17_linear_1088_1493" x1="181.58" y1="211.168" x2="198.981" y2="223.038" gradientUnits="userSpaceOnUse">
<stop stop-color="#FDCEAB"/>
<stop offset="1" stop-color="#F79F81"/>
</linearGradient>
<linearGradient id="paint18_linear_1088_1493" x1="210.777" y1="198.124" x2="237.658" y2="189.114" gradientUnits="userSpaceOnUse">
<stop stop-color="#A36427"/>
<stop offset="1" stop-color="#51170C"/>
</linearGradient>
<linearGradient id="paint19_linear_1088_1493" x1="164.129" y1="158.098" x2="195.209" y2="205.188" gradientUnits="userSpaceOnUse">
<stop stop-color="#A36427"/>
<stop offset="1" stop-color="#51170C"/>
</linearGradient>
<linearGradient id="paint20_linear_1088_1493" x1="223.521" y1="118.569" x2="177.071" y2="255.838" gradientUnits="userSpaceOnUse">
<stop stop-color="#A36427"/>
<stop offset="1" stop-color="#51170C"/>
</linearGradient>
<linearGradient id="paint21_linear_1088_1493" x1="227.986" y1="208.515" x2="237.225" y2="208.06" gradientUnits="userSpaceOnUse">
<stop offset="0.21" stop-color="#3A1A12"/>
<stop offset="1" stop-color="#51170C"/>
</linearGradient>
<linearGradient id="paint22_linear_1088_1493" x1="260.506" y1="207.724" x2="269.085" y2="207.302" gradientUnits="userSpaceOnUse">
<stop offset="0.21" stop-color="#3A1A12"/>
<stop offset="1" stop-color="#51170C"/>
</linearGradient>
<linearGradient id="paint23_linear_1088_1493" x1="272.783" y1="299.023" x2="252.861" y2="302.556" gradientUnits="userSpaceOnUse">
<stop stop-color="#CF6076"/>
<stop offset="1" stop-color="#E24A80"/>
</linearGradient>
<linearGradient id="paint24_linear_1088_1493" x1="344.03" y1="276.619" x2="305.54" y2="227.239" gradientUnits="userSpaceOnUse">
<stop stop-color="#A36427"/>
<stop offset="1" stop-color="#51170C"/>
</linearGradient>
<linearGradient id="paint25_linear_1088_1493" x1="174.96" y1="306.799" x2="175.04" y2="306.929" gradientUnits="userSpaceOnUse">
<stop stop-color="#A36427"/>
<stop offset="1" stop-color="#51170C"/>
</linearGradient>
<linearGradient id="paint26_linear_1088_1493" x1="331.853" y1="254.845" x2="322.353" y2="210.349" gradientUnits="userSpaceOnUse">
<stop stop-color="#F6C6A2"/>
<stop offset="1" stop-color="#EF947B"/>
</linearGradient>
<linearGradient id="paint27_linear_1088_1493" x1="299.119" y1="239.876" x2="298.529" y2="251.373" gradientUnits="userSpaceOnUse">
<stop stop-color="#F6C6A2"/>
<stop offset="0.4" stop-color="#F5C3A0"/>
<stop offset="0.63" stop-color="#F4BB99"/>
<stop offset="0.81" stop-color="#F2AD8F"/>
<stop offset="0.96" stop-color="#EF9A80"/>
<stop offset="1" stop-color="#EF947B"/>
</linearGradient>
<linearGradient id="paint28_linear_1088_1493" x1="344.525" y1="242.16" x2="286.376" y2="225.387" gradientUnits="userSpaceOnUse">
<stop stop-color="#888888"/>
<stop offset="1" stop-color="#6F7070"/>
</linearGradient>
<linearGradient id="paint29_linear_1088_1493" x1="324.368" y1="211.617" x2="303.115" y2="244.922" gradientUnits="userSpaceOnUse">
<stop stop-color="#606060"/>
<stop offset="1" stop-color="#3C3C3B"/>
</linearGradient>
<linearGradient id="paint30_linear_1088_1493" x1="317.442" y1="183.173" x2="317.489" y2="197.476" gradientUnits="userSpaceOnUse">
<stop stop-color="#F6C6A2"/>
<stop offset="1" stop-color="#EF947B"/>
</linearGradient>
<linearGradient id="paint31_linear_1088_1493" x1="296.405" y1="230.122" x2="295.389" y2="249.811" gradientUnits="userSpaceOnUse">
<stop stop-color="#F6C6A2"/>
<stop offset="0.4" stop-color="#F5C3A0"/>
<stop offset="0.63" stop-color="#F4BB99"/>
<stop offset="0.81" stop-color="#F2AD8F"/>
<stop offset="0.96" stop-color="#EF9A80"/>
<stop offset="1" stop-color="#EF947B"/>
</linearGradient>
<linearGradient id="paint32_linear_1088_1493" x1="320.133" y1="196.209" x2="319.847" y2="209.001" gradientUnits="userSpaceOnUse">
<stop stop-color="#F6C6A2"/>
<stop offset="0.17" stop-color="#F3B695"/>
<stop offset="0.43" stop-color="#F1A386"/>
<stop offset="0.71" stop-color="#EF977D"/>
<stop offset="1" stop-color="#EF947B"/>
</linearGradient>
<linearGradient id="paint33_linear_1088_1493" x1="324.231" y1="204.989" x2="322.579" y2="220.926" gradientUnits="userSpaceOnUse">
<stop stop-color="#F6C6A2"/>
<stop offset="0.6" stop-color="#F1A588"/>
<stop offset="1" stop-color="#EF947B"/>
</linearGradient>
<linearGradient id="paint34_linear_1088_1493" x1="327.856" y1="214.392" x2="327.626" y2="229.875" gradientUnits="userSpaceOnUse">
<stop stop-color="#F6C6A2"/>
<stop offset="0.51" stop-color="#F2AA8C"/>
<stop offset="1" stop-color="#EF947B"/>
</linearGradient>
<linearGradient id="paint35_linear_1088_1493" x1="175.049" y1="306.788" x2="174.219" y2="306.788" gradientUnits="userSpaceOnUse">
<stop stop-color="#A36427"/>
<stop offset="1" stop-color="#51170C"/>
</linearGradient>
<linearGradient id="paint36_linear_1088_1493" x1="354.098" y1="276.433" x2="326.167" y2="262.756" gradientUnits="userSpaceOnUse">
<stop stop-color="#F5F5F5"/>
<stop offset="1" stop-color="#DFDFDE"/>
</linearGradient>
<linearGradient id="paint37_linear_1088_1493" x1="347.95" y1="324.848" x2="306.62" y2="508.808" gradientUnits="userSpaceOnUse">
<stop stop-color="#EEF3FA"/>
<stop offset="0.21" stop-color="#E8EDF6"/>
<stop offset="0.47" stop-color="#D8DDEB"/>
<stop offset="0.77" stop-color="#BFC3D8"/>
<stop offset="1" stop-color="#A6AAC7"/>
</linearGradient>
<linearGradient id="paint38_linear_1088_1493" x1="378.76" y1="309.069" x2="276.2" y2="586.829" gradientUnits="userSpaceOnUse">
<stop stop-color="#EEF3FA"/>
<stop offset="0.21" stop-color="#E8EDF6"/>
<stop offset="0.47" stop-color="#D8DDEB"/>
<stop offset="0.77" stop-color="#BFC3D8"/>
<stop offset="1" stop-color="#A6AAC7"/>
</linearGradient>
<linearGradient id="paint39_linear_1088_1493" x1="355.301" y1="344.639" x2="293.251" y2="512.679" gradientUnits="userSpaceOnUse">
<stop stop-color="#EEF3FA"/>
<stop offset="0.21" stop-color="#E8EDF6"/>
<stop offset="0.47" stop-color="#D8DDEB"/>
<stop offset="0.77" stop-color="#BFC3D8"/>
<stop offset="1" stop-color="#A6AAC7"/>
</linearGradient>
<linearGradient id="paint40_linear_1088_1493" x1="263.65" y1="330.249" x2="210.7" y2="548.789" gradientUnits="userSpaceOnUse">
<stop stop-color="#4C5FA8"/>
<stop offset="0.14" stop-color="#5973B8"/>
<stop offset="0.44" stop-color="#5973B8"/>
<stop offset="0.85" stop-color="#5973B8"/>
<stop offset="1" stop-color="#242C5C"/>
</linearGradient>
<linearGradient id="paint41_linear_1088_1493" x1="260.869" y1="381.139" x2="246.639" y2="439.869" gradientUnits="userSpaceOnUse">
<stop stop-color="#F5F5F5"/>
<stop offset="1" stop-color="#DFDFDE"/>
</linearGradient>
<linearGradient id="paint42_linear_1088_1493" x1="268.641" y1="417.769" x2="246.641" y2="417.769" gradientUnits="userSpaceOnUse">
<stop stop-color="#3F4858"/>
<stop offset="1" stop-color="#22272C"/>
</linearGradient>
<linearGradient id="paint43_linear_1088_1493" x1="246.999" y1="306.099" x2="204.619" y2="306.099" gradientUnits="userSpaceOnUse">
<stop stop-color="#3F4858"/>
<stop offset="1" stop-color="#22272C"/>
</linearGradient>
<linearGradient id="paint44_linear_1088_1493" x1="264.831" y1="307.359" x2="250.061" y2="307.359" gradientUnits="userSpaceOnUse">
<stop stop-color="#3F4858"/>
<stop offset="1" stop-color="#22272C"/>
</linearGradient>
<linearGradient id="paint45_linear_1088_1493" x1="213.839" y1="296.688" x2="133.799" y2="720.698" gradientUnits="userSpaceOnUse">
<stop stop-color="#EEF3FA"/>
<stop offset="0.21" stop-color="#E8EDF6"/>
<stop offset="0.47" stop-color="#D8DDEB"/>
<stop offset="0.77" stop-color="#BFC3D8"/>
<stop offset="1" stop-color="#A6AAC7"/>
</linearGradient>
<linearGradient id="paint46_linear_1088_1493" x1="225.79" y1="390.279" x2="320.13" y2="605.239" gradientUnits="userSpaceOnUse">
<stop stop-color="#EEF3FA"/>
<stop offset="0.21" stop-color="#E8EDF6"/>
<stop offset="0.47" stop-color="#D8DDEB"/>
<stop offset="0.77" stop-color="#BFC3D8"/>
<stop offset="1" stop-color="#A6AAC7"/>
</linearGradient>
<linearGradient id="paint47_linear_1088_1493" x1="192.89" y1="535.198" x2="164.25" y2="297.608" gradientUnits="userSpaceOnUse">
<stop stop-color="#EEF3FA"/>
<stop offset="0.21" stop-color="#E8EDF6"/>
<stop offset="0.47" stop-color="#D8DDEB"/>
<stop offset="0.77" stop-color="#BFC3D8"/>
<stop offset="1" stop-color="#A6AAC7"/>
</linearGradient>
<linearGradient id="paint48_linear_1088_1493" x1="84.8201" y1="428.269" x2="260.13" y2="606.979" gradientUnits="userSpaceOnUse">
<stop stop-color="#EEF3FA"/>
<stop offset="0.21" stop-color="#E8EDF6"/>
<stop offset="0.47" stop-color="#D8DDEB"/>
<stop offset="0.77" stop-color="#BFC3D8"/>
<stop offset="1" stop-color="#A6AAC7"/>
</linearGradient>
<linearGradient id="paint49_linear_1088_1493" x1="226.491" y1="375.895" x2="331.296" y2="553.288" gradientUnits="userSpaceOnUse">
<stop stop-color="#EEF3FA"/>
<stop offset="0.21" stop-color="#E8EDF6"/>
<stop offset="0.47" stop-color="#D8DDEB"/>
<stop offset="0.77" stop-color="#BFC3D8"/>
<stop offset="1" stop-color="#A6AAC7"/>
</linearGradient>
<linearGradient id="paint50_linear_1088_1493" x1="329.771" y1="379.668" x2="124.961" y2="546.018" gradientUnits="userSpaceOnUse">
<stop stop-color="#EEF3FA"/>
<stop offset="0.21" stop-color="#E8EDF6"/>
<stop offset="0.47" stop-color="#D8DDEB"/>
<stop offset="0.77" stop-color="#BFC3D8"/>
<stop offset="1" stop-color="#A6AAC7"/>
</linearGradient>
<linearGradient id="paint51_linear_1088_1493" x1="278.101" y1="377.819" x2="363.481" y2="572.359" gradientUnits="userSpaceOnUse">
<stop stop-color="#EEF3FA"/>
<stop offset="0.21" stop-color="#E8EDF6"/>
<stop offset="0.47" stop-color="#D8DDEB"/>
<stop offset="0.77" stop-color="#BFC3D8"/>
<stop offset="1" stop-color="#A6AAC7"/>
</linearGradient>
<linearGradient id="paint52_linear_1088_1493" x1="303.31" y1="361.661" x2="121.53" y2="413.157" gradientUnits="userSpaceOnUse">
<stop stop-color="#EEF3FA"/>
<stop offset="0.21" stop-color="#E8EDF6"/>
<stop offset="0.47" stop-color="#D8DDEB"/>
<stop offset="0.77" stop-color="#BFC3D8"/>
<stop offset="1" stop-color="#A6AAC7"/>
</linearGradient>
<linearGradient id="paint53_linear_1088_1493" x1="108.329" y1="454.719" x2="200.849" y2="549.049" gradientUnits="userSpaceOnUse">
<stop stop-color="#EEF3FA"/>
<stop offset="0.21" stop-color="#E8EDF6"/>
<stop offset="0.47" stop-color="#D8DDEB"/>
<stop offset="0.77" stop-color="#BFC3D8"/>
<stop offset="1" stop-color="#A6AAC7"/>
</linearGradient>
<linearGradient id="paint54_linear_1088_1493" x1="345.791" y1="223.38" x2="498.281" y2="921.59" gradientUnits="userSpaceOnUse">
<stop offset="0.12" stop-color="#7C9DD1"/>
<stop offset="1" stop-color="#5269B2"/>
</linearGradient>
<linearGradient id="paint55_linear_1088_1493" x1="320.661" y1="164.03" x2="428.221" y2="164.03" gradientUnits="userSpaceOnUse">
<stop stop-color="#AFCBEB"/>
<stop offset="0.17" stop-color="#A7C7E8"/>
<stop offset="1" stop-color="#97BAE1"/>
</linearGradient>
<linearGradient id="paint56_linear_1088_1493" x1="487.38" y1="393.85" x2="468.55" y2="516.9" gradientUnits="userSpaceOnUse">
<stop stop-color="#888888"/>
<stop offset="1" stop-color="#6F7070"/>
</linearGradient>
<linearGradient id="paint57_linear_1088_1493" x1="441.999" y1="515.23" x2="441.999" y2="508.01" gradientUnits="userSpaceOnUse">
<stop stop-color="#888888"/>
<stop offset="1" stop-color="#6F7070"/>
</linearGradient>
<linearGradient id="paint58_linear_1088_1493" x1="483.6" y1="453.199" x2="483.6" y2="437.329" gradientUnits="userSpaceOnUse">
<stop stop-color="#606060"/>
<stop offset="1" stop-color="#3C3C3B"/>
</linearGradient>
<linearGradient id="paint59_linear_1088_1493" x1="532.289" y1="52.5101" x2="561.719" y2="78.8101" gradientUnits="userSpaceOnUse">
<stop stop-color="#D6DF29"/>
<stop offset="1" stop-color="#78A340"/>
</linearGradient>
<linearGradient id="paint60_linear_1088_1493" x1="530.81" y1="33.3396" x2="562.95" y2="63.1296" gradientUnits="userSpaceOnUse">
<stop stop-color="#D6DF29"/>
<stop offset="0.22" stop-color="#C6D52C"/>
<stop offset="0.63" stop-color="#9FBC36"/>
<stop offset="1" stop-color="#78A340"/>
</linearGradient>
<linearGradient id="paint61_linear_1088_1493" x1="580.969" y1="4.3697" x2="573.679" y2="102.82" gradientUnits="userSpaceOnUse">
<stop stop-color="#D6DF29"/>
<stop offset="1" stop-color="#78A340"/>
</linearGradient>
<linearGradient id="paint62_linear_1088_1493" x1="613.261" y1="19.5601" x2="588.521" y2="69.5601" gradientUnits="userSpaceOnUse">
<stop stop-color="#D6DF29"/>
<stop offset="1" stop-color="#78A340"/>
</linearGradient>
<linearGradient id="paint63_linear_1088_1493" x1="621.689" y1="48.9501" x2="586.529" y2="86.7101" gradientUnits="userSpaceOnUse">
<stop stop-color="#D6DF29"/>
<stop offset="1" stop-color="#78A340"/>
</linearGradient>
<linearGradient id="paint64_linear_1088_1493" x1="582.43" y1="96.1794" x2="561.159" y2="148.379" gradientUnits="userSpaceOnUse">
<stop stop-color="#F5F5F5"/>
<stop offset="1" stop-color="#DFDFDE"/>
</linearGradient>
<linearGradient id="paint65_linear_1088_1493" x1="562.839" y1="104.249" x2="546.229" y2="145.009" gradientUnits="userSpaceOnUse">
<stop stop-color="#F5F5F5"/>
<stop offset="1" stop-color="#DFDFDE"/>
</linearGradient>
<linearGradient id="paint66_linear_1088_1493" x1="604.229" y1="445.14" x2="573.849" y2="502.68" gradientUnits="userSpaceOnUse">
<stop stop-color="#AA754F"/>
<stop offset="1" stop-color="#543D2E"/>
</linearGradient>
<linearGradient id="paint67_linear_1088_1493" x1="604.861" y1="419.059" x2="586.691" y2="456.609" gradientUnits="userSpaceOnUse">
<stop stop-color="#FFCF7D"/>
<stop offset="0.4" stop-color="#FDC479"/>
<stop offset="1" stop-color="#FAAD71"/>
</linearGradient>
<linearGradient id="paint68_linear_1088_1493" x1="348.011" y1="233.52" x2="493.371" y2="899.06" gradientUnits="userSpaceOnUse">
<stop offset="0.12" stop-color="#7C9DD1"/>
<stop offset="1" stop-color="#5269B2"/>
</linearGradient>
<linearGradient id="paint69_linear_1088_1493" x1="637.649" y1="165.66" x2="645.449" y2="374.44" gradientUnits="userSpaceOnUse">
<stop stop-color="#E4EEF2"/>
<stop offset="1" stop-color="#91ADC2"/>
</linearGradient>
<linearGradient id="paint70_linear_1088_1493" x1="673.919" y1="278.199" x2="681.139" y2="471.639" gradientUnits="userSpaceOnUse">
<stop stop-color="#E4EEF2"/>
<stop offset="1" stop-color="#91ADC2"/>
</linearGradient>
<linearGradient id="paint71_linear_1088_1493" x1="689.421" y1="53.71" x2="698.911" y2="80.08" gradientUnits="userSpaceOnUse">
<stop stop-color="#D6DF29"/>
<stop offset="1" stop-color="#78A340"/>
</linearGradient>
<linearGradient id="paint72_linear_1088_1493" x1="691.14" y1="54.7593" x2="700.11" y2="79.6493" gradientUnits="userSpaceOnUse">
<stop stop-color="#A0CD4D"/>
<stop offset="1" stop-color="#358640"/>
</linearGradient>
<linearGradient id="paint73_linear_1088_1493" x1="660.84" y1="50.1794" x2="690.12" y2="131.469" gradientUnits="userSpaceOnUse">
<stop stop-color="#D6DF29"/>
<stop offset="1" stop-color="#78A340"/>
</linearGradient>
<linearGradient id="paint74_linear_1088_1493" x1="661.821" y1="52.89" x2="690.121" y2="131.47" gradientUnits="userSpaceOnUse">
<stop stop-color="#A0CD4D"/>
<stop offset="1" stop-color="#358640"/>
</linearGradient>
<linearGradient id="paint75_linear_1088_1493" x1="645.569" y1="57.4" x2="660.449" y2="98.73" gradientUnits="userSpaceOnUse">
<stop stop-color="#D6DF29"/>
<stop offset="1" stop-color="#78A340"/>
</linearGradient>
<linearGradient id="paint76_linear_1088_1493" x1="673.42" y1="141.91" x2="673.42" y2="123.35" gradientUnits="userSpaceOnUse">
<stop stop-color="#F5F5F5"/>
<stop offset="1" stop-color="#DFDFDE"/>
</linearGradient>
<linearGradient id="paint77_linear_1088_1493" x1="673.63" y1="118.69" x2="676.55" y2="166.09" gradientUnits="userSpaceOnUse">
<stop stop-color="#F5F5F5"/>
<stop offset="1" stop-color="#DFDFDE"/>
</linearGradient>
<linearGradient id="paint78_linear_1088_1493" x1="673.24" y1="113.21" x2="676.64" y2="168.27" gradientUnits="userSpaceOnUse">
<stop stop-color="#F5F5F5"/>
<stop offset="1" stop-color="#DFDFDE"/>
</linearGradient>
<linearGradient id="paint79_linear_1088_1493" x1="645.589" y1="57.4598" x2="660.449" y2="98.7298" gradientUnits="userSpaceOnUse">
<stop stop-color="#A0CD4D"/>
<stop offset="1" stop-color="#358640"/>
</linearGradient>
<linearGradient id="paint80_linear_1088_1493" x1="663.15" y1="35.1695" x2="674.22" y2="52.8795" gradientUnits="userSpaceOnUse">
<stop stop-color="#F49DC3"/>
<stop offset="1" stop-color="#BE2742"/>
</linearGradient>
<linearGradient id="paint81_linear_1088_1493" x1="722.59" y1="210.02" x2="768.81" y2="273.08" gradientUnits="userSpaceOnUse">
<stop stop-color="#C13F51"/>
<stop offset="1" stop-color="#913153"/>
</linearGradient>
<linearGradient id="paint82_linear_1088_1493" x1="722.59" y1="210.02" x2="768.81" y2="273.08" gradientUnits="userSpaceOnUse">
<stop stop-color="#7B9DD1"/>
<stop offset="1" stop-color="#5269B2"/>
</linearGradient>
<linearGradient id="paint83_linear_1088_1493" x1="716.609" y1="210.44" x2="762.829" y2="273.51" gradientUnits="userSpaceOnUse">
<stop stop-color="#5269B2"/>
<stop offset="1" stop-color="#7B9DD1"/>
</linearGradient>
<linearGradient id="paint84_linear_1088_1493" x1="735.18" y1="225.14" x2="739.93" y2="297.44" gradientUnits="userSpaceOnUse">
<stop stop-color="white"/>
<stop offset="1" stop-color="#B4CCD7"/>
</linearGradient>
<linearGradient id="paint85_linear_1088_1493" x1="736.8" y1="236.619" x2="740.18" y2="288.089" gradientUnits="userSpaceOnUse">
<stop stop-color="white"/>
<stop offset="1" stop-color="#B4CCD7"/>
</linearGradient>
<linearGradient id="paint86_linear_1088_1493" x1="735.479" y1="236.809" x2="735.479" y2="233.239" gradientUnits="userSpaceOnUse">
<stop stop-color="#7B9DD1"/>
<stop offset="1" stop-color="#5269B2"/>
</linearGradient>
<linearGradient id="paint87_linear_1088_1493" x1="741.62" y1="246.68" x2="732.34" y2="231.15" gradientUnits="userSpaceOnUse">
<stop stop-color="#F15F58"/>
<stop offset="1" stop-color="#EF3756"/>
</linearGradient>
<linearGradient id="paint88_linear_1088_1493" x1="737.43" y1="237.339" x2="737.43" y2="221.959" gradientUnits="userSpaceOnUse">
<stop stop-color="#606161"/>
<stop offset="1" stop-color="#3C3C3B"/>
</linearGradient>
<linearGradient id="paint89_linear_1088_1493" x1="729.19" y1="235.19" x2="729.19" y2="233.2" gradientUnits="userSpaceOnUse">
<stop stop-color="#606161"/>
<stop offset="1" stop-color="#3C3C3B"/>
</linearGradient>
</defs>
</svg>
