<svg width="102" height="83" viewBox="0 0 102 83" fill="none" xmlns="http://www.w3.org/2000/svg">
<g clip-path="url(#clip0_782_310)">
<path d="M43.7512 81.44C56.6712 81.44 65.1612 78.25 65.1612 65.45V3.5H1.70117V81.44H43.7512Z" fill="#5776D3" stroke="#495DA9" stroke-width="3" stroke-linejoin="round"/>
<path d="M50.552 81.44C63.472 81.44 71.962 78.25 71.962 65.45V3.5H10.502V81.44H50.552Z" fill="#E4F0FB" stroke="#495DA9" stroke-width="3" stroke-linecap="round" stroke-linejoin="round"/>
<path d="M24.0012 34.7197C23.0512 30.4197 25.7612 26.1597 30.0612 25.2097C31.2012 24.9597 32.3912 24.9597 33.5312 25.2097C35.9012 21.4997 40.8312 20.4197 44.5412 22.7897C45.5112 23.4097 46.3412 24.2397 46.9612 25.2097C51.2612 24.2397 55.5212 26.9397 56.4912 31.2397C56.7512 32.3897 56.7512 33.5897 56.4912 34.7397C60.2012 37.1097 61.2812 42.0397 58.9112 45.7497C58.2912 46.7197 57.4612 47.5497 56.4912 48.1697C57.4512 52.4697 54.7512 56.7297 50.4512 57.6997C49.3112 57.9597 48.1212 57.9597 46.9812 57.6997C44.6212 61.4197 39.6912 62.5097 35.9712 60.1497C34.9812 59.5197 34.1512 58.6897 33.5212 57.6997C29.2212 58.6597 24.9612 55.9597 23.9912 51.6597C23.7312 50.5197 23.7312 49.3297 23.9912 48.1897C20.2712 45.8297 19.1612 40.9097 21.5212 37.1897C22.1512 36.1897 23.0012 35.3497 23.9912 34.7197H24.0012Z" fill="#5776D3" stroke="#495DA9" stroke-width="3" stroke-linecap="round" stroke-linejoin="round"/>
<path d="M41.2817 50.0502V51.8602C41.2817 52.0602 41.1117 52.2302 40.8917 52.2302H39.9117C39.7117 52.2302 39.5417 52.0602 39.5417 51.8602V50.0702C37.3217 49.9002 35.2917 48.9802 34.4417 46.9902C34.2717 46.5802 34.5117 46.1002 34.9417 45.9402L36.9217 45.3302C37.2717 45.2202 37.6417 45.3502 37.8417 45.6802C38.2117 46.3302 39.0017 46.9202 40.2817 46.9202C41.5617 46.9202 42.5017 46.4202 42.5017 45.4202C42.5017 44.2602 41.0217 44.1102 39.2917 43.6702C36.2417 42.9102 34.8417 41.5102 34.8417 38.9602C34.8417 36.4102 36.8017 34.6402 39.5317 34.3402V32.5302C39.5317 32.3102 39.7017 32.1602 39.9017 32.1602H40.8817C41.1017 32.1602 41.2717 32.3102 41.2717 32.5302V34.3402C43.2117 34.5602 44.8517 35.5802 45.5917 37.2602C45.7917 37.7002 45.5217 38.2002 45.0717 38.3102L43.0917 38.8102C42.7617 38.8802 42.4117 38.7402 42.2417 38.4602C41.9317 37.9202 41.3217 37.4802 40.3017 37.4802C39.2117 37.4802 38.4717 38.0702 38.4717 38.9402C38.4717 40.1402 40.3017 40.4202 41.4817 40.7502C45.2117 41.8002 46.3017 42.9502 46.3017 45.3502C46.3017 47.6202 44.4917 49.6902 41.2817 50.0402V50.0502Z" fill="#E4F0FB"/>
<path d="M61.3505 70.2996C61.3505 70.2996 58.3905 80.6796 51.5605 81.4396C63.9605 81.0196 71.9605 77.4496 71.9605 65.5996C71.9605 74.3496 61.3505 70.3296 61.3505 70.3296V70.2996Z" fill="#5776D3" stroke="#495DA9" stroke-width="3" stroke-linecap="round" stroke-linejoin="round"/>
<path d="M68.5315 44.2101L71.0515 41.5801L99.4015 71.2301L98.7415 71.9201C97.7115 73.0001 96.0415 73.0001 95.0115 71.9201L68.5215 44.2101H68.5315Z" fill="#495DA9" stroke="#495DA9" stroke-width="3.5" stroke-linecap="round" stroke-linejoin="round"/>
<path d="M70.0504 59.6203C80.0704 59.6203 88.2004 51.5003 88.2004 41.4703C88.2004 31.4403 80.0704 23.3203 70.0504 23.3203C60.0304 23.3203 51.9004 31.4403 51.9004 41.4703C51.9004 51.5003 60.0304 59.6203 70.0504 59.6203Z" fill="url(#paint0_linear_782_310)" stroke="#495DA9" stroke-width="3" stroke-linecap="round" stroke-linejoin="round"/>
<path d="M61.6914 41.2207L67.4414 46.9707L78.4214 35.9707" stroke="#495DA9" stroke-width="3" stroke-linecap="round" stroke-linejoin="round"/>
</g>
<defs>
<linearGradient id="paint0_linear_782_310" x1="51.9004" y1="41.4703" x2="88.2004" y2="41.4703" gradientUnits="userSpaceOnUse">
<stop stop-color="#909FD1"/>
<stop offset="1" stop-color="#57C1AD"/>
</linearGradient>
<clipPath id="clip0_782_310">
<rect width="100.95" height="82.94" fill="white" transform="translate(0.201172)"/>
</clipPath>
</defs>
</svg>
