<svg width="106" height="98" viewBox="0 0 106 98" fill="none" xmlns="http://www.w3.org/2000/svg">
<path d="M15.1016 28.3799C15.1016 22.3121 20.0338 17.3799 26.1016 17.3799C32.1694 17.3799 37.1016 22.3121 37.1016 28.3799C37.1016 34.4477 32.1694 39.3799 26.1016 39.3799C20.0338 39.3799 15.1016 34.4477 15.1016 28.3799Z" fill="#E4F0FB" stroke="#495DA9" stroke-width="3.09" stroke-linejoin="round"/>
<path d="M50.1016 60.3161C46.8056 50.4822 37.3023 43.3799 26.1181 43.3799C14.9338 43.3799 5.4085 50.4822 2.10156 60.3161V63.3799H50.1016V60.3161Z" fill="#495DA9" stroke="#495DA9" stroke-width="3" stroke-linejoin="round"/>
<path d="M50.1016 57.3161C46.8743 47.4822 37.569 40.3799 26.6177 40.3799C15.6665 40.3799 6.3396 47.4822 3.10156 57.3161V60.3799H50.1016V57.3161Z" fill="#E4F0FB" stroke="#495DA9" stroke-width="3.09" stroke-linejoin="round"/>
<path d="M45.8066 20.3703C45.8066 10.3803 53.9166 2.28027 63.8966 2.28027C73.8766 2.28027 81.9866 10.3903 81.9866 20.3703C81.9866 30.3503 73.8766 38.4603 63.8966 38.4603C53.9166 38.4603 45.8066 30.3503 45.8066 20.3703Z" fill="#E4F0FB" stroke="#495DA9" stroke-width="3.09" stroke-linejoin="round"/>
<path d="M103.896 74.71C98.3965 57.9 82.5665 45.75 63.9165 45.75C45.2665 45.75 29.3965 57.89 23.8965 74.71V79.95H103.896V74.71Z" fill="#495DA9" stroke="#495DA9" stroke-width="3" stroke-linejoin="round"/>
<path d="M103.896 68.9102C98.3965 52.1002 82.5665 39.9502 63.9165 39.9502C45.2665 39.9502 29.3965 52.0902 23.8965 68.9102V74.1502H103.896V68.9102Z" fill="#5776D3" stroke="#495DA9" stroke-width="3" stroke-linejoin="round"/>
<path d="M63.0566 95.7197C72.9966 95.7197 81.0566 87.6597 81.0566 77.7197C81.0566 67.7797 72.9966 59.7197 63.0566 59.7197C53.1166 59.7197 45.0566 67.7797 45.0566 77.7197C45.0566 87.6597 53.1166 95.7197 63.0566 95.7197Z" fill="url(#paint0_linear_984_2104)" stroke="#495DA9" stroke-width="2.73" stroke-linejoin="round"/>
<path d="M63.0553 71.4297L64.6153 76.2297H69.6653L65.5753 79.1997L67.1353 83.9997L63.0553 81.0297L58.9653 83.9997L60.5253 79.1997L56.4453 76.2297H61.4953L63.0553 71.4297Z" fill="#495DA9" stroke="#495DA9" stroke-width="3" stroke-linejoin="round"/>
<defs>
<linearGradient id="paint0_linear_984_2104" x1="45.0566" y1="77.7197" x2="81.0566" y2="77.7197" gradientUnits="userSpaceOnUse">
<stop stop-color="#909FD1"/>
<stop offset="1" stop-color="#57C1AD"/>
</linearGradient>
</defs>
</svg>
