<svg width="110" height="104" viewBox="0 0 110 104" fill="none" xmlns="http://www.w3.org/2000/svg">
<g clip-path="url(#clip0_778_1170)">
<path d="M36.2539 75.3838H43.955V99.7282L64.4848 75.3838H65.7666" fill="#5C74B8"/>
<path d="M36.2539 75.3838H43.955V99.7282L64.4848 75.3838H65.7666" fill="#495DA9"/>
<path d="M36.2539 75.3838H43.955V99.7282L64.4848 75.3838H65.7666" stroke="#495DA9" stroke-width="3" stroke-linecap="round" stroke-linejoin="round"/>
<path d="M97.9214 57.2226V29.7962C97.9214 24.344 93.5125 19.916 88.0838 19.916H29.068C23.6297 19.916 19.2305 24.3343 19.2305 29.7962V65.5032C19.2305 70.9553 23.6297 75.3833 29.068 75.3833H36.7691V98.5963L57.2989 75.3833H58.5808" fill="#E8E8E8"/>
<path d="M97.9214 60.3144V29.7962C97.9214 24.344 93.5125 19.916 88.0838 19.916H29.068C23.6297 19.916 19.2305 24.3343 19.2305 29.7962V65.5032C19.2305 70.9553 23.6297 75.3833 29.068 75.3833H36.7691V98.5963L57.2989 75.3833H58.5808" fill="#E4F0FB"/>
<path d="M97.9214 60.3144V29.7962C97.9214 24.344 93.5125 19.916 88.0838 19.916H29.068C23.6297 19.916 19.2305 24.3343 19.2305 29.7962V65.5032C19.2305 70.9553 23.6297 75.3833 29.068 75.3833H36.7691V98.5963L57.2989 75.3833H58.5808" stroke="#495DA9" stroke-width="3" stroke-linecap="round" stroke-linejoin="round"/>
<path d="M49.6172 35.7266H83.267H49.6172Z" fill="#E4F0FB"/>
<path d="M49.6172 35.7266H83.267" stroke="#495DA9" stroke-width="3" stroke-linecap="round" stroke-linejoin="round"/>
<path d="M38.7012 47.5771L83.2766 47.5771L38.7012 47.5771Z" fill="#E4F0FB"/>
<path d="M38.7012 47.5771L83.2766 47.5771" stroke="#495DA9" stroke-width="3" stroke-linecap="round" stroke-linejoin="round"/>
<path d="M38.7012 59.4365L49.1412 59.4365L38.7012 59.4365Z" fill="#E4F0FB"/>
<path d="M38.7012 59.4365L49.1412 59.4365" stroke="#495DA9" stroke-width="3" stroke-linecap="round" stroke-linejoin="round"/>
<path d="M80.9267 89.165L93.7553 102.049V89.165H94.8819C100.31 89.165 104.719 84.7468 104.719 79.2849V67.2298C104.719 61.7776 100.32 57.3496 94.8819 57.3496H67.3405C61.9119 57.3496 57.5029 61.7679 57.5029 67.2298V79.2849C57.5029 84.737 61.9119 89.165 67.3405 89.165H80.9267Z" fill="#5776D3" stroke="#495DA9" stroke-width="3" stroke-linecap="round" stroke-linejoin="round"/>
<path d="M87.19 69.3363C87.19 72.8182 84.1212 73.3839 83.4803 75.6564C83.3443 76.1636 82.8685 76.4855 82.3635 76.4855H80.227C79.6443 76.4855 79.1879 75.9198 79.3238 75.3346C79.9065 72.4378 82.6354 71.3942 82.6354 69.7362C82.6354 68.7998 82.0527 68.1854 80.9553 68.1854C80.1299 68.1854 79.6249 68.6633 79.353 69.2582C79.1685 69.6874 78.6829 69.9312 78.2556 69.8239L75.9637 69.2582C75.4296 69.1217 75.1382 68.5365 75.2936 68.0001C76.1968 65.3471 78.5178 64.167 81.2661 64.167C85.238 64.167 87.19 66.7906 87.19 69.3363ZM83.6648 81.2061C83.6648 82.5228 82.5966 83.5957 81.2952 83.5957C79.9939 83.5957 78.8965 82.5228 78.8965 81.2061C78.8965 79.8894 79.9648 78.797 81.2952 78.797C82.6257 78.797 83.6648 79.8699 83.6648 81.2061Z" fill="#E4F0FB"/>
<path d="M5.47733 26.9072H13.9083V33.5742H5.47733C3.64915 33.5742 2.1582 32.0768 2.1582 30.2407C2.1582 28.3957 3.64915 26.9072 5.47733 26.9072Z" stroke="#495DA9" stroke-width="3" stroke-linejoin="round"/>
<path d="M53.2671 15.0089H24.0073C15.5497 15.2407 8.81382 22.4157 9.27531 31.0703C9.68354 38.7801 16.0112 45.0906 23.6878 45.4471C32.3938 45.8571 39.5823 38.8871 39.5823 30.2325C39.5823 21.5779 39.2274 26.4979 38.5884 24.8133H53.2671V15V15.0089Z" fill="url(#paint0_linear_778_1170)" stroke="#495DA9" stroke-width="3" stroke-linecap="round" stroke-linejoin="round"/>
<path d="M55.2012 15.0088H51.1455V24.8221H55.2012V15.0088Z" fill="#495DA9" stroke="#495DA9" stroke-width="3" stroke-linejoin="round"/>
<path d="M24.4158 35.303C27.1998 35.303 29.4566 33.0364 29.4566 30.2404C29.4566 27.4444 27.1998 25.1777 24.4158 25.1777C21.6319 25.1777 19.375 27.4444 19.375 30.2404C19.375 33.0364 21.6319 35.303 24.4158 35.303Z" fill="#E4F0FB" stroke="#495DA9" stroke-width="3" stroke-linecap="round" stroke-linejoin="round"/>
</g>
<defs>
<linearGradient id="paint0_linear_778_1170" x1="19.3443" y1="13.7933" x2="41.8944" y2="36.2462" gradientUnits="userSpaceOnUse">
<stop stop-color="#909FD1"/>
<stop offset="1" stop-color="#57C1AD"/>
</linearGradient>
<clipPath id="clip0_778_1170">
<rect width="109" height="104" fill="white" transform="translate(0.701172)"/>
</clipPath>
</defs>
</svg>
