<svg width="116" height="89" viewBox="0 0 116 89" fill="none" xmlns="http://www.w3.org/2000/svg">
<path d="M85.2073 11.3457H22.9473V73.7157H77.168L85.2073 11.3457Z" fill="#495DA9" stroke="#495DA9" stroke-width="3" stroke-linejoin="round"/>
<path d="M91.3773 18.0049H16.7773V68.7549H91.3773V18.0049Z" fill="#E4F0FB" stroke="#495DA9" stroke-width="3.09" stroke-linejoin="round"/>
<path d="M91.6678 17.9355H17.0078" stroke="#495DA9" stroke-width="4"/>
<path d="M91.3773 2.375H16.7773V18.005H91.3773V2.375Z" fill="#5776D3" stroke="#495DA9" stroke-width="3" stroke-linejoin="round"/>
<path d="M26.5467 13.6154C28.4667 13.6154 29.9867 12.0754 29.9867 10.1954C29.9867 8.31539 28.4567 6.77539 26.5467 6.77539C24.6367 6.77539 23.1367 8.30539 23.1367 10.1954C23.1367 12.0854 24.6667 13.6154 26.5467 13.6154Z" fill="#E4F0FB"/>
<path d="M38.8866 13.6154C40.8066 13.6154 42.3266 12.0754 42.3266 10.1954C42.3266 8.31539 40.7966 6.77539 38.8866 6.77539C36.9766 6.77539 35.4766 8.30539 35.4766 10.1954C35.4766 12.0854 37.0066 13.6154 38.8866 13.6154Z" fill="#E4F0FB"/>
<path d="M12.1973 30.0752H36.7073C42.4573 30.0752 47.1273 33.9552 47.1273 38.7352C47.1273 43.5152 42.4673 47.3952 36.7073 47.3952H12.1973C6.44734 47.3952 1.77734 43.5152 1.77734 38.7352C1.77734 33.9552 6.43734 30.0752 12.1973 30.0752Z" fill="#5776D3" stroke="#495DA9" stroke-width="3" stroke-linejoin="round"/>
<path d="M15.0781 38.7451H33.8281" stroke="#495DA9" stroke-width="3" stroke-linecap="round" stroke-linejoin="round"/>
<path d="M69.8359 70.1327C69.8359 75.4892 71.5697 80.6991 74.787 84.9774C76.1585 86.7974 78.7376 87.1683 80.5576 85.7968C82.3776 84.434 82.7485 81.8463 81.3857 80.0262C79.2465 77.1712 78.082 73.695 78.082 70.124" fill="url(#paint0_linear_990_2216)"/>
<path d="M69.8359 70.1327C69.8359 75.4892 71.5697 80.6991 74.787 84.9774C76.1585 86.7974 78.7376 87.1683 80.5576 85.7968C82.3776 84.434 82.7485 81.8463 81.3857 80.0262C79.2465 77.1712 78.082 73.695 78.082 70.124" stroke="#495DA9" stroke-width="3" stroke-linejoin="round"/>
<path d="M80.1516 53.6397C86.4224 53.8036 92.5552 51.7593 97.4718 47.8691C98.3862 47.1877 99.6714 47.3688 100.361 48.2832C100.629 48.6368 100.775 49.0767 100.775 49.5166V74.2636C100.775 75.4022 99.8525 76.3251 98.7139 76.3251C98.2654 76.3251 97.8341 76.1785 97.4805 75.9111C92.5638 72.0209 86.431 69.9766 80.1602 70.1405H67.791C65.5139 70.1405 63.668 68.2946 63.668 66.0175V57.7714C63.668 55.4942 65.5139 53.6483 67.791 53.6483H80.1602L80.1516 53.6397Z" fill="url(#paint1_linear_990_2216)" stroke="#495DA9" stroke-width="3" stroke-linejoin="round"/>
<path d="M110.531 52.8291L106.434 56.9263" stroke="#495DA9" stroke-width="3" stroke-linecap="round" stroke-linejoin="round"/>
<path d="M110.531 70.9427L106.434 66.8369" stroke="#495DA9" stroke-width="3" stroke-linecap="round" stroke-linejoin="round"/>
<path d="M114.224 61.8857H108.428" stroke="#495DA9" stroke-width="3" stroke-linecap="round" stroke-linejoin="round"/>
<path d="M73.959 53.6396V70.1405V53.6396Z" fill="#5C74B8"/>
<path d="M73.959 53.6396V70.1405" stroke="#495DA9" stroke-width="3" stroke-linejoin="round"/>
<path d="M38.2868 47.4951L16.7168 51.3051L16.9368 47.7151L38.2868 47.4951Z" fill="#495DA9" stroke="#495DA9" stroke-width="3" stroke-linejoin="round"/>
<path d="M59.877 29.0957H80.117" stroke="#495DA9" stroke-width="3" stroke-linecap="round" stroke-linejoin="round"/>
<path d="M80.117 38.1055H59.877" stroke="#495DA9" stroke-width="3" stroke-linecap="round" stroke-linejoin="round"/>
<defs>
<linearGradient id="paint0_linear_990_2216" x1="69.8359" y1="78.3788" x2="82.2137" y2="78.3788" gradientUnits="userSpaceOnUse">
<stop stop-color="#909FD1"/>
<stop offset="1" stop-color="#57C1AD"/>
</linearGradient>
<linearGradient id="paint1_linear_990_2216" x1="63.6507" y1="61.8858" x2="100.767" y2="61.8858" gradientUnits="userSpaceOnUse">
<stop stop-color="#909FD1"/>
<stop offset="1" stop-color="#57C1AD"/>
</linearGradient>
</defs>
</svg>
