<svg width="88" height="104" viewBox="0 0 88 104" fill="none" xmlns="http://www.w3.org/2000/svg">
<path d="M58.3406 102.492H79.0336V58.2461H9.82031V102.492H71.307" stroke="#5776D3" stroke-width="3" stroke-linecap="round" stroke-linejoin="round"/>
<path d="M58.1117 102.492H78.8194V58.2461H9.58398V102.492H71.0707" fill="#E2F1FF"/>
<path d="M58.1117 102.492H78.8194V58.2461H9.58398V102.492H71.0707" stroke="#495DA9" stroke-width="3" stroke-linecap="round" stroke-linejoin="round"/>
<path d="M2.16797 58.253L12.1814 38.4399H76.2214L86.2348 58.253H2.16797Z" fill="#E2F1FF" stroke="#495DA9" stroke-width="3" stroke-linecap="round" stroke-linejoin="round"/>
<path d="M41.4473 58.2573C50.4525 59.1401 70.3305 62.9052 77.8004 64.3162V59.9097L41.4473 58.2573Z" fill="#495DA9" stroke="#495DA9" stroke-width="3"/>
<path d="M44.1943 82.1353C50.1754 82.1353 55.0682 87.0108 55.0684 93.0181V102.5H33.335V94.5181H33.3428V93.0181C33.343 87.0005 38.2162 82.1353 44.1943 82.1353Z" fill="#5776D3" stroke="#495DA9" stroke-width="3"/>
<path d="M62.8048 20.4525C62.8048 37.1498 44.2027 51.6056 44.2027 51.6056C44.2027 51.6056 25.6006 37.1439 25.6006 20.4525C25.6006 10.2597 33.9273 2 44.2027 2C54.4781 2 62.8048 10.2597 62.8048 20.4525Z" fill="#5776D3" stroke="#495DA9" stroke-width="3"/>
<path d="M44.4273 39.2042C54.7052 39.2042 63.0342 30.8752 63.0342 20.607C63.0342 10.3387 54.6955 2 44.4273 2C34.159 2 25.8203 10.329 25.8203 20.607C25.8203 30.8849 34.1493 39.2042 44.4273 39.2042Z" fill="url(#paint0_linear_774_965)" stroke="#495DA9" stroke-width="3" stroke-linejoin="round"/>
<path d="M37.6992 18.6101C37.6992 14.8964 40.7147 11.8906 44.4284 11.8906C48.142 11.8906 51.1575 14.8964 51.1575 18.6101C51.1575 22.3237 48.142 25.3295 44.4284 25.3295C40.7147 25.3295 37.6992 22.3237 37.6992 18.6101Z" fill="#E2F1FF" stroke="#495DA9" stroke-width="3" stroke-linejoin="round"/>
<path d="M32.7236 35.083C35.9137 37.6525 39.9667 39.2039 44.3881 39.2039C48.8096 39.2039 52.9208 37.6331 56.1302 35.0248C54.3461 29.9149 49.7889 26.2886 44.4463 26.2886C39.1037 26.2886 34.498 29.944 32.7333 35.083H32.7236Z" fill="#E2F1FF" stroke="#495DA9" stroke-width="3" stroke-linejoin="round"/>
<defs>
<linearGradient id="paint0_linear_774_965" x1="44.4273" y1="2" x2="44.4273" y2="39.2042" gradientUnits="userSpaceOnUse">
<stop stop-color="#8BA3FE"/>
<stop offset="1" stop-color="#4DC8B0"/>
</linearGradient>
</defs>
</svg>
