<svg width="95" height="98" viewBox="0 0 95 98" fill="none" xmlns="http://www.w3.org/2000/svg">
<path d="M22.7637 89.5147V13.6421V89.5147Z" fill="#E2F1FF"/>
<path d="M22.7637 89.5147V13.6421" stroke="#86BBF0" stroke-width="4" stroke-linejoin="round"/>
<path d="M14.2021 13.0332H23.2021V90.0332H14.2021V13.0332Z" fill="#5776D3" stroke="#495DA9" stroke-width="3" stroke-linecap="round" stroke-linejoin="round"/>
<path d="M59.1233 88.9058C70.2778 88.9058 77.6024 85.6245 77.6024 72.4786V13.0332H22.7646V88.9058H59.1233Z" fill="#E2F1FF" stroke="#495DA9" stroke-width="3" stroke-linecap="round" stroke-linejoin="round"/>
<path d="M67.8092 77.3597C67.8092 77.3597 65.0561 88.0807 58.7373 88.8649C70.227 88.4212 77.6125 84.7375 77.6125 72.479C77.6125 81.5181 67.8092 77.3597 67.8092 77.3597Z" fill="#5776D3" stroke="#495DA9" stroke-width="3" stroke-linecap="round" stroke-linejoin="round"/>
<path d="M35.1162 27.2217H66.0399" stroke="#495DA9" stroke-width="3" stroke-linecap="round" stroke-linejoin="round"/>
<path d="M35.1162 37.5298H66.0399" stroke="#495DA9" stroke-width="3" stroke-linecap="round" stroke-linejoin="round"/>
<path d="M35.1162 47.8379H52.0206" stroke="#495DA9" stroke-width="3" stroke-linecap="round" stroke-linejoin="round"/>
<path d="M89.2021 35.1859L85.548 31.4243L55.2021 62.6627L58.8563 66.4243L89.2021 35.1859Z" fill="#5776D3" stroke="#5776D3" stroke-width="3" stroke-linejoin="round"/>
<path d="M54.755 63.1509L58.3919 66.845L50.2546 71.3852C50.2546 71.3852 50.1733 71.3645 50.1835 71.3129L54.7448 63.1406L54.755 63.1509Z" fill="#495DA9" stroke="#495DA9" stroke-width="3" stroke-linecap="round" stroke-linejoin="round"/>
<path d="M58.4111 66.8759L92.8396 31.9062L58.4111 66.8759Z" fill="#5FB54A"/>
<path d="M58.4111 66.8759L92.8396 31.9062" stroke="#495DA9" stroke-width="3" stroke-linecap="round" stroke-linejoin="round"/>
<path d="M19.8287 95.9668C29.9179 95.9668 38.094 87.7907 38.094 77.7111C38.094 67.6314 29.9084 59.4458 19.8287 59.4458C9.74905 59.4458 1.56348 67.6219 1.56348 77.7111C1.56348 87.8003 9.73954 95.9668 19.8287 95.9668Z" fill="url(#paint0_linear_774_994)" stroke="#495DA9" stroke-width="3" stroke-linejoin="round"/>
<path d="M13.2236 75.7503C13.2236 72.1049 16.1838 69.1543 19.8292 69.1543C23.4746 69.1543 26.4348 72.1049 26.4348 75.7503C26.4348 79.3958 23.4746 82.3464 19.8292 82.3464C16.1838 82.3464 13.2236 79.3958 13.2236 75.7503Z" fill="#E2F1FF" stroke="#495DA9" stroke-width="3" stroke-linejoin="round"/>
<path d="M8.33984 91.9215C11.4713 94.4438 15.4499 95.9667 19.7901 95.9667C24.1304 95.9667 28.1661 94.4248 31.3166 91.8644C29.5652 86.8484 25.0917 83.2886 19.8472 83.2886C14.6028 83.2886 10.0817 86.8769 8.34936 91.9215H8.33984Z" fill="#E2F1FF" stroke="#495DA9" stroke-width="3" stroke-linejoin="round"/>
<defs>
<linearGradient id="paint0_linear_774_994" x1="19.8287" y1="59.4458" x2="19.8287" y2="95.9668" gradientUnits="userSpaceOnUse">
<stop stop-color="#8BA3FE"/>
<stop offset="1" stop-color="#4DC8B0"/>
</linearGradient>
</defs>
</svg>
