<svg width="98" height="80" viewBox="0 0 98 80" fill="none" xmlns="http://www.w3.org/2000/svg">
<g clip-path="url(#clip0_659_651)">
<path d="M55.3843 17.5603V9.94031C55.3843 5.73031 51.9743 2.32031 47.7643 2.32031H32.5243C28.3143 2.32031 24.9043 5.73031 24.9043 9.94031V17.5603" stroke="#495DA9" stroke-width="3.09" stroke-linejoin="round"/>
<path d="M70.6232 17.5605H9.6532C5.44479 17.5605 2.0332 20.9721 2.0332 25.1805V63.2905C2.0332 67.499 5.44479 70.9105 9.6532 70.9105H70.6232C74.8316 70.9105 78.2432 67.499 78.2432 63.2905V25.1805C78.2432 20.9721 74.8316 17.5605 70.6232 17.5605Z" fill="#5776D3" stroke="#495DA9" stroke-width="3" stroke-linejoin="round"/>
<path d="M70.6232 17.5605H9.6532C5.4432 17.5605 2.0332 20.9705 2.0332 25.1805V44.2305C25.1432 59.4905 55.1332 59.4905 78.2432 44.2305V25.1805C78.2432 20.9705 74.8332 17.5605 70.6232 17.5605Z" fill="#E2F1FF" stroke="#495DA9" stroke-width="3.09" stroke-linejoin="round"/>
<path d="M40.1439 45.6101C42.0162 45.6101 43.5339 44.0923 43.5339 42.2201C43.5339 40.3478 42.0162 38.8301 40.1439 38.8301C38.2717 38.8301 36.7539 40.3478 36.7539 42.2201C36.7539 44.0923 38.2717 45.6101 40.1439 45.6101Z" fill="#495DA9"/>
<path d="M78.5832 77.8607C88.2758 77.8607 96.1332 70.0033 96.1332 60.3107C96.1332 50.6181 88.2758 42.7607 78.5832 42.7607C68.8906 42.7607 61.0332 50.6181 61.0332 60.3107C61.0332 70.0033 68.8906 77.8607 78.5832 77.8607Z" fill="url(#paint0_linear_659_651)" stroke="#495DA9" stroke-width="2.73" stroke-linejoin="round"/>
<path d="M78.5845 42.7607C69.2245 52.5907 69.2245 68.0307 78.5845 77.8607C87.9445 68.0307 87.9445 52.5907 78.5845 42.7607Z" stroke="#495DA9" stroke-width="2.73" stroke-linejoin="round"/>
<path d="M61.0449 60.3105H96.1449H61.0449Z" fill="white"/>
<path d="M61.0449 60.3105H96.1449" stroke="#495DA9" stroke-width="2.73" stroke-linejoin="round"/>
</g>
<defs>
<linearGradient id="paint0_linear_659_651" x1="78.5832" y1="42.7607" x2="78.5832" y2="77.8607" gradientUnits="userSpaceOnUse">
<stop stop-color="#8BA3FE"/>
<stop offset="1" stop-color="#4DC8B0"/>
</linearGradient>
<clipPath id="clip0_659_651">
<rect width="97.01" height="78.44" fill="white" transform="translate(0.494141 0.780273)"/>
</clipPath>
</defs>
</svg>
