<svg width="216" height="25" viewBox="0 0 216 25" fill="none" xmlns="http://www.w3.org/2000/svg">
<g clip-path="url(#clip0_654_2043)">
<path d="M215.999 22.6167C215.999 23.9277 214.917 25.0062 213.602 25.0062C212.286 25.0062 211.172 23.9277 211.172 22.6167C211.172 21.3056 212.254 20.1948 213.602 20.1948C214.95 20.1948 215.999 21.2733 215.999 22.6167ZM214.198 17.2175H212.986C212.332 17.2175 211.839 16.7267 211.807 16.0744L211.412 2.93182C211.412 2.27953 211.936 1.72412 212.591 1.72412H214.593C215.248 1.72412 215.773 2.27953 215.773 2.93182L215.377 16.0744C215.345 16.7267 214.852 17.2175 214.198 17.2175Z" fill="#495DA9"/>
<path d="M15.9081 7.48525C15.9081 12.0706 12.8301 14.1696 7.9508 14.1696H5.73469V19.4202C5.73469 19.5558 5.62453 19.672 5.48197 19.672H1.21822C0.550789 19.672 0 19.1166 0 18.432V0.555519C0 0.432812 0.0971981 0.335938 0.220316 0.335938H7.9508C13.3032 0.335938 15.9081 3.18404 15.9081 7.49171V7.48525ZM10.1151 7.48525C10.1151 6.35505 9.39581 5.52194 7.9508 5.52194H5.73469V9.4744H7.9508C9.31157 9.4744 10.1151 8.7317 10.1151 7.48525Z" fill="#495DA9"/>
<path d="M30.85 10.9147V19.6721H26.8325C26.3076 19.6721 25.8605 19.233 25.8605 18.6776V12.1289C25.8605 11.0245 25.083 10.1978 23.8647 10.1978C22.6465 10.1978 21.8689 11.0245 21.8689 12.1289V19.6721H16.8535V0.32959H21.8689V7.15599C22.5882 6.16142 23.7546 5.33476 25.6921 5.33476C30.0984 5.33476 30.85 8.87389 30.85 10.9147Z" fill="#495DA9"/>
<path d="M45.8711 5.66385C46.396 5.66385 46.8431 6.10301 46.8431 6.65842V18.6773C46.8431 19.2327 46.4025 19.6719 45.8711 19.6719H41.8536V18.5417C41.0501 19.4523 39.8837 20.0077 38.1666 20.0077C33.8121 20.0077 31.6543 16.3329 31.6543 12.684C31.6543 9.03507 33.8186 5.33447 38.1666 5.33447C39.8837 5.33447 41.0501 5.91572 41.8536 6.8005V5.6703H45.8711V5.66385ZM41.4389 14.0596C42.2813 11.8509 41.076 10.1653 39.1904 10.1653C37.6352 10.1653 36.6697 11.218 36.6697 12.6775C36.6697 14.4859 38.2054 15.6806 40.5058 14.9444C40.8816 14.8217 41.3028 14.4277 41.4389 14.0596Z" fill="#495DA9"/>
<path d="M56.1217 5.41183C56.5948 5.32787 57.0354 5.6637 57.0354 6.1287V9.88741C57.0354 10.3266 56.6725 10.6624 56.2578 10.6366C53.2058 10.5268 52.8494 12.3222 52.8494 14.3953V19.6717H47.834V5.6637H52.8494V7.8466C53.6011 6.57432 54.8193 5.68953 56.1217 5.41828V5.41183Z" fill="#495DA9"/>
<path d="M79.4372 10.9145V18.6774C79.4372 19.2328 78.9965 19.672 78.4652 19.672H74.4477V11.8833C74.4477 10.8047 73.7803 10.1977 72.8148 10.1977C71.8493 10.1977 71.2077 10.8047 71.2077 11.8833V19.672H66.1923V11.8833C66.1923 10.8047 65.5573 10.1977 64.5853 10.1977C63.6133 10.1977 62.9524 10.8047 62.9524 11.8833V19.672H58.9349C58.41 19.672 57.9629 19.2328 57.9629 18.6774V6.65853C57.9629 6.10312 58.4035 5.66396 58.9349 5.66396H62.9524V6.79415C63.6717 5.96749 64.7538 5.32812 66.4191 5.32812C68.4149 5.32812 69.6072 6.12895 70.2746 7.18165C71.1624 6.16124 72.4648 5.32812 74.4347 5.32812C78.6726 5.32812 79.4501 8.86726 79.4501 10.9081L79.4372 10.9145Z" fill="#495DA9"/>
<path d="M95.235 0.555519V5.30881C95.235 5.43152 95.1378 5.52839 95.0146 5.52839H90.6926V18.432C90.6926 19.1231 90.1353 19.672 89.4743 19.672H85.2041C85.068 19.672 84.9579 19.5622 84.9579 19.4266V5.52194H80.6617C80.5386 5.52194 80.4414 5.42506 80.4414 5.30235V0.555519C80.4414 0.432812 80.5386 0.335938 80.6617 0.335938H95.0211C95.1442 0.335938 95.2414 0.432812 95.2414 0.555519H95.235Z" fill="#495DA9"/>
<path d="M107.65 13.0653C107.65 13.5884 107.21 14.034 106.678 14.034H97.8658C98.2805 15.3902 99.3367 16.1588 100.97 16.1588C101.942 16.1588 102.713 15.7713 103.212 15.3579C103.432 15.1384 103.769 15.1384 104.041 15.274L106.231 16.5721C106.62 16.824 106.704 17.3471 106.426 17.7023C105.292 19.0585 103.296 19.995 100.963 19.995C96.2264 19.995 93.0059 17.0371 93.0059 12.6713C93.0059 8.55738 96.1097 5.32178 100.432 5.32178C104.339 5.32178 107.806 8.0278 107.637 13.0588L107.65 13.0653ZM103.05 11.328C102.745 10.004 101.883 9.17091 100.445 9.17091C99.1423 9.17091 98.2546 10.0557 97.8658 11.328H103.05Z" fill="#495DA9"/>
<path d="M118.121 14.5052C118.342 14.2534 118.704 14.2275 119.009 14.3954L122.061 16.2748C122.45 16.4944 122.534 17.0175 122.255 17.3533C120.927 19.0131 118.821 20.0077 116.326 20.0077C111.92 20.0077 108.758 16.94 108.758 12.684C108.758 8.42799 111.92 5.33447 116.326 5.33447C118.821 5.33447 120.927 6.32905 122.255 7.98883C122.534 8.3182 122.45 8.84778 122.061 9.06736L119.009 10.9467C118.704 11.1146 118.342 11.0823 118.121 10.8628C117.648 10.4236 117.039 10.1717 116.32 10.1717C114.881 10.1717 113.799 11.1405 113.799 12.684C113.799 14.2275 114.881 15.1704 116.32 15.1704C117.039 15.1704 117.648 14.9186 118.121 14.5052Z" fill="#495DA9"/>
<path d="M137.387 10.9147V19.6721H133.37C132.845 19.6721 132.398 19.233 132.398 18.6776V12.1289C132.398 11.0245 131.62 10.1978 130.402 10.1978C129.184 10.1978 128.406 11.0245 128.406 12.1289V19.6721H123.391V0.32959H128.406V7.15599C129.125 6.16142 130.292 5.33476 132.229 5.33476C136.635 5.33476 137.387 8.87389 137.387 10.9147Z" fill="#495DA9"/>
<path d="M150.69 15.3061C150.69 18.2639 148.474 20.0012 144.34 20.0012C141.845 20.0012 139.325 19.336 138.353 17.5148C138.158 17.1015 138.353 16.6042 138.793 16.4621L141.787 15.5515C142.117 15.4417 142.454 15.5515 142.649 15.8033C142.902 16.1908 143.4 16.5202 144.282 16.5202C145.254 16.5202 145.72 16.0811 145.72 15.4998C145.72 14.6409 144.528 14.5892 142.895 14.2275C140.18 13.6463 138.489 12.6775 138.489 9.91985C138.489 6.99425 141.23 5.33447 144.755 5.33447C146.861 5.33447 149.051 6.19342 149.99 8.01466C150.185 8.42799 149.965 8.92528 149.492 9.06736L146.913 9.67444C146.608 9.75839 146.278 9.6486 146.109 9.39673C145.856 9.00923 145.416 8.76382 144.781 8.76382C143.893 8.76382 143.342 9.15132 143.342 9.81652C143.342 10.6755 144.586 10.7853 145.727 11.0048C149.245 11.754 150.69 12.7486 150.69 15.3125V15.3061Z" fill="#495DA9"/>
<path d="M172.28 9.99742C172.28 15.713 168.12 20.0271 162.301 20.0271C156.482 20.0271 152.322 15.7195 152.322 9.99742C152.322 4.27538 156.482 0 162.301 0C168.12 0 172.28 4.30767 172.28 9.99742Z" fill="#5FB54A"/>
<path d="M187.36 10.9144V19.6719H183.342C182.817 19.6719 182.37 19.2327 182.37 18.6773V12.1286C182.37 11.0242 181.593 10.1976 180.374 10.1976C179.156 10.1976 178.379 11.0242 178.379 12.1286V19.6719H173.363V5.66385H178.379V7.15571C179.098 6.16113 180.264 5.33447 182.202 5.33447C186.608 5.33447 187.36 8.87361 187.36 10.9144Z" fill="#5FB54A"/>
<path d="M189.939 0.32959H193.956V19.6657H189.939C189.414 19.6657 188.967 19.2265 188.967 18.6711V1.32416C188.967 0.768753 189.407 0.32959 189.939 0.32959Z" fill="#5FB54A"/>
<path d="M206.04 5.66406H209.365C209.889 5.66406 210.252 6.18718 210.058 6.68447C208.891 9.58424 205.567 17.9025 204.874 19.6656C204.012 21.8227 202.768 25.0002 199.386 25.0002C198.887 25.0002 198.329 24.942 197.83 24.8645C197.467 24.7806 197.221 24.477 197.221 24.1218V21.39C197.221 21.0025 197.552 20.6731 197.966 20.6731C199.049 20.6989 199.826 20.1758 200.267 18.8519C200.072 18.3546 196.385 9.70694 195.109 6.69739C194.914 6.22593 195.245 5.67698 195.802 5.67698H199.074C199.599 5.67698 200.046 6.00635 200.241 6.50364L202.541 12.9684L204.867 6.50364C205.036 6.00635 205.502 5.67698 206.034 5.67698L206.04 5.66406Z" fill="#5FB54A"/>
<path d="M164.886 7.42684L164.925 12.5418C164.938 13.9755 163.778 15.1509 162.333 15.1574C160.895 15.1703 159.715 14.0143 159.709 12.5741V12.8453L159.67 7.45913C159.67 6.02539 160.836 4.85645 162.275 4.85645C163.7 4.85645 164.867 5.99956 164.886 7.42038V7.42684Z" fill="#495DA9" stroke="#495DA9" stroke-width="1.25" stroke-linejoin="round"/>
<path d="M164.886 7.42722L164.906 9.99116L159.689 10.0299L159.67 7.46597C159.67 6.03223 160.836 4.86328 162.275 4.86328C163.7 4.86328 164.867 6.0064 164.886 7.42722Z" fill="white" stroke="#495DA9" stroke-width="0.74" stroke-miterlimit="10"/>
</g>
<defs>
<clipPath id="clip0_654_2043">
<rect width="216" height="25" fill="white"/>
</clipPath>
</defs>
</svg>
